<svg width="64" height="64" viewBox="0 0 64 64" fill="none" xmlns="http://www.w3.org/2000/svg">
<path d="M32.0007 47.7693C32.7634 47.7693 33.4029 47.5113 33.919 46.9952C34.4351 46.479 34.6931 45.8396 34.6931 45.0768C34.6931 44.3141 34.4351 43.6746 33.919 43.1585C33.4029 42.6429 32.7634 42.3852 32.0007 42.3852C31.2379 42.3852 30.5984 42.6429 30.0823 43.1585C29.5662 43.6746 29.3082 44.3141 29.3082 45.0768C29.3082 45.8396 29.5662 46.479 30.0823 46.9952C30.5984 47.5113 31.2379 47.7693 32.0007 47.7693ZM32.0015 35.5902C32.7104 35.5902 33.304 35.3504 33.7823 34.871C34.2612 34.3921 34.5006 33.7985 34.5006 33.0902V18.0902C34.5006 17.3818 34.2609 16.7879 33.7815 16.3085C33.302 15.8296 32.7081 15.5902 31.9998 15.5902C31.2909 15.5902 30.6973 15.8296 30.219 16.3085C29.7401 16.7879 29.5007 17.3818 29.5007 18.0902V33.0902C29.5007 33.7985 29.7404 34.3921 30.2198 34.871C30.6993 35.3504 31.2932 35.5902 32.0015 35.5902ZM32.0065 63.6668C27.6265 63.6668 23.5095 62.8357 19.6556 61.1735C15.8018 59.5113 12.4495 57.2554 9.59898 54.406C6.74843 51.5566 4.49148 48.2057 2.82815 44.3535C1.16537 40.5013 0.333984 36.3854 0.333984 32.006C0.333984 27.626 1.1651 23.5091 2.82732 19.6552C4.48954 15.8013 6.74537 12.449 9.59482 9.5985C12.4443 6.74794 15.7951 4.491 19.6473 2.82766C23.4995 1.16488 27.6154 0.333496 31.9948 0.333496C36.3748 0.333496 40.4918 1.16461 44.3457 2.82683C48.1995 4.48905 51.5518 6.74489 54.4023 9.59433C57.2529 12.4438 59.5098 15.7946 61.1732 19.6468C62.8359 23.4991 63.6673 27.6149 63.6673 31.9943C63.6673 36.3743 62.8362 40.4913 61.174 44.3452C59.5118 48.1991 57.2559 51.5513 54.4065 54.4018C51.557 57.2524 48.2062 59.5093 44.354 61.1727C40.5018 62.8354 36.3859 63.6668 32.0065 63.6668ZM32.0007 58.6668C39.4451 58.6668 45.7506 56.0835 50.9173 50.9168C56.084 45.7502 58.6673 39.4446 58.6673 32.0002C58.6673 24.5557 56.084 18.2502 50.9173 13.0835C45.7506 7.91683 39.4451 5.3335 32.0007 5.3335C24.5562 5.3335 18.2507 7.91683 13.084 13.0835C7.91732 18.2502 5.33398 24.5557 5.33398 32.0002C5.33398 39.4446 7.91732 45.7502 13.084 50.9168C18.2507 56.0835 24.5562 58.6668 32.0007 58.6668Z" fill="#C0C3C8"/>
</svg>
