<svg width="76" height="60" viewBox="0 0 76 60" fill="none" xmlns="http://www.w3.org/2000/svg">
<path d="M61.9769 30.0996C61.9769 43.3784 51.2688 54.142 38.0583 54.142C24.8489 54.142 14.1396 43.3785 14.1396 30.0996C14.1396 16.8218 24.8489 6.05713 38.0583 6.05713C51.2688 6.05713 61.9769 16.8219 61.9769 30.0996Z" fill="#1A1918"/>
<path d="M38.461 20.7441L44.6507 36.1001L35.3013 28.6973L38.461 20.7441ZM49.4569 39.6374L39.9359 16.6059C39.6641 15.9416 39.1206 15.5902 38.461 15.5902C37.8002 15.5902 37.2172 15.9416 36.9454 16.6059L26.4955 41.8686H30.0702L34.2069 31.4526L46.5517 41.4774C47.0482 41.8809 47.4064 42.0634 47.8721 42.0634C48.8047 42.0634 49.6199 41.3607 49.6199 40.3463C49.6199 40.1812 49.5619 39.9192 49.4569 39.6374Z" fill="white"/>
</svg>
