<svg width="78" height="60" viewBox="0 0 78 60" fill="none" xmlns="http://www.w3.org/2000/svg">
<path fill-rule="evenodd" clip-rule="evenodd" d="M12.2998 41.2727C18.5255 41.2727 23.5725 36.2257 23.5725 30C23.5725 23.7742 18.5255 18.7273 12.2998 18.7273C6.07405 18.7273 1.02708 23.7742 1.02708 30C1.02708 36.2257 6.07405 41.2727 12.2998 41.2727ZM12.2998 42C18.9272 42 24.2998 36.6274 24.2998 30C24.2998 23.3726 18.9272 18 12.2998 18C5.67238 18 0.299805 23.3726 0.299805 30C0.299805 36.6274 5.67238 42 12.2998 42Z" fill="#232428"/>
<path fill-rule="evenodd" clip-rule="evenodd" d="M5.79981 27.5455C5.79981 27.333 3.52708 24.7727 4.98163 23.1818C6.52528 21.4935 7.79982 24.2727 9.25436 24.1364C9.69981 24.0946 11.1828 22.5904 15.1635 24.1364C16.0271 24.4718 18.2822 21.806 19.2544 23.0455C21.0725 25.3636 18.4816 26.8636 18.4816 27.4545C18.4816 27.8636 18.7515 28.8481 18.9816 29.7273C19.7438 32.6388 20.6439 36.367 21.8907 36.8636C22.0442 36.9248 21.0453 37.7821 19.9962 38.6826C19.3926 39.2006 18.7721 39.7333 18.3453 40.1364L13.9373 41.4546L9.46399 41.2739L5.05105 39.0463L2.9957 36.9994L2.57254 36.3372C4.19742 34.7812 4.82796 32.1148 5.29981 30C5.59585 28.6733 5.79981 28.5956 5.79981 27.5455ZM8.92392 28.4352C9.04629 28.5445 10.3907 28.1673 10.3907 27.8994C10.3907 27.6315 8.66857 27.4545 8.66857 27.4545C8.66857 27.4545 8.60528 28.1504 8.92392 28.4352ZM14.2089 27.8994C14.2089 28.1673 15.5534 28.5445 15.6758 28.4352C15.9944 28.1504 15.931 27.4545 15.931 27.4545C15.931 27.4545 14.2089 27.6315 14.2089 27.8994Z" fill="#232428"/>
<path fill-rule="evenodd" clip-rule="evenodd" d="M12.3453 28.1818C13.8562 28.1818 15.118 30.2177 15.118 31.808C15.118 33.3984 14.2979 34.5455 12.3453 34.5455C10.1193 34.5455 9.57253 33.3984 9.57253 31.808C9.57253 30.2177 10.8343 28.1818 12.3453 28.1818ZM12.2998 28.9091C11.8907 28.9697 11.2089 29.1363 11.2089 29.9091C11.2089 30.0632 11.3049 30.0574 11.4815 30.0464C11.6178 30.0382 11.802 30.0268 12.0271 30.0838V31.0962L10.8687 31.505C10.8002 31.5293 10.7543 31.5941 10.7543 31.6668C10.7543 31.785 10.8713 31.8678 10.9829 31.8284L12.14 31.42C12.2434 31.3835 12.3562 31.3835 12.4595 31.42L13.6167 31.8284C13.7283 31.8678 13.8453 31.785 13.8453 31.6668C13.8453 31.5941 13.7994 31.5293 13.7309 31.505L12.5726 31.0962V30.0838C12.7976 30.0268 12.9818 30.0382 13.1181 30.0464C13.2947 30.0574 13.3907 30.0632 13.3907 29.9091C13.3907 29.1363 12.7089 28.9697 12.2998 28.9091Z" fill="white"/>
<path d="M32.5899 34.2594C32.146 34.2594 31.698 34.2433 31.2461 34.2109C30.7942 34.1867 30.3988 34.1302 30.0598 34.0412V25.886C30.2374 25.8537 30.427 25.8254 30.6287 25.8012C30.8306 25.7689 31.0364 25.7446 31.2461 25.7285C31.456 25.7123 31.6618 25.7002 31.8635 25.6921C32.0733 25.684 32.2712 25.68 32.4567 25.68C32.9651 25.68 33.4373 25.7204 33.873 25.8012C34.3089 25.8739 34.6841 25.9991 34.9989 26.1768C35.3218 26.3546 35.5719 26.5888 35.7495 26.8797C35.9271 27.1705 36.0158 27.53 36.0158 27.9582C36.0158 28.354 35.9189 28.6933 35.7252 28.976C35.5396 29.2588 35.2773 29.485 34.9384 29.6546C35.4468 29.8243 35.8221 30.0748 36.0642 30.406C36.3063 30.7372 36.4274 31.1573 36.4274 31.6662C36.4274 32.5306 36.1126 33.181 35.4831 33.6172C34.8537 34.0453 33.8892 34.2594 32.5899 34.2594ZM31.5609 30.3817V32.9386C31.7303 32.9546 31.912 32.9668 32.1057 32.9749C32.2994 32.9831 32.477 32.987 32.6384 32.987C32.953 32.987 33.2436 32.9668 33.5099 32.9264C33.7844 32.8861 34.0184 32.8174 34.212 32.7204C34.4139 32.6154 34.5712 32.4781 34.6841 32.3084C34.8052 32.1388 34.8658 31.9207 34.8658 31.6541C34.8658 31.1774 34.6923 30.8462 34.3452 30.6605C33.9981 30.4746 33.518 30.3817 32.9046 30.3817H31.5609ZM31.5609 29.182H32.6384C33.2194 29.182 33.6754 29.1012 34.0062 28.9397C34.3371 28.77 34.5026 28.4711 34.5026 28.043C34.5026 27.6391 34.329 27.3523 33.982 27.1826C33.6431 27.013 33.1991 26.9281 32.6504 26.9281C32.4164 26.9281 32.2065 26.9322 32.021 26.9403C31.8434 26.9483 31.69 26.9604 31.5609 26.9766V29.182ZM37.2291 31.024C37.2291 30.4666 37.3098 29.9778 37.4712 29.5577C37.6407 29.1376 37.8627 28.7903 38.137 28.5156C38.4114 28.2329 38.7262 28.0227 39.0813 27.8854C39.4364 27.74 39.7996 27.6673 40.1708 27.6673C41.0423 27.6673 41.7203 27.9379 42.2045 28.4792C42.6969 29.0205 42.943 29.8283 42.943 30.9028C42.943 30.9836 42.9389 31.0764 42.9309 31.1815C42.9309 31.2785 42.9268 31.3673 42.9188 31.448H38.7423C38.7827 31.9571 38.9602 32.353 39.275 32.6357C39.5978 32.9104 40.0618 33.0476 40.6671 33.0476C41.0223 33.0476 41.345 33.0152 41.6355 32.9507C41.9342 32.8861 42.1682 32.8174 42.3376 32.7446L42.5314 33.9444C42.4508 33.9847 42.3377 34.0291 42.1924 34.0776C42.0552 34.118 41.8938 34.1544 41.7082 34.1867C41.5307 34.2271 41.337 34.2594 41.127 34.2836C40.9173 34.3079 40.7034 34.32 40.4855 34.32C39.9286 34.32 39.4444 34.2392 39.0328 34.0776C38.6212 33.908 38.2823 33.6778 38.0159 33.3869C37.7496 33.088 37.5519 32.7407 37.4228 32.3448C37.2938 31.9409 37.2291 31.5006 37.2291 31.024ZM41.4782 30.3696C41.4782 30.1676 41.45 29.9778 41.3934 29.8001C41.337 29.6143 41.2522 29.4567 41.1392 29.3275C41.0344 29.1902 40.9012 29.0851 40.7397 29.0124C40.5864 28.9316 40.4008 28.8912 40.1829 28.8912C39.9569 28.8912 39.7592 28.9357 39.5897 29.0245C39.4202 29.1053 39.275 29.2144 39.1539 29.3517C39.041 29.489 38.9522 29.6465 38.8876 29.8243C38.823 30.002 38.7786 30.1838 38.7544 30.3696H41.4782ZM46.3602 33.1325C46.8122 33.1325 47.1552 33.1082 47.3892 33.0598V31.4359C47.3085 31.4117 47.1915 31.3874 47.0381 31.3632C46.8848 31.339 46.7153 31.3268 46.5297 31.3268C46.3684 31.3268 46.2029 31.339 46.0334 31.3632C45.8721 31.3874 45.7227 31.432 45.5855 31.4965C45.4563 31.5612 45.3515 31.6541 45.2708 31.7753C45.19 31.8883 45.1497 32.0338 45.1497 32.2115C45.1497 32.5589 45.2586 32.8013 45.4766 32.9386C45.6945 33.0678 45.989 33.1325 46.3602 33.1325ZM46.2392 27.6673C46.7234 27.6673 47.131 27.7279 47.4618 27.8491C47.7927 27.9703 48.055 28.1399 48.2487 28.358C48.4505 28.5762 48.5916 28.8427 48.6724 29.1578C48.7612 29.4648 48.8056 29.8041 48.8056 30.1757V34.017C48.5796 34.0655 48.2367 34.1221 47.7766 34.1867C47.3247 34.2594 46.8122 34.2958 46.2392 34.2958C45.86 34.2958 45.5128 34.2594 45.1982 34.1867C44.8834 34.114 44.613 33.9968 44.3871 33.8353C44.1692 33.6738 43.9956 33.4637 43.8665 33.2052C43.7454 32.9467 43.685 32.6275 43.685 32.2478C43.685 31.8844 43.7535 31.5774 43.8906 31.3268C44.036 31.0764 44.2296 30.8746 44.4718 30.721C44.7138 30.5594 44.9924 30.4463 45.307 30.3817C45.6299 30.309 45.9647 30.2726 46.3119 30.2726C46.4732 30.2726 46.6427 30.2848 46.8203 30.309C46.9978 30.3251 47.1874 30.3575 47.3892 30.406V30.1636C47.3892 29.9939 47.3691 29.8324 47.3288 29.6789C47.2884 29.5254 47.2157 29.3921 47.1108 29.279C47.014 29.1578 46.8808 29.0649 46.7114 29.0003C46.55 28.9357 46.3442 28.9033 46.094 28.9033C45.755 28.9033 45.4443 28.9276 45.1618 28.976C44.8793 29.0245 44.6494 29.0811 44.4718 29.1457L44.2902 27.9582C44.4758 27.8936 44.7462 27.8289 45.1013 27.7643C45.4563 27.6997 45.8357 27.6673 46.2392 27.6673ZM54.0858 29.1457C53.9648 29.1053 53.7953 29.0649 53.5774 29.0245C53.3675 28.976 53.1214 28.9518 52.8389 28.9518C52.6775 28.9518 52.5041 28.9679 52.3184 29.0003C52.1409 29.0326 52.0157 29.0609 51.9431 29.0851V34.1624H50.4783V28.1278C50.7609 28.0227 51.1119 27.9258 51.5315 27.837C51.9593 27.74 52.4314 27.6916 52.9479 27.6916C53.0447 27.6916 53.1578 27.6997 53.2869 27.7158C53.416 27.7239 53.5451 27.74 53.6742 27.7643C53.8034 27.7804 53.9284 27.8046 54.0495 27.837C54.1706 27.8612 54.2674 27.8854 54.34 27.9097L54.0858 29.1457ZM57.6851 25.68C58.9037 25.68 59.8359 25.9022 60.4815 26.3465C61.1352 26.7908 61.462 27.4856 61.462 28.4307C61.462 28.9236 61.3733 29.3477 61.1957 29.7031C61.0263 30.0505 60.7761 30.3372 60.4451 30.5635C60.1143 30.7816 59.7107 30.9431 59.2346 31.0482C58.7585 31.1532 58.2137 31.2058 57.6004 31.2058H56.8377V34.1624H55.3124V25.886C55.6674 25.8052 56.0589 25.7527 56.4867 25.7285C56.9224 25.6962 57.3219 25.68 57.6851 25.68ZM57.7941 27.0008C57.4066 27.0008 57.0879 27.013 56.8377 27.0372V29.897H57.5762C58.3106 29.897 58.8754 29.796 59.2709 29.5941C59.6664 29.384 59.8641 28.9922 59.8641 28.4186C59.8641 28.1439 59.8116 27.9137 59.7068 27.7279C59.6018 27.5421 59.4566 27.3967 59.2709 27.2917C59.0853 27.1866 58.8633 27.1139 58.6052 27.0735C58.3548 27.0251 58.0846 27.0008 57.7941 27.0008ZM64.4043 33.1325C64.8562 33.1325 65.1993 33.1082 65.4333 33.0598V31.4359C65.3525 31.4117 65.2356 31.3874 65.0823 31.3632C64.9288 31.339 64.7594 31.3268 64.5738 31.3268C64.4124 31.3268 64.247 31.339 64.0774 31.3632C63.9161 31.3874 63.7667 31.432 63.6296 31.4965C63.5004 31.5612 63.3956 31.6541 63.3148 31.7753C63.234 31.8883 63.1937 32.0338 63.1937 32.2115C63.1937 32.5589 63.3027 32.8013 63.5206 32.9386C63.7385 33.0678 64.033 33.1325 64.4043 33.1325ZM64.2832 27.6673C64.7675 27.6673 65.175 27.7279 65.5059 27.8491C65.8367 27.9703 66.099 28.1399 66.2928 28.358C66.4946 28.5762 66.6358 28.8427 66.7164 29.1578C66.8052 29.4648 66.8496 29.8041 66.8496 30.1757V34.017C66.6237 34.0655 66.2807 34.1221 65.8206 34.1867C65.3687 34.2594 64.8562 34.2958 64.2832 34.2958C63.904 34.2958 63.557 34.2594 63.2422 34.1867C62.9274 34.114 62.6571 33.9968 62.4311 33.8353C62.2132 33.6738 62.0397 33.4637 61.9106 33.2052C61.7895 32.9467 61.729 32.6275 61.729 32.2478C61.729 31.8844 61.7976 31.5774 61.9348 31.3268C62.08 31.0764 62.2737 30.8746 62.5158 30.721C62.7579 30.5594 63.0364 30.4463 63.3512 30.3817C63.674 30.309 64.0088 30.2726 64.3559 30.2726C64.5172 30.2726 64.6868 30.2848 64.8644 30.309C65.0418 30.3251 65.2314 30.3575 65.4333 30.406V30.1636C65.4333 29.9939 65.4131 29.8324 65.3728 29.6789C65.3325 29.5254 65.2598 29.3921 65.1549 29.279C65.058 29.1578 64.9248 29.0649 64.7554 29.0003C64.594 28.9357 64.3882 28.9033 64.138 28.9033C63.799 28.9033 63.4883 28.9276 63.2058 28.976C62.9234 29.0245 62.6934 29.0811 62.5158 29.1457L62.3343 27.9582C62.5198 27.8936 62.7903 27.8289 63.1454 27.7643C63.5003 27.6997 63.8798 27.6673 64.2832 27.6673ZM69.8661 33.1082C70.2534 33.1082 70.5359 33.0637 70.7135 32.9749C70.8911 32.878 70.9798 32.7164 70.9798 32.4902C70.9798 32.2802 70.883 32.1065 70.6893 31.9692C70.5036 31.8318 70.193 31.6823 69.7571 31.5208C69.4908 31.4238 69.2447 31.3229 69.0188 31.2179C68.8008 31.1047 68.6111 30.9755 68.4497 30.83C68.2883 30.6846 68.1592 30.511 68.0624 30.309C67.9736 30.099 67.9292 29.8445 67.9292 29.5456C67.9292 28.9639 68.1431 28.5075 68.5708 28.1763C68.9985 27.837 69.5795 27.6673 70.314 27.6673C70.6853 27.6673 71.0404 27.7037 71.3793 27.7764C71.7183 27.841 71.9724 27.9057 72.142 27.9703L71.8756 29.1578C71.7143 29.0851 71.5085 29.0205 71.2582 28.9639C71.008 28.8993 70.7175 28.867 70.3866 28.867C70.088 28.867 69.8459 28.9195 69.6603 29.0245C69.4748 29.1215 69.3819 29.275 69.3819 29.485C69.3819 29.59 69.398 29.6829 69.4302 29.7637C69.4706 29.8445 69.5352 29.9212 69.624 29.9939C69.7127 30.0586 69.8297 30.1272 69.975 30.1999C70.1204 30.2645 70.2978 30.3332 70.5077 30.406C70.8548 30.5352 71.1492 30.6644 71.3914 30.7937C71.6336 30.9149 71.8312 31.0564 71.9846 31.2179C72.146 31.3714 72.263 31.5491 72.3357 31.751C72.4083 31.953 72.4446 32.1954 72.4446 32.4781C72.4446 33.084 72.2186 33.5444 71.7666 33.8596C71.3228 34.1665 70.6853 34.32 69.854 34.32C69.2972 34.32 68.8492 34.2715 68.5103 34.1746C68.1713 34.0858 67.9332 34.013 67.7961 33.9565L68.0502 32.7325C68.2682 32.8214 68.5264 32.9063 68.825 32.987C69.1317 33.0678 69.4787 33.1082 69.8661 33.1082ZM75.0356 33.1082C75.423 33.1082 75.7054 33.0637 75.883 32.9749C76.0606 32.878 76.1493 32.7164 76.1493 32.4902C76.1493 32.2802 76.0524 32.1065 75.8588 31.9692C75.6732 31.8318 75.3624 31.6823 74.9266 31.5208C74.6603 31.4238 74.4142 31.3229 74.1882 31.2179C73.9703 31.1047 73.7806 30.9755 73.6192 30.83C73.4579 30.6846 73.3287 30.511 73.2318 30.309C73.1432 30.099 73.0986 29.8445 73.0986 29.5456C73.0986 28.9639 73.3126 28.5075 73.7403 28.1763C74.168 27.837 74.7491 27.6673 75.4835 27.6673C75.8548 27.6673 76.2099 27.7037 76.5488 27.7764C76.8878 27.841 77.142 27.9057 77.3115 27.9703L77.0452 29.1578C76.8838 29.0851 76.678 29.0205 76.4278 28.9639C76.1775 28.8993 75.887 28.867 75.5561 28.867C75.2576 28.867 75.0154 28.9195 74.8298 29.0245C74.6442 29.1215 74.5514 29.275 74.5514 29.485C74.5514 29.59 74.5674 29.6829 74.5998 29.7637C74.6402 29.8445 74.7047 29.9212 74.7935 29.9939C74.8822 30.0586 74.9993 30.1272 75.1445 30.1999C75.2898 30.2645 75.4674 30.3332 75.6772 30.406C76.0242 30.5352 76.3188 30.6644 76.5609 30.7937C76.803 30.9149 77.0007 31.0564 77.154 31.2179C77.3154 31.3714 77.4326 31.5491 77.5052 31.751C77.5778 31.953 77.6141 32.1954 77.6141 32.4781C77.6141 33.084 77.388 33.5444 76.9362 33.8596C76.4922 34.1665 75.8548 34.32 75.0234 34.32C74.4666 34.32 74.0187 34.2715 73.6798 34.1746C73.3408 34.0858 73.1027 34.013 72.9656 33.9565L73.2197 32.7325C73.4376 32.8214 73.6959 32.9063 73.9946 32.987C74.3012 33.0678 74.6482 33.1082 75.0356 33.1082Z" fill="#232428"/>
</svg>
