<?xml version="1.0" encoding="UTF-8"?>
<svg version="1.1" xmlns="http://www.w3.org/2000/svg" width="720" height="720">
<path d="M0 0 C237.6 0 475.2 0 720 0 C720 237.6 720 475.2 720 720 C482.4 720 244.8 720 0 720 C0 482.4 0 244.8 0 0 Z " fill="#FEFEFE" transform="translate(0,0)"/>
<path d="M0 0 C9.73928573 8.79731682 18.70311761 17.85494383 26.8359375 28.17578125 C28.02509766 29.65691406 28.02509766 29.65691406 29.23828125 31.16796875 C69.18120825 81.77496315 87.74519382 146.58702414 80.90966797 210.64282227 C80.31517992 215.50356996 79.60432706 220.33982768 78.8359375 225.17578125 C78.72910645 225.90249023 78.62227539 226.62919922 78.51220703 227.37792969 C70.8641023 279.04345161 44.57402572 324.88217233 8.8359375 362.17578125 C8.05605469 362.99691406 7.27617188 363.81804687 6.47265625 364.6640625 C0.96856813 370.32457231 -4.96977132 375.28990986 -11.1640625 380.17578125 C-12.12828125 380.95695312 -13.0925 381.738125 -14.0859375 382.54296875 C-49.02863835 410.3020179 -90.36003596 426.2357711 -134.1640625 433.17578125 C-135.71347534 433.44503418 -135.71347534 433.44503418 -137.29418945 433.71972656 C-147.0212353 435.29757769 -156.52841469 435.49211343 -166.3515625 435.42578125 C-167.16898926 435.42267944 -167.98641602 435.41957764 -168.82861328 435.41638184 C-180.70470052 435.36351919 -192.42368214 435.119308 -204.1640625 433.17578125 C-204.97584961 433.046875 -205.78763672 432.91796875 -206.62402344 432.78515625 C-267.53903464 422.88102195 -324.77397886 390.84659915 -363.1640625 342.17578125 C-363.94523437 341.2115625 -364.72640625 340.24734375 -365.53125 339.25390625 C-391.42619085 306.65771873 -406.74106134 268.70442237 -414.59570312 228.09033203 C-414.94435117 226.30246245 -415.30276404 224.51642153 -415.67773438 222.73388672 C-427.72891672 165.14073625 -411.05284737 99.90031117 -379.8125 51.18359375 C-372.61539345 40.21181772 -364.78121609 30.06607573 -356.1640625 20.17578125 C-355.57238281 19.47195312 -354.98070312 18.768125 -354.37109375 18.04296875 C-345.63352933 7.73048531 -335.82595637 -1.53661217 -325.1640625 -9.82421875 C-323.69066406 -11.00564453 -323.69066406 -11.00564453 -322.1875 -12.2109375 C-251.83229282 -68.20500151 -158.16124701 -78.51037621 0 0 Z " fill="#232428" transform="translate(528.1640625,174.82421875)"/>
<path d="M0 0 C0.7396701 -0.00261841 1.47934021 -0.00523682 2.24142456 -0.00793457 C16.75743486 -0.0133893 30.74021777 1.53844676 45 4.3125 C46.16958252 4.5288208 46.16958252 4.5288208 47.36279297 4.74951172 C82.25500734 11.33822238 116.2677098 27.21458 144 49.3125 C144.87398438 49.99441406 145.74796875 50.67632812 146.6484375 51.37890625 C195.41563033 90.20674453 226.95012382 147.22157083 234.17333984 209.15649414 C239.67827712 264.58944213 226.95988626 326.72431719 192 371.3125 C180.21317692 366.3375422 174.28220872 346.23516268 169.77050781 335.34472656 C164.54401079 322.31037882 160.25191685 309.10842884 156.60693359 295.55322266 C155.77528347 292.48287478 154.88773733 289.42954109 154 286.375 C148.7438564 267.95695583 143.86762087 249.43005638 138.95947266 230.91699219 C138.06853211 227.56995754 137.16680683 224.22604367 136.26171875 220.8828125 C126.44308409 184.36772056 126.44308409 184.36772056 130.36328125 176.6171875 C131.00652344 175.81539062 131.64976562 175.01359375 132.3125 174.1875 C133.03953125 173.25292969 133.7665625 172.31835938 134.515625 171.35546875 C135.79003335 169.7945189 137.06477882 168.23382993 138.34570312 166.67822266 C148.46024649 154.36934974 157.44383995 141.60512186 157.3125 125 C157.30686035 124.25089355 157.3012207 123.50178711 157.29541016 122.72998047 C156.99842434 109.13626353 150.92800293 98.15541538 142.02734375 88.08984375 C137.76754161 84.35533513 133.33120635 83.79983523 127.8515625 83.9453125 C113.98363385 85.73104578 100.89911685 95.22626914 89.25 102.5 C70.09339068 114.44302327 70.09339068 114.44302327 59 113.3125 C55.21880312 112.33108263 51.59800827 110.98223314 47.9375 109.625 C39.44177446 106.63403274 31.01301261 104.18545073 22.1875 102.375 C21.22900146 102.17624268 20.27050293 101.97748535 19.28295898 101.77270508 C-6.78709839 96.65589706 -32.15871604 98.96818154 -56.125 110.6875 C-63.37287606 114.13024113 -67.69196493 114.21989703 -75.375 111.6875 C-83.54250726 108.44501076 -90.37566475 103.80313959 -97.40673828 98.60205078 C-114.19057896 85.98530517 -114.19057896 85.98530517 -134.51953125 82.703125 C-143.92223444 84.34938953 -150.6366942 90.68468731 -156 98.3125 C-158.98668846 103.66179277 -161.60544849 109.13119305 -162 115.3125 C-162.07347656 115.94414062 -162.14695312 116.57578125 -162.22265625 117.2265625 C-163.8352457 141.29135897 -147.63848255 164.35477617 -135 183.3125 C-134.27450131 194.73910433 -137.19720334 205.25139059 -140.41357422 216.09643555 C-142.6412662 223.7450197 -144.48132099 231.46069616 -146.25701904 239.22299194 C-152.22040939 265.2549591 -158.30481637 291.75664899 -169 316.3125 C-169.34885254 317.11880859 -169.69770508 317.92511719 -170.05712891 318.75585938 C-177.04555103 334.68456647 -185.5050369 349.20713144 -197 362.3125 C-217.6910645 342.91323899 -227.84706664 301.05292152 -232.125 274.1875 C-232.29386719 273.16785156 -232.46273437 272.14820313 -232.63671875 271.09765625 C-233.11365478 268.17219826 -233.56497026 265.24445985 -234 262.3125 C-234.10820068 261.6023877 -234.21640137 260.89227539 -234.32788086 260.16064453 C-235.36878391 252.30630099 -235.28746487 244.34757526 -235.3125 236.4375 C-235.31511841 235.64514954 -235.31773682 234.85279907 -235.32043457 234.03643799 C-235.32567142 219.15294614 -233.84989613 204.9431448 -231 190.3125 C-230.84515137 189.47138672 -230.69030273 188.63027344 -230.53076172 187.76367188 C-223.60669236 150.49791654 -205.70435393 115.62574684 -182 86.3125 C-181.54931152 85.75208008 -181.09862305 85.19166016 -180.63427734 84.61425781 C-172.84105431 75.00216429 -164.25846902 66.50994337 -155 58.3125 C-154.48469727 57.85391602 -153.96939453 57.39533203 -153.43847656 56.92285156 C-140.20106468 45.24174195 -125.65446854 35.59544027 -110.05029297 27.39257812 C-108.2234478 26.43021053 -106.40956402 25.44332947 -104.59765625 24.453125 C-72.55602737 7.51960962 -36.01911162 0.12294072 0 0 Z " fill="#FEFEFE" transform="translate(360,124.6875)"/>
<path d="M0 0 C19.61012124 12.46221651 29.96375834 34.5363055 35 56.4375 C35.29390625 57.65373047 35.29390625 57.65373047 35.59375 58.89453125 C37.07606694 68.17326518 36.5564948 78.4171405 34 87.4375 C33.731875 88.41332031 33.46375 89.38914062 33.1875 90.39453125 C31.11973731 97.24399516 28.44575199 102.82867842 24 108.4375 C23.54496094 109.04078125 23.08992188 109.6440625 22.62109375 110.265625 C14.22016528 120.00456035 -0.63212897 125.09142783 -13 126.4375 C-30.79269063 127.66354372 -49.01090872 125.92833525 -63.90625 115.26953125 C-74.02937149 106.41179995 -78.60536321 93.54708584 -80 80.4375 C-80.77111361 67.80153631 -80.26253897 56.44651072 -76 44.4375 C-75.67056396 43.49052246 -75.67056396 43.49052246 -75.33447266 42.52441406 C-68.98841484 24.5506537 -57.22873618 6.50526798 -39.8125 -2.4375 C-25.67716018 -9.1418237 -13.44634328 -7.30549359 0 0 Z " fill="#FDFDFD" transform="translate(383,328.5625)"/>
<path d="M0 0 C4.37008498 3.17824363 8.17380746 7.22454737 9.890625 12.375 C10.015625 16 10.015625 16 9.890625 19.375 C8.890625 20.375 8.890625 20.375 5.29296875 20.47265625 C3.80465245 20.46691272 2.31636204 20.45389891 0.828125 20.4375 C-1.79125 20.416875 -4.410625 20.39625 -7.109375 20.375 C-7.109375 27.635 -7.109375 34.895 -7.109375 42.375 C-5.5625 42.766875 -4.015625 43.15875 -2.421875 43.5625 C14.765625 48.25 14.765625 48.25 18.890625 52.375 C18.515625 55 18.515625 55 17.890625 57.375 C10.16462059 56.83417969 4.07339708 54.75144581 -3.00390625 51.7265625 C-12.6728157 47.86532861 -19.94740193 50.3583988 -29.359375 53.9375 C-31.09099201 54.59197951 -32.82530652 55.23937542 -34.5625 55.87890625 C-35.69413574 56.30925171 -35.69413574 56.30925171 -36.84863281 56.74829102 C-39.35618112 57.44341807 -41.51943722 57.48429332 -44.109375 57.375 C-44.439375 55.725 -44.769375 54.075 -45.109375 52.375 C-42.3180118 50.10796582 -39.80789983 48.72206652 -36.4140625 47.55078125 C-35.53363281 47.24462891 -34.65320313 46.93847656 -33.74609375 46.62304688 C-32.83472656 46.31431641 -31.92335938 46.00558594 -30.984375 45.6875 C-30.06527344 45.36716797 -29.14617187 45.04683594 -28.19921875 44.71679688 C-21.39852079 42.375 -21.39852079 42.375 -19.109375 42.375 C-19.109375 35.115 -19.109375 27.855 -19.109375 20.375 C-24.33000775 20.41457157 -24.33000775 20.41457157 -29.55053711 20.46508789 C-31.40371259 20.47223945 -33.25686808 20.4252852 -35.109375 20.375 C-35.439375 20.045 -35.769375 19.715 -36.109375 19.375 C-36.05770208 13.12257638 -35.03198688 8.48027512 -30.671875 3.84765625 C-21.94019916 -4.4191387 -10.59250343 -5.85601816 0 0 Z " fill="#292A2E" transform="translate(373.109375,340.625)"/>
<path d="M0 0 C0.33945421 7.12853835 -0.11225495 13.65389541 -4.16796875 19.7578125 C-7.11318969 21.75478533 -9.51789278 21.29887787 -13 21 C-21.34471466 18.92045817 -28.97950509 16.01463922 -36 11 C-35.9375 9.1875 -35.9375 9.1875 -35 7 C-29.50212487 3.94808813 -23.63901932 2.92829064 -17.5 1.8125 C-16.13294922 1.54663086 -16.13294922 1.54663086 -14.73828125 1.27539062 C-9.73838795 0.34106713 -5.08475375 -0.202552 0 0 Z " fill="#F7F7F7" transform="translate(436,307)"/>
<path d="M0 0 C11.34736098 0.69718955 24.75583856 1.77338702 35 7 C35.69140625 9.09765625 35.69140625 9.09765625 36 11 C30.73334027 14.92198065 25.55246785 16.97878145 19.3125 18.8125 C18.20757202 19.14060669 18.20757202 19.14060669 17.08032227 19.4753418 C13.35637224 20.52395549 9.89867181 21.49632538 6 21 C1.99531001 17.10972972 0.13368082 12.97217016 -0.1171875 7.39453125 C-0.12415116 4.92591427 -0.08775572 2.46691089 0 0 Z " fill="#F9F9F9" transform="translate(284,307)"/>
</svg>
