<svg width="76" height="60" viewBox="0 0 76 60" fill="none" xmlns="http://www.w3.org/2000/svg">
<path d="M33.3678 53.7233C29.1693 52.8552 25.2517 50.9188 22.1762 48.1914C14.2806 41.1896 11.8405 30.1903 16.0115 20.4033C17.0358 17.9998 18.7011 15.5607 20.7644 13.4417L22.5834 11.5735L22.7117 22.5079C22.8345 32.9741 22.8622 33.5014 23.358 34.8203C24.35 37.4588 25.4134 39.1387 27.2441 40.9592C31.9732 45.6617 38.9098 46.8353 44.8065 43.9306C50.3491 41.2003 53.8433 35.2637 53.4372 29.2671C53.1645 25.2392 51.8078 22.2855 48.8788 19.3426C46.664 17.1173 44.0582 15.6638 41.2213 15.0711C38.3349 14.4681 38.4734 14.38 38.4734 16.8194V18.9255L40.0558 19.2166C46.184 20.344 50.237 26.3527 48.9597 32.4166C48.5517 34.3534 47.6417 36.0636 46.181 37.639C43.9611 40.0331 40.8378 41.1775 38.1107 41.1722C33.6014 41.1636 29.8361 38.605 28.0111 34.8215C28.0111 34.8215 27.533 33.74 27.3794 33.0717C26.4759 29.1416 27.0534 20.8684 27.0534 20.8684L26.9835 8.77157L27.6987 8.40229C28.092 8.19918 28.4693 8.033 28.537 8.033C28.6048 8.033 28.6907 13.5891 28.7281 20.3798C28.7281 20.3798 27.8596 29.2815 28.9329 32.6928C29.0877 33.185 29.3817 34.0268 29.3817 34.0268C30.3226 35.9407 31.8305 37.6243 33.7898 38.5509C35.277 39.2544 36.0259 39.5727 38.2262 39.5727C39.6638 39.5727 40.9374 39.1196 42.4029 38.4466C44.1304 37.6533 46.1121 35.55 46.8444 33.6295C48.8621 28.3385 46.0526 22.646 40.6403 21.0587C38.4283 20.4099 38.4734 20.3742 38.4734 22.7758V24.8736L39.5352 25.1572C43.3625 26.1793 44.5303 31.3014 41.5258 33.9334C40.4642 34.8633 39.5077 35.2743 37.8344 35.2743C36.0465 35.2743 34.3303 34.1937 33.4479 32.5364C32.9179 31.5409 32.8732 30.5965 32.8732 30.164C32.8732 26.169 32.7865 18.984 32.7865 18.984L32.715 6.65915L33.2644 6.52288C33.5666 6.44793 34.7881 6.26248 35.9788 6.11076C40.017 5.59623 45.9912 6.91575 50.0048 9.20867C55.4767 12.3347 59.617 17.7048 61.3409 23.9118C61.9339 26.0468 62 26.6676 62 30.1022C62 33.5214 61.9324 34.1627 61.352 36.2511C59.0073 44.6871 53.0431 50.7177 44.5149 53.2753C42.7201 53.8136 41.8794 53.9163 38.7123 53.9837C36.1566 54.0381 34.5001 53.9574 33.3678 53.7233Z" fill="#C60C30"/>
</svg>
