<?xml version="1.0" encoding="UTF-8"?>
<svg version="1.1" xmlns="http://www.w3.org/2000/svg" width="412" height="412">
<path d="M0 0 C0.68513672 0.32838867 1.37027344 0.65677734 2.07617188 0.99511719 C17.40426749 8.40580804 30.72106665 18.2169848 43 30 C43.95261719 30.88945313 44.90523438 31.77890625 45.88671875 32.6953125 C53.65013513 40.07468621 60.06413906 48.09510732 66 57 C66.63784424 57.95205322 66.63784424 57.95205322 67.28857422 58.92333984 C82.64135124 82.28010212 90.31754935 109.0931931 93.69042969 136.57910156 C93.93110012 138.46118987 94.21419795 140.33787265 94.51416016 142.21142578 C95.07231799 146.56393498 95.24651868 150.84359991 95.3515625 155.2265625 C95.38710739 156.55975273 95.38710739 156.55975273 95.42337036 157.9198761 C95.49724129 160.82147042 95.56255792 163.72313804 95.625 166.625 C95.64679321 167.62064972 95.66858643 168.61629944 95.69104004 169.64212036 C96.84195812 224.65237385 96.84195812 224.65237385 92 250 C91.83516113 250.89106445 91.67032227 251.78212891 91.50048828 252.70019531 C83.16612651 296.53847561 59.16393425 336.33248963 21.99560547 361.68896484 C16.19409747 365.5003299 10.17103479 368.83060879 4 372 C3.32888184 372.35046387 2.65776367 372.70092773 1.96630859 373.06201172 C-20.63270547 384.74669861 -45.7631021 390.11173465 -71 392 C-71.75812988 392.05784668 -72.51625977 392.11569336 -73.29736328 392.17529297 C-121.6693748 395.63557059 -175.65034671 395.73441301 -220 374 C-220.68513672 373.67161133 -221.37027344 373.34322266 -222.07617188 373.00488281 C-237.40426749 365.59419196 -250.72106665 355.7830152 -263 344 C-263.95261719 343.11054688 -264.90523438 342.22109375 -265.88671875 341.3046875 C-273.65013513 333.92531379 -280.06413906 325.90489268 -286 317 C-286.42522949 316.36529785 -286.85045898 315.7305957 -287.28857422 315.07666016 C-302.64135124 291.71989788 -310.31754935 264.9068069 -313.69042969 237.42089844 C-313.93110012 235.53881013 -314.21419795 233.66212735 -314.51416016 231.78857422 C-315.07231799 227.43606502 -315.24651868 223.15640009 -315.3515625 218.7734375 C-315.37525909 217.88464401 -315.39895569 216.99585052 -315.42337036 216.0801239 C-315.49724129 213.17852958 -315.56255792 210.27686196 -315.625 207.375 C-315.65768982 205.88152542 -315.65768982 205.88152542 -315.69104004 204.35787964 C-316.84195812 149.34762615 -316.84195812 149.34762615 -312 124 C-311.83516113 123.10893555 -311.67032227 122.21787109 -311.50048828 121.29980469 C-303.16700602 77.46615054 -279.16769488 37.67178162 -242.00439453 12.31542969 C-236.20145491 8.50711803 -230.17520635 5.16128373 -224 2 C-223.07453369 1.52288574 -223.07453369 1.52288574 -222.13037109 1.03613281 C-199.41673249 -10.51685796 -174.32449165 -16.22786922 -149 -18 C-148.2476709 -18.05639648 -147.4953418 -18.11279297 -146.72021484 -18.17089844 C-98.34425989 -21.63878238 -44.35365842 -21.7363758 0 0 Z " fill="#000000" transform="translate(316,19)"/>
<path d="M0 0 C0.70310303 0.00182281 1.40620605 0.00364563 2.13061523 0.00552368 C36.9688135 0.15742868 69.33012571 13.02890259 95.25 36.3125 C95.80413574 36.81007812 96.35827148 37.30765625 96.92919922 37.8203125 C121.45872955 60.2438856 138.8566399 94.37214711 140.41113281 127.77490234 C140.45715268 131.74598908 140.49666149 135.71614178 140.5 139.6875 C140.50067474 140.40558838 140.50134949 141.12367676 140.50204468 141.86352539 C140.48594417 152.63852913 140.03186231 162.84420688 137.25 173.3125 C137.07839355 173.96492676 136.90678711 174.61735352 136.72998047 175.28955078 C131.28130345 195.50175658 122.01624008 214.46531665 108.25 230.3125 C107.56421875 231.11945313 106.8784375 231.92640625 106.171875 232.7578125 C96.14657579 244.26166304 85.24567528 253.39315511 72.25 261.3125 C71.67475586 261.66940918 71.09951172 262.02631836 70.50683594 262.39404297 C41.77298374 279.94262912 3.75011528 285.46785329 -29.08984375 278.28515625 C-30.29769531 277.96417969 -31.50554687 277.64320313 -32.75 277.3125 C-33.40242676 277.14089355 -34.05485352 276.96928711 -34.72705078 276.79248047 C-54.93925658 271.34380345 -73.90281665 262.07874008 -89.75 248.3125 C-90.55695313 247.62671875 -91.36390625 246.9409375 -92.1953125 246.234375 C-118.87906247 222.98019791 -135.34084089 191.43764363 -139.75 156.3125 C-139.98837252 151.19038019 -139.99568992 146.06460079 -140 140.9375 C-140.00067474 140.21941162 -140.00134949 139.50132324 -140.00204468 138.76147461 C-139.98594417 127.98647087 -139.53186231 117.78079312 -136.75 107.3125 C-136.57839355 106.66007324 -136.40678711 106.00764648 -136.22998047 105.33544922 C-126.38033898 68.79759237 -103.39000883 37.84600278 -70.71264648 18.65234375 C-60.17380898 12.65556099 -49.36057078 7.88356389 -37.6875 4.5625 C-36.99221191 4.36366211 -36.29692383 4.16482422 -35.58056641 3.95996094 C-23.8172811 0.79448882 -12.14640116 -0.0655446 0 0 Z " fill="#3F444E" transform="translate(205.75,51.6875)"/>
<path d="M0 0 C21 0 21 0 28 3 C32.30157084 7.64116853 33.30412004 10.57220363 33.21484375 16.7421875 C32.91676778 19.87469499 32.07276127 21.64134062 30 24 C28.35212953 24.71186034 26.68625443 25.38455853 25 26 C25.36351562 26.47421387 25.72703125 26.94842773 26.1015625 27.43701172 C27.73934936 29.57925793 29.36973945 31.72702158 31 33.875 C31.57234375 34.62136719 32.1446875 35.36773437 32.734375 36.13671875 C33.27578125 36.85214844 33.8171875 37.56757813 34.375 38.3046875 C34.87773437 38.96452637 35.38046875 39.62436523 35.8984375 40.30419922 C37 42 37 42 37 44 C25.84118216 45.32619804 25.84118216 45.32619804 21 44 C17.56696624 40.79208321 15.74374708 37.33124275 14 33 C13.67 36.63 13.34 40.26 13 44 C8.71 44 4.42 44 0 44 C0 29.48 0 14.96 0 0 Z " fill="#FBFBFB" transform="translate(198,170)"/>
<path d="M0 0 C5.28 0 10.56 0 16 0 C17.32 2.31 18.64 4.62 20 7 C20.66 7 21.32 7 22 7 C22.53625 5.845 23.0725 4.69 23.625 3.5 C24.89453125 1.55859375 24.89453125 1.55859375 27 0 C32.3921242 -0.64488722 37.59507661 -0.40012946 43 0 C39.26613681 6.00953129 35.54689638 11.83874228 30.96875 17.24609375 C29.80233982 18.93944762 29.80233982 18.93944762 30.26928711 20.82983398 C31.11342741 23.33687145 32.27689907 25.26121766 33.72265625 27.4765625 C34.52993164 28.72953125 34.52993164 28.72953125 35.35351562 30.0078125 C35.91748047 30.87148437 36.48144531 31.73515625 37.0625 32.625 C38.18245688 34.34370795 39.29855152 36.06494088 40.41015625 37.7890625 C40.90652588 38.54912598 41.40289551 39.30918945 41.91430664 40.09228516 C43 42 43 42 43 44 C37.72 44 32.44 44 27 44 C22 34.25 22 34.25 22 32 C19.9574198 33.88545864 18.227668 35.55151115 16.9609375 38.046875 C15.50660733 40.69281764 14.46227369 42.21080459 12 44 C6.58469308 44.70774308 1.42805722 44.46415691 -4 44 C0.91466066 35.97219417 6.26499571 28.45160421 12 21 C10.68042691 18.27265515 9.24143803 15.70136429 7.6171875 13.14453125 C7.17246094 12.44005859 6.72773438 11.73558594 6.26953125 11.00976562 C5.33229856 9.53303344 4.39479426 8.0564736 3.45703125 6.58007812 C3.01488281 5.87947266 2.57273437 5.17886719 2.1171875 4.45703125 C1.71097168 3.81741455 1.30475586 3.17779785 0.88623047 2.51879883 C0 1 0 1 0 0 Z " fill="#FCFCFC" transform="translate(258,170)"/>
<path d="M0 0 C1.57929272 0.99936768 3.13636206 2.03361638 4.69140625 3.0703125 C4.06074868 6.28884081 2.9111993 8.57832319 1.12890625 11.3203125 C0.67386719 12.02671875 0.21882813 12.733125 -0.25 13.4609375 C-0.77400391 14.25757813 -0.77400391 14.25757813 -1.30859375 15.0703125 C-2.31921875 14.4103125 -3.32984375 13.7503125 -4.37109375 13.0703125 C-8.14439642 10.93159843 -10.93816543 10.41062521 -15.30859375 11.0703125 C-17.95097221 12.29466405 -17.95097221 12.29466405 -19.30859375 15.0703125 C-19.82808539 19.60473237 -19.7550239 23.73102205 -18.30859375 28.0703125 C-14.73225062 29.26242688 -12.06794692 29.32957824 -8.30859375 29.0703125 C-5.59732991 27.64409566 -5.59732991 27.64409566 -3.30859375 26.0703125 C-2.31859375 26.0703125 -1.32859375 26.0703125 -0.30859375 26.0703125 C0.58574782 27.47484893 1.45633817 28.89453119 2.31640625 30.3203125 C2.80367187 31.10921875 3.2909375 31.898125 3.79296875 32.7109375 C4.69140625 35.0703125 4.69140625 35.0703125 4.0859375 37.2265625 C0.96297507 41.35552123 -4.09879239 42.75730947 -9.06640625 43.4609375 C-16.25823564 43.74139881 -21.67298239 42.40846475 -27.02734375 37.4921875 C-32.35731461 31.69192509 -35.00434967 25.61663087 -34.71484375 17.69140625 C-33.67846957 11.00479978 -30.63108236 5.72346649 -25.30859375 1.5703125 C-17.03100766 -3.87627761 -8.85936793 -4.99379821 0 0 Z " fill="#FAFAFA" transform="translate(136.30859375,171.9296875)"/>
<path d="M0 0 C10.89 0 21.78 0 33 0 C33 3.96 33 7.92 33 12 C29.7 12 26.4 12 23 12 C23 22.56 23 33.12 23 44 C18.38 44 13.76 44 9 44 C9 33.44 9 22.88 9 12 C6.03 12 3.06 12 0 12 C0 8.04 0 4.08 0 0 Z " fill="#F8F9F9" transform="translate(162,170)"/>
<path d="M0 0 C4.29 0 8.58 0 13 0 C13 14.52 13 29.04 13 44 C8.71 44 4.42 44 0 44 C0 29.48 0 14.96 0 0 Z " fill="#F3F3F4" transform="translate(239,170)"/>
<path d="M0 0 C4.29 0 8.58 0 13 0 C13 14.52 13 29.04 13 44 C8.71 44 4.42 44 0 44 C0 29.48 0 14.96 0 0 Z " fill="#F9F9FA" transform="translate(145,170)"/>
<path d="M0 0 C2.16796875 0.41015625 2.16796875 0.41015625 4.79296875 2.47265625 C6.61209557 6.35897263 6.4291101 8.32999305 5.16796875 12.41015625 C3.04296875 14.91015625 3.04296875 14.91015625 0.16796875 16.41015625 C-4.09641898 16.48497007 -6.06921276 16.05855197 -9.33203125 13.28515625 C-11.31001219 9.49402611 -10.96314799 7.48217652 -9.83203125 3.41015625 C-7.03037597 -0.26274549 -4.37820468 -0.16427195 0 0 Z " fill="#F4F5F5" transform="translate(247.83203125,217.58984375)"/>
<path d="M0 0 C4.10703441 0.85563217 5.55401113 2.24378009 8 5.625 C8.63127485 9.62307408 8.67917484 11.63235985 6.375 15 C3.41546447 17.02494536 1.5948199 17.625 -2 17.625 C-4.74716387 15.85460551 -6.53145922 14.56208156 -8 11.625 C-8.54035146 7.57236402 -8.34199395 6.08769769 -5.875 2.75 C-3 0.625 -3 0.625 0 0 Z " fill="#F7F7F7" transform="translate(152,149.375)"/>
<path d="M0 0 C0.99 0.103125 1.98 0.20625 3 0.3125 C5 3.3125 5 3.3125 4.625 6.5 C4.41875 7.428125 4.2125 8.35625 4 9.3125 C1.1875 9.9375 1.1875 9.9375 -2 10.3125 C-2.99 9.6525 -3.98 8.9925 -5 8.3125 C-5.3125 5.3125 -5.3125 5.3125 -5 2.3125 C-3 0.3125 -3 0.3125 0 0 Z " fill="#95989D" transform="translate(309,169.6875)"/>
<path d="M0 0 C6.875 0.875 6.875 0.875 8 2 C8.3125 4.375 8.3125 4.375 8 7 C6.25 8.8125 6.25 8.8125 4 10 C2.68 10 1.36 10 0 10 C0 6.7 0 3.4 0 0 Z " fill="#474C55" transform="translate(211,180)"/>
<path d="M0 0 C0.99 0.33 1.98 0.66 3 1 C2.67 2.98 2.34 4.96 2 7 C0.02 7.33 -1.96 7.66 -4 8 C-3.67 6.35 -3.34 4.7 -3 3 C-2.34 3.33 -1.68 3.66 -1 4 C-0.67 2.68 -0.34 1.36 0 0 Z " fill="#6B6F76" transform="translate(311,172)"/>
</svg>
