<svg width="76" height="60" viewBox="0 0 76 60" fill="none" xmlns="http://www.w3.org/2000/svg">
<path d="M0 32.8265C0 27.4104 3.56354 23.6192 8.65907 23.6192C12.0894 23.6192 14.8869 25.3794 16.0193 28.0874C16.1525 28.3244 16.1858 28.5952 16.1858 28.866C16.1858 29.4415 15.7195 29.8815 15.1867 29.8815C15.1534 29.8815 15.1534 29.8815 15.1201 29.8815C14.6205 29.8815 14.1876 29.543 14.0543 29.0691C13.1884 26.8688 11.1902 25.6164 8.69238 25.6164C4.89571 25.6164 2.19807 28.5614 2.19807 32.8265C2.19807 37.0578 4.8291 40.0028 8.65907 40.0028C11.1569 40.0028 13.0552 38.7842 14.0543 36.2116C14.1876 35.7377 14.6205 35.3992 15.0868 35.3992C15.6862 35.3992 16.1525 35.8731 16.1525 36.4824V36.5162C16.1525 36.7532 16.1192 36.9901 16.0193 37.2271C14.9869 40.1382 12.2226 42 8.65907 42C3.53024 42 0 38.2426 0 32.8265Z" fill="black"/>
<path d="M28.9413 40.5106C28.9413 41.2553 28.5416 41.7292 27.8422 41.7292C27.1429 41.7292 26.7765 41.2553 26.7765 40.5106V19.2525C26.7765 18.4739 27.1762 18 27.8755 18C28.5749 18 28.9413 18.4401 28.9413 19.2525V24.0931H32.7046C33.3707 24.0931 33.7704 24.4654 33.7704 25.0748C33.7704 25.6841 33.3707 26.0564 32.7046 26.0564H28.9413V40.5106Z" fill="black"/>
<path d="M45.8265 25.2779C45.8265 25.8533 45.3935 26.3272 44.8273 26.3272C44.794 26.3272 44.7607 26.3272 44.7274 26.3272C44.4277 26.3272 44.1613 26.2257 43.9281 26.0903C43.3953 25.8195 42.7958 25.6841 42.163 25.7179C39.8317 25.7179 38.333 27.7828 38.333 30.3893V40.5106C38.333 41.2891 37.9667 41.7292 37.2673 41.7292C36.5679 41.7292 36.1683 41.2891 36.1683 40.5106V25.1425C36.1683 24.3639 36.5679 23.89 37.2673 23.89C37.9667 23.89 38.333 24.33 38.333 25.1425V25.5825C39.2989 24.2962 40.8309 23.5853 42.4295 23.6192C43.4286 23.5853 44.3944 23.8223 45.2603 24.2962C45.6266 24.4993 45.8265 24.8716 45.8265 25.2779Z" fill="black"/>
<path d="M48.0578 25.1425C48.0578 24.3639 48.4575 23.89 49.1569 23.89C49.8563 23.89 50.2226 24.33 50.2226 25.1425V40.5106C50.2226 41.2553 49.823 41.7292 49.1236 41.7292C48.4242 41.7292 48.0578 41.2553 48.0578 40.5106V25.1425Z" fill="black"/>
<path d="M20.0491 25.1425C20.0491 24.3639 20.4487 23.89 21.1481 23.89C21.8475 23.89 22.2138 24.33 22.2138 25.1425V40.5106C22.2138 41.2553 21.8142 41.7292 21.1148 41.7292C20.4154 41.7292 20.0491 41.2553 20.0491 40.5106V25.1425Z" fill="black"/>
<path d="M21.1481 21.5205C22.1046 21.5205 22.8799 20.7324 22.8799 19.7602C22.8799 18.7881 22.1046 18 21.1481 18C20.1917 18 19.4163 18.7881 19.4163 19.7602C19.4163 20.7324 20.1917 21.5205 21.1481 21.5205Z" fill="black"/>
<path d="M61.6459 34.1805L55.6845 41.2891C55.4847 41.5599 55.1516 41.7292 54.8186 41.7292C54.2524 41.7292 53.7862 41.2891 53.7862 40.7137C53.7862 40.409 53.8861 40.1382 54.0859 39.9351L60.3138 32.7588L54.319 25.7518C54.0859 25.5487 53.9527 25.244 53.9527 24.9394C53.9527 24.3639 54.4189 23.89 55.0184 23.9238H55.0517C55.3847 23.9238 55.6845 24.0931 55.8843 24.3639L61.6792 31.3032L67.4741 24.3639C67.674 24.0931 67.9737 23.9238 68.3067 23.9238C68.8729 23.89 69.3725 24.33 69.3725 24.9055V24.9394C69.3725 25.244 69.2393 25.5487 69.0061 25.7518L63.0114 32.7588L69.2393 39.9351C69.4391 40.1382 69.539 40.4429 69.539 40.7137C69.539 41.2891 69.0727 41.763 68.5066 41.7292C68.1735 41.7292 67.8405 41.5599 67.6407 41.2891L61.6459 34.1805Z" fill="black"/>
<path d="M73.7353 39.8674H73.1025V41.5599H72.8361V39.8674H72.2033V39.6643H73.7353V39.8674ZM76 39.6643V41.5599H75.7669V40.3413L75.8002 39.969L75.7669 40.1044L75.1674 41.5261H74.9676L74.3681 40.1044L74.3015 39.969L74.3348 40.3413V41.5599H74.1017V39.6643H74.4014L74.9676 41.0183L75.0675 41.2553L75.1341 41.0183L75.7003 39.6643H76Z" fill="black"/>
<path d="M61.6459 21.5205C62.6024 21.5205 63.3777 20.7324 63.3777 19.7602C63.3777 18.7881 62.6024 18 61.6459 18C60.6895 18 59.9141 18.7881 59.9141 19.7602C59.9141 20.7324 60.6895 21.5205 61.6459 21.5205Z" fill="black"/>
</svg>
