<?xml version="1.0" encoding="UTF-8"?>
<svg version="1.1" xmlns="http://www.w3.org/2000/svg" width="768" height="532">
<path d="M0 0 C9.02505883 6.69381252 16.29469282 15.61597276 23.3125 24.3125 C27.725387 29.76871405 32.44471028 34.88615451 37.2265625 40.015625 C41.53105514 44.63353761 45.64312405 49.40761607 49.73828125 54.2109375 C50.76283092 55.41162041 51.78757646 56.61213621 52.8125 57.8125 C53.32981689 58.41868164 53.84713379 59.02486328 54.38012695 59.64941406 C57.58502229 63.3907082 60.85209278 67.06115383 64.1875 70.6875 C67.35830742 74.14015696 70.38035031 77.65530966 73.3125 81.3125 C77.38748445 86.36836567 81.75231994 91.08187223 86.20019531 95.80566406 C90.24239798 100.12191437 93.995808 104.60485366 97.69140625 109.22265625 C100.35279458 112.42442799 103.15462246 115.46234918 106 118.5 C109.64888449 122.39576281 113.15698438 126.33334284 116.5 130.5 C120.83927344 135.90436782 125.50396415 140.94955123 130.2265625 146.015625 C134.53105514 150.63353761 138.64312405 155.40761607 142.73828125 160.2109375 C143.76283092 161.41162041 144.78757646 162.61213621 145.8125 163.8125 C146.32981689 164.41868164 146.84713379 165.02486328 147.38012695 165.64941406 C150.58502229 169.3907082 153.85209278 173.06115383 157.1875 176.6875 C161.28990938 181.15866528 165.16250921 185.7726484 168.9609375 190.50390625 C170.70403212 192.6376945 172.51003006 194.66175679 174.375 196.6875 C179.50221513 202.68108666 181.16814224 210.22061891 181 218 C179.430463 229.7943848 174.177315 236.87530261 165 244 C161.87830475 246.11167331 158.66721379 248.05871327 155.4375 250 C153.56302914 251.14326492 151.68935664 252.28783963 149.81640625 253.43359375 C148.85621582 254.01995605 147.89602539 254.60631836 146.90673828 255.21044922 C142.19691494 258.11008008 137.53548826 261.08443893 132.875 264.0625 C131.03259946 265.23835549 129.19015193 266.41413735 127.34765625 267.58984375 C126.45320801 268.1607373 125.55875977 268.73163086 124.63720703 269.31982422 C120.53601256 271.9327126 116.42505542 274.53004145 112.3125 277.125 C111.54019043 277.61234619 110.76788086 278.09969238 109.97216797 278.60180664 C108.42373014 279.57871597 106.87522781 280.55552305 105.32666016 281.53222656 C101.38339755 284.01983357 97.44179232 286.51006414 93.5 289 C91.9166744 290.00001224 90.33334107 291.00001225 88.75 292 C87.96625 292.495 87.1825 292.99 86.375 293.5 C63.8125 307.75 63.8125 307.75 41.25 322 C40.46584717 322.49532227 39.68169434 322.99064453 38.8737793 323.50097656 C37.29476256 324.49811353 35.71549924 325.49486013 34.13598633 326.49121094 C30.10946912 329.03182574 26.08782747 331.57965861 22.07421875 334.140625 C-6.19580384 352.15107068 -6.19580384 352.15107068 -17.625 352.3125 C-18.28628906 352.34150391 -18.94757813 352.37050781 -19.62890625 352.40039062 C-29.88682665 352.52836852 -38.15105779 346.96041282 -46.4375 341.5 C-48.37996276 340.24180829 -50.32267547 338.98400239 -52.265625 337.7265625 C-53.71098633 336.78538574 -53.71098633 336.78538574 -55.18554688 335.82519531 C-59.32948462 333.13781861 -63.5068769 330.50479621 -67.6875 327.875 C-69.24359698 326.8933994 -70.7995869 325.91162906 -72.35546875 324.9296875 C-73.50281494 324.20604004 -73.50281494 324.20604004 -74.67333984 323.46777344 C-78.61660245 320.98016643 -82.55820768 318.48993586 -86.5 316 C-88.0833256 314.99998776 -89.66665893 313.99998775 -91.25 313 C-113.41666667 299 -135.58333333 285 -157.75 271 C-158.53407227 270.50483887 -159.31814453 270.00967773 -160.12597656 269.49951172 C-161.70620948 268.50138435 -163.28628812 267.50301269 -164.86621094 266.50439453 C-168.87073857 263.9736982 -172.87801872 261.44755798 -176.890625 258.9296875 C-180.85402835 256.44111264 -184.80954747 253.94053783 -188.75732422 251.42724609 C-190.23390829 250.48754323 -191.71206207 249.55030163 -193.19189453 248.61572266 C-208.27143747 239.06060892 -208.27143747 239.06060892 -212 233 C-212.40605469 232.37222656 -212.81210938 231.74445313 -213.23046875 231.09765625 C-217.38734663 223.47907803 -217.01662819 214.65704398 -215.515625 206.3046875 C-212.78755212 197.86993155 -205.87166794 191.39602327 -200 185 C-199.11183594 184.02546875 -198.22367188 183.0509375 -197.30859375 182.046875 C-195.66017315 180.24109343 -194.00917811 178.4376582 -192.35546875 176.63671875 C-190.02448261 174.0274059 -187.81672813 171.3518718 -185.625 168.625 C-181.75781137 163.8285929 -177.65019284 159.3295854 -173.44189453 154.83642578 C-170.32460664 151.48918215 -167.36433518 148.07004094 -164.5 144.5 C-160.16072656 139.09563218 -155.49603585 134.05044877 -150.7734375 128.984375 C-146.46894486 124.36646239 -142.35687595 119.59238393 -138.26171875 114.7890625 C-137.23716908 113.58837959 -136.21242354 112.38786379 -135.1875 111.1875 C-134.67018311 110.58131836 -134.15286621 109.97513672 -133.61987305 109.35058594 C-130.41497771 105.6092918 -127.14790722 101.93884617 -123.8125 98.3125 C-120.62263156 94.83863691 -117.57951106 91.30089975 -114.625 87.625 C-110.23655873 82.18613395 -105.53553588 77.09271096 -100.7734375 71.984375 C-96.46894486 67.36646239 -92.35687595 62.59238393 -88.26171875 57.7890625 C-87.23716908 56.58837959 -86.21242354 55.38786379 -85.1875 54.1875 C-84.67018311 53.58131836 -84.15286621 52.97513672 -83.61987305 52.35058594 C-80.41497771 48.6092918 -77.14790722 44.93884617 -73.8125 41.3125 C-70.64169258 37.85984304 -67.61964969 34.34469034 -64.6875 30.6875 C-60.56467051 25.57607018 -56.16876469 20.77727889 -51.66796875 16.00097656 C-48.73606822 12.88756096 -45.90948451 9.73876268 -43.1875 6.4375 C-32.59912073 -5.77181635 -13.90145865 -7.79069661 0 0 Z " fill="#52CEF8" transform="translate(401,46)"/>
<path d="M0 0 C1.37418091 0.00628418 1.37418091 0.00628418 2.77612305 0.01269531 C9.73038258 0.12838426 16.05770095 0.90131774 22.625 3.3125 C23.68654297 3.66054687 23.68654297 3.66054687 24.76953125 4.015625 C34.45003903 7.91074056 40.81379553 18.50868702 47.14453125 26.36328125 C50.55837809 30.4222645 54.19034941 34.25783662 57.82519531 38.11816406 C61.86739798 42.43441437 65.620808 46.91735366 69.31640625 51.53515625 C71.9777935 54.7369267 74.77960827 57.7748641 77.625 60.8125 C81.25450608 64.68722764 84.74247959 68.60149743 88.0625 72.75 C91.57143139 77.12501972 95.28344505 81.23270909 99.125 85.3125 C103.7511859 90.22558115 108.09770687 95.26371721 112.31640625 100.53515625 C114.97780105 103.73693578 117.77970768 106.77475954 120.625 109.8125 C125.18076645 114.67913221 129.49308799 119.67522428 133.65625 124.88671875 C135.37223261 127.00105446 137.15641715 128.99826666 139 131 C144.12721513 136.99358666 145.79314224 144.53311891 145.625 152.3125 C144.055463 164.1068848 138.802315 171.18780261 129.625 178.3125 C126.50330475 180.42417331 123.29221379 182.37121327 120.0625 184.3125 C118.18802914 185.45576492 116.31435664 186.60033963 114.44140625 187.74609375 C113.48121582 188.33245605 112.52102539 188.91881836 111.53173828 189.52294922 C106.82191494 192.42258008 102.16048826 195.39693893 97.5 198.375 C95.65759946 199.55085549 93.81515193 200.72663735 91.97265625 201.90234375 C91.07820801 202.4732373 90.18375977 203.04413086 89.26220703 203.63232422 C85.16101256 206.2452126 81.05005542 208.84254145 76.9375 211.4375 C76.16519043 211.92484619 75.39288086 212.41219238 74.59716797 212.91430664 C73.04873014 213.89121597 71.50022781 214.86802305 69.95166016 215.84472656 C66.00839755 218.33233357 62.06679232 220.82256414 58.125 223.3125 C56.5416744 224.31251224 54.95834107 225.31251225 53.375 226.3125 C52.59125 226.8075 51.8075 227.3025 51 227.8125 C28.4375 242.0625 28.4375 242.0625 5.875 256.3125 C5.09084717 256.80782227 4.30669434 257.30314453 3.4987793 257.81347656 C1.91976256 258.81061353 0.34049924 259.80736013 -1.23901367 260.80371094 C-5.26553088 263.34432574 -9.28717253 265.89215861 -13.30078125 268.453125 C-41.57080384 286.46357068 -41.57080384 286.46357068 -53 286.625 C-53.66128906 286.65400391 -54.32257813 286.68300781 -55.00390625 286.71289062 C-65.26182665 286.84086852 -73.52605779 281.27291282 -81.8125 275.8125 C-83.75496276 274.55430829 -85.69767547 273.29650239 -87.640625 272.0390625 C-89.08598633 271.09788574 -89.08598633 271.09788574 -90.56054688 270.13769531 C-94.70448462 267.45031861 -98.8818769 264.81729621 -103.0625 262.1875 C-104.61859698 261.2058994 -106.1745869 260.22412906 -107.73046875 259.2421875 C-108.49536621 258.75975586 -109.26026367 258.27732422 -110.04833984 257.78027344 C-114.77655515 254.79747906 -119.50275257 251.81148676 -124.22875977 248.82519531 C-128.3091919 246.24719055 -132.39141047 243.6720826 -136.4765625 241.1015625 C-137.31767578 240.57175781 -138.15878906 240.04195312 -139.02539062 239.49609375 C-140.61463127 238.49513555 -142.20442794 237.4950593 -143.79492188 236.49609375 C-149.0464436 233.1866617 -154.22501662 229.77769659 -159.375 226.3125 C-158.715 225.9825 -158.055 225.6525 -157.375 225.3125 C-155.80218751 225.85521608 -154.23196656 226.40712843 -152.67895508 227.00415039 C-137.8746358 232.5487373 -119.89392923 232.82035338 -105.375 226.3125 C-104.76140625 226.03873535 -104.1478125 225.7649707 -103.515625 225.48291016 C-94.27004574 221.28554457 -85.76322996 216.20140649 -77.31640625 210.58691406 C-73.60079402 208.14784266 -69.82649272 205.80091092 -66.0625 203.4375 C-59.97337511 199.60272955 -53.90921973 195.73307826 -47.875 191.8125 C-39.55010551 186.4055496 -31.16102921 181.10348594 -22.76025391 175.81542969 C-20.43610836 174.3510039 -18.11411211 172.88324131 -15.79296875 171.4140625 C-5.99370006 165.2125879 3.83120285 159.05324191 13.66870117 152.91259766 C23.00885285 147.0796295 32.32162598 141.20390548 41.625 135.3125 C38.08120298 130.44679214 34.44458866 125.87695317 30.3125 121.5 C26.79013928 117.72915665 23.41764264 113.90386882 20.1875 109.875 C15.82359541 104.45341657 11.1407847 99.38407883 6.3984375 94.296875 C2.09394486 89.67896239 -2.01812405 84.90488393 -6.11328125 80.1015625 C-7.13783092 78.90087959 -8.16257646 77.70036379 -9.1875 76.5 C-9.70481689 75.89381836 -10.22213379 75.28763672 -10.75512695 74.66308594 C-13.96002229 70.9217918 -17.22709278 67.25134617 -20.5625 63.625 C-23.75236844 60.15113691 -26.79548894 56.61339975 -29.75 52.9375 C-33.20296319 48.65656162 -36.81819986 44.58631154 -40.5625 40.5625 C-41.07498291 40.00900879 -41.58746582 39.45551758 -42.11547852 38.88525391 C-44.22769201 36.60718135 -46.34690496 34.34152125 -48.5078125 32.109375 C-50.1875 30.3125 -50.1875 30.3125 -52.375 27.3125 C-52.24448958 24.08106197 -51.6344461 22.62128521 -49.546875 20.13671875 C-34.77636873 7.10532048 -19.77463156 -0.12447236 0 0 Z " fill="#0E4895" transform="translate(436.375,111.6875)"/>
<path d="M0 0 C4.98635408 3.70780175 8.56891082 8.05226 12.4375 12.89453125 C15.19318509 16.29023942 18.14299275 19.49063602 21.125 22.6875 C21.64400879 23.24445557 22.16301758 23.80141113 22.69775391 24.37524414 C23.69462073 25.44486218 24.69152641 26.514444 25.68847656 27.58398438 C29.49062013 31.68905376 33.10879896 35.95381885 36.73828125 40.2109375 C37.76283092 41.41162041 38.78757646 42.61213621 39.8125 43.8125 C40.32981689 44.41868164 40.84713379 45.02486328 41.38012695 45.64941406 C44.58502229 49.3907082 47.85209278 53.06115383 51.1875 56.6875 C54.37736844 60.16136309 57.42048894 63.69910025 60.375 67.375 C63.76385969 71.578144 67.31239266 75.56203177 71 79.5 C75.48687068 84.29187904 79.70826298 89.22251617 83.8203125 94.34375 C87.39417917 98.6989997 91.19181502 102.84970857 95 107 C91.20728301 111.39490326 86.34903773 114.03458499 81.4375 117 C79.53208604 118.16460243 77.62714767 119.32998329 75.72265625 120.49609375 C74.28237061 121.37563721 74.28237061 121.37563721 72.81298828 122.27294922 C68.64362727 124.83275306 64.5072095 127.44328021 60.375 130.0625 C59.60019287 130.55298828 58.82538574 131.04347656 58.02709961 131.54882812 C56.46546528 132.53761958 54.90402235 133.52671338 53.34277344 134.51611328 C49.39776818 137.01483587 45.44870355 139.5071275 41.5 142 C36.67808264 145.04434613 31.85698842 148.08996496 27.0390625 151.140625 C19.83316118 155.70175424 12.62557096 160.26008956 5.375 164.75 C4.35148437 165.38421875 3.32796875 166.0184375 2.2734375 166.671875 C0 168 0 168 -1 168 C-1.02332684 146.24317719 -1.04097812 124.48635643 -1.05181217 102.72952366 C-1.05697559 92.62819057 -1.06401915 82.52686523 -1.07543945 72.42553711 C-1.0853849 63.62455536 -1.09185309 54.82357922 -1.09408849 46.02259201 C-1.09539584 41.35953733 -1.09848318 36.69649872 -1.10573006 32.03344917 C-1.11248809 27.64967634 -1.11461741 23.26592629 -1.11310768 18.88214874 C-1.11338411 17.26839766 -1.11539052 15.65464587 -1.11920547 14.04089928 C-1.12413934 11.8473111 -1.12299944 9.6538103 -1.12025452 7.46022034 C-1.12117631 6.2296267 -1.1220981 4.99903307 -1.12304783 3.73114872 C-1 1 -1 1 0 0 Z " fill="#5EC2DC" transform="translate(384,139)"/>
<path d="M0 0 C0.99 0.495 0.99 0.495 2 1 C1.67 1.33 1.34 1.66 1 2 C0.87481177 4.76856867 0.81391795 7.51341126 0.79467773 10.28344727 C0.78477814 11.15166107 0.77487854 12.01987488 0.76467896 12.91439819 C0.73296632 15.79837267 0.70826812 18.68236365 0.68359375 21.56640625 C0.66303264 23.56038351 0.6420364 25.55435632 0.62062073 27.54832458 C0.56531293 32.80740776 0.5159422 38.06653083 0.46777344 43.32568359 C0.41762182 48.68786182 0.36190274 54.04998181 0.30664062 59.41210938 C0.19895262 69.94135655 0.09753144 80.4706542 0 91 C-11.4252292 91.12030048 -18.99418635 86.72274187 -28.4375 80.5 C-30.37996276 79.24180829 -32.32267547 77.98400239 -34.265625 76.7265625 C-35.22919922 76.09911133 -36.19277344 75.47166016 -37.18554688 74.82519531 C-41.32948462 72.13781861 -45.5068769 69.50479621 -49.6875 66.875 C-51.24359698 65.8933994 -52.7995869 64.91162906 -54.35546875 63.9296875 C-55.12036621 63.44725586 -55.88526367 62.96482422 -56.67333984 62.46777344 C-61.40155515 59.48497906 -66.12775257 56.49898676 -70.85375977 53.51269531 C-74.9341919 50.93469055 -79.01641047 48.3595826 -83.1015625 45.7890625 C-83.94267578 45.25925781 -84.78378906 44.72945313 -85.65039062 44.18359375 C-87.23963127 43.18263555 -88.82942794 42.1825593 -90.41992188 41.18359375 C-95.6714436 37.8741617 -100.85001662 34.46519659 -106 31 C-105.34 30.67 -104.68 30.34 -104 30 C-102.42718751 30.54271608 -100.85696656 31.09462843 -99.30395508 31.69165039 C-84.4996358 37.2362373 -66.51892923 37.50785338 -52 31 C-51.07960938 30.58935303 -51.07960938 30.58935303 -50.140625 30.17041016 C-40.91764868 25.98330599 -32.42880615 20.91523177 -24.00292969 15.31396484 C-19.97640637 12.67247917 -15.88910773 10.12570795 -11.8125 7.5625 C-10.19374816 6.5433852 -8.57524128 5.52388116 -6.95703125 4.50390625 C-6.26585205 4.06892822 -5.57467285 3.6339502 -4.86254883 3.18579102 C-3.22796112 2.14513136 -1.61229997 1.07486665 0 0 Z " fill="#225086" transform="translate(383,307)"/>
<path d="M0 0 C10.96617308 0 17.73242097 2.9113217 25.59765625 10.515625 C31.12289065 16.22952594 36.32102718 22.12702379 41.3125 28.3125 C45.725387 33.76871405 50.44471028 38.88615451 55.2265625 44.015625 C58.57139652 47.60400405 61.80549888 51.27742829 65 55 C65.45407227 55.52770996 65.90814453 56.05541992 66.37597656 56.59912109 C71.62477186 62.69938763 76.86094812 68.80678364 82 75 C80 76 80 76 78.08203125 75.51171875 C77.33308594 75.23972656 76.58414063 74.96773438 75.8125 74.6875 C74.21255919 74.11309043 72.60776311 73.5521365 71 73 C69.9584375 72.64035156 68.916875 72.28070313 67.84375 71.91015625 C63.04784027 70.77453941 58.59583056 70.70771718 53.6875 70.75 C52.80126953 70.74226563 51.91503906 70.73453125 51.00195312 70.7265625 C33.26622676 70.77830787 17.86164366 78.19913029 4.83984375 90.10546875 C2.68352437 92.24570282 2.68352437 92.24570282 0 96 C0 64.32 0 32.64 0 0 Z " fill="#23A0DE" transform="translate(383,42)"/>
<path d="M0 0 C2.97 0 5.94 0 9 0 C10.71348735 4.09155867 12.42236208 8.18500311 14.12695312 12.28027344 C14.7077131 13.67370761 15.28973926 15.06661475 15.87304688 16.45898438 C16.71035383 18.45826832 17.54311689 20.45939176 18.375 22.4609375 C19.12910156 24.26763916 19.12910156 24.26763916 19.8984375 26.11083984 C21 29 21 29 21 31 C21.66 31 22.32 31 23 31 C23.11859375 30.29713867 23.2371875 29.59427734 23.359375 28.87011719 C24.05018507 25.77516171 25.06892306 23.02053898 26.25 20.078125 C26.6934375 18.97082031 27.136875 17.86351562 27.59375 16.72265625 C28.28984375 15.00369141 28.28984375 15.00369141 29 13.25 C29.69609375 11.50783203 29.69609375 11.50783203 30.40625 9.73046875 C33.86423679 1.13576321 33.86423679 1.13576321 35 0 C36.51928038 -0.07179964 38.04167482 -0.08392007 39.5625 -0.0625 C40.38878906 -0.05347656 41.21507812 -0.04445313 42.06640625 -0.03515625 C42.70449219 -0.02355469 43.34257812 -0.01195312 44 0 C44.02464574 5.96313166 44.042834 11.92623395 44.05493164 17.8894043 C44.05997278 19.91968298 44.06680557 21.94995802 44.07543945 23.98022461 C44.08751467 26.89177347 44.09323034 29.8032745 44.09765625 32.71484375 C44.10281754 33.6283812 44.10797882 34.54191864 44.11329651 35.48313904 C44.11349168 37.65575427 44.06211805 39.82827296 44 42 C43.67 42.33 43.34 42.66 43 43 C41.02 43 39.04 43 37 43 C36.67 34.09 36.34 25.18 36 16 C30.555 29.365 30.555 29.365 25 43 C23.02 43 21.04 43 19 43 C15.37 34.42 11.74 25.84 8 17 C7.67 25.58 7.34 34.16 7 43 C4.69 43 2.38 43 0 43 C0 28.81 0 14.62 0 0 Z " fill="#000000" transform="translate(113,424)"/>
<path d="M0 0 C20 0 20 0 28 4 C32.92209363 9.05162241 34.29822638 13.84913261 34.375 20.8125 C34.25933991 27.72319012 33.26115688 32.34412096 28.64453125 37.51953125 C20.57664628 45.02504354 10.43515021 43 0 43 C0 28.81 0 14.62 0 0 Z M7 6 C7 15.9 7 25.8 7 36 C17.63468169 36.46387217 17.63468169 36.46387217 24.75 31.5 C27.92782167 27.686614 27.32831818 22.64277256 27.27734375 17.953125 C26.90088818 13.94466847 25.80156526 11.87529066 23 9 C17.39483015 4.99630725 14.69124138 6 7 6 Z " fill="#000000" transform="translate(568,424)"/>
<path d="M0 0 C9.24 0 18.48 0 28 0 C28 1.98 28 3.96 28 6 C21.4 6 14.8 6 8 6 C8 9.96 8 13.92 8 18 C13.94 18 19.88 18 26 18 C26 19.98 26 21.96 26 24 C20.06 24 14.12 24 8 24 C8 27.96 8 31.92 8 36 C14.6 36 21.2 36 28 36 C28 38.31 28 40.62 28 43 C23.52084672 43.02886338 19.04171709 43.04675187 14.5625 43.0625 C13.28310547 43.07087891 12.00371094 43.07925781 10.68554688 43.08789062 C9.47060547 43.09111328 8.25566406 43.09433594 7.00390625 43.09765625 C5.87799072 43.10289307 4.7520752 43.10812988 3.59204102 43.11352539 C1 43 1 43 0 42 C-0.08874135 38.89748799 -0.11518455 35.8173188 -0.09765625 32.71484375 C-0.0962413 31.78402481 -0.09482635 30.85320587 -0.09336853 29.8941803 C-0.08775172 26.90858809 -0.0751964 23.92306971 -0.0625 20.9375 C-0.05748716 18.91862087 -0.05292388 16.89974057 -0.04882812 14.88085938 C-0.03862587 9.92052129 -0.01905382 4.9603437 0 0 Z " fill="#000000" transform="translate(391,424)"/>
<path d="M0 0 C5.25762416 1.87772292 5.25762416 1.87772292 7.14404297 4.72949219 C8.23543771 7.62452103 8.22562707 9.98603915 8.1953125 13.078125 C8.18886719 14.23828125 8.18242188 15.3984375 8.17578125 16.59375 C8.15902344 17.8003125 8.14226563 19.006875 8.125 20.25 C8.11597656 21.47203125 8.10695313 22.6940625 8.09765625 23.953125 C8.07409513 26.96894782 8.04119706 29.98437492 8 33 C5.69 33 3.38 33 1 33 C0.67 32.34 0.34 31.68 0 31 C-0.99 31.66 -1.98 32.32 -3 33 C-7.88516144 33.71207438 -11.8100735 33.72852643 -16.0625 31.125 C-18.5703929 28.37440779 -18.95767187 27.44867818 -19.3125 23.6875 C-18.93758749 19.2635324 -18.16206455 18.05682944 -15 15 C-12.29863353 14.15797832 -10.00673874 13.59658127 -7.25 13.1875 C-6.55261719 13.06697266 -5.85523438 12.94644531 -5.13671875 12.82226562 C-3.42755631 12.52960082 -1.71409562 12.26223105 0 12 C-0.33 10.35 -0.66 8.7 -1 7 C-4.37464024 6.7496423 -4.37464024 6.7496423 -8 7 C-8.495 7.515625 -8.99 8.03125 -9.5 8.5625 C-9.995 9.036875 -10.49 9.51125 -11 10 C-14.6875 9.6875 -14.6875 9.6875 -18 9 C-17.0717492 5.65829712 -16.07068171 4.06538058 -13.5 1.6875 C-8.84874889 -0.5550675 -5.07662366 -0.68402559 0 0 Z M-7.25 19 C-8.4875 19.33 -9.725 19.66 -11 20 C-11.33 21.65 -11.66 23.3 -12 25 C-9.8552976 26.75528019 -9.8552976 26.75528019 -7 28 C-3.78683477 27.51237739 -3.78683477 27.51237739 -1 26 C1.1519437 22.77208445 1.20086443 21.71599191 1 18 C-2.19892281 18 -4.25408155 18.20108841 -7.25 19 Z " fill="#000000" transform="translate(521,434)"/>
<path d="M0 0 C5.13308791 2.61320839 8.1797908 5.53937241 10 11 C10.50849203 17.22902738 10.73444209 22.72027152 7 28 C2.01923449 32.49483717 -0.96447163 33.29983058 -7.52734375 33.21484375 C-12.1314705 32.81480114 -14.24865285 30.83483016 -17.25 27.5 C-20.82057899 22.39917287 -20.4734725 17.00879647 -20 11 C-16.65949264 1.33011028 -9.40960096 -1.05514727 0 0 Z M-10.3125 7.875 C-13.61979935 12.03974733 -13.51770679 15.83185807 -13 21 C-11.2880813 24.76398568 -11.2880813 24.76398568 -8 27 C-4.31987667 27.4000134 -2.6510711 27.51029897 0.3125 25.1875 C3.33469367 21.26984153 3.32643992 17.81498885 3 13 C1.41772398 8.69156076 1.41772398 8.69156076 -2 6 C-5.72144389 5.59549523 -7.35169554 5.47434773 -10.3125 7.875 Z " fill="#000000" transform="translate(317,434)"/>
<path d="M0 0 C4.85113998 2.33573407 7.76436171 5.09879297 10 10 C10.6937136 15.5567875 11.37081428 21.73326608 8.1875 26.625 C7.465625 27.40875 6.74375 28.1925 6 29 C5.484375 29.598125 4.96875 30.19625 4.4375 30.8125 C0.99493923 33.65635455 -3.26256199 33.33731706 -7.49609375 33.26953125 C-11.32593552 32.85727059 -13.2259836 31.64192038 -16 29 C-19.31986427 24.4040629 -20.67605724 19.89790465 -20.3828125 14.23828125 C-19.47000498 8.90115156 -17.26777068 5.20740065 -13.375 1.5 C-8.79002809 -0.53776529 -4.9402323 -0.78850613 0 0 Z M-10.3125 7.8125 C-13.3295692 11.72351563 -13.33158657 15.19199473 -13 20 C-11.59539303 22.87305972 -10.25489001 24.74510999 -8 27 C-4.10108622 27.6064977 -2.45485038 27.29664155 0.875 25.125 C3.847774 20.75327353 3.79382487 17.14297175 3 12 C1.30596911 8.21634468 1.30596911 8.21634468 -2 6 C-5.68012333 5.5999866 -7.3489289 5.48970103 -10.3125 7.8125 Z " fill="#000000" transform="translate(251,434)"/>
<path d="M0 0 C2.31 0 4.62 0 7 0 C7.33 0.66 7.66 1.32 8 2 C8.99 1.34 9.98 0.68 11 0 C14.76904461 -0.6820176 18.45628171 -0.83098707 21.88671875 1.015625 C24.5498242 3.15642648 25.91352869 4.74058608 27 8 C27.08266486 9.91906917 27.10740663 11.84089474 27.09765625 13.76171875 C27.09443359 14.87998047 27.09121094 15.99824219 27.08789062 17.15039062 C27.07951172 18.31763672 27.07113281 19.48488281 27.0625 20.6875 C27.05798828 21.86634766 27.05347656 23.04519531 27.04882812 24.25976562 C27.03703273 27.17322789 27.0205727 30.08658863 27 33 C24.69 33 22.38 33 20 33 C19.98541748 32.31897217 19.97083496 31.63794434 19.95581055 30.9362793 C19.88137304 27.85277785 19.78469917 24.77036433 19.6875 21.6875 C19.66494141 20.61564453 19.64238281 19.54378906 19.61914062 18.43945312 C19.5659668 16.89741211 19.5659668 16.89741211 19.51171875 15.32421875 C19.48553467 14.37635498 19.45935059 13.42849121 19.43237305 12.4519043 C19.17431451 9.96781459 19.17431451 9.96781459 17.69458008 8.15551758 C15.84155641 6.64151322 15.84155641 6.64151322 12.375 7.1875 C10.704375 7.5896875 10.704375 7.5896875 9 8 C7.74161443 10.51677113 7.79181027 12.41293288 7.68359375 15.2265625 C7.64169922 16.2578125 7.59980469 17.2890625 7.55664062 18.3515625 C7.49766602 19.97191406 7.49766602 19.97191406 7.4375 21.625 C7.39431641 22.71296875 7.35113281 23.8009375 7.30664062 24.921875 C7.2003547 27.6144517 7.09831943 30.30712253 7 33 C4.69 33 2.38 33 0 33 C0 22.11 0 11.22 0 0 Z " fill="#000000" transform="translate(426,434)"/>
<path d="M0 0 C3.74216409 1.59241025 5.87672063 3.53570209 8 7 C8 7.66 8 8.32 8 9 C5.69 9.33 3.38 9.66 1 10 C0.34 9.01 -0.32 8.02 -1 7 C-4.58357241 6.74984127 -4.58357241 6.74984127 -8 7 C-8.33 8.32 -8.66 9.64 -9 11 C-7.66195313 11.36351562 -7.66195313 11.36351562 -6.296875 11.734375 C-5.12640625 12.06953125 -3.9559375 12.4046875 -2.75 12.75 C-1.58984375 13.07484375 -0.4296875 13.3996875 0.765625 13.734375 C4.14643331 15.05729999 5.80524845 16.13566324 8 19 C8.45468446 22.18279123 8.71154438 23.98640026 8 27 C5.82425584 29.69105198 4.08934144 31.45532928 1 33 C-0.93359586 33.14851844 -2.87342097 33.22130833 -4.8125 33.25 C-5.85019531 33.27578125 -6.88789063 33.3015625 -7.95703125 33.328125 C-11.42582145 32.95408344 -13.22110993 32.07568054 -16 30 C-18 27 -18 27 -17.625 24.8125 C-17.41875 24.214375 -17.2125 23.61625 -17 23 C-14.125 22.8125 -14.125 22.8125 -11 23 C-10.34 23.99 -9.68 24.98 -9 26 C-7.02252878 26.36297936 -7.02252878 26.36297936 -4.875 26.1875 C-3.59625 26.125625 -2.3175 26.06375 -1 26 C-0.67 24.68 -0.34 23.36 0 22 C-0.58007812 21.81824219 -1.16015625 21.63648438 -1.7578125 21.44921875 C-13.99159664 17.51260504 -13.99159664 17.51260504 -17 13 C-17.4375 9.625 -17.4375 9.625 -17 6 C-11.8571955 -0.22550018 -7.73347015 -0.68308254 0 0 Z " fill="#000000" transform="translate(284,434)"/>
<path d="M0 0 C0.70125 0.556875 1.4025 1.11375 2.125 1.6875 C2.7025 2.14125 3.28 2.595 3.875 3.0625 C5.50388879 5.18005542 5.77145665 7.07127923 6.125 9.6875 C2.8125 9.9375 2.8125 9.9375 -0.875 9.6875 C-1.9010734 8.37412604 -2.90227325 7.04085895 -3.875 5.6875 C-7.49862385 5.07071296 -9.16087377 5.18568157 -12.1875 7.3125 C-14.2871931 10.26762362 -14.73292953 12.064703 -14.875 15.6875 C-13.84565096 20.70209682 -13.84565096 20.70209682 -10.875 24.6875 C-7.95961971 25.18792146 -7.95961971 25.18792146 -4.875 24.6875 C-4.235625 24.0275 -3.59625 23.3675 -2.9375 22.6875 C-0.875 20.6875 -0.875 20.6875 2.875 20.4375 C3.9475 20.52 5.02 20.6025 6.125 20.6875 C4.91771637 25.11420664 3.64941688 27.71377326 0.125 30.6875 C-3.82399337 32.66199669 -8.57090104 32.12520498 -12.875 31.6875 C-17.33821544 29.53559256 -19.97789408 27.28049329 -21.875 22.6875 C-23.33279704 16.14436443 -23.29961792 10.56947735 -19.875 4.6875 C-14.57929222 -1.53495664 -7.61359443 -3.47577137 0 0 Z " fill="#000000" transform="translate(199.875,435.3125)"/>
<path d="M0 0 C0.79921875 0.01804687 1.5984375 0.03609375 2.421875 0.0546875 C3.02515625 0.07789063 3.6284375 0.10109375 4.25 0.125 C3.92 2.105 3.59 4.085 3.25 6.125 C2.280625 6.3725 1.31125 6.62 0.3125 6.875 C-0.698125 7.2875 -1.70875 7.7 -2.75 8.125 C-3.71877057 10.15743548 -3.71877057 10.15743548 -3.75 12.125 C-1.44 12.125 0.87 12.125 3.25 12.125 C3.25 14.105 3.25 16.085 3.25 18.125 C0.94 18.125 -1.37 18.125 -3.75 18.125 C-3.75 27.035 -3.75 35.945 -3.75 45.125 C-6.06 45.125 -8.37 45.125 -10.75 45.125 C-10.75 36.215 -10.75 27.305 -10.75 18.125 C-12.4 18.125 -14.05 18.125 -15.75 18.125 C-15.75 16.145 -15.75 14.165 -15.75 12.125 C-14.1 12.125 -12.45 12.125 -10.75 12.125 C-10.79125 11.2175 -10.8325 10.31 -10.875 9.375 C-10.75241438 6.18777389 -10.5785231 4.68493233 -8.75 2.125 C-5.73702856 0.26171503 -3.51428563 -0.10336134 0 0 Z " fill="#000000" transform="translate(345.75,421.875)"/>
<path d="M0 0 C2.31 0 4.62 0 7 0 C7 2.31 7 4.62 7 7 C9.31 7 11.62 7 14 7 C14 8.98 14 10.96 14 13 C11.69 13 9.38 13 7 13 C7.14046255 15.95867918 7.28712224 18.91682264 7.4375 21.875 C7.47681641 22.71675781 7.51613281 23.55851562 7.55664062 24.42578125 C7.61948242 25.63427734 7.61948242 25.63427734 7.68359375 26.8671875 C7.72025146 27.61081543 7.75690918 28.35444336 7.79467773 29.12060547 C7.89955865 31.08864312 7.89955865 31.08864312 9 33 C11.52733235 33.65555119 11.52733235 33.65555119 14 34 C14 35.98 14 37.96 14 40 C6.79199579 40.48867825 6.79199579 40.48867825 3.0625 38.1875 C0.07562162 35.01959868 -0.12427048 32.51046529 -0.09765625 28.33203125 C-0.09443359 27.43935547 -0.09121094 26.54667969 -0.08789062 25.62695312 C-0.07951172 24.69818359 -0.07113281 23.76941406 -0.0625 22.8125 C-0.05798828 21.87212891 -0.05347656 20.93175781 -0.04882812 19.96289062 C-0.03704626 17.64186288 -0.02059558 15.32096356 0 13 C-1.32 13 -2.64 13 -4 13 C-4 11.02 -4 9.04 -4 7 C-2.68 7 -1.36 7 0 7 C0 4.69 0 2.38 0 0 Z " fill="#000000" transform="translate(356,427)"/>
<path d="M0 0 C2.31 0 4.62 0 7 0 C7 2.31 7 4.62 7 7 C9.31 7 11.62 7 14 7 C14 8.98 14 10.96 14 13 C11.69 13 9.38 13 7 13 C7.14046255 15.95867918 7.28712224 18.91682264 7.4375 21.875 C7.47681641 22.71675781 7.51613281 23.55851562 7.55664062 24.42578125 C7.61948242 25.63427734 7.61948242 25.63427734 7.68359375 26.8671875 C7.72025146 27.61081543 7.75690918 28.35444336 7.79467773 29.12060547 C7.89955865 31.08864312 7.89955865 31.08864312 9 33 C10.32 33 11.64 33 13 33 C13.33 35.31 13.66 37.62 14 40 C6.79199579 40.48867825 6.79199579 40.48867825 3.0625 38.1875 C0.07562162 35.01959868 -0.12427048 32.51046529 -0.09765625 28.33203125 C-0.09443359 27.43935547 -0.09121094 26.54667969 -0.08789062 25.62695312 C-0.07951172 24.69818359 -0.07113281 23.76941406 -0.0625 22.8125 C-0.05798828 21.87212891 -0.05347656 20.93175781 -0.04882812 19.96289062 C-0.03704626 17.64186288 -0.02059558 15.32096356 0 13 C-1.32 13 -2.64 13 -4 13 C-4 11.02 -4 9.04 -4 7 C-2.68 7 -1.36 7 0 7 C0 4.69 0 2.38 0 0 Z " fill="#000000" transform="translate(462,427)"/>
<path d="M0 0 C2.31 0 4.62 0 7 0 C7 14.19 7 28.38 7 43 C4.69 43 2.38 43 0 43 C0 28.81 0 14.62 0 0 Z " fill="#000000" transform="translate(552,424)"/>
<path d="M0 0 C1.98 0 3.96 0 6 0 C6.33 0.99 6.66 1.98 7 3 C7.350625 2.505 7.70125 2.01 8.0625 1.5 C10.94374289 -0.73063966 13.47009026 -0.19980621 17 0 C17 2.31 17 4.62 17 7 C15.88625 7.12375 14.7725 7.2475 13.625 7.375 C9.96896323 7.6465813 9.96896323 7.6465813 8 10 C7.62904292 12.42246595 7.62904292 12.42246595 7.5859375 15.2265625 C7.54726563 16.2578125 7.50859375 17.2890625 7.46875 18.3515625 C7.42234375 19.97191406 7.42234375 19.97191406 7.375 21.625 C7.33632813 22.71296875 7.29765625 23.8009375 7.2578125 24.921875 C7.16333753 27.61441165 7.07777569 30.30693757 7 33 C4.69 33 2.38 33 0 33 C0 22.11 0 11.22 0 0 Z " fill="#000000" transform="translate(482,434)"/>
<path d="M0 0 C1.98 0 3.96 0 6 0 C6.33 0.99 6.66 1.98 7 3 C7.350625 2.505 7.70125 2.01 8.0625 1.5 C10.94374289 -0.73063966 13.47009026 -0.19980621 17 0 C17 2.31 17 4.62 17 7 C12.545 7.495 12.545 7.495 8 8 C7.97494385 8.72179443 7.9498877 9.44358887 7.92407227 10.18725586 C7.80848698 13.437535 7.68559226 16.68749688 7.5625 19.9375 C7.52318359 21.07380859 7.48386719 22.21011719 7.44335938 23.38085938 C7.40146484 24.46044922 7.35957031 25.54003906 7.31640625 26.65234375 C7.27974854 27.65257568 7.24309082 28.65280762 7.20532227 29.68334961 C7 32 7 32 6 33 C4.02 33 2.04 33 0 33 C0 22.11 0 11.22 0 0 Z " fill="#000000" transform="translate(212,434)"/>
<path d="M0 0 C1.98 0 3.96 0 6 0 C6 10.89 6 21.78 6 33 C4.02 33 2.04 33 0 33 C-1.90849948 31.09150052 -1.13059633 27.68521226 -1.1328125 25.15625 C-1.13376923 24.47195923 -1.13472595 23.78766846 -1.13571167 23.0826416 C-1.1363933 21.63338123 -1.13454023 20.18411782 -1.13037109 18.73486328 C-1.12502252 16.50937072 -1.1303166 14.28407999 -1.13671875 12.05859375 C-1.13605797 10.65364539 -1.1347768 9.24869715 -1.1328125 7.84375 C-1.13168457 6.55662109 -1.13055664 5.26949219 -1.12939453 3.94335938 C-1 1 -1 1 0 0 Z " fill="#000000" transform="translate(165,434)"/>
<path d="M0 0 C4.55555556 0.55555556 4.55555556 0.55555556 6 2 C6.125 4.5 6.125 4.5 6 7 C5 8 5 8 2 8.125 C-1 8 -1 8 -2 7 C-2.1875 4.5625 -2.1875 4.5625 -2 2 C-1.34 1.34 -0.68 0.68 0 0 Z " fill="#000000" transform="translate(166,422)"/>
</svg>
