<svg width="76" height="60" viewBox="0 0 76 60" fill="none" xmlns="http://www.w3.org/2000/svg">
<path d="M26.4489 41.1822C27.3111 41.7199 28.7444 42.3177 30.26 42.3177C31.64 42.3177 32.9222 41.9177 33.9844 41.2355C33.9844 41.2355 33.9867 41.2355 33.9889 41.2333L38 38.7266V47.7777C37.3644 47.7777 36.7244 47.6044 36.1689 47.2577L26.4489 41.1822Z" fill="#225086"/>
<path d="M35.4511 13.3488L18.7844 32.1488C17.4978 33.6022 17.8333 35.7977 19.5022 36.8399C19.5022 36.8399 25.6711 40.6955 26.4489 41.1822C27.3111 41.7199 28.7444 42.3177 30.26 42.3177C31.64 42.3177 32.9222 41.9177 33.9844 41.2355C33.9844 41.2355 33.9867 41.2355 33.9889 41.2333L38 38.7266L28.3022 32.6644L38.0022 21.7222V12.2222C37.06 12.2222 36.1178 12.5977 35.4511 13.3488Z" fill="#66DDFF"/>
<path d="M28.3022 32.6644L28.4178 32.7355L38 38.7266H38.0022V21.7244L38 21.7222L28.3022 32.6644Z" fill="#CBF8FF"/>
<path d="M56.4978 36.8399C58.1667 35.7977 58.5022 33.6022 57.2155 32.1488L46.28 19.8133C45.3978 19.4022 44.4089 19.1666 43.3622 19.1666C41.3067 19.1666 39.4689 20.0533 38.2467 21.4466L38.0044 21.7199L47.7022 32.6622L38.0022 38.7244V47.7755C38.64 47.7755 39.2755 47.6022 39.8311 47.2555L56.4978 36.8377V36.8399Z" fill="#074793"/>
<path d="M38.0022 12.2222V21.7222L38.2444 21.4488C39.4667 20.0555 41.3044 19.1688 43.36 19.1688C44.4089 19.1688 45.3955 19.4066 46.2778 19.8155L40.5467 13.3511C39.8822 12.5999 38.94 12.2244 38 12.2244L38.0022 12.2222Z" fill="#0294E4"/>
<path d="M47.7 32.6644L38.0022 21.7244V38.7244L47.7 32.6644Z" fill="#96BCC2"/>
</svg>
