<svg width="76" height="60" viewBox="0 0 76 60" fill="none" xmlns="http://www.w3.org/2000/svg">
<path d="M24.0632 48.5453C23.9684 51.0412 21.9789 53 19.5158 53C16.9263 53 15 50.9148 15 48.3558C15 45.7967 17.0842 43.7115 19.6421 43.7115C20.7789 43.7115 21.9158 44.217 22.8632 45.1016L22.1368 46.0179C21.4105 45.386 20.5263 44.9437 19.6421 44.9437C17.7789 44.9437 16.2316 46.4602 16.2316 48.3558C16.2316 50.283 17.6842 51.7679 19.5158 51.7679C21.1579 51.7679 22.4526 50.5673 22.7368 48.9876H18.9789V47.8819H24.0632V48.5453Z" fill="#565656"/>
<path d="M28.3579 47.9135H27.6632C26.9053 47.9135 26.2737 48.5453 26.2737 49.3036V52.9052H25.0421V46.7129H26.0526V47.2184C26.4 46.8709 26.9053 46.7129 27.5053 46.7129H28.8316L28.3579 47.9135Z" fill="#565656"/>
<path d="M35.1158 52.9052H34.0421V52.1154C33.2211 52.9052 31.9579 53.2843 30.6632 52.7157C29.7158 52.3049 28.9895 51.4203 28.8 50.3777C28.4211 48.3874 29.9684 46.6181 31.9263 46.6181C32.7474 46.6181 33.5053 46.9657 34.0421 47.5027V46.7129H35.1158V52.9052ZM33.8526 50.283C34.1368 49.0192 33.1895 47.8819 31.9579 47.8819C30.8842 47.8819 30.0316 48.7665 30.0316 49.8091C30.0316 51.0096 31.0737 51.9258 32.3053 51.7363C33.0316 51.6099 33.6632 51.0096 33.8526 50.283Z" fill="#565656"/>
<path d="M37.5789 46.397V46.7445H39.5368V47.8187H37.5789V52.9052H36.3789V46.4286C36.3789 45.0701 37.3579 44.2802 38.5895 44.2802H40.0737L39.5684 45.4492H38.5895C38.0211 45.4176 37.5789 45.8599 37.5789 46.397Z" fill="#565656"/>
<path d="M45.0632 52.9052V52.1154C44.2421 52.9052 42.9789 53.2843 41.6842 52.7157C40.7368 52.3049 40.0105 51.4203 39.8211 50.3777C39.4421 48.3874 40.9895 46.6181 42.9474 46.6181C43.7684 46.6181 44.5263 46.9657 45.0632 47.5027V46.7129H46.1368V52.9052H45.0632ZM44.8421 50.283C45.1263 49.0192 44.1789 47.8819 42.9474 47.8819C41.8737 47.8819 41.0211 48.7665 41.0211 49.8091C41.0211 51.0096 42.0632 51.9258 43.2947 51.7363C44.0526 51.6099 44.6526 51.0096 44.8421 50.283Z" fill="#565656"/>
<path d="M52.7053 49.272V52.9052H51.4737V49.2404C51.4737 48.4821 50.8421 47.8503 50.0842 47.8503C49.2947 47.8503 48.6947 48.4821 48.6947 49.2404V52.9052H47.4632V46.7129H48.4737V47.25C48.9158 46.8393 49.5158 46.6181 50.1158 46.6181C51.5684 46.6497 52.7053 47.8187 52.7053 49.272Z" fill="#565656"/>
<path d="M58.9263 52.9052V52.1154C58.1053 52.9052 56.8421 53.2843 55.5474 52.7157C54.6 52.3049 53.8737 51.4203 53.6842 50.3777C53.3053 48.3874 54.8526 46.6181 56.8105 46.6181C57.6316 46.6181 58.3895 46.9657 58.9263 47.5027V46.7129H60V52.9052H58.9263ZM58.7053 50.283C58.9895 49.0192 58.0421 47.8819 56.8105 47.8819C55.7368 47.8819 54.8842 48.7665 54.8842 49.8091C54.8842 51.0096 55.9263 51.9258 57.1579 51.7363C57.9158 51.6099 58.5158 51.0096 58.7053 50.283Z" fill="#565656"/>
<path d="M53.8105 22.7651C53.7474 22.1648 53.6526 21.4698 53.4632 20.7115C53.2737 19.9533 52.9579 19.1319 52.5474 18.2473C52.1053 17.3942 51.5684 16.478 50.8421 15.625C50.5579 15.2775 50.2421 14.9615 49.9263 14.614C50.4316 12.6236 49.3263 10.886 49.3263 10.886C47.4 10.7596 46.2 11.4863 45.7579 11.8022C45.6947 11.7706 45.6 11.739 45.5368 11.7074C45.2211 11.581 44.8737 11.4547 44.5263 11.3283C44.1789 11.2335 43.8316 11.1071 43.4842 11.044C43.1368 10.9492 42.7579 10.886 42.3789 10.8228C42.3158 10.8228 42.2526 10.7912 42.1895 10.7912C41.3684 8.13736 38.9684 7 38.9684 7C36.2211 8.76923 35.6842 11.1387 35.6842 11.1387C35.6842 11.1387 35.6842 11.2019 35.6526 11.2651C35.4947 11.2967 35.3684 11.3599 35.2105 11.3915C35.0211 11.4547 34.8 11.5179 34.6105 11.6126C34.4211 11.7074 34.2 11.7706 34.0105 11.8654C33.6 12.0549 33.2211 12.2445 32.8105 12.4657C32.4316 12.6868 32.0526 12.908 31.7053 13.1607C31.6421 13.1291 31.6105 13.0975 31.6105 13.0975C27.9158 11.6758 24.6316 13.3819 24.6316 13.3819C24.3474 17.331 26.1158 19.7953 26.4632 20.2376C26.3684 20.4904 26.3053 20.7115 26.2105 20.9643C25.9263 21.8489 25.7368 22.7651 25.6105 23.7129C25.5789 23.8393 25.5789 23.9973 25.5474 24.1236C22.1368 25.7981 21.1263 29.2734 21.1263 29.2734C23.9684 32.5591 27.3158 32.7486 27.3158 32.7486C27.7263 33.5069 28.2316 34.2335 28.7684 34.897C28.9895 35.1813 29.2421 35.4341 29.4947 35.7184C28.4526 38.6882 29.6526 41.1841 29.6526 41.1841C32.8421 41.3104 34.9263 39.794 35.3684 39.4464C35.6842 39.5412 36 39.636 36.3158 39.7308C37.2947 39.9835 38.3053 40.1415 39.2842 40.1731C39.5368 40.1731 39.7895 40.1731 40.0421 40.1731H40.5789C42.0632 42.3214 44.7158 42.6058 44.7158 42.6058C46.5789 40.6154 46.7053 38.6882 46.7053 38.2459C46.7053 38.2459 46.7053 38.2459 46.7053 38.2143C46.7053 38.1827 46.7053 38.1511 46.7053 38.1511C46.7053 38.1195 46.7053 38.0879 46.7053 38.0563C47.0842 37.772 47.4632 37.4876 47.8421 37.1717C48.6 36.5082 49.2316 35.7184 49.8 34.897C49.8632 34.8338 49.8947 34.739 49.9579 34.6758C52.0737 34.8022 53.5579 33.3489 53.5579 33.3489C53.2105 31.1374 51.9474 30.0632 51.6947 29.8736C51.6947 29.8736 51.6947 29.8736 51.6632 29.842L51.6 29.7788C51.6 29.6525 51.6316 29.5261 51.6316 29.3681C51.6632 29.1154 51.6632 28.8942 51.6632 28.6415V28.3256C51.6632 28.2624 51.6632 28.294 51.6632 28.2624V27.9148C51.6632 27.8516 51.6632 27.7885 51.6632 27.7253C51.6632 27.6621 51.6632 27.5989 51.6316 27.5357L51.5684 27.1566C51.5368 26.9038 51.4737 26.6827 51.4421 26.4299C51.2211 25.4821 50.8421 24.5659 50.3684 23.7761C49.8632 22.9547 49.2632 22.2596 48.5684 21.6277C47.8737 21.0275 47.1158 20.522 46.2947 20.1745C45.4737 19.7953 44.6526 19.5742 43.8 19.4794C43.3895 19.4162 42.9474 19.4162 42.5368 19.4162H42.0632C42 19.4162 41.9368 19.4162 41.9053 19.4162C41.6842 19.4478 41.4632 19.4794 41.2737 19.511C40.4211 19.669 39.6316 19.9849 38.9368 20.3956C38.2421 20.8063 37.6421 21.3434 37.1368 21.9437C36.6316 22.544 36.2526 23.1758 36 23.8709C35.7474 24.5343 35.5895 25.261 35.5579 25.9245C35.5579 26.0824 35.5579 26.272 35.5579 26.4299C35.5579 26.4615 35.5579 26.5247 35.5579 26.5563V26.6827C35.5579 26.7775 35.5579 26.8407 35.5895 26.9354C35.6211 27.283 35.6842 27.5989 35.7789 27.9148C35.9684 28.5467 36.2526 29.1154 36.6316 29.6209C37.0105 30.1264 37.4211 30.5055 37.8947 30.8214C38.3684 31.1374 38.8421 31.3585 39.3474 31.5165C39.8526 31.6745 40.3263 31.7376 40.7684 31.706C40.8316 31.706 40.8947 31.706 40.9263 31.706C40.9579 31.706 40.9895 31.706 41.0211 31.706C41.0526 31.706 41.0842 31.706 41.1158 31.706C41.1789 31.706 41.2105 31.706 41.2737 31.706H41.3368C41.3684 31.706 41.4 31.706 41.4316 31.706C41.4947 31.706 41.5579 31.6745 41.5895 31.6745C41.6526 31.6745 41.6842 31.6429 41.7474 31.6429C41.8421 31.6113 41.9684 31.5797 42.0632 31.5481C42.2526 31.4849 42.4421 31.3901 42.6316 31.3269C42.8211 31.2321 42.9789 31.1374 43.1053 31.0426C43.1368 31.011 43.2 30.9794 43.2316 30.9478C43.3895 30.8214 43.4211 30.6003 43.2947 30.4423C43.1684 30.3159 42.9789 30.2843 42.8211 30.3475C42.7895 30.3791 42.7579 30.3791 42.6947 30.4107C42.5684 30.4739 42.4105 30.5371 42.2842 30.5687C42.1263 30.6003 41.9684 30.6635 41.8105 30.6951C41.7158 30.6951 41.6526 30.7267 41.5579 30.7267C41.5263 30.7267 41.4632 30.7267 41.4316 30.7267C41.4 30.7267 41.3368 30.7267 41.3053 30.7267C41.2737 30.7267 41.2105 30.7267 41.1789 30.7267C41.1158 30.7267 41.0842 30.7267 41.0211 30.7267H40.9579C40.9263 30.7267 40.9263 30.7267 40.8947 30.7267C40.8632 30.7267 40.8 30.7267 40.7684 30.6951C40.4211 30.6319 40.0421 30.5371 39.6947 30.3791C39.3474 30.2212 39 30 38.7158 29.7157C38.4 29.4313 38.1474 29.1154 37.9263 28.7363C37.7053 28.3571 37.5789 27.9464 37.5158 27.5357C37.4842 27.3146 37.4526 27.0934 37.4842 26.8723C37.4842 26.8091 37.4842 26.7459 37.4842 26.6827V26.6195C37.4842 26.5879 37.4842 26.5563 37.4842 26.5247C37.4842 26.3984 37.5158 26.3036 37.5474 26.1772C37.7053 25.2294 38.1789 24.3132 38.9053 23.6181C39.0947 23.4286 39.2842 23.2706 39.5053 23.1442C39.7263 22.9863 39.9474 22.8599 40.1684 22.7651C40.3895 22.6703 40.6421 22.5756 40.8947 22.5124C41.1474 22.4492 41.4 22.386 41.6526 22.386C41.7789 22.386 41.9053 22.3544 42.0316 22.3544C42.0632 22.3544 42.0947 22.3544 42.1263 22.3544H42.4105C42.6947 22.386 42.9789 22.4176 43.2316 22.4808C43.7684 22.6071 44.3053 22.7967 44.8105 23.081C45.8211 23.6497 46.6737 24.5027 47.1789 25.5453C47.4316 26.0508 47.6211 26.6195 47.7158 27.2198C47.7474 27.3777 47.7474 27.5041 47.7789 27.6621V27.8517C47.7789 27.8832 47.7789 27.9148 47.7789 27.9464C47.7789 27.978 47.7789 28.0096 47.7789 28.0412V28.2308C47.7789 28.294 47.7789 28.4203 47.7789 28.4835C47.7789 28.6415 47.7474 28.7995 47.7474 28.9574C47.7158 29.1154 47.7158 29.2734 47.6842 29.4313C47.6526 29.5893 47.6211 29.7473 47.5895 29.9052C47.5263 30.2212 47.4 30.5055 47.3053 30.8214C47.0842 31.4217 46.7684 31.9904 46.3895 32.4959C45.6316 33.5385 44.5895 34.3915 43.4211 34.9286C42.8211 35.1813 42.2211 35.4025 41.5895 35.4973C41.2737 35.5604 40.9579 35.592 40.6421 35.592H40.1368C39.9789 35.592 39.7895 35.592 39.6316 35.5604C38.9368 35.4973 38.2737 35.3709 37.6105 35.1813C36.9474 34.9918 36.3158 34.739 35.7158 34.4231C34.5158 33.7912 33.4421 32.875 32.5895 31.8324C32.1789 31.2953 31.8 30.7266 31.4842 30.1264C31.1684 29.5261 30.9474 28.8942 30.7579 28.2624C30.5684 27.6305 30.4737 26.967 30.4421 26.3036V25.5769C30.4421 25.4821 30.4421 25.419 30.4421 25.3242C30.4421 25.0082 30.4737 24.6607 30.5368 24.3132C30.5684 23.9657 30.6316 23.6497 30.6947 23.3022C30.7579 22.9547 30.8526 22.6387 30.9474 22.2912C31.1368 21.6277 31.3579 20.9959 31.6421 20.3956C32.2105 19.1951 32.9368 18.1209 33.7895 17.2679C34.0105 17.0467 34.2316 16.8571 34.4842 16.6676C34.5789 16.5728 34.8 16.3832 35.0526 16.2253C35.3053 16.0673 35.5579 15.9093 35.8421 15.783C35.9684 15.7198 36.0947 15.6566 36.2526 15.5934C36.3158 15.5618 36.3789 15.5302 36.4737 15.4986C36.5368 15.467 36.6 15.4354 36.6947 15.4038C36.9789 15.2775 37.2632 15.1827 37.5474 15.0879C37.6105 15.0563 37.7053 15.0563 37.7684 15.0247C37.8316 14.9931 37.9263 14.9931 37.9895 14.9615C38.1474 14.9299 38.2737 14.8984 38.4316 14.8352C38.4947 14.8036 38.5895 14.8036 38.6526 14.772C38.7158 14.772 38.8105 14.7404 38.8737 14.7404C38.9368 14.7404 39.0316 14.7088 39.0947 14.7088L39.3474 14.6456C39.4105 14.6456 39.5053 14.614 39.5684 14.614C39.6632 14.614 39.7263 14.5824 39.8211 14.5824C39.8842 14.5824 40.0105 14.5508 40.0737 14.5508C40.1368 14.5508 40.1684 14.5508 40.2316 14.5192H40.4526C40.5474 14.5192 40.6105 14.5192 40.7053 14.4876H40.9263C40.9895 14.4876 41.0842 14.4876 41.1474 14.4876C41.4316 14.4876 41.7158 14.4876 42 14.4876C42.5684 14.5192 43.1368 14.5824 43.6737 14.6772C44.7474 14.8668 45.7895 15.2143 46.7053 15.6882C47.6211 16.1305 48.4737 16.6992 49.1684 17.2995C49.2 17.331 49.2632 17.3626 49.2947 17.4258C49.3263 17.4574 49.3895 17.489 49.4211 17.5522C49.5158 17.6154 49.579 17.7102 49.6737 17.7734C49.7684 17.8365 49.8316 17.9313 49.9263 17.9945C49.9895 18.0893 50.0842 18.1525 50.1474 18.2473C50.4632 18.5632 50.7474 18.9107 51 19.2266C51.5053 19.8901 51.9158 20.5536 52.2316 21.1854C52.2632 21.217 52.2632 21.2486 52.2947 21.3118C52.3263 21.3434 52.3263 21.375 52.3579 21.4382C52.3895 21.5014 52.4211 21.5962 52.4842 21.6593C52.5158 21.7225 52.5474 21.8173 52.5789 21.8805C52.6105 21.9437 52.6421 22.0385 52.6737 22.1016C52.8 22.386 52.8947 22.6703 52.9895 22.9547C53.1474 23.397 53.2421 23.7761 53.3368 24.092C53.3684 24.2184 53.4947 24.3132 53.6211 24.3132C53.779 24.3132 53.8737 24.1868 53.8737 24.0288C53.8421 23.6497 53.8421 23.239 53.8105 22.7651Z" fill="url(#paint0_linear_5181_3483)"/>
<defs>
<linearGradient id="paint0_linear_5181_3483" x1="37.5001" y1="50.6339" x2="37.5001" y2="18.1394" gradientUnits="userSpaceOnUse">
<stop stop-color="#FCEE1F"/>
<stop offset="1" stop-color="#F15B2A"/>
</linearGradient>
</defs>
</svg>
