<svg width="76" height="60" viewBox="0 0 76 60" fill="none" xmlns="http://www.w3.org/2000/svg">
<path d="M60.6744 27.4088C60.6744 27.4843 60.6744 27.5347 60.6744 27.5851C60.6744 29.7518 60.6744 31.9437 60.6744 34.1104C60.6744 34.2112 60.6493 34.2615 60.5488 34.3119C58.765 35.1937 56.9812 36.1008 55.1723 37.0078C54.7452 37.2093 54.318 37.4361 53.9161 37.6376C53.8407 37.6628 53.7904 37.6628 53.715 37.6376C51.5041 36.529 49.2932 35.4205 47.0823 34.3119C46.9818 34.2615 46.9567 34.2112 46.9567 34.1104C46.9567 31.6162 46.9567 29.1472 46.9567 26.6529C46.9567 26.5522 46.9818 26.5018 47.0823 26.4514C49.1927 25.3932 51.3032 24.3351 53.4387 23.2769C53.5141 23.2265 53.6146 23.2013 53.69 23.151C53.7904 23.1006 53.8658 23.1006 53.9411 23.151C55.9511 24.1587 57.961 25.1665 59.9709 26.1742C60.1719 26.275 60.398 26.3758 60.6241 26.5018C60.5488 26.5522 60.4985 26.5774 60.4483 26.6026C58.2877 27.6859 56.1018 28.7692 53.9411 29.8778C53.8407 29.9282 53.7653 29.9282 53.69 29.8778C52.2077 29.1472 50.7504 28.3913 49.2681 27.6607C49.2179 27.6355 49.1927 27.6103 49.1425 27.5851C49.2179 27.5347 49.2681 27.5095 49.3435 27.4843C49.6701 27.3332 49.9716 27.1568 50.2982 27.0057C50.3736 26.9805 50.4238 26.9805 50.4741 27.0057C51.5293 27.5347 52.5845 28.0638 53.6397 28.5929C53.7653 28.6433 53.8407 28.6433 53.9663 28.5929C55.323 27.9127 56.6797 27.2324 58.0113 26.5522C58.0364 26.5522 58.0615 26.527 58.0866 26.5018C58.0615 26.4766 58.0364 26.4514 58.0113 26.4514C56.6294 25.7711 55.2727 25.0909 53.9161 24.3855C53.8156 24.3351 53.7402 24.3603 53.6648 24.4107C51.9564 25.2673 50.2479 26.1239 48.5395 26.9805C48.3134 27.1064 48.2129 27.2324 48.2129 27.4843C48.238 29.4747 48.2129 31.4902 48.2129 33.4806C48.2129 33.5562 48.238 33.6065 48.3134 33.6569C50.0972 34.5388 51.8559 35.4205 53.6146 36.3275C53.7402 36.3779 53.8156 36.3779 53.9411 36.3275C55.725 35.4457 57.4837 34.5388 59.2675 33.6569C59.3428 33.6065 59.3679 33.5813 59.3679 33.4806C59.3679 31.6918 59.3679 29.903 59.3679 28.1394C59.3679 28.0638 59.3931 28.0134 59.4685 27.963C59.8202 27.7867 60.1971 27.6103 60.5488 27.434C60.5991 27.434 60.6241 27.434 60.6744 27.4088Z" fill="#0ABAB5"/>
<path d="M43.5143 31.4149C44.0418 32.0447 44.2931 32.8509 44.2931 33.8335C44.2931 35.0932 43.8157 36.0758 42.8861 36.7561C41.9566 37.4362 40.5747 37.7889 38.7659 37.7889H31.9823V23H38.3387C39.9717 23 41.2531 23.3275 42.1576 23.9826C43.062 24.6376 43.5143 25.5698 43.5143 26.7791C43.5143 27.5853 43.3132 28.2908 42.9113 28.845C42.5093 29.4245 41.9566 29.8276 41.2531 30.13C42.2329 30.3567 42.9867 30.785 43.5143 31.4149ZM33.54 24.2849V29.6513H38.2382C39.4191 29.6513 40.3486 29.4245 41.0018 28.971C41.6551 28.5175 41.9817 27.8625 41.9817 26.9807C41.9817 26.0989 41.6551 25.4438 41.0018 24.9903C40.3486 24.5368 39.4442 24.3101 38.2382 24.3101H33.54V24.2849ZM41.7305 35.7986C42.4088 35.3452 42.7354 34.6397 42.7354 33.6823C42.7354 31.8432 41.4038 30.911 38.7407 30.911H33.54V36.4536H38.7407C40.0471 36.4788 41.0521 36.2521 41.7305 35.7986Z" fill="#0ABAB5"/>
<path d="M74.1916 37.7638L69.4431 31.2636L64.7199 37.7638H62.936L68.5386 30.1803L63.2878 23H65.0716L69.5185 29.0214L73.9152 23H75.5985L70.3727 30.13L75.9754 37.7638H74.1916Z" fill="#0ABAB5"/>
<path d="M24.8978 37.7638L22.0588 33.6571H18.9183V37.7638H15.5266V23H21.9081C23.2145 23 24.3451 23.2267 25.2998 23.655C26.2545 24.0834 27.0082 24.7132 27.5107 25.5194C28.0383 26.3256 28.2896 27.2578 28.2896 28.3664C28.2896 29.4749 28.0383 30.4071 27.5107 31.2133C26.9831 32.0195 26.2293 32.6242 25.2746 33.0273L28.5659 37.7638H24.8978ZM24.0436 26.4516C23.516 25.9981 22.7371 25.7966 21.707 25.7966H18.9435V30.9361H21.707C22.7371 30.9361 23.516 30.7094 24.0436 30.2559C24.5712 29.8024 24.8475 29.1726 24.8475 28.3664C24.8224 27.5349 24.5712 26.8799 24.0436 26.4516Z" fill="#0ABAB5"/>
<path d="M10.0999 23V30.9361H3.39174V23H0V37.7638H3.41686V33.6319H10.0999V37.7638H13.4916V23H10.0999Z" fill="#0ABAB5"/>
</svg>
