<?xml version="1.0" encoding="UTF-8"?> <svg xmlns="http://www.w3.org/2000/svg" width="100" height="20" viewBox="0 0 100 20" fill="none"> <path d="M79.8348 5.87835C79.8348 5.97913 79.8348 6.04631 79.8348 6.1135C79.8348 9.00243 79.8348 11.925 79.8348 14.8139C79.8348 14.9483 79.8017 15.0154 79.6695 15.0826C77.3224 16.2583 74.9752 17.4677 72.5951 18.677C72.0331 18.9457 71.4711 19.2481 70.9422 19.5168C70.843 19.5504 70.7769 19.5504 70.6777 19.5168C67.7686 18.0387 64.8595 16.5607 61.9504 15.0826C61.8182 15.0154 61.7852 14.9483 61.7852 14.8139C61.7852 11.4883 61.7852 8.19622 61.7852 4.87059C61.7852 4.73622 61.8182 4.66903 61.9504 4.60185C64.7273 3.19097 67.5042 1.7801 70.3141 0.369228C70.4133 0.302044 70.5455 0.268452 70.6447 0.201267C70.7769 0.134083 70.8761 0.134083 70.9752 0.201267C73.6199 1.54496 76.2645 2.88865 78.9091 4.23233C79.1736 4.3667 79.4711 4.50107 79.7686 4.66903C79.6695 4.73622 79.6033 4.76981 79.5372 4.8034C76.6943 6.24787 73.8182 7.69233 70.9752 9.17039C70.843 9.23757 70.7438 9.23757 70.6447 9.17039C68.6943 8.19622 66.7769 7.18845 64.8265 6.21427C64.7604 6.18068 64.7273 6.14709 64.6612 6.1135C64.7604 6.04631 64.8265 6.01272 64.9257 5.97913C65.3554 5.77758 65.7521 5.54243 66.1819 5.34088C66.281 5.30728 66.3471 5.30728 66.4133 5.34088C67.8017 6.04631 69.1901 6.75175 70.5785 7.45719C70.7438 7.52437 70.843 7.52437 71.0083 7.45719C72.7934 6.5502 74.5785 5.64321 76.3306 4.73622C76.3637 4.73622 76.3967 4.70262 76.4298 4.66903C76.3967 4.63544 76.3637 4.60185 76.3306 4.60185C74.5124 3.69486 72.7273 2.78787 70.9422 1.84729C70.81 1.7801 70.7108 1.81369 70.6116 1.88088C68.3637 3.02301 66.1157 4.16515 63.8678 5.30728C63.5703 5.47525 63.438 5.64321 63.438 5.97913C63.4711 8.63291 63.438 11.3203 63.438 13.9741C63.438 14.0749 63.4711 14.142 63.5703 14.2092C65.9174 15.385 68.2314 16.5607 70.5455 17.77C70.7108 17.8372 70.81 17.8372 70.9752 17.77C73.3224 16.5943 75.6364 15.385 77.9835 14.2092C78.0827 14.142 78.1157 14.1084 78.1157 13.9741C78.1157 11.589 78.1157 9.20398 78.1157 6.85253C78.1157 6.75175 78.1488 6.68457 78.248 6.61738C78.7108 6.38224 79.2067 6.14709 79.6695 5.91194C79.7356 5.91194 79.7686 5.91194 79.8348 5.87835Z" fill="#0ABAB5"></path> <path d="M57.2556 11.2198C57.9498 12.0596 58.2804 13.1346 58.2804 14.4447C58.2804 16.1243 57.6523 17.4344 56.4291 18.3414C55.206 19.2483 53.3878 19.7186 51.0077 19.7186H42.082V0H50.4457C52.5944 0 54.2804 0.436699 55.4705 1.3101C56.6605 2.18349 57.2556 3.42641 57.2556 5.03883C57.2556 6.11378 56.9911 7.05437 56.4622 7.7934C55.9333 8.56602 55.206 9.10349 54.2804 9.5066C55.5696 9.80893 56.5614 10.38 57.2556 11.2198ZM44.1316 1.7132V8.86835H50.3134C51.8672 8.86835 53.0903 8.56602 53.9498 7.96136C54.8093 7.3567 55.2391 6.4833 55.2391 5.30757C55.2391 4.13184 54.8093 3.25845 53.9498 2.65379C53.0903 2.04913 51.9002 1.7468 50.3134 1.7468H44.1316V1.7132ZM54.9085 17.0648C55.801 16.4602 56.2308 15.5196 56.2308 14.2431C56.2308 11.7909 54.4787 10.548 50.9746 10.548H44.1316V17.9382H50.9746C52.6936 17.9718 54.0159 17.6695 54.9085 17.0648Z" fill="#0ABAB5"></path> <path d="M97.6205 19.685L91.3725 11.0182L85.1577 19.685H82.8105L90.1824 9.57378L83.2734 0H85.6205L91.4717 8.02854L97.2568 0H99.4717L92.5957 9.5066L99.9676 19.685H97.6205Z" fill="#0ABAB5"></path> <path d="M32.7603 19.685L29.0247 14.2095H28.7933H24.8925V19.685H20.4297V0H28.8264C30.5454 0 32.033 0.30233 33.2892 0.873398C34.5454 1.44447 35.5371 2.28427 36.1983 3.35922C36.8925 4.43417 37.2231 5.67708 37.2231 7.15514C37.2231 8.6332 36.8925 9.87611 36.1983 10.9511C35.5041 12.026 34.5123 12.8322 33.2561 13.3697L37.5867 19.685H32.7603ZM31.6363 4.60213C30.9421 3.99747 29.9173 3.72874 28.5619 3.72874H24.9256V10.5815H28.5619C29.9173 10.5815 30.9421 10.2792 31.6363 9.67456C32.3305 9.0699 32.6941 8.23009 32.6941 7.15514C32.6611 6.0466 32.3305 5.1732 31.6363 4.60213Z" fill="#0ABAB5"></path> <path d="M13.2893 0V10.5815H4.46281V0H0V19.685H4.49587V14.1759H13.2893V19.685H17.7521V0H13.2893Z" fill="#0ABAB5"></path> </svg> 