<?xml version="1.0" encoding="UTF-8"?>
<svg version="1.1" xmlns="http://www.w3.org/2000/svg" width="1200" height="630">
<path d="M0 0 C396 0 792 0 1200 0 C1200 207.9 1200 415.8 1200 630 C804 630 408 630 0 630 C0 422.1 0 214.2 0 0 Z " fill="#F8F8F8" transform="translate(0,0)"/>
<path d="M0 0 C17.78999628 1.18873247 31.98271185 5.46261187 45 18 C57.33160495 32.37526076 58.96503397 47.80374845 58 66 C54.53981516 102.19821383 29.65600138 142.20687186 10.37939453 171.86376953 C8.76425372 174.36509379 7.1765083 176.88286234 5.58984375 179.40234375 C-0.72946454 189.42249997 -7.12017694 199.35368725 -14 209 C-14.99 208.67 -15.98 208.34 -17 208 C-21.35754582 163.72918876 -23.78904251 118.32081467 -19 74 C-18.89816406 72.99114746 -18.79632812 71.98229492 -18.69140625 70.94287109 C-15.12762652 36.16852038 -15.12762652 36.16852038 -9 22 C-8.5688818 20.4832 -8.15244771 18.96215766 -7.75 17.4375 C-5.94691297 11.24347564 -3.0155837 5.67983727 0 0 Z " fill="#F26D58" transform="translate(625,123)"/>
<path d="M0 0 C5.3650899 8.14175923 8.62377684 17.61102067 11 27 C11.28955566 28.12051758 11.28955566 28.12051758 11.58496094 29.26367188 C19.31355461 59.76810556 20.62219732 90.44528618 20.33294678 121.73193359 C20.30546297 125.20063646 20.29712514 128.66927375 20.28923893 132.1380682 C20.18355347 177.56456525 20.18355347 177.56456525 17.4375 197.3125 C17.29892578 198.36244141 17.16035156 199.41238281 17.01757812 200.49414062 C16.68611681 202.99724503 16.3471124 205.49902743 16 208 C12.46851594 206.56451492 10.97580725 204.93953754 8.92578125 201.7578125 C8.34916748 200.87053467 7.77255371 199.98325684 7.1784668 199.0690918 C6.56269775 198.0975415 5.94692871 197.12599121 5.3125 196.125 C4.6625708 195.11284424 4.0126416 194.10068848 3.34301758 193.05786133 C-7.89607357 175.44910578 -18.94058389 157.63412508 -28.81103516 139.21777344 C-29.64697094 137.65850431 -30.48827939 136.10210944 -31.33349609 134.54785156 C-38.3338315 121.66292803 -44.46129868 108.57508731 -50 95 C-50.35118896 94.1654126 -50.70237793 93.3308252 -51.06420898 92.47094727 C-53.26898174 87.14994573 -54.95249127 81.9351769 -56.1875 76.3125 C-56.35185547 75.60544922 -56.51621094 74.89839844 -56.68554688 74.16992188 C-60.41297844 57.79638647 -60.72592732 40.50176637 -51.8515625 25.66015625 C-42.12431343 11.68493132 -30.11867167 3.6880129 -13.4921875 0.28125 C-2.97573666 -1.50678191 -2.97573666 -1.50678191 0 0 Z " fill="#ED332E" transform="translate(573,124)"/>
<path d="M0 0 C4.05106649 1.54326342 5.87555322 4.07831054 8.4375 7.5 C8.8715918 8.07911133 9.30568359 8.65822266 9.75292969 9.25488281 C10.69421612 10.51635278 11.63107084 11.78113912 12.56396484 13.04882812 C13.9564205 14.94078759 15.36258371 16.82193103 16.76953125 18.703125 C32.98267021 40.59860384 48.04076773 63.61078941 62 87 C62.55026855 87.91942383 63.10053711 88.83884766 63.66748047 89.78613281 C75.95728477 110.39481675 87.41967655 131.40332324 97.875 153 C98.18630859 153.64117767 98.49761719 154.28235535 98.81835938 154.94296265 C104 165.64407941 104 165.64407941 104 168 C99.79295546 167.45424409 96.54519081 166.51018027 92.7890625 164.55078125 C91.31083008 163.78374878 91.31083008 163.78374878 89.80273438 163.0012207 C88.75408203 162.44394287 87.70542969 161.88666504 86.625 161.3125 C85.52736328 160.7352417 84.42972656 160.1579834 83.29882812 159.56323242 C72.57998892 153.87363703 62.10699909 147.78764944 51.67871094 141.58544922 C49.24566237 140.14540024 46.8026391 138.72548185 44.3515625 137.31640625 C-20.2037627 100.11999852 -20.2037627 100.11999852 -28.4375 70.8125 C-31.67000711 50.79299574 -26.26834809 33.68983498 -14.75830078 17.22363281 C-10.29728456 11.05309689 -5.61358503 5.17040726 0 0 Z " fill="#E51D25" transform="translate(470,173)"/>
<path d="M0 0 C12.44401413 5.25724642 21.90585384 24.1871965 27 36 C31.82929955 48.11383122 33.37252301 63.49514141 28.24902344 75.80419922 C22.74793102 87.7232328 15.1786914 96.73852787 5 105 C4.1234375 105.71414063 3.246875 106.42828125 2.34375 107.1640625 C-26.57852557 130.04844034 -59.78114728 148.35088133 -92.625 165 C-93.25156494 165.32025146 -93.87812988 165.64050293 -94.52368164 165.97045898 C-97.24464861 167.31592351 -98.91373669 168 -102 168 C-101.37723323 162.89305646 -99.07677387 158.70459947 -96.80078125 154.16796875 C-96.37376923 153.30716202 -95.9467572 152.44635529 -95.50680542 151.5594635 C-94.11630084 148.76494012 -92.71539548 145.97582147 -91.3125 143.1875 C-90.60028793 141.76564392 -90.60028793 141.76564392 -89.87368774 140.31506348 C-82.85042881 126.31216189 -75.51458308 112.63944335 -67.36181641 99.25830078 C-65.46102459 96.10621682 -63.6700186 92.90098544 -61.875 89.6875 C-44.72165 59.61485475 -24.62232654 24.62232654 0 0 Z " fill="#EC2C2A" transform="translate(726,173)"/>
<path d="M0 0 C4.58656163 11.12126149 3.72333494 28.92163821 0.1640625 40.21484375 C-4.30447624 50.90634751 -9.62216756 59.85328018 -18 68 C-18.68578125 68.70640625 -19.3715625 69.4128125 -20.078125 70.140625 C-36.27560546 85.85818011 -56.67274476 87.31137127 -77.98046875 87.1953125 C-80.00498819 87.19157636 -82.02950946 87.18873223 -84.05403137 87.18673706 C-89.34922389 87.17914794 -94.64430445 87.15954063 -99.93945312 87.1373291 C-105.35610439 87.1167683 -110.77277398 87.10771357 -116.18945312 87.09765625 C-126.79301759 87.07628977 -137.39649944 87.04221165 -148 87 C-146.31319067 83.32321948 -144.77030697 81.88132407 -141.3203125 79.70703125 C-140.34328369 79.08562256 -139.36625488 78.46421387 -138.35961914 77.82397461 C-136.75848267 76.82829468 -136.75848267 76.82829468 -135.125 75.8125 C-134.01310303 75.1119751 -132.90120605 74.4114502 -131.75561523 73.68969727 C-128.1812039 71.44226433 -124.59227319 69.21873915 -121 67 C-120.12755646 66.46034607 -120.12755646 66.46034607 -119.23748779 65.90979004 C-102.020702 55.26686159 -84.5931317 45.00978911 -67 35 C-66.02224609 34.4436084 -65.04449219 33.8872168 -64.03710938 33.31396484 C-52.01842316 26.48406073 -39.96530574 19.71451214 -27.8918457 12.98193359 C-23.2318961 10.38204406 -18.58236284 7.770175 -13.97265625 5.08203125 C-12.85588501 4.43572754 -12.85588501 4.43572754 -11.71655273 3.77636719 C-10.36603139 2.99256981 -9.02009769 2.20078862 -7.67993164 1.39941406 C-3.33487367 -1.11162456 -3.33487367 -1.11162456 0 0 Z " fill="#E61D25" transform="translate(781,268)"/>
<path d="M0 0 C6.00416498 1.62571244 11.03702394 4.7177008 16.375 7.8125 C24.64849398 12.55491616 32.97125094 17.18001012 41.375 21.6875 C50.43784832 26.56100083 59.33934813 31.64588071 68.17382812 36.91943359 C70.88682585 38.52474481 73.63079479 40.07378055 76.375 41.625 C95.35385179 52.44207493 114.07229174 63.70694833 132.51123047 75.41992188 C134.07017637 76.40967054 135.63135854 77.39591529 137.19580078 78.37695312 C138.97068782 79.49050393 140.73595113 80.61935815 142.5 81.75 C143.84578125 82.60851562 143.84578125 82.60851562 145.21875 83.484375 C145.8065625 83.98453125 146.394375 84.4846875 147 85 C147 85.99 147 86.98 147 88 C135.02035885 88.11646052 123.040855 88.20500075 111.0607605 88.25906086 C105.49635654 88.28502265 99.93234326 88.32017249 94.36816406 88.37719727 C88.98645249 88.43199937 83.60511387 88.4615211 78.22314453 88.47438622 C76.18206929 88.48354034 74.14101169 88.50141313 72.10009766 88.52865028 C50.03906432 88.81103905 32.65475029 83.92946433 16.20703125 68.33203125 C3.1089379 54.49209898 -2.37762211 38.57163912 -2.25 19.875 C-2.25773437 18.73417969 -2.26546875 17.59335937 -2.2734375 16.41796875 C-2.25983629 10.56264887 -2.01507687 5.51747239 0 0 Z " fill="#BF151B" transform="translate(417,267)"/>
<path d="M0 0 C4.95 0 9.9 0 15 0 C18.14905464 9.35269229 21.26645525 18.70456528 24.12109375 28.15234375 C25.16319704 31.5287584 26.30315381 34.86527404 27.484375 38.1953125 C28 40 28 40 28 43 C28.66 43 29.32 43 30 43 C30.10376953 42.43112061 30.20753906 41.86224121 30.31445312 41.27612305 C31.69572679 34.02082418 33.54946458 26.93317849 35.5 19.8125 C35.80808594 18.67619141 36.11617187 17.53988281 36.43359375 16.36914062 C37.91935747 10.90114752 39.44324573 5.44863994 41 0 C46.61 0 52.22 0 58 0 C65.84988109 23.37433574 65.84988109 23.37433574 69 33.25 C69.5878125 35.08304687 69.5878125 35.08304687 70.1875 36.953125 C71 40 71 40 71 44 C71.66 44 72.32 44 73 44 C73.15855469 43.175 73.31710937 42.35 73.48046875 41.5 C75.24477323 32.76620544 77.61938392 24.41866461 80.37255859 15.95605469 C81.71118566 11.7828718 82.94619623 7.57725441 84.203125 3.37890625 C85 1 85 1 86 0 C88.18639453 -0.07258946 90.37500389 -0.08373783 92.5625 -0.0625 C94.35880859 -0.04896484 94.35880859 -0.04896484 96.19140625 -0.03515625 C97.11824219 -0.02355469 98.04507813 -0.01195312 99 0 C97.545307 7.21751529 95.44302197 14.06485321 93.0859375 21.03515625 C92.71143463 22.15442001 92.33693176 23.27368378 91.95108032 24.42686462 C90.76330076 27.97351744 89.56925364 31.51802261 88.375 35.0625 C87.56468805 37.47837609 86.75478792 39.89439036 85.9453125 42.31054688 C83.96830277 48.20864054 81.9856723 54.10481735 80 60 C74.39 60 68.78 60 63 60 C58.63080095 45.67730014 54.2898587 31.34667029 50 17 C47.21675317 25.520778 44.93047631 34.09715882 42.79736328 42.79882812 C41.37089792 48.59377405 39.80224341 54.30870501 38 60 C32.39 60 26.78 60 21 60 C18.26027111 52.32521993 15.52186692 44.64997123 12.78582001 36.97387791 C11.51543861 33.40993932 10.24446783 29.84621319 8.97216797 26.28295898 C7.7453445 22.8470003 6.52004588 19.41050144 5.29582214 15.97361565 C4.82747661 14.65964158 4.35857323 13.34586621 3.88911438 12.03228951 C3.23386361 10.19856015 2.58074396 8.36406968 1.92773438 6.52954102 C1.55467163 5.48363297 1.18160889 4.43772491 0.79724121 3.36012268 C0 1 0 1 0 0 Z " fill="#272425" transform="translate(602,434)"/>
<path d="M0 0 C1.91145715 0.00502844 3.82291559 0.00958896 5.734375 0.01367188 C10.36461587 0.02456312 14.99479323 0.04175249 19.625 0.0625 C19.625 0.7225 19.625 1.3825 19.625 2.0625 C17.484375 3.76953125 17.484375 3.76953125 14.375 5.875 C13.51902222 6.45507812 13.51902222 6.45507812 12.64575195 7.046875 C10.6451677 8.39512336 8.63574342 9.72945328 6.625 11.0625 C5.85913574 11.57345215 5.09327148 12.0844043 4.30419922 12.61083984 C-6.65836276 19.90821454 -17.69182207 26.96934372 -29.375 33.0625 C-30.3959375 33.61035156 -31.416875 34.15820312 -32.46875 34.72265625 C-41.32099452 38.99410219 -50.6850316 39.53594037 -60.23046875 37.43359375 C-75.85052363 31.89580005 -86.70566268 18.51131101 -95.375 5.0625 C-95.375 4.4025 -95.375 3.7425 -95.375 3.0625 C-80.06149647 2.19009434 -64.74500009 1.78136748 -49.41186523 1.45532227 C-42.42876543 1.29911478 -35.48301093 1.11647602 -28.51953125 0.53515625 C-19.02522293 -0.20968506 -9.51640422 -0.04394993 0 0 Z " fill="#A71114" transform="translate(543.375,363.9375)"/>
<path d="M0 0 C4.67325471 -0.02519797 9.34646772 -0.04308849 14.01977539 -0.05493164 C15.60116263 -0.05988196 17.18254549 -0.06664392 18.76391602 -0.07543945 C27.41729678 -0.12227405 36.00103932 -0.00673314 44.63949585 0.57260132 C52.23382067 1.05946734 59.83610719 1.2957735 67.44140625 1.53515625 C68.13192518 1.55693876 68.82244411 1.57872128 69.53388786 1.60116386 C73.81307894 1.73540299 78.09237365 1.86607911 82.3717041 1.99578857 C86.05970541 2.10809106 89.74762172 2.22311911 93.43554688 2.33789062 C100.6236192 2.56120144 107.81177723 2.78157959 115 3 C107.65083985 17.99740259 96.18011873 29.82504636 80.8125 36.4375 C71.38720588 39.47662183 61.90879165 39.76274097 52.88793945 35.53710938 C50.17602797 34.13987469 47.52602228 32.6576534 44.89648438 31.11132812 C43.12445176 30.07292797 41.32086801 29.08890148 39.515625 28.109375 C29.61887403 22.68212447 20.29133749 16.39370749 11 10 C10.3827002 9.57557617 9.76540039 9.15115234 9.12939453 8.71386719 C2.35586501 4.02376069 2.35586501 4.02376069 0 2 C0 1.34 0 0.68 0 0 Z " fill="#D11B22" transform="translate(635,364)"/>
<path d="M0 0 C4.95 0 9.9 0 15 0 C21.71084891 13.16845823 27.91269695 26.53326715 34 40 C34.41942871 40.92425781 34.83885742 41.84851563 35.27099609 42.80078125 C36.41458287 45.32341273 37.55242613 47.84852855 38.6875 50.375 C39.02652344 51.12378418 39.36554688 51.87256836 39.71484375 52.64404297 C42 57.76748916 42 57.76748916 42 60 C37.05 60 32.1 60 27 60 C24.03 53.07 24.03 53.07 21 46 C7.14 45.505 7.14 45.505 -7 45 C-7.99 47.97 -8.98 50.94 -10 54 C-10.66 55.98 -11.32 57.96 -12 60 C-16.62 60 -21.24 60 -26 60 C-25.07527619 55.37638094 -23.63505491 51.55444507 -21.71875 47.3046875 C-21.38891113 46.56302338 -21.05907227 45.82135925 -20.71923828 45.05722046 C-19.65145295 42.66074198 -18.57603037 40.26778636 -17.5 37.875 C-16.76868228 36.23934629 -16.03756268 34.60360399 -15.30664062 32.96777344 C-10.35410644 21.90705848 -5.30187042 10.89828919 0 0 Z " fill="#272324" transform="translate(568,434)"/>
<path d="M0 0 C4.29 0 8.58 0 13 0 C13 7.92 13 15.84 13 24 C22.9 24 32.8 24 43 24 C43 16.08 43 8.16 43 0 C47.62 0 52.24 0 57 0 C57 19.8 57 39.6 57 60 C52.38 60 47.76 60 43 60 C43 51.75 43 43.5 43 35 C33.1 35 23.2 35 13 35 C13 42.92 13 50.84 13 59 C8.71 59 4.42 59 0 59 C0 39.53 0 20.06 0 0 Z " fill="#272425" transform="translate(415,434)"/>
<path d="M0 0 C1.05904289 0.00212242 1.05904289 0.00212242 2.13948059 0.00428772 C4.39120751 0.00987861 6.64283446 0.02242937 8.89453125 0.03515625 C10.4225246 0.04017243 11.95051952 0.04473513 13.47851562 0.04882812 C17.2213926 0.05984505 20.96419498 0.07710338 24.70703125 0.09765625 C24.70703125 3.39765625 24.70703125 6.69765625 24.70703125 10.09765625 C23.92577881 10.10700195 23.14452637 10.11634766 22.33959961 10.12597656 C18.77395361 10.17990937 15.2095871 10.26351435 11.64453125 10.34765625 C10.41541016 10.36183594 9.18628906 10.37601562 7.91992188 10.390625 C-1.4787164 10.52549677 -1.4787164 10.52549677 -9.29296875 15.09765625 C-10.28296875 18.06765625 -11.27296875 21.03765625 -12.29296875 24.09765625 C0.24703125 24.09765625 12.78703125 24.09765625 25.70703125 24.09765625 C25.70703125 27.72765625 25.70703125 31.35765625 25.70703125 35.09765625 C13.16703125 35.09765625 0.62703125 35.09765625 -12.29296875 35.09765625 C-10.82448355 42.58102522 -10.82448355 42.58102522 -6.29296875 47.09765625 C-3.39372509 48.54727808 -0.7699652 48.31892106 2.46484375 48.4140625 C3.1278952 48.4348436 3.79094666 48.45562469 4.47409058 48.47703552 C6.59329819 48.54244856 8.71263025 48.6013773 10.83203125 48.66015625 C12.26824206 48.70334934 13.70444027 48.74696389 15.140625 48.79101562 C18.66262719 48.89812124 22.1847695 48.999412 25.70703125 49.09765625 C25.70703125 52.72765625 25.70703125 56.35765625 25.70703125 60.09765625 C21.45698454 60.17251481 17.20729991 60.22658792 12.95678711 60.26245117 C11.5146617 60.27742133 10.07258089 60.29780493 8.63061523 60.32397461 C-2.423092 60.5193781 -11.61787709 59.99187787 -20.56640625 52.84375 C-26.90310428 46.43536987 -27.49044699 38.36931105 -27.54296875 29.84765625 C-27.56359375 29.02652344 -27.58421875 28.20539063 -27.60546875 27.359375 C-27.65716847 19.20374486 -25.62120259 12.7448848 -20.04296875 6.63671875 C-14.21582106 1.51195047 -7.56800752 -0.05706641 0 0 Z " fill="#2A2627" transform="translate(732.29296875,433.90234375)"/>
<path d="M0 0 C4.29 0 8.58 0 13 0 C13.01458252 1.21059082 13.02916504 2.42118164 13.04418945 3.66845703 C13.10231685 8.17509981 13.1795489 12.68125049 13.26245117 17.1875 C13.29563265 19.13500968 13.32368557 21.08261397 13.34643555 23.03027344 C13.38010634 25.83569515 13.43242827 28.64025528 13.48828125 31.4453125 C13.49467117 32.31116974 13.5010611 33.17702698 13.50764465 34.06912231 C13.62871688 39.08713655 14.17048375 42.67957362 17 47 C20.61009281 49.40672854 23.26975281 49.29795107 27.4375 49.25 C28.75621094 49.25515625 30.07492187 49.2603125 31.43359375 49.265625 C35.57461609 49.00736944 35.57461609 49.00736944 39 47 C41.5587188 42.30640637 41.34670703 37.53070275 41.4140625 32.32421875 C41.43342865 31.3990596 41.4527948 30.47390045 41.4727478 29.52070618 C41.53235254 26.57639683 41.57885248 23.63204798 41.625 20.6875 C41.66319736 18.68683225 41.70225012 16.68618064 41.7421875 14.68554688 C41.83803841 9.7904962 41.92214 4.89536855 42 0 C46.62 0 51.24 0 56 0 C56.04973696 5.67422229 56.0858782 11.34831538 56.10986328 17.02270508 C56.11987087 18.94981092 56.1334811 20.87690178 56.15087891 22.80395508 C56.17535921 25.58678913 56.18653578 28.36942101 56.1953125 31.15234375 C56.20563507 32.00271713 56.21595764 32.85309052 56.22659302 33.72923279 C56.22775367 40.03082427 56.11305694 47.01030313 52.37109375 52.3046875 C51.41396484 53.08199219 51.41396484 53.08199219 50.4375 53.875 C49.81746094 54.40867187 49.19742188 54.94234375 48.55859375 55.4921875 C41.84235234 59.45015572 35.19462798 60.4879717 27.5 60.375 C26.31470703 60.39240234 26.31470703 60.39240234 25.10546875 60.41015625 C17.96648692 60.37510397 10.5238086 59.06554813 5.0625 54.125 C4.51722656 53.65320313 3.97195313 53.18140625 3.41015625 52.6953125 C-0.84737281 47.57684266 -0.26167474 41.75198056 -0.1953125 35.44921875 C-0.1924826 34.43527542 -0.18965271 33.42133209 -0.18673706 32.37666321 C-0.17556625 29.14682073 -0.15046711 25.91725829 -0.125 22.6875 C-0.1149662 20.49414464 -0.10584105 18.30078492 -0.09765625 16.10742188 C-0.07563701 10.7381738 -0.04112825 5.36913434 0 0 Z " fill="#272324" transform="translate(483,434)"/>
<path d="M0 0 C4.95 0 9.9 0 15 0 C15 19.8 15 39.6 15 60 C10.05 60 5.1 60 0 60 C0 40.2 0 20.4 0 0 Z " fill="#2F2B2C" transform="translate(769,434)"/>
<path d="M0 0 C3.11223004 3.65806731 4.81550196 7.75570185 6.6875 12.125 C7.00783203 12.85332031 7.32816406 13.58164062 7.65820312 14.33203125 C10 19.73464152 10 19.73464152 10 22 C3.73 22 -2.54 22 -9 22 C-4.06 4.06 -4.06 4.06 0 0 Z " fill="#EFEFEF" transform="translate(575,447)"/>
<path d="M0 0 C0 0.66 0 1.32 0 2 C-1.21060834 3.08719681 -2.46990544 4.12054624 -3.75 5.125 C-7.9678585 8.67727445 -9.87328864 11.94906051 -12 17 C-12.6640625 15.28125 -12.6640625 15.28125 -13 13 C-10.72764834 8.14776037 -5.95183748 0 0 0 Z " fill="#373435" transform="translate(719,437)"/>
<path d="M0 0 C0.33 0 0.66 0 1 0 C1.33 4.62 1.66 9.24 2 14 C3.65 12.68 5.3 11.36 7 10 C5.87548273 12.9719385 4.77706209 15.33440687 3 18 C2.01 17.67 1.02 17.34 0 17 C0 11.39 0 5.78 0 0 Z " fill="#E43336" transform="translate(608,314)"/>
<path d="M0 0 C1.32 0.66 2.64 1.32 4 2 C4 2.99 4 3.98 4 5 C-4.25 5 -12.5 5 -21 5 C-21 4.67 -21 4.34 -21 4 C-10.605 3.505 -10.605 3.505 0 3 C0 2.01 0 1.02 0 0 Z " fill="#D52C2D" transform="translate(560,350)"/>
<path d="M0 0 C0.99 0.33 1.98 0.66 3 1 C1.27424112 3.58863832 -0.13336405 5.18067192 -2.4375 7.1875 C-3.03433594 7.71730469 -3.63117188 8.24710938 -4.24609375 8.79296875 C-6 10 -6 10 -9 10 C-7.8758824 8.70756532 -6.75067408 7.41607925 -5.625 6.125 C-4.99851562 5.40570313 -4.37203125 4.68640625 -3.7265625 3.9453125 C-2.52573166 2.5923402 -1.2791655 1.2791655 0 0 Z " fill="#E4272C" transform="translate(470,173)"/>
<path d="M0 0 C2.31 0 4.62 0 7 0 C6.01 0.33 5.02 0.66 4 1 C4.33 2.32 4.66 3.64 5 5 C2.5 3.625 2.5 3.625 0 2 C0 1.34 0 0.68 0 0 Z " fill="#DB2C2E" transform="translate(635,364)"/>
</svg>
