<?xml version="1.0" encoding="UTF-8"?>
<svg version="1.1" xmlns="http://www.w3.org/2000/svg" width="900" height="900">
<path d="M0 0 C297 0 594 0 900 0 C900 297 900 594 900 900 C603 900 306 900 0 900 C0 603 0 306 0 0 Z " fill="#FD0032" transform="translate(0,0)"/>
<path d="M0 0 C41.91 0 83.82 0 127 0 C127.0093457 9.75731689 127.01869141 19.51463379 127.02832031 29.56762695 C127.0610397 60.80023376 127.11333359 92.03278042 127.17792095 123.26533695 C127.18793821 128.11805311 127.19778237 132.9707696 127.20751953 137.82348633 C127.2094609 138.7895601 127.21140228 139.75563387 127.21340248 140.7509826 C127.24440936 156.38607546 127.26139947 172.02115364 127.27319422 187.65627144 C127.28561257 203.70367247 127.31312945 219.7509966 127.35461307 235.79834908 C127.37972885 245.69754504 127.39311868 255.59661343 127.39142957 265.4958417 C127.39139978 272.28745367 127.40605809 279.07893584 127.43216428 285.8704972 C127.44678759 289.78678143 127.45503273 293.70279949 127.44580269 297.61910629 C127.43748233 301.2103233 127.44776111 304.80100682 127.47233662 308.39214494 C127.48065874 310.29475699 127.46951907 312.19742412 127.45750165 314.10001642 C127.53421596 321.81006567 128.86348007 327.9580659 132 335 C132.27349848 335.65242922 132.54699696 336.30485843 132.82878327 336.97705823 C136.7074545 344.98512191 145.05240019 349.5106607 152.88292849 352.96300066 C158.43592071 354.81039147 163.89527932 354.68933709 169.69902039 354.63923645 C171.05321045 354.6455605 172.40739174 354.65407091 173.76155597 354.66455668 C177.4538202 354.68691019 181.14545393 354.67855492 184.83773649 354.6648711 C188.83013606 354.65556459 192.82240979 354.67518241 196.81477356 354.69119263 C203.72219732 354.71497842 210.6294427 354.72065505 217.53690147 354.71384621 C227.52374516 354.70402841 237.51039169 354.72181013 247.49720345 354.74621352 C263.7021602 354.78506697 279.9070604 354.80176392 296.11206055 354.80444336 C311.84874369 354.80709301 327.58536077 354.82022966 343.32202148 354.84741211 C344.29289208 354.84908549 345.26376268 354.85075887 346.26405361 354.85248295 C351.13488417 354.86094275 356.00571434 354.86960811 360.87654436 354.87837565 C401.25104244 354.95078445 441.62543304 354.98310286 482 355 C482 396.91 482 438.82 482 482 C439.34053609 482.06619291 396.68112079 482.12156365 354.02162018 482.15319599 C348.98007092 482.1569479 343.93852176 482.16083089 338.89697266 482.16479492 C337.39151234 482.16597532 337.39151234 482.16597532 335.85563868 482.16717956 C319.62574954 482.18021728 303.39589242 482.2038621 287.16602224 482.23145839 C270.5005241 482.2595581 253.83504267 482.2761859 237.16952181 482.28226548 C226.8941417 482.28637247 216.61885213 482.29932267 206.3434999 482.3237494 C199.28792411 482.339663 192.23239481 482.34438768 185.1768024 482.34050413 C181.11207338 482.3385913 177.04750208 482.34142874 172.98280144 482.35761642 C169.25019502 482.37237176 165.5178502 482.37285283 161.78523093 482.36269668 C159.81868467 482.3608578 157.8521408 482.37365567 155.88564062 482.38724393 C114.35000989 482.18148313 77.4622282 461.74638821 48 434 C47.34 433.38253906 46.68 432.76507812 46 432.12890625 C30.54514724 417.21068033 18.52749992 398.06449803 11 378 C10.59265625 376.97261719 10.1853125 375.94523437 9.765625 374.88671875 C7.04420205 367.73878377 5.03028656 360.55691783 3.25 353.125 C2.93385742 351.80544312 2.93385742 351.80544312 2.61132812 350.45922852 C0.34286667 340.64813273 -0.14312971 331.37349036 -0.12025452 321.32006836 C-0.12069104 319.93135559 -0.12156744 318.54264291 -0.12284368 317.15393066 C-0.12507274 313.35246762 -0.12108916 309.55103291 -0.11606562 305.74957347 C-0.11173844 301.64469961 -0.11320915 297.53982728 -0.1139679 293.43495178 C-0.11449169 286.32780582 -0.11135994 279.22066904 -0.10573006 272.11352539 C-0.09759554 261.83784774 -0.09499783 251.56217453 -0.09374207 241.28649402 C-0.09155462 224.61400781 -0.08490284 207.94152651 -0.07543945 191.26904297 C-0.0662574 175.07535832 -0.05918044 158.88167501 -0.05493164 142.68798828 C-0.05466892 141.68944655 -0.05440619 140.69090482 -0.05413551 139.66210425 C-0.05283045 134.65260546 -0.05156675 129.64310667 -0.05032361 124.63360786 C-0.03996055 83.08906756 -0.02152738 41.54453632 0 0 Z " fill="#FEFDFE" transform="translate(209,209)"/>
<path d="M0 0 C41.58 0 83.16 0 126 0 C126 58.74 126 117.48 126 178 C184.74 178 243.48 178 304 178 C304 219.58 304 261.16 304 304 C249.72524725 304.16121214 249.72524725 304.16121214 226.93359375 304.1953125 C211.21365116 304.21902159 195.49379451 304.24685238 179.77392578 304.30175781 C168.32382753 304.34173084 156.87379919 304.36745776 145.4236331 304.37635398 C139.36552999 304.381551 133.3076268 304.39369406 127.24958801 304.42292023 C121.53686457 304.45025479 115.82442166 304.45840875 110.11163902 304.45243073 C108.02524473 304.45352294 105.93884017 304.46136842 103.85250282 304.4768219 C74.79642377 304.68131721 49.9566939 295.6864384 29.06640625 275.1875 C6.61019342 252.27039237 -0.34467403 225.12707254 -0.22705078 193.7878418 C-0.22648573 191.66772466 -0.22680506 189.54760714 -0.22793579 187.42749023 C-0.22850663 181.7073333 -0.21679599 175.98726125 -0.20278788 170.26712394 C-0.19023555 164.27605358 -0.18910648 158.28498101 -0.18673706 152.29389954 C-0.18053548 140.96474589 -0.16414262 129.63563111 -0.14403808 118.30649453 C-0.11744454 102.98625819 -0.10669575 87.66601111 -0.09503365 72.34575748 C-0.07626104 48.23047591 -0.03640652 24.11527633 0 0 Z " fill="#FEFEFE" transform="translate(387,209)"/>
<path d="M0 0 C1.6254308 0.14095064 3.25034051 0.28792087 4.875 0.4375 C5.77992188 0.51871094 6.68484375 0.59992187 7.6171875 0.68359375 C10 1 10 1 12 2 C13.76471398 2.09744779 15.5331369 2.13024701 17.30053711 2.13307858 C18.43190598 2.13731962 19.56327484 2.14156067 20.72892761 2.14593023 C21.98240494 2.1455441 23.23588226 2.14515797 24.52734375 2.14476013 C25.86408087 2.14789228 27.20081702 2.15146671 28.53755188 2.15544754 C32.22328337 2.16516997 35.90899937 2.16869998 39.59474182 2.17129052 C43.5647964 2.17517704 47.5348372 2.18481458 51.50488281 2.19384766 C58.38785523 2.20880172 65.27082654 2.22033917 72.15380859 2.22979546 C82.10771942 2.2436495 92.0616047 2.26483398 102.01549721 2.28822399 C118.16657545 2.32616157 134.31765831 2.36112383 150.46875 2.39282227 C151.91970534 2.395673 151.91970534 2.395673 153.39997292 2.39858133 C167.13332063 2.42542427 180.86667193 2.44929462 194.60002708 2.47196633 C195.56733065 2.47356363 196.53463421 2.47516094 197.53125 2.47680664 C198.49738031 2.47840011 199.46351063 2.47999357 200.45891762 2.48163532 C216.548126 2.50837058 232.63730714 2.54275558 248.72648621 2.58346039 C258.65959084 2.60828108 268.59266611 2.62658216 278.52579689 2.636616 C285.32756508 2.64398799 292.12929387 2.6584852 298.931036 2.67868023 C302.86032987 2.6901096 306.78956008 2.69820334 310.71887207 2.69767189 C314.3112447 2.6972464 317.90347378 2.70587986 321.49580956 2.72192169 C323.42088736 2.72809034 325.3459889 2.72434531 327.27107239 2.72032636 C328.40244125 2.72717516 329.53381012 2.73402395 330.69946289 2.74108028 C331.6818544 2.74281653 332.66424591 2.74455278 333.67640686 2.74634165 C336 3 336 3 338 5 C338.2332716 7.2239151 338.2332716 7.2239151 338.20927429 10.04846191 C338.20505463 11.11691849 338.20083496 12.18537506 338.19648743 13.28620911 C338.18151718 14.46342026 338.16654694 15.64063141 338.15112305 16.85351562 C338.13934021 18.70719002 338.13934021 18.70719002 338.12731934 20.59831238 C338.10359002 23.99299849 338.07082551 27.38736755 338.03379035 30.78191948 C337.99692926 34.32969759 337.97068347 37.87755514 337.94306946 41.42541504 C337.89509787 47.38411004 337.83932846 53.34269197 337.77856445 59.30126953 C337.70831073 66.1960495 337.64849938 73.09085631 337.59470528 79.9857831 C337.53740643 87.31741932 337.4726125 94.64897522 337.40554833 101.98052788 C337.38669032 104.09694063 337.36922445 106.21336113 337.3520565 108.32978821 C337.31965335 112.26875353 337.27885371 116.20760695 337.23706055 120.14648438 C337.22816299 121.32369553 337.21926544 122.50090668 337.21009827 123.71379089 C337.19741913 124.78224747 337.18473999 125.85070404 337.17167664 126.95153809 C337.15810135 128.34968876 337.15810135 128.34968876 337.14425182 129.7760849 C337 132 337 132 336 134 C293.48496158 134.0458299 250.96992603 134.08104581 208.45486778 134.10213066 C203.42962861 134.10463192 198.40438949 134.10722058 193.37915039 134.10986328 C191.87856946 134.11065021 191.87856946 134.11065021 190.34767377 134.11145304 C174.17343507 134.12014328 157.99921067 134.13590561 141.82498045 134.15430559 C125.21484697 134.17304313 108.60472096 134.18412486 91.99457735 134.18817699 C81.75453788 134.19091406 71.51453883 134.19954257 61.27451181 134.21583293 C54.24182796 134.22644744 47.20916484 134.22959057 40.17647357 134.22700275 C36.12583187 134.22572838 32.07526052 134.22760945 28.0246315 134.23841095 C-9.99568353 134.33477216 -9.99568353 134.33477216 -20 131 C-20 130.34 -20 129.68 -20 129 C-20.9075 129.04125 -21.815 129.0825 -22.75 129.125 C-26.09350003 128.99640385 -27.11304445 128.44347778 -30 127 C-32.07158792 126.41501792 -34.15642808 125.87563676 -36.25 125.375 C-37.32765625 125.11460937 -38.4053125 124.85421875 -39.515625 124.5859375 C-40.33546875 124.39257812 -41.1553125 124.19921875 -42 124 C-42 123.34 -42 122.68 -42 122 C-35.42959185 123.38324382 -28.98830313 125.0743289 -22.52734375 126.90234375 C-10.75312612 129.89551056 0.54895257 131.44537285 12.71789551 131.39872742 C14.12176756 131.40418517 15.52563504 131.41094422 16.92949533 131.41886932 C20.7357312 131.43668405 24.54176991 131.43636387 28.34803748 131.43273985 C32.47188871 131.43211061 36.5956768 131.44878606 40.71949768 131.46325684 C47.847239 131.4859483 54.97493175 131.49791153 62.10270691 131.50238609 C72.40799518 131.50887121 82.71319602 131.53184986 93.01844889 131.55872939 C109.74194187 131.60190751 126.46543114 131.63192539 143.18896484 131.65356445 C159.42498593 131.67460113 175.66097679 131.7018996 191.89697266 131.73754883 C192.89938659 131.73974765 193.90180052 131.74194648 194.93459064 131.74421193 C199.96389273 131.75528226 204.99319454 131.76647494 210.02249622 131.77772844 C251.68164585 131.87078636 293.34078707 131.94000002 335 132 C335 90.09 335 48.18 335 5 C325.17162354 5.02094727 315.34324707 5.04189453 305.21704102 5.06347656 C273.76743289 5.12768085 242.3178245 5.17217172 210.86816785 5.20426132 C205.98283114 5.20926412 201.09749462 5.21444142 196.2121582 5.21972656 C194.75328877 5.22130043 194.75328877 5.22130043 193.26494723 5.22290608 C177.51853784 5.24030975 161.77218688 5.27184724 146.02581216 5.30861118 C129.86772503 5.34602165 113.7096685 5.36823608 97.55153984 5.37635398 C87.58166605 5.38184153 77.61195743 5.39917145 67.64213448 5.43166587 C60.80479147 5.45281504 53.9675338 5.45919912 47.13016046 5.45400551 C43.1857382 5.45144436 39.24160449 5.45536132 35.29723358 5.4768219 C31.68273369 5.49634375 28.06871533 5.49723396 24.45419287 5.48359558 C22.53415492 5.48111576 20.6141223 5.49831727 18.6941672 5.51632524 C11.57157339 5.46714847 6.21897693 4.56809295 0 1 C0 0.67 0 0.34 0 0 Z " fill="#D93B5D" transform="translate(356,559)"/>
<path d="M0 0 C41.91 0 83.82 0 127 0 C127.01458252 9.75731689 127.02916504 19.51463379 127.04418945 29.56762695 C127.09296449 60.80022752 127.1563785 92.03278305 127.22898628 123.26533695 C127.24025422 128.11805315 127.25139271 132.97076964 127.26245117 137.82348633 C127.26465486 138.7895601 127.26685854 139.75563387 127.269129 140.7509826 C127.30448518 156.38607052 127.3293588 172.02115839 127.35034702 187.65627144 C127.37212244 203.70366261 127.40518943 219.75100198 127.44870156 235.79834908 C127.47518824 245.69752357 127.49290559 255.59663354 127.49934604 265.4958417 C127.50460905 272.28743509 127.52085666 279.07894733 127.54566566 285.8704972 C127.55964939 289.78673978 127.56886319 293.70283721 127.56500816 297.61910629 C127.5615805 301.21024333 127.57206219 304.80107116 127.59323552 308.39214494 C127.60093991 310.29475446 127.59408976 312.19740611 127.58658296 314.10001642 C127.64748427 321.50952023 128.65545957 327.96412837 131 335 C130.34 335 129.68 335 129 335 C128.67 332.69 128.34 330.38 128 328 C127.34 328 126.68 328 126 328 C124.78363211 321.3548749 124.8636639 314.78781648 124.87974548 308.04774475 C124.87889106 306.73911057 124.87803663 305.4304764 124.87715632 304.08218664 C124.87492555 300.46088891 124.87891321 296.83962088 124.88393438 293.21832693 C124.88825908 289.30907467 124.88679102 285.39982404 124.8860321 281.49057007 C124.88550815 274.72117276 124.88864154 267.9517851 124.89426994 261.18239021 C124.90240233 251.39502198 124.90500195 241.60765841 124.90625793 231.82028716 C124.90844572 215.94032877 124.91509839 200.06037552 124.92456055 184.18041992 C124.93374174 168.75594102 124.94081912 153.33146351 124.94506836 137.90698242 C124.94533108 136.9559699 124.94559381 136.00495737 124.94586449 135.02512629 C124.94716954 130.25410201 124.94843325 125.48307772 124.94967639 120.71205342 C124.96004049 81.14136438 124.97847422 41.57068485 125 2 C64.115 2.495 64.115 2.495 2 3 C2.10557725 44.00335198 2.2145859 85.00668829 2.33111694 126.0100103 C2.3448857 130.85628281 2.35861292 135.70255543 2.37231445 140.54882812 C2.37504276 141.51359034 2.37777106 142.47835256 2.38058204 143.47235 C2.42459744 159.07172939 2.46525156 174.67111581 2.50465261 190.27050745 C2.54518911 206.28965122 2.58936299 222.30878201 2.63687855 238.32790661 C2.66605926 248.20401881 2.69243896 258.0801302 2.71517897 267.95625937 C2.7310677 274.73851417 2.75050535 281.52075315 2.77266841 288.30299032 C2.78533199 292.20968555 2.79649361 296.11636894 2.80341911 300.02307892 C1.92093525 323.941387 1.92093525 323.941387 5.0625 347.4375 C6.19000362 351.72201376 6.18325703 355.60183131 6 360 C5.67 360 5.34 360 5 360 C4.3487817 357.33454836 3.70392839 354.66780944 3.0625 352 C2.78889648 350.88431641 2.78889648 350.88431641 2.50976562 349.74609375 C2.33251953 349.00488281 2.15527344 348.26367188 1.97265625 347.5 C1.81031494 346.8296875 1.64797363 346.159375 1.48071289 345.46875 C-0.090098 337.40169073 -0.13890533 329.51691687 -0.12025452 321.32006836 C-0.12069104 319.93135559 -0.12156744 318.54264291 -0.12284368 317.15393066 C-0.12507274 313.35246762 -0.12108916 309.55103291 -0.11606562 305.74957347 C-0.11173844 301.64469961 -0.11320915 297.53982728 -0.1139679 293.43495178 C-0.11449169 286.32780582 -0.11135994 279.22066904 -0.10573006 272.11352539 C-0.09759554 261.83784774 -0.09499783 251.56217453 -0.09374207 241.28649402 C-0.09155462 224.61400781 -0.08490284 207.94152651 -0.07543945 191.26904297 C-0.0662574 175.07535832 -0.05918044 158.88167501 -0.05493164 142.68798828 C-0.05466892 141.68944655 -0.05440619 140.69090482 -0.05413551 139.66210425 C-0.05283045 134.65260546 -0.05156675 129.64310667 -0.05032361 124.63360786 C-0.03996055 83.08906756 -0.02152738 41.54453632 0 0 Z " fill="#FECDDC" transform="translate(209,209)"/>
<path d="M0 0 C1.07694122 -0.00281982 2.15388245 -0.00563965 3.26345825 -0.00854492 C5.05105057 -0.00550858 5.05105057 -0.00550858 6.87475586 -0.00241089 C8.12175262 -0.00416321 9.36874939 -0.00591553 10.65353394 -0.00772095 C14.08320565 -0.01137925 17.5128174 -0.01050596 20.94248581 -0.00734186 C24.52415805 -0.00481797 28.10582766 -0.00715588 31.6875 -0.00872803 C37.70337385 -0.01054964 43.71923543 -0.00814364 49.73510742 -0.00338745 C56.69982288 0.00205516 63.66450907 0.00029249 70.62922382 -0.00521386 C76.5986395 -0.00974523 82.56804635 -0.01039542 88.53746319 -0.00777519 C92.10726591 -0.00621255 95.67705485 -0.00601829 99.24685669 -0.00931168 C103.22439724 -0.01272461 107.20190475 -0.00800025 111.17944336 -0.00241089 C112.37117157 -0.00443512 113.56289978 -0.00645935 114.79074097 -0.00854492 C116.4061528 -0.00431519 116.4061528 -0.00431519 118.05419922 0 C118.99589462 0.00037703 119.93759003 0.00075405 120.90782166 0.0011425 C123.02709961 0.12698364 123.02709961 0.12698364 124.02709961 1.12698364 C124.12761298 2.835367 124.15741278 4.54793618 124.16017818 6.25927162 C124.16441923 7.37859915 124.16866028 8.49792669 124.17302984 9.65117323 C124.17245064 11.51896974 124.17245064 11.51896974 124.17185974 13.42449951 C124.17538659 14.73531884 124.17891343 16.04613816 124.18254715 17.39667928 C124.19228166 21.05221391 124.19580157 24.70773291 124.19839013 28.36327863 C124.20227326 32.29936302 124.21191125 36.23543346 124.22094727 40.17150879 C124.23590995 46.99828433 124.24744384 53.82505875 124.25689507 60.65184402 C124.27074879 70.52997049 124.29193428 80.40807122 124.3153236 90.28617923 C124.35327517 106.32116133 124.38823079 122.35614811 124.41992188 138.3911438 C124.42182237 139.35172008 124.42372286 140.31229636 124.42568094 141.30198102 C124.45249847 154.92640777 124.47637405 168.5508381 124.49906594 182.17527227 C124.50066324 183.13402941 124.50226055 184.09278654 124.50390625 185.08059692 C124.50549972 186.03818895 124.50709318 186.99578098 124.50873493 187.98239096 C124.53550148 203.94842051 124.56990241 219.91442277 124.61056 235.88042295 C124.63534154 245.73283429 124.65366462 255.58521625 124.66371561 265.43765382 C124.67110645 272.19134437 124.68563253 278.94499552 124.70577984 285.69865997 C124.717172 289.59616208 124.72530531 293.49360065 124.7247715 297.39112091 C124.72434344 300.96035616 124.73306916 304.5294485 124.7490213 308.09864704 C124.75513588 309.99919947 124.7514635 311.89977564 124.74742597 313.80033362 C124.7828255 319.66670143 125.11054441 324.58062295 127.02709961 330.12698364 C127.15209961 333.06448364 127.15209961 333.06448364 127.02709961 335.12698364 C122.17314214 330.27302618 122.79134506 323.17272846 122.76893699 316.74332529 C122.77476267 315.50304794 122.78058836 314.26277058 122.78659058 312.98490906 C122.78571774 311.64243153 122.78396532 310.29995433 122.78141224 308.95747894 C122.77695008 305.27914055 122.78492679 301.60091911 122.79496837 297.92259562 C122.80361689 293.95199318 122.80068171 289.98139717 122.79916382 286.01078796 C122.79811586 279.1349742 122.8043832 272.25919844 122.8156395 265.38339424 C122.83190353 255.44217895 122.83710343 245.500982 122.83961548 235.55975484 C122.84399116 219.43021718 122.85729683 203.30069977 122.8762207 187.1711731 C122.89458278 171.50418194 122.90873768 155.83719628 122.91723633 140.17019653 C122.91776178 139.20424903 122.91828722 138.23830153 122.91882859 137.24308289 C122.92143869 132.39713828 122.9239661 127.55119363 122.9264524 122.70524895 C122.94718095 82.51247587 122.9840486 42.31974023 123.02709961 2.12698364 C81.11709961 2.12698364 39.20709961 2.12698364 -3.97290039 2.12698364 C-3.91145903 44.53170371 -3.83936692 86.93634462 -3.74391411 129.34099892 C-3.73264657 134.3525053 -3.72150802 139.36401195 -3.71044922 144.3755188 C-3.70824554 145.37317778 -3.70604185 146.37083676 -3.70377139 147.39872783 C-3.66844351 163.531594 -3.64355395 179.66446013 -3.62255337 195.79735059 C-3.60075535 212.36344049 -3.56766706 228.9294804 -3.52419883 245.49552774 C-3.49775094 255.70945935 -3.48000509 265.92332873 -3.47355435 276.13729286 C-3.46827941 283.15084917 -3.45199214 290.16432731 -3.42723473 297.17784166 C-3.41329158 301.21824351 -3.40402181 305.25850565 -3.40789223 309.29893303 C-3.41133848 313.0093706 -3.40073397 316.7195114 -3.37966488 320.42988831 C-3.372021 322.38447493 -3.37877881 324.33910222 -3.38631743 326.29368925 C-3.31325432 335.55581143 -1.91145934 344.09774919 0.02709961 353.12698364 C0.2359475 354.11882487 0.4447954 355.11066609 0.65997201 356.13256311 C3.42319118 369.02708744 7.5830427 380.80661278 13.80053711 392.44729614 C14.20530273 393.33159302 14.61006836 394.21588989 15.02709961 395.12698364 C14.69709961 395.78698364 14.36709961 396.44698364 14.02709961 397.12698364 C10.62994693 394.90126292 8.77994097 392.79960363 7.02709961 389.12698364 C6.69376628 386.79365031 6.36043294 384.46031698 6.02709961 382.12698364 C5.51147461 381.30198364 4.99584961 380.47698364 4.46459961 379.62698364 C2.58097674 376.35111779 2.80867969 373.84012227 3.02709961 370.12698364 C2.03709961 369.79698364 1.04709961 369.46698364 0.02709961 369.12698364 C-0.83056561 366.76840429 -1.41511767 364.56575625 -1.97290039 362.12698364 C-2.34608398 360.67485474 -2.34608398 360.67485474 -2.72680664 359.19338989 C-5.72221985 347.13938408 -6.12160227 335.31624664 -6.09988403 322.93479919 C-6.10103879 321.53922189 -6.10262868 320.14364489 -6.10461128 318.74806851 C-6.10875537 314.94617413 -6.1067364 311.14430511 -6.10362506 307.34241068 C-6.10135123 303.23008791 -6.10486025 299.11776932 -6.10760498 295.00544739 C-6.11203919 286.96554479 -6.11109705 278.92565156 -6.10819234 270.8857486 C-6.1059308 264.35524527 -6.10562904 257.82474456 -6.10671616 251.29424095 C-6.10686939 250.36363418 -6.10702262 249.4330274 -6.1071805 248.47422042 C-6.10750023 246.58365256 -6.10782444 244.6930847 -6.10815309 242.80251684 C-6.11100055 225.10111699 -6.10773147 207.39972233 -6.10235272 189.69832333 C-6.09787724 174.49818994 -6.09866816 159.29806417 -6.10327148 144.09793091 C-6.10861625 126.44131968 -6.11073446 108.78471298 -6.10765922 91.12810105 C-6.10734067 89.24798501 -6.1070263 87.36786896 -6.10671616 85.48775291 C-6.10656188 84.56269243 -6.1064076 83.63763194 -6.10624865 82.68453932 C-6.10538381 76.15361199 -6.10684551 69.62268752 -6.10919571 63.09176064 C-6.11199245 55.14559568 -6.11125778 47.19944061 -6.10591497 39.2532768 C-6.10327749 35.19645517 -6.10227377 31.13965005 -6.10556412 27.08282852 C-6.10852564 23.37561271 -6.10693675 19.66842887 -6.10158657 15.961216 C-6.09992569 13.97223943 -6.10322099 11.98326067 -6.1066438 9.99428636 C-6.10403605 8.82927478 -6.1014283 7.66426321 -6.09874153 6.46394825 C-6.09857918 5.45014459 -6.09841683 4.43634094 -6.09824955 3.39181596 C-5.86525365 -0.81799804 -3.69482149 0.00147929 0 0 Z " fill="#D73859" transform="translate(212.972900390625,206.87301635742188)"/>
<path d="M0 0 C1.60062286 -0.00422974 1.60062286 -0.00422974 3.23358154 -0.00854492 C5.00479118 -0.00550858 5.00479118 -0.00550858 6.81178284 -0.00241089 C8.04741974 -0.00416321 9.28305664 -0.00591553 10.55613708 -0.00772095 C13.95488539 -0.01137941 17.35357317 -0.01050574 20.75231814 -0.00734186 C24.30282599 -0.00481754 27.85333117 -0.00715605 31.40383911 -0.00872803 C37.36843838 -0.01054975 43.33302529 -0.0081436 49.29762268 -0.00338745 C56.19983424 0.00205269 63.10201626 0.00029433 70.0042271 -0.00521386 C75.92185419 -0.00974789 81.83947238 -0.01039403 87.75710064 -0.00777519 C91.2950772 -0.00621369 94.83303987 -0.00601512 98.37101555 -0.00931168 C102.31482471 -0.01272933 106.25860063 -0.00799588 110.20240784 -0.00241089 C111.38119003 -0.00443512 112.55997223 -0.00645935 113.7744751 -0.00854492 C115.3793277 -0.00431519 115.3793277 -0.00431519 117.01660156 0 C117.95000083 0.00037703 118.8834001 0.00075405 119.84508419 0.0011425 C122.0717926 0.12698364 122.0717926 0.12698364 124.0717926 1.12698364 C124.0717926 59.20698364 124.0717926 117.28698364 124.0717926 177.12698364 C210.6967926 177.62198364 210.6967926 177.62198364 299.0717926 178.12698364 C299.4017926 178.78698364 299.7317926 179.44698364 300.0717926 180.12698364 C241.3317926 180.12698364 182.5917926 180.12698364 122.0717926 180.12698364 C122.0717926 121.38698364 122.0717926 62.64698364 122.0717926 2.12698364 C80.4917926 2.12698364 38.9117926 2.12698364 -3.9282074 2.12698364 C-3.80846967 40.02253019 -3.80846967 40.02253019 -3.6703949 77.91799927 C-3.61000496 93.37477257 -3.55162439 108.83153469 -3.5063324 124.2883606 C-3.47333514 135.5461905 -3.43346135 146.80397174 -3.38541734 158.06174785 C-3.36022918 164.01961947 -3.33842535 169.97745912 -3.32486343 175.93536949 C-3.31197319 181.55039446 -3.28984443 187.16530939 -3.2608242 192.78027344 C-3.25180264 194.83403644 -3.24607096 196.88781713 -3.24399376 198.94159889 C-3.23133948 209.55874741 -2.95014324 219.67490743 -0.9282074 230.12698364 C-0.71064082 231.56311519 -0.50067115 233.00045025 -0.3032074 234.43948364 C-0.1175824 235.76979614 -0.1175824 235.76979614 0.0717926 237.12698364 C-1.9282074 236.12698364 -1.9282074 236.12698364 -2.9282074 233.43948364 C-6.25536171 220.36792885 -6.21098836 207.29026344 -6.17112732 193.90896606 C-6.17220219 191.80017539 -6.17414391 189.691385 -6.17687988 187.58259583 C-6.18169474 181.89755897 -6.17411762 176.21260155 -6.16392684 170.5275743 C-6.15510356 164.57034005 -6.15690453 158.61310798 -6.1572876 152.65586853 C-6.1563537 142.66893188 -6.14770184 132.68202578 -6.13401794 122.69509888 C-6.11823937 111.13639728 -6.1130219 99.57772898 -6.1137535 88.0190174 C-6.1143626 76.89389724 -6.10927159 65.76878794 -6.10096169 54.64367104 C-6.0974247 49.90802234 -6.09559787 45.17237748 -6.09506798 40.43672752 C-6.09406746 34.87577015 -6.08799491 29.31484098 -6.07790184 23.7538929 C-6.07496914 21.70796761 -6.07375302 19.66203907 -6.07432938 17.61611176 C-6.07481635 14.83647668 -6.0692016 12.05692192 -6.06192017 9.27729797 C-6.06346877 8.45709756 -6.06501737 7.63689714 -6.0666129 6.79184216 C-6.03698114 0.00243949 -6.03698114 0.00243949 0 0 Z " fill="#DA4462" transform="translate(390.92820739746094,206.87301635742188)"/>
<path d="M0 0 C1.6254308 0.14095064 3.25034051 0.28792087 4.875 0.4375 C5.77992188 0.51871094 6.68484375 0.59992187 7.6171875 0.68359375 C10 1 10 1 12 2 C13.76471398 2.09744779 15.5331369 2.13024701 17.30053711 2.13307858 C18.43190598 2.13731962 19.56327484 2.14156067 20.72892761 2.14593023 C21.98240494 2.1455441 23.23588226 2.14515797 24.52734375 2.14476013 C25.86408087 2.14789228 27.20081702 2.15146671 28.53755188 2.15544754 C32.22328337 2.16516997 35.90899937 2.16869998 39.59474182 2.17129052 C43.5647964 2.17517704 47.5348372 2.18481458 51.50488281 2.19384766 C58.38785523 2.20880172 65.27082654 2.22033917 72.15380859 2.22979546 C82.10771942 2.2436495 92.0616047 2.26483398 102.01549721 2.28822399 C118.16657545 2.32616157 134.31765831 2.36112383 150.46875 2.39282227 C151.91970534 2.395673 151.91970534 2.395673 153.39997292 2.39858133 C167.13332063 2.42542427 180.86667193 2.44929462 194.60002708 2.47196633 C195.56733065 2.47356363 196.53463421 2.47516094 197.53125 2.47680664 C198.49738031 2.47840011 199.46351063 2.47999357 200.45891762 2.48163532 C216.548126 2.50837058 232.63730714 2.54275558 248.72648621 2.58346039 C258.65959084 2.60828108 268.59266611 2.62658216 278.52579689 2.636616 C285.32756508 2.64398799 292.12929387 2.6584852 298.931036 2.67868023 C302.86032987 2.6901096 306.78956008 2.69820334 310.71887207 2.69767189 C314.3112447 2.6972464 317.90347378 2.70587986 321.49580956 2.72192169 C323.42088736 2.72809034 325.3459889 2.72434531 327.27107239 2.72032636 C328.40244125 2.72717516 329.53381012 2.73402395 330.69946289 2.74108028 C331.6818544 2.74281653 332.66424591 2.74455278 333.67640686 2.74634165 C336 3 336 3 338 5 C338.23047829 7.22950172 338.23047829 7.22950172 338.20254517 10.06192017 C338.19688034 11.13326706 338.19121552 12.20461395 338.18537903 13.3084259 C338.16056709 15.07895576 338.16056709 15.07895576 338.13525391 16.88525391 C338.12106163 18.74374718 338.12106163 18.74374718 338.10658264 20.63978577 C338.07862291 24.04260476 338.04170393 27.44510843 338.00085878 30.84778261 C337.96029563 34.40182497 337.93110548 37.95595995 337.90072632 41.51010132 C337.84144196 48.24270525 337.77187968 54.97516248 337.69865549 61.70762765 C337.61580137 69.37130173 337.54435818 77.03506876 337.47388959 84.69886518 C337.32865385 100.46604846 337.16903579 116.23305283 337 132 C336.67 132 336.34 132 336 132 C336 90.09 336 48.18 336 5 C326.14133057 5.02094727 316.28266113 5.04189453 306.12524414 5.06347656 C274.57884083 5.12768061 243.03243726 5.17217162 211.48598558 5.20426132 C206.58562759 5.20926413 201.6852698 5.21444142 196.78491211 5.21972656 C195.32155675 5.22130043 195.32155675 5.22130043 193.82863867 5.22290608 C178.03373042 5.24030983 162.23888044 5.27184737 146.44400675 5.30861118 C130.23619906 5.34602141 114.02842188 5.36823603 97.82057279 5.37635398 C87.81998976 5.38184157 77.81957139 5.39917177 67.81903904 5.43166587 C60.9606713 5.45281475 54.10238865 5.45919919 47.24399067 5.45400551 C43.28741716 5.45144431 39.33113132 5.45536184 35.37460899 5.4768219 C31.74900703 5.4963431 28.12388513 5.49723437 24.49826067 5.48359558 C22.57225791 5.48111564 20.64626048 5.49831772 18.72034031 5.51632524 C11.58877633 5.46723478 6.22609483 4.57536744 0 1 C0 0.67 0 0.34 0 0 Z " fill="#DA1B43" transform="translate(356,559)"/>
<path d="M0 0 C0.99 0.495 0.99 0.495 2 1 C2.00059709 1.68253641 2.00119418 2.36507281 2.00180936 3.06829214 C2.03770109 43.51842102 2.09433665 83.96847326 2.17792095 124.41853294 C2.18793844 129.27511541 2.19778257 134.13169821 2.20751953 138.98828125 C2.2094609 139.95514195 2.21140228 140.92200266 2.21340248 141.91816217 C2.24442596 157.57468129 2.26140411 173.23118575 2.27319422 188.88772982 C2.28560397 204.95206658 2.31310141 221.01632639 2.35461307 237.08061457 C2.37975348 246.99363851 2.39311688 256.90653483 2.39142957 266.8195911 C2.39139982 273.61678808 2.40602164 280.41385503 2.43216428 287.21100134 C2.44681607 291.13298977 2.45500827 295.05471157 2.44580269 298.97672272 C2.43751229 302.56963403 2.44767945 306.16200973 2.47233662 309.75484163 C2.48070267 311.66563595 2.46948552 313.57648528 2.45750165 315.48726034 C2.52810495 322.54629242 3.43782741 326.91119616 7 333 C7.25 336.5 7.25 336.5 7 339 C8.32 339.33 9.64 339.66 11 340 C11.33 341.32 11.66 342.64 12 344 C12.66 344 13.32 344 14 344 C14.33 345.32 14.66 346.64 15 348 C16.32 348 17.64 348 19 348 C19 348.99 19 349.98 19 351 C12.80307404 349.12214365 8.56249284 345.08332378 4.75 340 C-0.20502291 330.32889948 -0.4372972 318.70792155 -0.36076355 308.09207153 C-0.36207575 306.75180118 -0.36470975 305.4115316 -0.36853105 304.07126606 C-0.37516675 300.43148873 -0.3633403 296.79198158 -0.34819686 293.15223861 C-0.33513949 289.2110717 -0.33963276 285.26991783 -0.34190369 281.32873535 C-0.34347034 274.51468473 -0.33412508 267.70072085 -0.31719017 260.88669205 C-0.29272176 251.03498424 -0.28498691 241.18331802 -0.2812262 231.33158313 C-0.27467396 215.34456685 -0.25474626 199.35759672 -0.22631836 183.37060547 C-0.19874591 167.84847239 -0.17752795 152.32635187 -0.16479492 136.80419922 C-0.16400675 135.84606477 -0.16321858 134.88793032 -0.16240653 133.9007615 C-0.15849118 129.09367952 -0.15470011 124.28659744 -0.15097082 119.47951531 C-0.11991318 79.65297792 -0.06711099 39.82649202 0 0 Z " fill="#E70F36" transform="translate(337,208)"/>
<path d="M0 0 C2.11608535 3.17412803 2.25060498 3.93568454 2.25396729 7.56561279 C2.25960693 8.50200592 2.26524658 9.43839905 2.27105713 10.40316772 C2.26498444 11.94141708 2.26498444 11.94141708 2.25878906 13.51074219 C2.26404602 15.13313309 2.26404602 15.13313309 2.26940918 16.78829956 C2.27823271 20.37455611 2.27237341 23.96061633 2.265625 27.546875 C2.26697186 30.03688597 2.26891257 32.52689667 2.27142334 35.01690674 C2.27437577 40.24241138 2.27026499 45.46786483 2.26074219 50.69335938 C2.2510795 56.05732856 2.25104456 61.42118712 2.26074219 66.78515625 C2.27234643 73.25955893 2.27414678 79.73388055 2.26763153 86.2082901 C2.26629849 88.6754076 2.26793063 91.14252857 2.27259064 93.60964203 C2.27768092 97.06374699 2.26990911 100.51759389 2.25878906 103.97167969 C2.26283752 104.98908234 2.26688599 106.00648499 2.27105713 107.05471802 C2.23933354 112.38547014 2.02674213 117.02845679 0 122 C-3.0831017 123.02770057 -5.17259774 123.12329902 -8.40238094 123.12025452 C-9.53102406 123.12162887 -10.65966719 123.12300322 -11.82251161 123.12441921 C-13.06782091 123.12082425 -14.31313021 123.11722929 -15.59617615 123.11352539 C-17.57426878 123.11374868 -17.57426878 123.11374868 -19.59232289 123.11397648 C-23.26054394 123.11427276 -26.9287328 123.10832665 -30.59694636 123.10140657 C-34.54997047 123.09504535 -38.50299573 123.09446444 -42.45602417 123.0932312 C-49.30842545 123.09034133 -56.16081599 123.0838968 -63.0132122 123.07516479 C-72.92504553 123.06262679 -82.83687486 123.05653775 -92.74871481 123.05223143 C-108.83483973 123.04515995 -124.92095963 123.03435461 -141.00708008 123.02050781 C-141.9703029 123.01968 -142.93352573 123.01885219 -143.92593712 123.01799929 C-151.74135692 123.01125467 -159.55677656 123.00432996 -167.3721962 122.99739647 C-174.20231367 122.99134448 -181.0324312 122.98536397 -187.86254883 122.97949219 C-188.82429862 122.97866406 -189.78604841 122.97783593 -190.77694213 122.97698271 C-206.8006308 122.96330688 -222.82431955 122.95354228 -238.84801251 122.94658184 C-248.73742296 122.94209513 -258.62681851 122.9340437 -268.51622201 122.92143703 C-275.28993974 122.91302441 -282.06365404 122.90812358 -288.83737665 122.90601182 C-292.74869123 122.90466402 -296.65998655 122.90163767 -300.57129478 122.89425278 C-304.14949287 122.88752222 -307.72766303 122.88536385 -311.30586684 122.88688838 C-313.21849656 122.88648686 -315.13112322 122.88111206 -317.04374498 122.87558079 C-318.17499585 122.87695514 -319.30624672 122.87832949 -320.47177792 122.87974548 C-321.44983015 122.87882369 -322.42788238 122.8779019 -323.43557256 122.87695217 C-325.77721037 122.98930998 -327.76056145 123.33339552 -330 124 C-330.66 123.01 -331.32 122.02 -332 121 C-223.1 121 -114.2 121 -2 121 C-1.67 82.39 -1.34 43.78 -1 4 C-0.67 2.68 -0.34 1.36 0 0 Z " fill="#F10634" transform="translate(694,572)"/>
<path d="M0 0 C41.58 0 83.16 0 126 0 C126 58.41 126 116.82 126 177 C125.67 177 125.34 177 125 177 C125 118.92 125 60.84 125 1 C84.08 1 43.16 1 1 1 C1.33 72.61 1.66 144.22 2 218 C2.66 218 3.32 218 4 218 C5.00344253 224.30735307 5.50873071 230.63440427 6 237 C3.77355596 234.77355596 3.3366676 233.47525613 2.4375 230.5 C2.18871094 229.7059375 1.93992187 228.911875 1.68359375 228.09375 C0.05147585 220.7072507 -0.14745153 213.1741033 -0.12025452 205.63522339 C-0.12110894 204.74871538 -0.12196337 203.86220738 -0.12284368 202.94883549 C-0.12447737 200.00867508 -0.11901204 197.06857303 -0.11352539 194.12841797 C-0.11324304 192.0087433 -0.1134022 189.88906853 -0.1139679 187.76939392 C-0.11425399 182.03668922 -0.10838769 176.30400558 -0.10139394 170.57130575 C-0.09512905 164.57220664 -0.09455412 158.57310701 -0.09336853 152.57400513 C-0.09026445 141.223516 -0.08206352 129.87303653 -0.07201904 118.52255166 C-0.05873558 103.17780607 -0.05335054 87.83305784 -0.04751682 72.48830795 C-0.038123 48.3255314 -0.01819791 24.16277524 0 0 Z " fill="#FED1DD" transform="translate(387,209)"/>
<path d="M0 0 C22.65223886 -0.02333282 45.30447574 -0.04098106 67.95672417 -0.05181217 C78.47392045 -0.05697431 88.99110928 -0.06401546 99.50830078 -0.07543945 C108.67223017 -0.08538878 117.83615417 -0.09185403 127.00008881 -0.09408849 C131.85488244 -0.09539517 136.70966062 -0.09847836 141.56444931 -0.10573006 C146.12961648 -0.11249419 150.69476177 -0.11461615 155.25993347 -0.11310768 C156.93937931 -0.11338383 158.61882585 -0.11538663 160.29826736 -0.11920547 C162.58346489 -0.12414884 164.86857879 -0.12299588 167.15377808 -0.12025452 C168.43507032 -0.12117631 169.71636257 -0.1220981 171.03648186 -0.12304783 C174 0 174 0 176 1 C176.00423194 1.60407621 176.00846388 2.20815243 176.01282406 2.83053398 C176.11635627 17.56336337 176.2250266 32.29614876 176.33933926 47.02889824 C176.39449861 54.15368969 176.44795111 61.27848615 176.49731445 68.40332031 C176.54036923 74.61697387 176.58669885 80.83059314 176.63687855 87.04419339 C176.66330921 90.33091354 176.68766726 93.61762736 176.70907402 96.90438461 C176.73331311 100.5832767 176.76333972 104.26208043 176.79467773 107.94091797 C176.8004332 109.01770309 176.80618866 110.09448822 176.81211853 111.2039032 C176.86698104 116.89275643 177.17567542 122.4058699 177.98378086 128.0411396 C177.98913318 128.68756353 177.99448549 129.33398746 178 130 C175.40317524 132.59682476 173.62580007 132.23953996 170.08844459 132.25816262 C169.25382544 132.25233693 168.41920629 132.24651125 167.55929565 132.24050903 C166.23366141 132.24307231 166.23366141 132.24307231 164.88124669 132.24568737 C161.90235824 132.24899717 158.92369211 132.23795412 155.94482422 132.22705078 C153.81647751 132.22648699 151.68813042 132.2268026 149.55978394 132.22793579 C143.7666649 132.22851155 137.97362804 132.21672116 132.18052816 132.20278788 C126.13200385 132.19031767 120.08347782 132.18911295 114.03494263 132.18673706 C102.57438397 132.18051135 91.11386329 132.16408582 79.65332139 132.14403808 C66.60878846 132.12171295 53.56425375 132.11069419 40.51970649 132.10064721 C13.67978324 132.07972051 -13.16010626 132.04452341 -40 132 C-40 131.67 -40 131.34 -40 131 C30.95 131 101.9 131 175 131 C174.855625 109.900625 174.71125 88.80125 174.5625 67.0625 C174.51939697 60.389104 174.47629395 53.71570801 174.43188477 46.84008789 C174.38865319 40.8818234 174.38865319 40.8818234 174.34410095 34.92356873 C174.32482212 32.2602753 174.30714798 29.59701522 174.29173279 26.93370056 C174.26833807 22.9102576 174.23713417 18.88691059 174.20532227 14.86352539 C174.19955201 13.66797311 174.19378176 12.47242083 174.18783665 11.24063969 C174.17806262 10.16450633 174.16828859 9.08837297 174.15821838 7.97962952 C174.15176583 7.03663529 174.14531328 6.09364107 174.1386652 5.12207127 C174.23525284 3.01542119 174.23525284 3.01542119 173 2 C170.77272354 1.89066839 168.54192615 1.85306832 166.31199646 1.84178162 C165.60468748 1.83684364 164.89737849 1.83190566 164.1686359 1.82681805 C161.78096484 1.81136921 159.39332081 1.80306258 157.00561523 1.79467773 C155.30105346 1.785105 153.59649409 1.77509529 151.89193726 1.76467896 C147.24959787 1.73755824 142.60724824 1.71658761 137.96487308 1.69667697 C133.11882059 1.67486146 128.27279992 1.64745115 123.42677307 1.62062073 C114.24346343 1.57063367 105.06013619 1.52571723 95.87679201 1.48259836 C85.4247097 1.43327726 74.9726593 1.37834018 64.52060783 1.32291877 C43.01376827 1.20900646 21.50689825 1.10218767 0 1 C0 0.67 0 0.34 0 0 Z " fill="#E40A37" transform="translate(517,384)"/>
<path d="M0 0 C40.92 0 81.84 0 124 0 C124 57.42 124 114.84 124 174 C123.67 174 123.34 174 123 174 C123 116.91 123 59.82 123 1 C84.06 1.33 45.12 1.66 5 2 C4.67 3.32 4.34 4.64 4 6 C3.34 6 2.68 6 2 6 C1.67 72 1.34 138 1 206 C0.67 206 0.34 206 0 206 C0 138.02 0 70.04 0 0 Z " fill="#FEEFF2" transform="translate(388,210)"/>
<path d="M0 0 C0.66 0 1.32 0 2 0 C2 40.92 2 81.84 2 124 C-53.44801885 124.24181821 -53.44801885 124.24181821 -76.74609375 124.29296875 C-82.06884873 124.30474886 -87.39160274 124.31683624 -92.71435547 124.32958984 C-93.71487641 124.33196358 -93.71487641 124.33196358 -94.73560989 124.33438528 C-104.80348765 124.35878594 -114.87119351 124.40085701 -124.93896484 124.45263672 C-136.6403198 124.51262792 -148.34152065 124.55119399 -160.04302514 124.56453097 C-166.23320171 124.57232132 -172.42293758 124.5905012 -178.61297226 124.63438034 C-184.45219 124.67543307 -190.29079004 124.68760345 -196.1301384 124.67864609 C-198.26086293 124.68028221 -200.39161045 124.69202057 -202.52220917 124.71523285 C-216.16597653 124.85645115 -227.33628853 123.19221001 -240 118 C-235.98198723 116.82615527 -232.89330548 117.28531303 -228.75 117.9375 C-227.48671875 118.13214844 -226.2234375 118.32679688 -224.921875 118.52734375 C-223.47554688 118.76130859 -223.47554688 118.76130859 -222 119 C-222 119.66 -222 120.32 -222 121 C-218.08826368 122.30391211 -214.36517658 122.15351066 -210.28718567 122.15821838 C-209.38624088 122.16315636 -208.48529608 122.16809434 -207.55704993 122.17318195 C-204.5260723 122.18858895 -201.4951159 122.19692625 -198.46411133 122.20532227 C-196.29620679 122.21489827 -194.12830413 122.22490819 -191.96040344 122.23532104 C-186.06408691 122.26240623 -180.16776234 122.28339622 -174.27141786 122.30332303 C-168.11344064 122.32516031 -161.9554883 122.35256003 -155.79753113 122.37937927 C-144.131625 122.42933674 -132.46570509 122.47426423 -120.79977196 122.51740164 C-105.03907748 122.57596951 -89.27841614 122.64227276 -73.51775074 122.70815182 C-48.6785225 122.81177427 -23.83926632 122.90503168 1 123 C0.67 82.41 0.34 41.82 0 0 Z " fill="#FEEDF2" transform="translate(688,388)"/>
<path d="M0 0 C0.33 0 0.66 0 1 0 C1.00808685 1.17525238 1.01617371 2.35050476 1.02450562 3.56137085 C1.10244806 14.71069234 1.19030264 25.85989897 1.28752708 37.00906944 C1.33718528 42.73909525 1.38351449 48.46910529 1.421875 54.19921875 C1.45911718 59.74308646 1.50557491 65.2868114 1.55806351 70.83055496 C1.57640306 72.93129563 1.59158379 75.03206666 1.60334396 77.13285446 C1.70595887 94.85204373 2.73733383 111.90597549 7.1875 129.125 C7.64334473 130.9205835 7.64334473 130.9205835 8.10839844 132.75244141 C10.87565314 143.2569175 14.62682735 152.71634652 19.765625 162.2890625 C20.17296875 163.18367187 20.5803125 164.07828125 21 165 C20.67 165.66 20.34 166.32 20 167 C16.60284732 164.77427928 14.75284136 162.67261998 13 159 C12.66666667 156.66666667 12.33333333 154.33333333 12 152 C11.484375 151.175 10.96875 150.35 10.4375 149.5 C8.55387713 146.22413415 8.78158008 143.71313863 9 140 C8.01 139.67 7.02 139.34 6 139 C5.14233478 136.64142065 4.55778272 134.43877261 4 132 C3.62681641 130.54787109 3.62681641 130.54787109 3.24609375 129.06640625 C0.50276054 118.02680932 -0.15613394 107.16165775 -0.11352539 95.81542969 C-0.11367142 94.77004532 -0.11381744 93.72466095 -0.1139679 92.64759827 C-0.1132788 89.23900172 -0.10553404 85.83046184 -0.09765625 82.421875 C-0.0957885 80.04005971 -0.09436628 77.65824403 -0.09336853 75.27642822 C-0.08957148 69.04257119 -0.07976553 62.80873787 -0.06866455 56.57489014 C-0.05838965 50.1996696 -0.05385794 43.8244452 -0.04882812 37.44921875 C-0.03814045 24.96613548 -0.02109823 12.48306972 0 0 Z " fill="#D8123A" transform="translate(207,437)"/>
<path d="M0 0 C0.33 0 0.66 0 1 0 C1.00364563 0.64622314 1.00729126 1.29244629 1.01104736 1.95825195 C1.05298129 8.70739209 1.12240357 15.4558591 1.20751953 22.20458984 C1.23567877 24.72047175 1.25691828 27.2364413 1.27099609 29.75244141 C1.29249456 33.37708236 1.3391837 37.00067517 1.390625 40.625 C1.39185364 41.74302002 1.39308228 42.86104004 1.39434814 44.01293945 C1.52158819 50.85608822 2.59852856 55.07388087 6 61 C6.25 64.5 6.25 64.5 6 67 C7.32 67.33 8.64 67.66 10 68 C10.33 69.32 10.66 70.64 11 72 C11.66 72 12.32 72 13 72 C13.33 73.32 13.66 74.64 14 76 C15.32 76 16.64 76 18 76 C18 76.99 18 77.98 18 79 C11.70733122 77.09313067 7.42829651 73.00733564 3.6875 67.75 C-0.50200758 59.54846041 -0.27736566 50.18979498 -0.1953125 41.2109375 C-0.1924826 40.02650055 -0.18965271 38.8420636 -0.18673706 37.62173462 C-0.17562395 33.87271631 -0.1505358 30.12394499 -0.125 26.375 C-0.11495874 23.81901389 -0.1058349 21.263024 -0.09765625 18.70703125 C-0.07571371 12.4712712 -0.04232539 6.23565325 0 0 Z " fill="#F00E38" transform="translate(338,480)"/>
<path d="M0 0 C5.41301413 1.13958192 10.73030772 2.46323921 16.0625 3.9375 C31.25989244 8.03759811 46.33780371 9.79371635 62 11 C62 11.33 62 11.66 62 12 C32.63956905 12.54652302 32.63956905 12.54652302 22 9 C22 8.34 22 7.68 22 7 C21.0925 7.04125 20.185 7.0825 19.25 7.125 C15.90649997 6.99640385 14.88695555 6.44347778 12 5 C9.92841208 4.41501792 7.84357192 3.87563676 5.75 3.375 C4.67234375 3.11460937 3.5946875 2.85421875 2.484375 2.5859375 C1.66453125 2.39257812 0.8446875 2.19921875 0 2 C0 1.34 0 0.68 0 0 Z " fill="#D51B42" transform="translate(314,681)"/>
<path d="M0 0 C2.91778574 3.60744418 5.71637855 7.28850473 8.5 11 C12.71569072 16.55924101 17.26315432 21.71439107 22.06445312 26.7734375 C24.27658479 29.106338 26.21056205 31.31584307 28 34 C24.51669784 33.35494404 21.90567134 32.01782732 19 30 C19 29.34 19 28.68 19 28 C18.01 27.67 17.02 27.34 16 27 C16 26.01 16 25.02 16 24 C15.34 24 14.68 24 14 24 C13.67 23.34 13.34 22.68 13 22 C11.68 22 10.36 22 9 22 C9 21.34 9 20.68 9 20 C9.66 20 10.32 20 11 20 C9.63016497 16.83884224 9.0109362 16.0072908 6 14 C5.855625 13.38125 5.71125 12.7625 5.5625 12.125 C5.15035663 9.80887395 5.15035663 9.80887395 3 8.125 C0.50852775 5.47781074 0.32339693 3.5573662 0 0 Z " fill="#DC1C40" transform="translate(233,613)"/>
<path d="M0 0 C1.46211134 2.71725889 2.39238456 5.19082179 3.04296875 8.203125 C5.88205096 20.72555005 9.71318876 31.97403183 15.7734375 43.3203125 C16.17820313 44.20460938 16.58296875 45.08890625 17 46 C16.67 46.66 16.34 47.32 16 48 C12.60284732 45.77427928 10.75284136 43.67261998 9 40 C8.66666667 37.66666667 8.33333333 35.33333333 8 33 C7.484375 32.175 6.96875 31.35 6.4375 30.5 C4.55387713 27.22413415 4.78158008 24.71313863 5 21 C4.01 20.67 3.02 20.34 2 20 C0.57997892 13.2168636 -0.22731216 6.93302093 0 0 Z " fill="#D52A4E" transform="translate(211,556)"/>
<path d="M0 0 C0.33 0 0.66 0 1 0 C1.02505615 0.825 1.0501123 1.65 1.07592773 2.5 C0.76637995 26.72080076 0.76637995 26.72080076 4.0625 50.4375 C5.19000362 54.72201376 5.18325703 58.60183131 5 63 C4.67 63 4.34 63 4 63 C-0.15203632 49.22970366 -0.48679428 36.24233165 -0.25 21.9375 C-0.22988065 19.79884507 -0.2116396 17.66017162 -0.1953125 15.52148438 C-0.15180241 10.3471879 -0.08308255 5.17380611 0 0 Z " fill="#FEE7EC" transform="translate(210,506)"/>
<path d="M0 0 C3.2210434 3.11713878 6.18682814 6.36345362 9.125 9.75 C13.33093302 14.48078807 17.92699987 18.39569675 22.91015625 22.28515625 C23.59980469 22.85105469 24.28945313 23.41695313 25 24 C25 24.33 25 24.66 25 25 C23.35 25 21.7 25 20 25 C19.67 23.68 19.34 22.36 19 21 C17.35 21.66 15.7 22.32 14 23 C13.75765625 22.44570313 13.5153125 21.89140625 13.265625 21.3203125 C12.93046875 20.59585937 12.5953125 19.87140625 12.25 19.125 C11.92515625 18.40570313 11.6003125 17.68640625 11.265625 16.9453125 C9.76766139 14.64288696 8.4165048 14.18844498 6 13 C5.25 9.875 5.25 9.875 5 7 C4.360625 6.855625 3.72125 6.71125 3.0625 6.5625 C1 6 1 6 0 5 C-0.04063832 3.33382885 -0.042721 1.66611905 0 0 Z " fill="#D31E46" transform="translate(405,471)"/>
<path d="M0 0 C5.75 1.625 5.75 1.625 8 5 C9.65816784 5.68753301 11.32459336 6.35561283 13 7 C13.33 7.66 13.66 8.32 14 9 C14.928125 9.45375 15.85625 9.9075 16.8125 10.375 C20 12 20 12 22.0625 14.125 C24.34984338 16.33855811 25.88525126 16.65391681 29 17 C29.33 17.99 29.66 18.98 30 20 C24.37677771 18.69008593 20.29059362 16.58551412 15.5625 13.3125 C14.91015381 12.86914307 14.25780762 12.42578613 13.58569336 11.96899414 C8.78757774 8.66091717 4.04337743 5.22423137 0 1 C0 0.67 0 0.34 0 0 Z " fill="#FCC6D1" transform="translate(418,485)"/>
<path d="M0 0 C5.65283439 4.13029447 11.09003334 8.48732757 16.484375 12.94921875 C18.62006949 14.69027404 20.78124941 16.36704104 23 18 C22.01 18.33 21.02 18.66 20 19 C18.02734375 17.8203125 18.02734375 17.8203125 15.9375 16.125 C13.11251972 13.83839531 13.11251972 13.83839531 10 12 C10 11.34 10 10.68 10 10 C8.68 9.67 7.36 9.34 6 9 C6 8.34 6 7.68 6 7 C5.34 7 4.68 7 4 7 C4 6.34 4 5.68 4 5 C2.35 4.67 0.7 4.34 -1 4 C-0.67 2.68 -0.34 1.36 0 0 Z " fill="#D81F47" transform="translate(261,647)"/>
<path d="M0 0 C2.47851537 3.02136023 3.90386552 5.92715808 5.3125 9.5625 C7.76716038 15.64676491 10.74188944 21.31230185 14 27 C13.34 27 12.68 27 12 27 C12 26.34 12 25.68 12 25 C11.01 25 10.02 25 9 25 C8.68546875 24.20335937 8.3709375 23.40671875 8.046875 22.5859375 C5.44344149 15.82701935 5.44344149 15.82701935 1.6875 9.6875 C-0.44646576 6.28896194 -0.3149829 3.93728627 0 0 Z " fill="#D43054" transform="translate(391,444)"/>
<path d="M0 0 C0.99 0 1.98 0 3 0 C3.33 0.99 3.66 1.98 4 3 C4.845625 3.495 5.69125 3.99 6.5625 4.5 C7.366875 4.995 8.17125 5.49 9 6 C9 6.99 9 7.98 9 9 C9.66 9 10.32 9 11 9 C11.33 10.32 11.66 11.64 12 13 C13.32 13 14.64 13 16 13 C16 13.99 16 14.98 16 16 C10.38375773 14.2981084 5.74202849 10.83206972 2.6640625 5.828125 C1.70879325 3.91758651 0.84551008 1.96158338 0 0 Z " fill="#D52046" transform="translate(340,543)"/>
<path d="M0 0 C2.9375 1.125 2.9375 1.125 6 3 C6.8125 5.9375 6.8125 5.9375 7 9 C7.31674575 10.33737094 7.64270064 11.67288808 8 13 C8.99 13 9.98 13 11 13 C11.28875 13.78375 11.5775 14.5675 11.875 15.375 C12.84912254 18.09671632 12.84912254 18.09671632 15 20 C14.67 20.99 14.34 21.98 14 23 C0 4.30964467 0 4.30964467 0 0 Z " fill="#FDD5D8" transform="translate(230,606)"/>
<path d="M0 0 C1.670625 0.2165625 1.670625 0.2165625 3.375 0.4375 C8.24126788 1.04796371 13.11846586 1.52985225 18 2 C18 2.66 18 3.32 18 4 C19.32 4.66 20.64 5.32 22 6 C18.74004193 7.08557892 16.89457573 6.91310151 13.671875 5.78515625 C12.87265625 5.51123047 12.0734375 5.23730469 11.25 4.95507812 C10.425 4.66052734 9.6 4.36597656 8.75 4.0625 C7.90953125 3.77181641 7.0690625 3.48113281 6.203125 3.18164062 C4.13194269 2.46378767 2.06466738 1.73633881 0 1 C0 0.67 0 0.34 0 0 Z " fill="#FBC6D4" transform="translate(448,505)"/>
<path d="M0 0 C3.10807864 3.86155226 6.16039201 7.76248332 9.1875 11.6875 C9.63802734 12.26822266 10.08855469 12.84894531 10.55273438 13.44726562 C13.88317897 17.76635794 13.88317897 17.76635794 15 20 C11.07260319 18.69086773 8.64361016 17.21009805 6 14 C5.5 12 5.5 12 5 10 C4.34 9.38125 3.68 8.7625 3 8.125 C0.50852775 5.47781074 0.32339693 3.5573662 0 0 Z " fill="#D32545" transform="translate(233,613)"/>
<path d="M0 0 C3.67951114 0.60762569 5.85991496 2.19548775 8.75 4.5 C9.54921875 5.1290625 10.3484375 5.758125 11.171875 6.40625 C11.77515625 6.9321875 12.3784375 7.458125 13 8 C13 8.33 13 8.66 13 9 C11.35 9 9.7 9 8 9 C7.67 7.68 7.34 6.36 7 5 C5.35 5.66 3.7 6.32 2 7 C1.34 4.69 0.68 2.38 0 0 Z " fill="#E5103C" transform="translate(417,487)"/>
<path d="M0 0 C0.33 0 0.66 0 1 0 C1.12375 1.093125 1.2475 2.18625 1.375 3.3125 C1.75464801 7.07381802 1.75464801 7.07381802 4 10 C5.18747825 14.98740865 5.101839 19.90804978 5 25 C4.67 25 4.34 25 4 25 C3.32184046 22.33580182 2.65734223 19.66934242 2 17 C1.80921875 16.25621094 1.6184375 15.51242187 1.421875 14.74609375 C0.19252201 9.69696542 -0.18894522 5.19599358 0 0 Z " fill="#FCC4D1" transform="translate(210,544)"/>
<path d="M0 0 C3.3 0 6.6 0 10 0 C10 0.99 10 1.98 10 3 C12.64 3.33 15.28 3.66 18 4 C15 6 15 6 12.44140625 5.64453125 C11.49136719 5.36996094 10.54132813 5.09539063 9.5625 4.8125 C8.61503906 4.55082031 7.66757812 4.28914062 6.69140625 4.01953125 C4 3 4 3 0 0 Z " fill="#F9C1D0" transform="translate(310,678)"/>
<path d="M0 0 C8.91 1.98 8.91 1.98 18 4 C18 4.33 18 4.66 18 5 C15.37461716 4.85946128 12.74982573 4.71281053 10.125 4.5625 C9.37863281 4.52318359 8.63226563 4.48386719 7.86328125 4.44335938 C2.2265625 4.11328125 2.2265625 4.11328125 0 3 C0 2.01 0 1.02 0 0 Z " fill="#D32346" transform="translate(454,508)"/>
<path d="M0 0 C2.97 0.33 5.94 0.66 9 1 C9.33 2.65 9.66 4.3 10 6 C10.99 6 11.98 6 13 6 C13 6.66 13 7.32 13 8 C8.27626146 6.37621488 4.05818166 3.89006982 0 1 C0 0.67 0 0.34 0 0 Z " fill="#FBC8D0" transform="translate(284,664)"/>
<path d="M0 0 C3.45547093 1.72773547 4.62448238 5.51535535 6 9 C6.25 12 6.25 12 6 14 C5.67 13.01 5.34 12.02 5 11 C4.01 11 3.02 11 2 11 C1.34 7.37 0.68 3.74 0 0 Z " fill="#E60A32" transform="translate(338,532)"/>
<path d="M0 0 C3 1 3 1 4.203125 3.1796875 C4.54859375 4.06914063 4.8940625 4.95859375 5.25 5.875 C5.60578125 6.75929688 5.9615625 7.64359375 6.328125 8.5546875 C7 11 7 11 6 14 C5.18247697 12.41925436 4.37118003 10.83528777 3.5625 9.25 C3.11003906 8.36828125 2.65757812 7.4865625 2.19140625 6.578125 C1.16544602 4.35801434 0.48491397 2.38555381 0 0 Z " fill="#FDCAD8" transform="translate(223,592)"/>
<path d="M0 0 C0.66 0 1.32 0 2 0 C2.33 1.65 2.66 3.3 3 5 C3.66 5 4.32 5 5 5 C6.42944945 7.35438733 7.08661261 8.48032433 6.625 11.25 C6.41875 11.8275 6.2125 12.405 6 13 C2.57068046 9.2440786 1.43570917 4.76533255 0 0 Z " fill="#FECFDE" transform="translate(393,447)"/>
<path d="M0 0 C3.96 1.98 7.92 3.96 12 6 C8.69538587 7.10153804 8.01331168 6.95317786 4.875 5.8125 C4.17117188 5.57144531 3.46734375 5.33039062 2.7421875 5.08203125 C1 4 1 4 0 0 Z " fill="#FDC5D5" transform="translate(350,556)"/>
<path d="M0 0 C1.14926266 0.95421808 2.29430541 1.91352045 3.4375 2.875 C4.07558594 3.40867187 4.71367187 3.94234375 5.37109375 4.4921875 C7 6 7 6 8 8 C6.35 8.33 4.7 8.66 3 9 C2.814375 8.071875 2.814375 8.071875 2.625 7.125 C2.12802644 4.80879168 2.12802644 4.80879168 0 3 C0 2.01 0 1.02 0 0 Z " fill="#FDCED9" transform="translate(342,548)"/>
<path d="M0 0 C2.96404505 2.80804268 5.44499019 5.18315774 7 9 C6.34 9 5.68 9 5 9 C5 8.34 5 7.68 5 7 C4.360625 6.855625 3.72125 6.71125 3.0625 6.5625 C1 6 1 6 0 5 C-0.04063832 3.33382885 -0.042721 1.66611905 0 0 Z " fill="#D82C4F" transform="translate(405,471)"/>
<path d="M0 0 C0.66 0 1.32 0 2 0 C2 0.66 2 1.32 2 2 C2.99 2 3.98 2 5 2 C5.28875 2.78375 5.5775 3.5675 5.875 4.375 C6.84912254 7.09671632 6.84912254 7.09671632 9 9 C8.67 9.99 8.34 10.98 8 12 C6.66382103 10.18959679 5.33112616 8.3766216 4 6.5625 C3.2575 5.55316406 2.515 4.54382813 1.75 3.50390625 C0 1 0 1 0 0 Z " fill="#FBB9C5" transform="translate(236,617)"/>
<path d="M0 0 C1.67110042 2.96178773 2.32682752 5.37071192 2.625 8.75 C2.69976562 9.54921875 2.77453125 10.3484375 2.8515625 11.171875 C2.90054688 11.77515625 2.94953125 12.3784375 3 13 C1 12 1 12 0 9 C-0.06740865 7.43881572 -0.08514456 5.8749748 -0.0625 4.3125 C-0.05347656 3.50425781 -0.04445312 2.69601562 -0.03515625 1.86328125 C-0.02355469 1.24839844 -0.01195312 0.63351562 0 0 Z " fill="#D93D61" transform="translate(211,556)"/>
<path d="M0 0 C0.99 0.33 1.98 0.66 3 1 C3.1875 3.875 3.1875 3.875 3 7 C2.01 7.66 1.02 8.32 0 9 C0 6.03 0 3.06 0 0 Z " fill="#F1042F" transform="translate(693,424)"/>
<path d="M0 0 C4.42857143 5.14285714 4.42857143 5.14285714 5 9 C3.0625 8.625 3.0625 8.625 1 8 C-0.35439668 5.29120665 -0.06501451 2.99066732 0 0 Z " fill="#D73352" transform="translate(228,604)"/>
<path d="M0 0 C1.33617352 0.97528737 2.6688751 1.95533319 4 2.9375 C4.7425 3.48277344 5.485 4.02804687 6.25 4.58984375 C6.8275 5.05519531 7.405 5.52054687 8 6 C8 6.33 8 6.66 8 7 C6.35 7 4.7 7 3 7 C2.67 5.68 2.34 4.36 2 3 C1.34 3 0.68 3 0 3 C0 2.01 0 1.02 0 0 Z " fill="#D9284A" transform="translate(422,489)"/>
<path d="M0 0 C3.82097239 0.53069061 6.06171403 1.49701566 9 4 C6.03 3.67 3.06 3.34 0 3 C0 2.01 0 1.02 0 0 Z " fill="#D92048" transform="translate(305,677)"/>
<path d="M0 0 C2.475 0.99 2.475 0.99 5 2 C3.515 4.475 3.515 4.475 2 7 C1.34 6.67 0.68 6.34 0 6 C0 4.02 0 2.04 0 0 Z " fill="#F40634" transform="translate(256,645)"/>
<path d="M0 0 C0.66666667 1.33333333 1.33333333 2.66666667 2 4 C2.391875 4.66 2.78375 5.32 3.1875 6 C4.17413108 8.42863035 3.86626039 9.57447091 3 12 C0.01485372 7.89542386 -0.2954439 5.02254631 0 0 Z " fill="#DC1235" transform="translate(220,589)"/>
<path d="M0 0 C3.77528304 1.25842768 4.10667045 2.62493429 6 6 C6.66 6.66 7.32 7.32 8 8 C7.01 8 6.02 8 5 8 C3.61328125 6.50390625 3.61328125 6.50390625 2.3125 4.5625 C1.87550781 3.92441406 1.43851562 3.28632813 0.98828125 2.62890625 C0 1 0 1 0 0 Z " fill="#FBCBD3" transform="translate(407,472)"/>
<path d="M0 0 C2 2 2 2 2 6 C2.66 6 3.32 6 4 6 C4 7.98 4 9.96 4 12 C3.67 11.01 3.34 10.02 3 9 C2.34 9 1.68 9 1 9 C0.67 6.03 0.34 3.06 0 0 Z " fill="#FEEFF3" transform="translate(392,438)"/>
<path d="M0 0 C1.98 0.66 3.96 1.32 6 2 C6 2.66 6 3.32 6 4 C6.66 4 7.32 4 8 4 C7.67 4.99 7.34 5.98 7 7 C5.83040013 6.02433888 4.66438823 5.044375 3.5 4.0625 C2.8503125 3.51722656 2.200625 2.97195313 1.53125 2.41015625 C1.0259375 1.94480469 0.520625 1.47945312 0 1 C0 0.67 0 0.34 0 0 Z " fill="#FDCBD7" transform="translate(263,648)"/>
<path d="M0 0 C3 1 3 1 4.6875 4.0625 C5.120625 5.031875 5.55375 6.00125 6 7 C5.34 7 4.68 7 4 7 C4 6.34 4 5.68 4 5 C3.01 5 2.02 5 1 5 C0.67 3.35 0.34 1.7 0 0 Z " fill="#D62347" transform="translate(399,464)"/>
<path d="M0 0 C0.66 0 1.32 0 2 0 C2.33 0.66 2.66 1.32 3 2 C3.99 2.33 4.98 2.66 6 3 C6.33 4.65 6.66 6.3 7 8 C1.125 3.375 1.125 3.375 0 0 Z " fill="#FDCCD5" transform="translate(249,633)"/>
<path d="M0 0 C2.97 1.65 5.94 3.3 9 5 C9 5.33 9 5.66 9 6 C6.75 6.25 6.75 6.25 4 6 C1.6875 4.125 1.6875 4.125 0 2 C0 1.34 0 0.68 0 0 Z " fill="#D52D4C" transform="translate(431,496)"/>
<path d="M0 0 C2.375 0.3125 2.375 0.3125 5 1 C5.66 1.99 6.32 2.98 7 4 C4.03 3.505 4.03 3.505 1 3 C0.67 2.01 0.34 1.02 0 0 Z " fill="#FED5E1" transform="translate(432,495)"/>
</svg>
