<svg width="76" height="60" viewBox="0 0 76 60" fill="none" xmlns="http://www.w3.org/2000/svg">
<path d="M29.1679 15H0V44H29.1679V15Z" fill="#FF0032"/>
<path fill-rule="evenodd" clip-rule="evenodd" d="M4.41507 32.6924V19.3897H9.76696V32.6924C9.76696 33.5744 10.4855 34.2887 11.3726 34.2887H24.7524V39.6098H11.3726C7.52985 39.6098 4.41507 36.5129 4.41507 32.6924Z" fill="white"/>
<path fill-rule="evenodd" clip-rule="evenodd" d="M11.9093 28.0923V19.3897H17.2612V27.1053H24.7539V32.3492H16.1908C13.8266 32.3492 11.9093 30.4429 11.9093 28.0923Z" fill="white"/>
<path d="M40.2452 27.325L37.5552 20.2628V27.325H35.9685V18.8208H38.6709L41.2865 25.7844L43.9269 18.8208H46.5426V27.325H44.8195V20.2258L42.1171 27.325H40.2452ZM51.201 20.2258H47.7052V18.8208H56.4322V20.2258H52.9365V27.325H51.201V20.2258ZM56.757 23.0852C56.757 19.8561 58.4801 18.6729 61.5048 18.6729C64.232 18.6729 65.7691 19.4863 66.017 21.5816H64.2692C64.046 20.3614 63.1411 20.0163 61.5048 20.0163C59.6825 20.0163 58.5048 20.6202 58.5048 22.6292V23.4919C58.5048 25.4639 59.6577 26.1295 61.5048 26.1295C63.0791 26.1295 63.9964 25.8337 64.2816 24.6628H66.0294C65.7195 26.6718 64.2072 27.4729 61.5048 27.4729C58.4801 27.4729 56.757 26.3267 56.757 23.0852ZM35.1999 38.134H35.4602C36.6379 38.134 36.8238 37.1973 36.8238 34.72V31.1458H44.2616V39.65H42.5261V32.5508H38.4353V34.72C38.4353 38.3559 37.9519 39.65 35.7081 39.65H35.1999V38.134ZM53.1894 33.2657L48.0697 39.65H46.1979V31.1458H47.9334V37.5301L53.0531 31.1458H54.9125V39.65H53.1894V33.2657ZM56.851 31.1458H58.5865V34.5844H63.6566V31.1458H65.3921V39.65H63.6566V35.9895H58.5865V39.65H56.851V31.1458ZM73.7067 31.1458H75.7645L71.7855 35.2377L76 39.65H73.7687L70.2608 36.0141H69.0459V39.65H67.3104V31.1458H69.0459V34.6091H70.3227L73.7067 31.1458Z" fill="black"/>
</svg>
