<svg width="76" height="60" viewBox="0 0 76 60" fill="none" xmlns="http://www.w3.org/2000/svg">
<path d="M38.0502 8.42139C31.2861 8.42139 25.553 13.0496 23.7762 19.3203C22.2319 15.9943 18.8853 13.6641 15.0307 13.6641C9.72965 13.6641 5.37207 18.0622 5.37207 23.4125C5.37207 28.7628 9.72965 33.1629 15.0307 33.1629C18.8853 33.1629 22.2319 30.8313 23.7762 27.5046C25.553 33.7758 31.2861 38.4056 38.0502 38.4056C44.7643 38.4056 50.4681 33.8456 52.2904 27.6452C53.8633 30.8963 57.1684 33.1629 60.9683 33.1629C66.2693 33.1629 70.6289 28.7628 70.6289 23.4125C70.6289 18.0622 66.2693 13.6641 60.9683 13.6641C57.1684 13.6641 53.8633 15.9292 52.2904 19.1798C50.4681 12.9798 44.7643 8.42139 38.0502 8.42139ZM38.0502 14.1439C43.1563 14.1439 47.2353 18.2589 47.2353 23.4125C47.2353 28.566 43.1563 32.683 38.0502 32.683C32.9441 32.683 28.8671 28.566 28.8671 23.4125C28.8671 18.2589 32.9441 14.1439 38.0502 14.1439ZM15.0307 19.3866C17.2678 19.3866 19.0215 21.1546 19.0215 23.4125C19.0215 25.6704 17.2678 27.4404 15.0307 27.4404C12.7936 27.4404 11.0419 25.6704 11.0419 23.4125C11.0419 21.1546 12.7936 19.3866 15.0307 19.3866ZM60.9683 19.3866C63.2054 19.3866 64.959 21.1546 64.959 23.4125C64.959 25.6704 63.2054 27.4404 60.9683 27.4404C58.7312 27.4404 56.9795 25.6704 56.9795 23.4125C56.9795 21.1546 58.7312 19.3866 60.9683 19.3866Z" fill="#0082C9"/>
<path d="M12.1679 42.9277C11.9792 42.9277 11.8978 43.0364 11.8978 43.2268V51.1164C11.8978 51.3068 11.9792 51.4141 12.1679 51.4141H12.3843C12.5729 51.4141 12.6793 51.3068 12.6793 51.1164V44.5649L16.9464 51.2487C16.965 51.2779 16.9852 51.2974 17.0054 51.3188C17.0115 51.326 17.0157 51.3336 17.0225 51.34C17.0406 51.3567 17.0606 51.3654 17.0801 51.3757C17.091 51.3815 17.0995 51.39 17.1117 51.3942C17.1201 51.3971 17.1291 51.3954 17.1379 51.3977C17.168 51.4055 17.1987 51.4136 17.2349 51.4136H17.45C17.6386 51.4136 17.7201 51.3062 17.7201 51.1158V43.2267C17.7201 43.0362 17.6386 42.9276 17.45 42.9276H17.2349C17.0463 42.9276 16.9386 43.0362 16.9386 43.2267V49.7784L12.6715 43.0946C12.6569 43.0718 12.6393 43.058 12.623 43.0403C12.5737 42.97 12.4956 42.9278 12.3843 42.9278L12.1679 42.9277ZM63.403 43.0362C63.2143 43.0362 63.2954 43.1449 63.2954 43.3354V46.0287C63.2954 46.3007 63.3216 46.4906 63.3216 46.4906H63.2954C63.2954 46.4906 62.7831 45.2942 61.3547 45.2942C59.7915 45.2942 58.6859 46.5454 58.7399 48.3952C58.7399 50.2449 59.737 51.524 61.3271 51.524C62.8634 51.524 63.3754 50.2719 63.3754 50.2719H63.4029C63.4029 50.2719 63.3491 50.4355 63.3491 50.6531V51.115C63.3491 51.3054 63.4568 51.3877 63.6455 51.3877H63.8343C64.023 51.3877 64.1031 51.279 64.1031 51.0886V43.3354C64.1031 43.1449 63.8066 43.0362 63.618 43.0362H63.403ZM42.461 43.064C42.2723 43.064 42.381 43.1728 42.381 43.3632V50.0271C42.381 51.3328 43.2426 51.4962 43.7277 51.4962C43.9434 51.4962 44.0241 51.3875 44.0241 51.1971V51.0065C44.0241 50.8161 43.9163 50.7352 43.7815 50.7352C43.512 50.708 43.1626 50.626 43.1626 49.8643V43.3632C43.1626 43.1727 42.866 43.064 42.6774 43.064L42.461 43.064ZM32.786 43.7708C32.5973 43.7708 32.4896 43.8795 32.4896 44.0699V49.2383C32.4896 50.6528 33.2718 51.442 34.5655 51.442C34.808 51.442 34.888 51.3611 34.888 51.1707V51.0065C34.888 50.7889 34.808 50.7346 34.5655 50.7074C34.1073 50.6802 33.2712 50.5171 33.2712 49.1298V46.1373H34.4841C34.6728 46.1373 34.7805 46.0564 34.7805 45.866V45.7839C34.7805 45.5935 34.6728 45.4848 34.4841 45.4848H33.2712V44.0699C33.2712 43.8795 33.191 43.7708 33.0023 43.7708H32.786ZM22.0514 45.2942C20.4343 45.2942 19.1396 46.4645 19.1127 48.423C19.1127 50.2728 20.4608 51.5505 22.2127 51.5505C23.156 51.5505 23.8563 51.1428 24.1797 50.898C24.3145 50.7892 24.3419 50.6529 24.261 50.5168L24.1797 50.3818C24.0988 50.2186 23.9651 50.191 23.8033 50.2998C23.5338 50.5174 22.9936 50.8438 22.2389 50.8438C21.0261 50.8438 19.9749 49.9728 19.948 48.4495H24.2335C24.3952 48.4495 24.5298 48.3136 24.5298 48.1504C24.5298 46.4366 23.6416 45.2942 22.0514 45.2942ZM38.7958 45.2942C37.044 45.2942 35.6965 46.5997 35.6696 48.4495C35.6696 50.2992 37.0177 51.5783 38.7696 51.5783C39.8477 51.5783 40.5752 51.0608 40.8717 50.8159C41.0064 50.6799 41.0325 50.5715 40.9516 50.4083L40.8717 50.2998C40.7639 50.1366 40.6557 50.1089 40.494 50.2177C40.2245 50.4625 39.6589 50.8438 38.8233 50.8438C37.5297 50.8438 36.5049 49.864 36.5049 48.4495C36.5049 47.0078 37.5297 46.0288 38.8233 46.0288C39.5241 46.0288 40.0356 46.3823 40.3052 46.5727C40.4669 46.6815 40.6012 46.6817 40.709 46.5185L40.7904 46.3822C40.9252 46.219 40.8976 46.0833 40.7628 45.9745C40.4663 45.7297 39.82 45.2942 38.7958 45.2942ZM47.9056 45.2942C46.1807 45.2942 44.7794 46.6271 44.7794 48.3952C44.7794 50.1906 46.1807 51.5505 47.9056 51.5505C49.6305 51.5505 51.0319 50.1906 51.0319 48.3952C51.0319 46.6271 49.6305 45.2942 47.9056 45.2942ZM30.4702 45.3855C30.4042 45.3962 30.3406 45.441 30.28 45.5139L28.3733 47.8076L27.1368 46.3213L26.4667 45.5139C26.406 45.441 26.3373 45.401 26.266 45.3948C26.1948 45.389 26.1206 45.4157 26.0483 45.4768L25.8831 45.6171C25.7386 45.7395 25.7462 45.875 25.8674 46.0208L27.8632 48.4217L26.5388 50.0139L26.5362 50.0174L25.8674 50.8207C25.7461 50.9666 25.7596 51.1205 25.9041 51.243L26.0693 51.3819C26.2138 51.5043 26.3454 51.4735 26.4667 51.3276L28.3733 49.034L29.6099 50.5216L29.6126 50.5245L30.28 51.3292C30.4013 51.475 30.5538 51.4873 30.6983 51.3649L30.8636 51.2259C31.0081 51.1035 31.0006 50.9681 30.8793 50.8222L28.8835 48.4213L30.2079 46.8278L30.2105 46.8243L30.8793 46.021C31.0006 45.8751 30.9871 45.7212 30.8426 45.5988L30.6774 45.4598C30.6051 45.3986 30.5362 45.3749 30.4702 45.3855ZM52.6225 45.4306C52.4338 45.4306 52.3524 45.5393 52.3524 45.7297V49.2384C52.3524 50.7889 53.4844 51.5506 54.8859 51.5506C56.2873 51.5506 57.4194 50.7889 57.4194 49.2384V45.7297C57.4463 45.5393 57.3392 45.4306 57.1505 45.4306H56.9342C56.7455 45.4306 56.6378 45.5393 56.6378 45.7297V49.0213C56.6378 49.9462 56.0448 50.7895 54.8859 50.7895C53.7539 50.7895 53.1339 49.9462 53.1339 49.0213V45.7297C53.1339 45.5393 53.0262 45.4306 52.8376 45.4306L52.6225 45.4306ZM22.0239 45.9746C22.8863 45.9746 23.6406 46.6 23.6945 47.8513H19.9756C20.1642 46.6272 21.0267 45.9746 22.0239 45.9746ZM47.9056 46.0289C49.1724 46.0289 50.1965 47.0352 50.1965 48.3953C50.1965 49.8098 49.1724 50.8438 47.9056 50.8438C46.6389 50.8438 45.6141 49.7826 45.5872 48.3953C45.5872 47.0624 46.6389 46.0289 47.9056 46.0289ZM61.4084 46.0289C62.6752 46.0289 63.2954 47.199 63.2954 48.4231C63.2954 50.1369 62.3781 50.8438 61.3809 50.8438C60.2759 50.8438 59.5221 49.892 59.4952 48.4231C59.4952 46.8998 60.3573 46.0289 61.4084 46.0289Z" fill="#0082C9"/>
</svg>
