<?xml version="1.0" encoding="UTF-8"?>
<svg version="1.1" xmlns="http://www.w3.org/2000/svg" width="640" height="480">
<path d="M0 0 C1.1341333 -0.00807175 2.2682666 -0.01614349 3.43676758 -0.02445984 C5.84064221 -0.03826421 8.24453615 -0.04900259 10.6484375 -0.05688477 C13.06256009 -0.06830552 15.47665947 -0.08859599 17.890625 -0.1184082 C34.16617633 -0.31893984 49.38988357 0.8455602 65.3125 4.23828125 C66.8689999 4.55383191 68.42571058 4.86834533 69.98266602 5.18164062 C112.4568698 13.98392183 150.28948393 37.64509692 181.3125 67.23828125 C182.69695312 68.54345703 182.69695312 68.54345703 184.109375 69.875 C190.80784001 76.35585951 196.55574769 83.29796376 202.16552734 90.72412109 C203.10443818 91.9636113 204.0597189 93.19068611 205.01953125 94.4140625 C218.35063358 111.564544 228.4489059 131.07421466 236.3125 151.23828125 C236.58545898 151.91616699 236.85841797 152.59405273 237.13964844 153.29248047 C245.51030015 174.19841592 250.60034748 197.99840839 250.6484375 220.51171875 C250.6550943 221.63736237 250.6617511 222.76300598 250.66860962 223.92276001 C250.67866032 226.29077543 250.68342902 228.65881874 250.68310547 231.02685547 C250.68744756 234.57048762 250.72376596 238.1128397 250.76171875 241.65625 C250.90238677 270.23341292 245.03674053 297.78254668 234.3125 324.23828125 C234.00973145 324.98819336 233.70696289 325.73810547 233.39501953 326.51074219 C228.40137155 338.69746383 222.19725958 350.02346758 215.3125 361.23828125 C214.64476562 362.32753906 213.97703125 363.41679687 213.2890625 364.5390625 C199.85594646 385.48225396 181.97190492 405.00641937 162.3125 420.23828125 C161.40242188 420.95371094 160.49234375 421.66914063 159.5546875 422.40625 C132.9202783 442.90821349 102.39582618 458.46973647 69.3125 465.23828125 C68.49104492 465.41053223 67.66958984 465.5827832 66.82324219 465.76025391 C54.88209471 468.26052703 54.88209471 468.26052703 49.3125 469.23828125 C48.30582275 469.41552734 47.29914551 469.59277344 46.26196289 469.77539062 C41.04160358 470.38723468 35.87724542 470.44040081 30.625 470.4765625 C29.4908667 470.48463425 28.3567334 470.49270599 27.18823242 470.50102234 C24.78435779 470.51482671 22.38046385 470.52556509 19.9765625 470.53344727 C17.56243991 470.54486802 15.14834053 470.56515849 12.734375 470.5949707 C-3.54117633 470.79550234 -18.76488357 469.6310023 -34.6875 466.23828125 C-36.2439999 465.92273059 -37.80071058 465.60821717 -39.35766602 465.29492188 C-81.8318698 456.49264067 -119.66448393 432.83146558 -150.6875 403.23828125 C-151.61046875 402.36816406 -152.5334375 401.49804688 -153.484375 400.6015625 C-160.18561071 394.1180223 -165.93357919 387.17332707 -171.54492188 379.74365234 C-172.46753601 378.5280885 -173.41039507 377.32790639 -174.359375 376.1328125 C-179.75284877 369.26976863 -184.17540214 361.69411 -188.6875 354.23828125 C-189.07341309 353.60921875 -189.45932617 352.98015625 -189.85693359 352.33203125 C-202.11677908 332.21331045 -210.05596965 309.97362903 -215.375 287.11328125 C-215.57778564 286.24300293 -215.78057129 285.37272461 -215.98950195 284.47607422 C-216.60056761 281.73737744 -217.15496066 278.99330676 -217.6875 276.23828125 C-217.87803955 275.29525146 -218.0685791 274.35222168 -218.26489258 273.38061523 C-220.23222912 262.04935316 -220.02425406 250.62140736 -220.00317383 239.15454102 C-220.00002223 235.57602205 -220.02350856 231.99833871 -220.04882812 228.41992188 C-220.08662409 215.05948156 -219.38418578 202.3309442 -216.6875 189.23828125 C-216.45345459 188.04404541 -216.21940918 186.84980957 -215.97827148 185.61938477 C-208.53261443 149.71815214 -192.29266764 115.36265385 -168.6875 87.23828125 C-167.89085937 86.25730469 -167.09421875 85.27632813 -166.2734375 84.265625 C-155.98632392 71.70301195 -144.59169161 60.12072549 -131.6875 50.23828125 C-130.78128906 49.52671875 -129.87507813 48.81515625 -128.94140625 48.08203125 C-102.31903622 27.56438379 -71.76748522 12.0061425 -38.6875 5.23828125 C-37.86604492 5.06603027 -37.04458984 4.8937793 -36.19824219 4.71630859 C-24.25709471 2.21603547 -24.25709471 2.21603547 -18.6875 1.23828125 C-17.68082275 1.06103516 -16.67414551 0.88378906 -15.63696289 0.70117188 C-10.41660358 0.08932782 -5.25224542 0.03616169 0 0 Z " fill="#0082C9" transform="translate(304.6875,4.76171875)"/>
<path d="M0 0 C1.15242187 0.474375 2.30484375 0.94875 3.4921875 1.4375 C21.16992178 9.48338343 31.96972764 23.57065885 40 41 C40.37769531 40.3709375 40.75539063 39.741875 41.14453125 39.09375 C47.19217889 29.68944548 55.24827156 23.07566366 65.98046875 19.62109375 C78.99260039 16.94460096 90.63285357 19.28787833 101.68359375 26.34375 C110.11587729 32.37290383 116.33987669 40.91114524 119 51 C119.26929476 53.79820135 119.27999209 56.5657409 119.25 59.375 C119.25773437 60.09171875 119.26546875 60.8084375 119.2734375 61.546875 C119.22932791 73.76523224 114.75724691 82.85766327 106.48828125 91.66796875 C96.791398 100.75594253 85.73426088 103.65015171 72.6875 103.34765625 C61.24363015 102.26873208 52.56559187 96.3834937 45 88 C43.26327637 85.70675719 41.62870053 83.37324934 40 81 C38.52301886 83.33207549 37.15533523 85.66130828 36.00390625 88.171875 C28.95812963 103.48242074 16.40656072 115.27735817 1 122 C-2.51071071 123.06197174 -5.9445985 123.87048778 -9.55078125 124.52734375 C-11.93746321 124.75069342 -11.93746321 124.75069342 -13 126 C-32.80098305 126.96975202 -48.16130738 123.53142891 -64 111 C-65.051875 110.236875 -66.10375 109.47375 -67.1875 108.6875 C-75.03250328 101.19116353 -83.12006418 90.14585374 -84 79 C-84.66 79 -85.32 79 -86 79 C-86.20625 79.66 -86.4125 80.32 -86.625 81 C-90.69941678 89.8896366 -97.47846252 96.18294346 -106.46875 100.06640625 C-118.9879789 104.38554022 -130.64643741 103.95604464 -143 99 C-146.40230779 97.01490166 -149.1859373 94.74666 -152 92 C-152.63550781 91.37996094 -153.27101562 90.75992188 -153.92578125 90.12109375 C-163.62995251 79.83508782 -165.5228845 68.91237786 -165.2734375 55.203125 C-164.8093361 44.86423243 -159.15850339 37.05062594 -151.9453125 29.98828125 C-143.77511741 22.63510567 -135.39974233 18.40350529 -124.3125 18.5 C-123.52939453 18.50644531 -122.74628906 18.51289063 -121.93945312 18.51953125 C-110.12895408 18.88649688 -100.2794321 23.58630684 -92 32 C-89.76671846 34.88223109 -87.80361338 37.83267894 -86 41 C-84.04933752 38.07400628 -82.53023809 35.13276145 -80.9375 32 C-71.98707595 15.42514065 -58.70165394 4.6591298 -41.1484375 -2.09765625 C-27.81721157 -5.91839222 -12.74086216 -5.25912738 0 0 Z " fill="#FBFDFE" transform="translate(343,179)"/>
<path d="M0 0 C7.07226549 4.11102549 12.19582371 8.49427373 16.546875 15.48046875 C17.27970703 16.61355469 17.27970703 16.61355469 18.02734375 17.76953125 C23.24779808 27.21606765 23.11394468 38.68733415 20.73046875 49.01953125 C16.55763627 60.2730934 7.63690521 69.26717874 -3.19921875 74.28979492 C-8.2995621 76.41472799 -12.82993643 76.99277003 -18.328125 76.91796875 C-19.11823975 76.90967041 -19.90835449 76.90137207 -20.72241211 76.89282227 C-32.25219135 76.55981086 -40.42968416 71.67358398 -48.39453125 63.484375 C-56.13835289 54.36907739 -59.37882903 44.02027179 -58.9375 32.12890625 C-57.43503547 20.81195564 -51.21808232 11.02393834 -42.453125 3.86328125 C-29.87680529 -4.8320648 -13.90368892 -6.85582451 0 0 Z " fill="#0282C9" transform="translate(338.453125,203.51953125)"/>
<path d="M0 0 C4.83747796 2.29064377 9.14516365 5.89920004 11 11 C11.92896676 17.78498505 11.11790412 23.43959653 7 29 C4.07786574 32.43142052 1.37235826 33.75493602 -3.0625 34.546875 C-8.91762308 34.89926667 -13.04225824 34.68368851 -17.625 30.8125 C-18.79145217 29.57960435 -19.92298584 28.31174802 -21 27 C-21.66 26.21625 -22.32 25.4325 -23 24.625 C-24.90283692 19.63005308 -24.61408154 14.9190048 -23 9.875 C-16.87534017 1.07080149 -10.90825007 -2.17620949 0 0 Z " fill="#0583C9" transform="translate(226,223)"/>
<path d="M0 0 C5.43341998 3.13525074 9.06763692 7.00102208 11 13 C11.78309386 19.91732907 9.65835207 24.42261765 5.6328125 29.83984375 C1.94063656 33.74326358 -1.2344309 34.44294752 -6.5625 34.625 C-11.82148363 34.34789433 -15.15803542 33.84196458 -19 30 C-23.49486315 24.89220097 -24.75926619 20.32672102 -24.421875 13.55078125 C-23.59731373 8.56523952 -21.05314956 5.92777461 -17.375 2.6875 C-12.03629736 -1.10578872 -6.36644116 -1.01979607 0 0 Z " fill="#0583C9" transform="translate(427,223)"/>
</svg>
