<svg width="76" height="60" viewBox="0 0 76 60" fill="none" xmlns="http://www.w3.org/2000/svg">
<path d="M0 34.8V25.2C0 24.9888 0.018843 24.784 0.0628099 24.5728C0.100496 24.368 0.157025 24.1696 0.238678 23.9776C0.320331 23.7856 0.414545 23.6 0.527603 23.4272C0.646942 23.248 0.772562 23.088 0.917025 22.9344C1.06777 22.7872 1.22479 22.6592 1.39438 22.5376C1.56397 22.416 1.74612 22.32 1.93455 22.2432C2.12298 22.1664 2.32397 22.1024 2.52496 22.064C2.72595 22.0256 2.93322 22 3.1405 22H12.562C12.7693 22 12.9702 22.0192 13.1775 22.064C13.3785 22.1024 13.5732 22.1664 13.7679 22.2432C13.9626 22.32 14.1385 22.4224 14.3081 22.5376C14.4777 22.6528 14.641 22.7872 14.7855 22.9344C14.9299 23.0816 15.0618 23.2416 15.1749 23.4208C15.2879 23.5936 15.3884 23.7792 15.4638 23.9712C15.5455 24.1632 15.602 24.368 15.6397 24.5728C15.6836 24.784 15.7025 24.9888 15.7025 25.2V34.8C15.7025 35.0112 15.6836 35.216 15.6397 35.4272C15.602 35.632 15.5392 35.8304 15.4638 36.0288C15.3884 36.2272 15.2879 36.4064 15.1749 36.5792C15.0618 36.752 14.9299 36.9184 14.7855 37.0656C14.641 37.2128 14.484 37.3472 14.3081 37.4624C14.1385 37.5776 13.9564 37.68 13.7679 37.7568C13.5795 37.84 13.3785 37.8976 13.1775 37.936C12.9702 37.9808 12.7693 38 12.562 38H3.1405C2.93322 38 2.73223 37.9808 2.52496 37.936C2.31769 37.8912 2.12926 37.8336 1.93455 37.7568C1.73983 37.68 1.56397 37.5776 1.39438 37.4624C1.22479 37.3472 1.06149 37.2128 0.917025 37.0656C0.772562 36.9184 0.640661 36.7584 0.527603 36.5792C0.414545 36.4064 0.31405 36.2208 0.238678 36.0288C0.163306 35.8368 0.100496 35.632 0.0628099 35.4272C0.018843 35.216 0 35.0112 0 34.8Z" fill="#4D87E2"/>
<path d="M10.5332 28.688C10.1375 29.1296 9.45917 29.1296 9.06347 28.688C8.7243 28.3104 8.7243 27.7216 9.06347 27.344C9.45917 26.9024 10.1375 26.9024 10.5332 27.344C10.8724 27.7216 10.8724 28.3104 10.5332 28.688ZM11.3435 26.4096C10.1501 25.2192 8.24066 25.2256 7.05355 26.4288C6.09256 27.4016 5.91041 28.8608 6.49455 30.0256C6.51339 30.0704 6.50711 30.128 6.4757 30.16L3.49223 33.1936C3.47339 33.2128 3.46083 33.2448 3.46083 33.2768V34.3648C3.46083 34.4288 3.51107 34.48 3.57388 34.48H4.64793C4.67934 34.48 4.70446 34.4672 4.72959 34.448L5.63405 33.5328C5.65289 33.5136 5.6843 33.5008 5.7157 33.5008H6.90909C7.03471 33.5008 7.14149 33.3984 7.14149 33.264V32.048C7.14149 32.016 7.15405 31.9904 7.17289 31.9648L7.71934 31.408C7.75702 31.3696 7.80727 31.3632 7.85124 31.3888C8.99438 31.9712 10.4202 31.7792 11.3686 30.8128C12.5494 29.5968 12.5431 27.6064 11.3435 26.4096Z" fill="white"/>
<path d="M21.9835 25.52H28.924V34.2624H27.3726V26.8832H23.5412V34.256H21.9835V25.52Z" fill="black"/>
<path d="M32.4162 33.2128C33.2704 33.2128 33.8294 32.3296 33.8294 31.568V31.3952H33.5656C32.7931 31.3952 31.4866 31.504 31.4866 32.3872C31.4866 32.8032 31.7944 33.2128 32.4162 33.2128ZM33.5468 30.32H33.8106V30.2304C33.8106 29.4048 33.2893 29.1232 32.6549 29.1232C32.0519 29.1232 31.4364 29.3856 30.9402 29.7248L30.3749 28.6048C30.8774 28.1888 31.8698 27.8304 32.7931 27.8304C34.401 27.8304 35.3494 28.7456 35.3494 30.3264V34.2496H33.9236V33.7184C33.9236 33.456 33.955 33.264 33.955 33.264H33.9299C33.5531 33.9296 32.8182 34.3968 31.9828 34.3968C30.8711 34.3968 29.954 33.6544 29.954 32.5152C29.9666 30.64 32.1838 30.32 33.5468 30.32Z" fill="black"/>
<path d="M39.6079 27.8304C40.4433 27.8304 41.3855 28.112 41.9759 28.7648L41.2912 29.8336C40.9081 29.4432 40.2988 29.1552 39.6959 29.1552C38.559 29.1552 37.8241 30.0256 37.8241 31.0944C37.8241 32.1504 38.559 33.0656 39.7461 33.0656C40.3993 33.0656 41.0965 32.72 41.555 32.2656L42.1455 33.3728C41.5676 34 40.5941 34.3968 39.6079 34.3968C37.5666 34.3968 36.2602 32.9376 36.2602 31.1072C36.2602 29.3344 37.5666 27.8304 39.6079 27.8304Z" fill="black"/>
<path d="M45.7822 27.8304C46.6175 27.8304 47.5597 28.112 48.1501 28.7648L47.4655 29.8336C47.0823 29.4432 46.4731 29.1552 45.8701 29.1552C44.7332 29.1552 43.9983 30.0256 43.9983 31.0944C43.9983 32.1504 44.7332 33.0656 45.9203 33.0656C46.5736 33.0656 47.2707 32.72 47.7293 32.2656L48.3197 33.3728C47.7418 34 46.7683 34.3968 45.7822 34.3968C43.7408 34.3968 42.4344 32.9376 42.4344 31.1072C42.4344 29.3344 43.7408 27.8304 45.7822 27.8304Z" fill="black"/>
<path d="M51.7993 33.2256C52.484 33.2256 52.8169 32.8672 52.8169 32.3872C52.8169 31.8816 52.4651 31.536 51.7993 31.536H50.675V33.2256H51.7993ZM51.6737 30.5632C52.2516 30.5632 52.5279 30.2176 52.5279 29.7376C52.5279 29.2832 52.2516 28.9952 51.6486 28.9952H50.675V30.5568L51.6737 30.5632ZM49.1362 27.984H52.0003C53.244 27.984 54.0793 28.5536 54.0793 29.6096C54.0793 30.1856 53.7904 30.7296 53.2691 30.9856V30.9984C54.004 31.1968 54.3557 31.8112 54.3557 32.4384C54.3557 33.6928 53.3507 34.256 52.0569 34.256H49.1362V27.984Z" fill="black"/>
<path d="M58.3944 33.072C59.3993 33.072 60.2347 32.2848 60.2347 31.1136C60.2347 29.9552 59.3993 29.1552 58.3944 29.1552C57.3894 29.1552 56.5666 29.9552 56.5666 31.1136C56.5729 32.2912 57.3894 33.072 58.3944 33.072ZM58.3818 27.8304C60.2661 27.8304 61.7736 29.1936 61.7736 31.12C61.7736 33.0528 60.2661 34.4096 58.3944 34.4096C56.5226 34.4096 55.0152 33.0592 55.0152 31.12C55.0152 29.1936 56.5226 27.8304 58.3818 27.8304Z" fill="black"/>
<path d="M65.718 33.0848C66.566 33.0848 67.2694 32.3872 67.2694 31.1456C67.2694 29.9488 66.6413 29.1744 65.7494 29.1744C64.9392 29.1744 64.1917 29.7632 64.1917 31.1584C64.1855 32.1248 64.7193 33.0848 65.718 33.0848ZM64.1038 27.984V28.4512C64.1038 28.6816 64.0787 28.8992 64.0787 28.8992H64.1038C64.4995 28.2208 65.2469 27.8432 66.0823 27.8432C67.7531 27.8432 68.8083 29.1872 68.8083 31.1328C68.8083 33.1296 67.6086 34.4224 65.9944 34.4224C65.2909 34.4224 64.6565 34.1024 64.2169 33.5392H64.1917C64.1917 33.5392 64.2231 33.7568 64.2231 34.0832V36.7392H62.6906V27.984H64.1038Z" fill="black"/>
<path d="M69.7127 27.984H71.2453V30.384H71.9927L73.4876 27.984H75.1898L73.2364 30.9728V30.992L75.4347 34.256H73.6635L72.043 31.7024H71.2453V34.256H69.7127V27.984Z" fill="black"/>
</svg>
