<?xml version="1.0" encoding="UTF-8"?>
<svg version="1.1" xmlns="http://www.w3.org/2000/svg" width="512" height="315">
<path d="M0 0 C168.96 0 337.92 0 512 0 C512 103.95 512 207.9 512 315 C343.04 315 174.08 315 0 315 C0 211.05 0 107.1 0 0 Z " fill="#FEFEFE" transform="translate(0,0)"/>
<path d="M0 0 C1.00385742 -0.01007584 2.00771484 -0.02015167 3.04199219 -0.03053284 C6.35769818 -0.05900986 9.67294889 -0.06488928 12.98876953 -0.06811523 C15.29656155 -0.0777563 17.60435173 -0.08784877 19.91213989 -0.09837341 C24.74908702 -0.11633403 29.58587344 -0.12189447 34.42285156 -0.12011719 C40.6159847 -0.11981231 46.80808607 -0.16077359 53.00097466 -0.21243382 C57.76743285 -0.24581591 62.53364211 -0.25187419 67.30020523 -0.25028801 C69.583147 -0.25382488 71.86609543 -0.26707638 74.14892197 -0.29028511 C77.34480483 -0.31973548 80.53845492 -0.31103662 83.734375 -0.29296875 C84.67382965 -0.30982727 85.6132843 -0.32668579 86.58120728 -0.34405518 C92.38063826 -0.26088762 95.49001771 0.85053613 99.7284565 4.85594273 C101.94439698 7.61659196 102.12339355 10.23025152 102.13702393 13.62849426 C102.14273407 14.48219101 102.14844421 15.33588776 102.15432739 16.2154541 C102.15600418 17.61579895 102.15600418 17.61579895 102.15771484 19.04443359 C102.1651622 20.52293037 102.1651622 20.52293037 102.17276001 22.03129578 C102.18738541 25.297645 102.19418434 28.56394565 102.19970703 31.83032227 C102.20545824 34.09852602 102.21121598 36.36672975 102.21697998 38.63493347 C102.22749109 43.39383165 102.23333302 48.15271293 102.23681641 52.91162109 C102.24230084 59.00817638 102.2663275 65.1045083 102.29478836 71.20099354 C102.31341639 75.88759513 102.31862044 80.57414294 102.32015228 85.26077843 C102.32317904 87.50823882 102.33120831 89.75569825 102.34433746 92.00312233 C102.36140078 95.14857579 102.35951679 98.29348382 102.35302734 101.43896484 C102.36224213 102.36645538 102.37145691 103.29394592 102.38095093 104.24954224 C102.34807502 109.33903622 102.08204827 113.16795236 98.99658203 117.43579102 C93.96695155 121.06529786 88.98941459 120.86311636 83.03149414 120.82397461 C81.5499308 120.83186005 81.5499308 120.83186005 80.03843689 120.83990479 C76.78343757 120.85307614 73.52892981 120.8443773 70.27392578 120.83422852 C68.00761318 120.83624991 65.74130122 120.83916189 63.47499084 120.84292603 C58.72976476 120.84734537 53.9847083 120.84093009 49.23950195 120.8269043 C43.15746803 120.80980306 37.07583101 120.81966226 30.99381161 120.83762169 C26.31581124 120.84846159 21.63790501 120.84501236 16.95990181 120.83723831 C14.71720902 120.83523739 12.47450768 120.83769177 10.23182487 120.84467697 C7.0984113 120.85229572 3.96564105 120.8406812 0.83227539 120.82397461 C-0.09409729 120.8300473 -1.02046997 120.83612 -1.97491455 120.84237671 C-8.32494778 120.7796548 -11.5064139 119.69105686 -16.28456116 115.37548828 C-18.79702263 111.07851829 -18.55511653 107.29539512 -18.50512695 102.40063477 C-18.51052994 101.39356476 -18.51593292 100.38649475 -18.52149963 99.34890747 C-18.53399642 96.0234021 -18.5174889 92.69876083 -18.49951172 89.37329102 C-18.49966668 87.06070917 -18.50115525 84.74812707 -18.50392151 82.43554688 C-18.50530593 77.59013378 -18.49273973 72.74501654 -18.4699707 67.8996582 C-18.44158631 61.6886656 -18.44432299 55.4781646 -18.45706081 49.26713562 C-18.4640157 44.49218548 -18.4562308 39.71734897 -18.44380379 34.94241333 C-18.43928747 32.65227697 -18.43895406 30.36212843 -18.44286919 28.07199097 C-18.44577946 24.87138869 -18.42928244 21.67146394 -18.4074707 18.47094727 C-18.41197235 17.52430206 -18.416474 16.57765686 -18.42111206 15.60232544 C-18.36649007 10.77842925 -18.30482909 7.24159262 -15.00341797 3.43579102 C-10.51507325 -0.44964222 -5.63817611 -0.00812443 0 0 Z " fill="#3496DA" transform="translate(41.00341796875,98.564208984375)"/>
<path d="M0 0 C6.26037602 3.22053299 11.73445618 8.46722831 14.30078125 15.12109375 C15.09231073 23.11001918 15.60791876 31.58444344 10.30078125 38.12109375 C6.31712702 42.32659797 1.28176157 46.77927287 -4.70947266 47.29370117 C-7.68046383 47.2657492 -10.63289111 47.10195021 -13.59765625 46.91601562 C-17.14612233 46.78703769 -19.22245485 46.78645663 -22.17578125 48.859375 C-23.7677856 51.22288915 -24.26174036 52.55891783 -24.44921875 55.37109375 C-24.53171875 56.60859375 -24.61421875 57.84609375 -24.69921875 59.12109375 C-27.33921875 59.12109375 -29.97921875 59.12109375 -32.69921875 59.12109375 C-32.91578125 60.82265625 -32.91578125 60.82265625 -33.13671875 62.55859375 C-33.69921875 66.12109375 -33.69921875 66.12109375 -34.69921875 67.12109375 C-36.69880239 67.16190158 -38.69967129 67.16363731 -40.69921875 67.12109375 C-41.00859375 67.73984375 -41.31796875 68.35859375 -41.63671875 68.99609375 C-42.32421875 70.37109375 -43.01171875 71.74609375 -43.69921875 73.12109375 C-48.64921875 73.12109375 -53.59921875 73.12109375 -58.69921875 73.12109375 C-58.92761922 66.49748 -58.85338293 61.57734403 -54.25317383 56.33203125 C-53.25077846 55.37709662 -52.23876745 54.43218189 -51.21875 53.49609375 C-50.12658184 52.4496061 -49.03479617 51.40271916 -47.94335938 50.35546875 C-46.22421843 48.72968709 -44.49987397 47.1100698 -42.76782227 45.49804688 C-41.09040855 43.92925978 -39.43524386 42.33950101 -37.78125 40.74609375 C-36.99546318 40.03332275 -36.99546318 40.03332275 -36.19380188 39.30615234 C-34.54099545 37.77624958 -34.54099545 37.77624958 -32.69921875 35.12109375 C-32.74349814 31.96876279 -32.74349814 31.96876279 -33.69921875 29.12109375 C-34.41559826 20.3131489 -33.81299271 14.06160679 -28.0859375 7.18359375 C-20.43647949 -0.95773628 -10.85893721 -3.53583339 0 0 Z " fill="#3796D7" transform="translate(104.69921875,122.87890625)"/>
<path d="M0 0 C26 0 26 0 34 4 C38.33201879 8.44601928 40.08268777 12.61361334 40.5 18.75 C40.35666526 24.75214204 38.06255672 28.68243431 34 33 C27.44396744 38.87509198 18.15329325 37.27177644 10 37 C10 43.6 10 50.2 10 57 C6.7 57 3.4 57 0 57 C0 38.19 0 19.38 0 0 Z " fill="#070707" transform="translate(155,159)"/>
<path d="M0 0 C4.27907493 3.81049854 7.56242774 8.14222718 8.44140625 13.8828125 C8.72262168 21.41212896 7.76296712 26.03924546 3.0078125 31.96875 C-2.02948568 37.06484933 -7.66649029 39.09818999 -14.75 39.3125 C-20.87578734 39.22241489 -25.31225631 37.57426117 -29.7578125 33.31640625 C-35.5556016 26.80439675 -36.46272361 22.10976517 -36.30859375 13.3515625 C-35.75776295 7.36912161 -32.77098224 4.60930686 -28.5625 0.75 C-19.91482719 -6.21922155 -9.40873331 -5.56413022 0 0 Z " fill="#090909" transform="translate(417,178)"/>
<path d="M0 0 C3.3 0 6.6 0 10 0 C12.04461936 5.7249342 13.70295852 11.48463685 15.1875 17.375 C15.36635742 18.07689453 15.54521484 18.77878906 15.72949219 19.50195312 C16.45101564 22.41336356 17 24.9881982 17 28 C17.66 28 18.32 28 19 28 C19.13591553 27.28884033 19.27183105 26.57768066 19.41186523 25.8449707 C19.9941986 23.02806296 20.67969823 20.2624259 21.41015625 17.48046875 C21.67763672 16.45888672 21.94511719 15.43730469 22.22070312 14.38476562 C22.49849609 13.32966797 22.77628906 12.27457031 23.0625 11.1875 C23.34416016 10.11306641 23.62582031 9.03863281 23.91601562 7.93164062 C24.60938917 5.28741948 25.30409348 2.64355543 26 0 C29.3 0 32.6 0 36 0 C37.17958303 4.0380103 38.34135775 8.08093594 39.5 12.125 C39.83386719 13.26710937 40.16773438 14.40921875 40.51171875 15.5859375 C40.82753906 16.69453125 41.14335937 17.803125 41.46875 18.9453125 C41.76201172 19.96125488 42.05527344 20.97719727 42.35742188 22.02392578 C43.02255964 25.10448404 43.11468487 27.85845362 43 31 C43.66 31 44.32 31 45 31 C45.10183594 29.9275 45.20367187 28.855 45.30859375 27.75 C46.02294796 22.0351663 47.56533772 16.55096362 49.0625 11 C49.34416016 9.93910156 49.62582031 8.87820312 49.91601562 7.78515625 C50.60602164 5.18886244 51.30236731 2.5942549 52 0 C55.3 0 58.6 0 62 0 C61.2422039 5.48500031 59.77918478 10.69178987 58.25 16 C57.98558105 16.92321045 57.72116211 17.8464209 57.44873047 18.79760742 C55.26349588 26.31776992 52.78056459 33.67948704 50 41 C46.37 41 42.74 41 39 41 C38.59007812 39.54207031 38.18015625 38.08414063 37.7578125 36.58203125 C37.21368281 34.65881423 36.66940416 32.73563935 36.125 30.8125 C35.85558594 29.85279297 35.58617187 28.89308594 35.30859375 27.90429688 C34.91220703 26.50727539 34.91220703 26.50727539 34.5078125 25.08203125 C34.26691895 24.22843018 34.02602539 23.3748291 33.77783203 22.49536133 C32.97942429 19.9339911 32.02809264 17.47712132 31 15 C30.74307373 15.91495239 30.74307373 15.91495239 30.48095703 16.84838867 C29.69845296 19.62889351 28.91176734 22.40819863 28.125 25.1875 C27.85558594 26.14720703 27.58617187 27.10691406 27.30859375 28.09570312 C27.04433594 29.02705078 26.78007812 29.95839844 26.5078125 30.91796875 C26.26691895 31.77156982 26.02602539 32.6251709 25.77783203 33.50463867 C24.98490192 36.04843611 23.98957626 38.52605934 23 41 C19.37 41 15.74 41 12 41 C2.70980522 13.24001321 2.70980522 13.24001321 0 0 Z " fill="#0A0A0A" transform="translate(314,175)"/>
<path d="M0 0 C3.71166983 3.09168044 5.60715516 6.29150486 6.20800781 11.07958984 C6.18706055 12.38879395 6.16611328 13.69799805 6.14453125 15.046875 C6.13887146 15.74865875 6.13321167 16.4504425 6.12738037 17.17349243 C6.10515108 19.39502837 6.05498681 21.61489673 6.00390625 23.8359375 C5.98382356 25.35023697 5.96557589 26.86456196 5.94921875 28.37890625 C5.90533258 32.07345018 5.83640202 35.76703083 5.75390625 39.4609375 C2.78390625 39.4609375 -0.18609375 39.4609375 -3.24609375 39.4609375 C-3.74109375 36.9859375 -3.74109375 36.9859375 -4.24609375 34.4609375 C-5.19484375 35.2653125 -6.14359375 36.0696875 -7.12109375 36.8984375 C-10.79078448 40.00969703 -13.18523591 40.80914713 -18.1484375 40.74609375 C-22.38013102 40.1708356 -25.05918493 37.52915544 -28.12109375 34.7734375 C-29.93710443 31.04052666 -29.99257686 27.51729857 -29.24609375 23.4609375 C-25.98070004 18.27472396 -22.21107114 15.67964634 -16.390625 13.890625 C-13.8786123 13.38730734 -11.55621145 13.36475174 -8.99609375 13.3984375 C-8.1040625 13.40746094 -7.21203125 13.41648438 -6.29296875 13.42578125 C-5.6175 13.43738281 -4.94203125 13.44898438 -4.24609375 13.4609375 C-4.84793124 11.44048308 -5.51915471 9.43982711 -6.24609375 7.4609375 C-10.51883128 5.32456873 -15.78545745 6.17998084 -20.24609375 7.4609375 C-21.23609375 7.7909375 -22.22609375 8.1209375 -23.24609375 8.4609375 C-24.80859375 6.7109375 -24.80859375 6.7109375 -26.24609375 4.4609375 C-26.046875 2.4296875 -26.046875 2.4296875 -25.24609375 0.4609375 C-17.08439614 -3.77105385 -8.26456656 -4.17690837 0 0 Z " fill="#0A0A0A" transform="translate(228.24609375,176.5390625)"/>
<path d="M0 0 C2.97 0 5.94 0 9 0 C9 9.9 9 19.8 9 30 C14.99922699 29.71595896 14.99922699 29.71595896 17.16796875 26.05859375 C17.84871016 24.85581241 18.52163692 23.64858141 19.1875 22.4375 C22.89903668 16.31293531 22.89903668 16.31293531 27.0234375 15.140625 C29.78902988 15.18328195 32.30071987 15.40969014 35 16 C33.92044741 17.73152958 32.83617488 19.46011684 31.75 21.1875 C31.14671875 22.15042969 30.5434375 23.11335938 29.921875 24.10546875 C28 27 28 27 25.703125 29.55078125 C23.72721 31.8300628 23.72721 31.8300628 24.22338867 34.36499023 C25.04890467 37.16593149 26.13121197 39.16718456 27.72265625 41.609375 C28.26083984 42.44597656 28.79902344 43.28257812 29.35351562 44.14453125 C29.91748047 45.00433594 30.48144531 45.86414063 31.0625 46.75 C32.18016617 48.47280438 33.29614932 50.19670221 34.41015625 51.921875 C34.90652588 52.68081055 35.40289551 53.43974609 35.91430664 54.22167969 C37 56 37 56 37 57 C33.20161875 57.54745353 29.77894803 57.75683351 26 57 C23.18680197 54.43673486 21.68043788 51.38175076 20 48 C19.18857852 46.48803451 18.35656002 44.9868589 17.5 43.5 C17.1596875 42.8503125 16.819375 42.200625 16.46875 41.53125 C14.64704502 39.32650016 14.64704502 39.32650016 9 39 C9 44.94 9 50.88 9 57 C6.03 57 3.06 57 0 57 C0 38.19 0 19.38 0 0 Z " fill="#030303" transform="translate(466,159)"/>
<path d="M0 0 C6.26037602 3.22053299 11.73445618 8.46722831 14.30078125 15.12109375 C15.09231073 23.11001918 15.60791876 31.58444344 10.30078125 38.12109375 C6.31712702 42.32659797 1.28176157 46.77927287 -4.70947266 47.29370117 C-7.68046383 47.2657492 -10.63289111 47.10195021 -13.59765625 46.91601562 C-17.14612233 46.78703769 -19.22245485 46.78645663 -22.17578125 48.859375 C-23.7677856 51.22288915 -24.26174036 52.55891783 -24.44921875 55.37109375 C-24.53171875 56.60859375 -24.61421875 57.84609375 -24.69921875 59.12109375 C-27.33921875 59.12109375 -29.97921875 59.12109375 -32.69921875 59.12109375 C-32.91578125 60.82265625 -32.91578125 60.82265625 -33.13671875 62.55859375 C-33.69921875 66.12109375 -33.69921875 66.12109375 -34.69921875 67.12109375 C-36.69880239 67.16190158 -38.69967129 67.16363731 -40.69921875 67.12109375 C-41.00859375 67.73984375 -41.31796875 68.35859375 -41.63671875 68.99609375 C-42.32421875 70.37109375 -43.01171875 71.74609375 -43.69921875 73.12109375 C-48.64921875 73.12109375 -53.59921875 73.12109375 -58.69921875 73.12109375 C-58.92761922 66.49748 -58.85338293 61.57734403 -54.25317383 56.33203125 C-53.25077846 55.37709662 -52.23876745 54.43218189 -51.21875 53.49609375 C-50.12658184 52.4496061 -49.03479617 51.40271916 -47.94335938 50.35546875 C-46.22421843 48.72968709 -44.49987397 47.1100698 -42.76782227 45.49804688 C-41.09040855 43.92925978 -39.43524386 42.33950101 -37.78125 40.74609375 C-36.99546318 40.03332275 -36.99546318 40.03332275 -36.19380188 39.30615234 C-34.54099545 37.77624958 -34.54099545 37.77624958 -32.69921875 35.12109375 C-32.74349814 31.96876279 -32.74349814 31.96876279 -33.69921875 29.12109375 C-34.41559826 20.3131489 -33.81299271 14.06160679 -28.0859375 7.18359375 C-20.43647949 -0.95773628 -10.85893721 -3.53583339 0 0 Z M-26.21875 12.0859375 C-28.7001804 15.49708588 -29.98021668 18.05412804 -29.94921875 22.30859375 C-29.954375 23.00339844 -29.95953125 23.69820312 -29.96484375 24.4140625 C-29.86713465 27.05671375 -29.86713465 27.05671375 -28.78369141 28.96679688 C-27.63229334 31.68342524 -27.29127847 33.17030768 -27.69921875 36.12109375 C-31.40818101 41.09465601 -35.97115035 45.11188895 -40.57421875 49.24609375 C-42.45495368 50.95537115 -44.32621874 52.67196809 -46.17825317 54.412323 C-47.32925079 55.49211914 -48.49734758 56.55405137 -49.68380737 57.59475708 C-52.73880428 60.4408683 -53.66669662 61.77058722 -54.05908203 65.99951172 C-53.94032715 67.02963379 -53.82157227 68.05975586 -53.69921875 69.12109375 C-49.66842819 69.4690711 -49.66842819 69.4690711 -45.69921875 69.12109375 C-44.01787587 66.7633478 -44.01787587 66.7633478 -42.69921875 64.12109375 C-41.68859375 63.81171875 -40.67796875 63.50234375 -39.63671875 63.18359375 C-38.66734375 62.83296875 -37.69796875 62.48234375 -36.69921875 62.12109375 C-35.24760937 59.10329503 -35.24760937 59.10329503 -34.69921875 56.12109375 C-31.72921875 55.62609375 -31.72921875 55.62609375 -28.69921875 55.12109375 C-28.51359375 54.08984375 -28.32796875 53.05859375 -28.13671875 51.99609375 C-26.80299875 47.32807375 -23.85875993 44.51100557 -19.69921875 42.12109375 C-17.38671875 42.24609375 -17.38671875 42.24609375 -14.69921875 43.12109375 C-7.84160383 43.82352306 -2.36648436 43.23585676 3.30078125 39.12109375 C8.3488851 34.31704581 10.60365889 29.80323013 10.80078125 22.87109375 C10.7003172 17.27022286 9.90296643 13.93939142 6.12890625 9.77734375 C1.45797191 5.54555709 -2.28965479 2.85679866 -8.76171875 2.62109375 C-16.7624547 3.1104354 -21.17520834 6.09601045 -26.21875 12.0859375 Z " fill="#E0F6FD" transform="translate(104.69921875,122.87890625)"/>
<path d="M0 0 C-0.60183749 2.02045442 -1.27306096 4.02111039 -2 6 C-2.99 6.495 -2.99 6.495 -4 7 C-4.886875 6.690625 -5.77375 6.38125 -6.6875 6.0625 C-10.29882954 4.90414902 -13.2319957 4.84927983 -17 5 C-17.33 6.65 -17.66 8.3 -18 10 C-17.49210937 10.25394531 -16.98421875 10.50789062 -16.4609375 10.76953125 C-15.0260393 11.48698035 -13.59251934 12.20719042 -12.16015625 12.9296875 C-10.39600442 13.80378804 -8.60725747 14.62809957 -6.8125 15.4375 C-3.45082877 17.30509513 -1.32832094 18.91839876 1 22 C1.68658129 26.80606902 1.50115823 28.93754455 -0.5625 33.3125 C-4.71917122 37.89549647 -8.81745668 39.1423679 -14.8125 39.5 C-20.63135767 39.3569866 -25.08231633 36.92968389 -30 34 C-28.75023244 30.34683329 -28.32901247 29.21934164 -25 27 C-24.175 27.495 -23.35 27.99 -22.5 28.5 C-18.20070654 30.34255434 -15.6338198 30.30892132 -11 30 C-10.01 29.505 -10.01 29.505 -9 29 C-9 27.68 -9 26.36 -9 25 C-10.12019531 24.48050781 -11.24039062 23.96101563 -12.39453125 23.42578125 C-13.86754898 22.72211036 -15.34018553 22.01764115 -16.8125 21.3125 C-17.55048828 20.97283203 -18.28847656 20.63316406 -19.04882812 20.28320312 C-23.36789971 18.19206892 -26.11352606 16.64752009 -28 12 C-28.63538466 8.90779465 -28.59638891 6.10009707 -28 3 C-20.84143055 -6.89566954 -9.35291005 -5.44169312 0 0 Z " fill="#0A0A0A" transform="translate(308,178)"/>
<path d="M0 0 C2.9375 1.75 2.9375 1.75 4 3.6875 C3.92481787 6.16851016 3.21589167 7.64441372 1.9375 9.75 C0.9475 9.42 -0.0425 9.09 -1.0625 8.75 C-5.14844833 7.5634874 -8.82592394 7.60134821 -13.0625 7.75 C-13.3925 9.4 -13.7225 11.05 -14.0625 12.75 C-13.505625 12.98074219 -12.94875 13.21148437 -12.375 13.44921875 C1.42065038 19.34499501 1.42065038 19.34499501 4.125 23.6328125 C5.56154801 27.37612511 5.8389045 30.83261806 4.9375 34.75 C2.04347035 38.5717049 -1.33741417 40.90096114 -6.0625 41.75 C-13.42607242 42.24090483 -18.90083422 40.85777719 -25.0625 36.75 C-24.44972388 33.78824877 -23.80877478 32.36941217 -22.0625 29.75 C-17.3125 31.625 -17.3125 31.625 -15.0625 32.75 C-13.14749697 32.90898854 -13.14749697 32.90898854 -11.0625 32.875 C-10.36125 32.87757813 -9.66 32.88015625 -8.9375 32.8828125 C-6.97096225 32.86377236 -6.97096225 32.86377236 -5.0625 31.75 C-5.02966204 29.35043264 -5.02966204 29.35043264 -6.0625 26.75 C-8.36600534 25.34346116 -10.41410487 24.28382328 -12.875 23.25 C-17.69939518 21.18592918 -21.2075817 19.33326345 -24.0625 14.75 C-24.9537037 11.60618328 -24.90586126 8.90705631 -24.0625 5.75 C-18.18809231 -1.76486729 -8.75432605 -3.33498135 0 0 Z " fill="#090909" transform="translate(267.0625,175.25)"/>
<path d="M0 0 C0 3.3 0 6.6 0 10 C-1.5778125 10.0928125 -1.5778125 10.0928125 -3.1875 10.1875 C-7.7049319 11.15023139 -9.12257842 12.46488206 -12 16 C-13.88437367 19.12598956 -14.28742961 21.57298207 -14.4140625 25.203125 C-14.47207031 26.67265625 -14.47207031 26.67265625 -14.53125 28.171875 C-14.57765625 29.69554687 -14.57765625 29.69554687 -14.625 31.25 C-14.68300781 32.796875 -14.68300781 32.796875 -14.7421875 34.375 C-14.83631674 36.9164894 -14.92194979 39.45797433 -15 42 C-17.97 42 -20.94 42 -24 42 C-24 28.47 -24 14.94 -24 1 C-21.03 1 -18.06 1 -15 1 C-14.67 3.31 -14.34 5.62 -14 8 C-13.61328125 7.50628906 -13.2265625 7.01257813 -12.828125 6.50390625 C-12.04695313 5.54291016 -12.04695313 5.54291016 -11.25 4.5625 C-10.73953125 3.92441406 -10.2290625 3.28632813 -9.703125 2.62890625 C-6.68207567 -0.26049185 -4.10874399 0 0 0 Z " fill="#040404" transform="translate(458,174)"/>
<path d="M0 0 C3.83958155 1.30400883 5.51655576 2.32317806 7.875 5.625 C9.29295082 9.87885247 9.88330487 13.56711815 9 18 C6.52159753 21.23569211 3.92383532 23.76679461 0 25 C-6.656 25.75148387 -6.656 25.75148387 -9.81640625 23.984375 C-13.2506399 21.23698808 -14.74609425 19.10741775 -15.2734375 14.73046875 C-15.45293545 10.23611625 -15.57886603 7.0168906 -12.625 3.4375 C-8.58173441 -0.31696091 -5.37680045 -0.54068384 0 0 Z " fill="#F8F8F8" transform="translate(406,183)"/>
<path d="M0 0 C1.01028259 -0.00525696 2.02056519 -0.01051392 3.0614624 -0.01593018 C6.39643877 -0.02912015 9.73093686 -0.0203967 13.06591797 -0.01025391 C15.38329154 -0.01227461 17.70066449 -0.01518601 20.01803589 -0.01895142 C24.87178611 -0.02337315 29.72537061 -0.01694719 34.57910156 -0.00292969 C40.80820938 0.01418101 47.03692996 0.00430788 53.26602364 -0.01364708 C58.04945815 -0.02447258 62.83280039 -0.02104455 67.61623764 -0.0132637 C69.9136141 -0.01125927 72.21099888 -0.01372944 74.50836563 -0.02070236 C77.71413728 -0.02829849 80.91927568 -0.0167389 84.125 0 C85.07883575 -0.00607269 86.03267151 -0.01214539 87.01541138 -0.0184021 C87.88738159 -0.00994263 88.75935181 -0.00148315 89.65774536 0.00723267 C90.41541765 0.00836374 91.17308994 0.00949482 91.953722 0.01066017 C93.93310547 0.38818359 93.93310547 0.38818359 96.93310547 3.38818359 C61.62310547 3.05818359 26.31310547 2.72818359 -10.06689453 2.38818359 C-10.72689453 3.70818359 -11.38689453 5.02818359 -12.06689453 6.38818359 C-14.19189453 7.13818359 -14.19189453 7.13818359 -16.06689453 7.38818359 C-15.95943668 21.00945116 -15.84681204 34.6306652 -15.72755527 48.25183487 C-15.67234524 54.57640079 -15.6189282 60.90097135 -15.56958008 67.22558594 C-15.52190836 73.32695321 -15.46956437 79.42826401 -15.41395378 85.5295639 C-15.39354299 87.85959216 -15.3748278 90.18963589 -15.35782051 92.51969147 C-15.33374843 95.77832138 -15.30369743 99.03684459 -15.2722168 102.29541016 C-15.26646133 103.2628566 -15.26070587 104.23030304 -15.254776 105.22706604 C-15.24009277 106.56054329 -15.24009277 106.56054329 -15.22511292 107.92095947 C-15.21866036 108.69157841 -15.21220781 109.46219734 -15.20555973 110.25616837 C-15.06550584 112.40953509 -14.65690349 114.31664103 -14.06689453 116.38818359 C-16.46883861 114.70456819 -17.89333746 113.31505733 -18.44442558 110.37199593 C-18.58174591 107.73002864 -18.59551947 105.11205504 -18.56860352 102.46655273 C-18.5740065 101.45962875 -18.57940948 100.45270477 -18.5849762 99.41526794 C-18.59749079 96.0843269 -18.58095252 92.75424563 -18.56298828 89.42333984 C-18.56314322 87.10932876 -18.56463129 84.79531742 -18.56739807 82.48130798 C-18.56878334 77.6299188 -18.55620327 72.7788248 -18.53344727 67.92749023 C-18.50507846 61.70862197 -18.50779414 55.49024488 -18.52053738 49.27134037 C-18.52749286 44.49209906 -18.51970642 39.71297125 -18.50728035 34.93374443 C-18.50276348 32.64081698 -18.50243109 30.34787736 -18.50634575 28.05494881 C-18.50925619 24.84944825 -18.4927576 21.64462409 -18.47094727 18.43920898 C-18.47544891 17.49099274 -18.47995056 16.54277649 -18.48458862 15.56582642 C-18.43002187 10.73884607 -18.37152227 7.19585936 -15.06689453 3.38818359 C-10.56585178 -0.52225871 -5.65658646 -0.03616674 0 0 Z " fill="#4991C4" transform="translate(41.06689453125,98.61181640625)"/>
<path d="M0 0 C3 2 3 2 4 5 C4.09425745 6.39517121 4.13483314 7.79436291 4.14044189 9.19270325 C4.14615204 10.04639999 4.15186218 10.90009674 4.15774536 11.77966309 C4.15942215 13.18000793 4.15942215 13.18000793 4.16113281 14.60864258 C4.16858017 16.08713936 4.16858017 16.08713936 4.17617798 17.59550476 C4.19080338 20.86185398 4.19760231 24.12815464 4.203125 27.39453125 C4.20887621 29.662735 4.21463395 31.93093874 4.22039795 34.19914246 C4.23090906 38.95804064 4.23675099 43.71692192 4.24023438 48.47583008 C4.24571881 54.57238537 4.26974546 60.66871729 4.29820633 66.76520252 C4.31683436 71.45180411 4.32203841 76.13835192 4.32357025 80.82498741 C4.32659701 83.0724478 4.33462628 85.31990724 4.34775543 87.56733131 C4.36481875 90.71278477 4.36293476 93.85769281 4.35644531 97.00317383 C4.3656601 97.93066437 4.37487488 98.85815491 4.3843689 99.81375122 C4.35149299 104.9032452 4.08546624 108.73216134 1 113 C-4.0348931 116.63665797 -9.01660293 116.42155195 -14.98095703 116.37231445 C-15.97027222 116.37596512 -16.9595874 116.37961578 -17.97888184 116.38337708 C-21.23870169 116.39146243 -24.49802141 116.37789081 -27.7578125 116.36328125 C-30.02651977 116.36276249 -32.2952275 116.36328082 -34.56393433 116.36479187 C-39.31336191 116.36470224 -44.06261942 116.35429027 -48.81201172 116.33618164 C-54.90304747 116.3134691 -60.99383534 116.31295611 -67.08490181 116.31969929 C-71.76714282 116.32303834 -76.44932719 116.31641078 -81.13155746 116.30657005 C-83.37786437 116.30271862 -85.62417757 116.3015696 -87.87048721 116.3031559 C-91.00639134 116.30352623 -94.14197586 116.29091604 -97.27783203 116.2746582 C-98.20779999 116.27713562 -99.13776794 116.27961304 -100.09591675 116.28216553 C-100.95098816 116.27508072 -101.80605957 116.26799591 -102.68704224 116.26069641 C-103.42774523 116.25864354 -104.16844822 116.25659067 -104.93159676 116.25447559 C-107.30077778 115.96299532 -108.93693123 115.17279648 -111 114 C-108.669801 112.8349005 -107.33000001 112.87667849 -104.73532104 112.87974548 C-103.84067139 112.87837082 -102.94602173 112.87699615 -102.02426147 112.87557983 C-101.04027374 112.87917511 -100.05628601 112.88277039 -99.04248047 112.88647461 C-98.00830994 112.88632858 -96.9741394 112.88618256 -95.90863037 112.8860321 C-92.47812834 112.88673076 -89.04768009 112.89452099 -85.6171875 112.90234375 C-83.24350006 112.9042081 -80.86981223 112.90563192 -78.49612427 112.90663147 C-72.23910465 112.91045534 -65.98210813 112.92028453 -59.72509766 112.93133545 C-53.3440787 112.94155236 -46.96305602 112.94612969 -40.58203125 112.95117188 C-28.05467763 112.9619069 -15.52734004 112.97879039 -3 113 C-2.01 111.02 -2.01 111.02 -1 109 C-0.01 109 0.98 109 2 109 C1.89279484 95.23107662 1.77997497 81.46220911 1.66066074 67.69338512 C1.60542691 61.30040923 1.5520061 54.90742876 1.50268555 48.5144043 C1.45504889 42.3482031 1.40270622 36.18205838 1.34705925 30.01592445 C1.32663255 27.65994988 1.30792 25.30395982 1.29092598 22.94795799 C1.26688906 19.65559652 1.23683333 16.36334214 1.20532227 13.07104492 C1.1995668 12.09065247 1.19381134 11.11026001 1.18788147 10.10015869 C1.17809265 9.20413437 1.16830383 8.30811005 1.15821838 7.38493347 C1.15176583 6.6060184 1.14531328 5.82710333 1.1386652 5.02458477 C1.07094158 2.79505048 1.07094158 2.79505048 0 0 Z " fill="#4791C5" transform="translate(139,103)"/>
<path d="M0 0 C13.15910507 -0.49192916 13.15910507 -0.49192916 16.91796875 1.70703125 C19.3179726 4.35018746 19.67922605 5.4182292 19.625 8.9375 C19.40399509 12.33796189 18.97740153 14.0434586 17.375 17.125 C11.7769159 20.23504672 6.31724739 19.29519848 0 19 C0 12.73 0 6.46 0 0 Z " fill="#F9F9F9" transform="translate(165,168)"/>
<path d="M0 0 C2.5 1.5625 2.5 1.5625 4 4 C4 7.91243098 3.51020494 10.21506933 1.375 13.5 C-1 15 -1 15 -4.5625 15 C-8 14 -8 14 -9.9375 12.3125 C-11.33817538 9.26397123 -11.4842732 7.32073048 -11 4 C-8.05899778 -0.47032338 -5.13105401 -0.73300772 0 0 Z " fill="#C9F3FD" transform="translate(104,133)"/>
<path d="M0 0 C1.21236328 0.01353516 1.21236328 0.01353516 2.44921875 0.02734375 C3.37154297 0.04474609 3.37154297 0.04474609 4.3125 0.0625 C3.95 7.3125 3.95 7.3125 1.1875 10.5625 C-2.37355505 12.42044176 -4.72228037 12.51139279 -8.6875 12.0625 C-10.6875 10.0625 -10.6875 10.0625 -11 7.125 C-10.6875 4.0625 -10.6875 4.0625 -9.375 2.25 C-6.3075074 0.09139409 -3.62364574 -0.0525166 0 0 Z " fill="#F3F3F3" transform="translate(219.6875,196.9375)"/>
<path d="M0 0 C3.1165442 2.20807787 5.45343438 4.64563347 7.625 7.8125 C7.295 8.4725 6.965 9.1325 6.625 9.8125 C5.305 8.4925 3.985 7.1725 2.625 5.8125 C2.955 6.4725 3.285 7.1325 3.625 7.8125 C3.69450541 9.35273996 3.70952357 10.89584988 3.6875 12.4375 C3.67847656 13.25476563 3.66945313 14.07203125 3.66015625 14.9140625 C3.64855469 15.54054687 3.63695313 16.16703125 3.625 16.8125 C2.305 17.1425 0.985 17.4725 -0.375 17.8125 C-0.045 17.255625 0.285 16.69875 0.625 16.125 C1.82362599 13.3531774 2.14758446 11.79869691 1.625 8.8125 C-0.87549717 6.44716484 -3.51265305 4.7207313 -6.375 2.8125 C-5.385 2.4825 -4.395 2.1525 -3.375 1.8125 C-4.53747951 0.42320346 -4.53747951 0.42320346 -7.75 0.6875 C-11.32822972 0.63949539 -11.32822972 0.63949539 -14.375 1.8125 C-16.5625 0.375 -16.5625 0.375 -18.375 -1.1875 C-12.04629497 -2.95837618 -5.79563052 -3.46218377 0 0 Z " fill="#4395CC" transform="translate(105.375,128.1875)"/>
<path d="M0 0 C0.99 0.66 1.98 1.32 3 2 C1.625 3.5 1.625 3.5 0 5 C-0.66 5 -1.32 5 -2 5 C-1.67 5.66 -1.34 6.32 -1 7 C1.52733235 7.65555119 1.52733235 7.65555119 4 8 C3.525625 8.53625 3.05125 9.0725 2.5625 9.625 C0.71813924 12.42842836 0.37543153 14.69620258 0 18 C-2.31 18 -4.62 18 -7 18 C-7 17.67 -7 17.34 -7 17 C-5.02 17 -3.04 17 -1 17 C-1 15.02 -1 13.04 -1 11 C-2.258125 11.165 -3.51625 11.33 -4.8125 11.5 C-7.26456585 11.82158241 -9.51650694 12 -12 12 C-8.04 8.04 -4.08 4.08 0 0 Z " fill="#3C92CE" transform="translate(76,160)"/>
<path d="M0 0 C2.5 0.25 2.5 0.25 4.5 2.25 C4.75 5.25 4.75 5.25 4.5 8.25 C2.5 10.25 2.5 10.25 -0.5 10.5625 C-1.49 10.459375 -2.48 10.35625 -3.5 10.25 C-5.5 7.25 -5.5 7.25 -5.25 4.6875 C-4.24098289 1.40819438 -3.4742892 0.34742892 0 0 Z " fill="#4692C9" transform="translate(100.5,134.75)"/>
<path d="M0 0 C0.99 0 1.98 0 3 0 C3.33 0.99 3.66 1.98 4 3 C3.01 3 2.02 3 1 3 C0.690625 3.61875 0.38125 4.2375 0.0625 4.875 C-0.625 6.25 -1.3125 7.625 -2 9 C-6.62 9 -11.24 9 -16 9 C-16 7.35 -16 5.7 -16 4 C-15.01 3.67 -14.02 3.34 -13 3 C-13 3.99 -13 4.98 -13 6 C-6.98705234 5.79051258 -6.98705234 5.79051258 -2.1875 2.4375 C-1.465625 1.633125 -0.74375 0.82875 0 0 Z " fill="#EEFCFE" transform="translate(63,187)"/>
<path d="M0 0 C0.33 0 0.66 0 1 0 C1.06058594 0.79664063 1.12117188 1.59328125 1.18359375 2.4140625 C1.26738281 3.47367188 1.35117188 4.53328125 1.4375 5.625 C1.52 6.72199219 1.6025 7.81898438 1.6875 8.94921875 C1.92602654 12.0976362 1.92602654 12.0976362 2.9375 15.4375 C3 18 3 18 1.7265625 19.46484375 C0.0625 20.875 0.0625 20.875 -3 23 C-3.33 21.35 -3.66 19.7 -4 18 C-4.66 18 -5.32 18 -6 18 C-6 17.34 -6 16.68 -6 16 C-5.01 15.34 -4.02 14.68 -3 14 C-1.97327999 10.66772638 -1.97327999 10.66772638 -1.3125 6.875 C-1.06113281 5.59367188 -0.80976562 4.31234375 -0.55078125 2.9921875 C-0.36902344 2.00476563 -0.18726562 1.01734375 0 0 Z " fill="#3A92D0" transform="translate(70,140)"/>
<path d="M0 0 C1.65 0 3.3 0 5 0 C4.67 2.97 4.34 5.94 4 9 C6.31 9 8.62 9 11 9 C11 9.33 11 9.66 11 10 C8.36 10 5.72 10 3 10 C3 9.01 3 8.02 3 7 C2.01 7.495 2.01 7.495 1 8 C0.34444881 10.52733235 0.34444881 10.52733235 0 13 C-0.33 13 -0.66 13 -1 13 C-1.07654536 8.48382401 -1.10228696 4.40914783 0 0 Z " fill="#CDEBF8" transform="translate(47,183)"/>
<path d="M0 0 C0.66 0.33 1.32 0.66 2 1 C-2.29473386 11.00651189 -2.29473386 11.00651189 -5 15 C-5.33 15 -5.66 15 -6 15 C-6.92017937 7.33183857 -6.92017937 7.33183857 -4.6640625 4.06640625 C-3 2.4375 -3 2.4375 0 0 Z " fill="#E9F8FD" transform="translate(80,127)"/>
<path d="M0 0 C2.10388569 -0.05402274 4.20816714 -0.09280256 6.3125 -0.125 C8.07013672 -0.15980469 8.07013672 -0.15980469 9.86328125 -0.1953125 C13 0 13 0 16 2 C16 2.99 16 3.98 16 5 C12.37812613 4.44278864 8.7784869 3.7910229 5.1875 3.0625 C4.41792969 2.90910156 3.64835937 2.75570312 2.85546875 2.59765625 C2.24316406 2.40042969 1.63085938 2.20320313 1 2 C0.67 1.34 0.34 0.68 0 0 Z " fill="#EEFBFE" transform="translate(91,123)"/>
<path d="M0 0 C2.2693287 1.78649281 2.94654385 2.7042093 3.46875 5.59375 C3.49977155 8.47875382 3.48965885 11.15385794 3 14 C0.5 16.1875 0.5 16.1875 -2 17 C-1.505 15.515 -1.505 15.515 -1 14 C-0.77439324 11.60745424 -0.59151405 9.21071877 -0.4375 6.8125 C-0.35371094 5.54019531 -0.26992187 4.26789063 -0.18359375 2.95703125 C-0.12300781 1.98121094 -0.06242187 1.00539062 0 0 Z " fill="#EFFCFE" transform="translate(116,139)"/>
<path d="M0 0 C0.66 0 1.32 0 2 0 C3.42944945 2.35438733 4.08661261 3.48032433 3.625 6.25 C3.41875 6.8275 3.2125 7.405 3 8 C2.67 7.34 2.34 6.68 2 6 C1.95101562 6.92683594 1.90203125 7.85367188 1.8515625 8.80859375 C1.77679688 10.00613281 1.70203125 11.20367187 1.625 12.4375 C1.52058594 14.22994141 1.52058594 14.22994141 1.4140625 16.05859375 C1.20910156 17.51458984 1.20910156 17.51458984 1 19 C0.34 19.33 -0.32 19.66 -1 20 C-1.02689449 17.04160645 -1.04678741 14.08345573 -1.0625 11.125 C-1.07087891 10.28324219 -1.07925781 9.44148437 -1.08789062 8.57421875 C-1.09111328 7.76855469 -1.09433594 6.96289062 -1.09765625 6.1328125 C-1.10289307 5.38918457 -1.10812988 4.64555664 -1.11352539 3.87939453 C-1 2 -1 2 0 0 Z " fill="#D1F0FD" transform="translate(115,134)"/>
<path d="M0 0 C4.95 0.33 9.9 0.66 15 1 C15 1.66 15 2.32 15 3 C13.06257659 3.02703381 11.12504521 3.04641125 9.1875 3.0625 C8.10855469 3.07410156 7.02960938 3.08570313 5.91796875 3.09765625 C3 3 3 3 0 2 C0 1.34 0 0.68 0 0 Z " fill="#F7FEFE" transform="translate(85,166)"/>
<path d="M0 0 C1.64826111 2.96687001 2.44271087 5.65626525 3 9 C1.68 9.33 0.36 9.66 -1 10 C-1.33 9.01 -1.66 8.02 -2 7 C-3.65 7.33 -5.3 7.66 -7 8 C-6.67 7.34 -6.34 6.68 -6 6 C-3.4375 5.375 -3.4375 5.375 -1 5 C-0.67 3.35 -0.34 1.7 0 0 Z " fill="#D7EFFB" transform="translate(68,180)"/>
<path d="M0 0 C1.98 0 3.96 0 6 0 C6.33 0.99 6.66 1.98 7 3 C6.01 4.485 6.01 4.485 5 6 C5 5.34 5 4.68 5 4 C3.35 4.66 1.7 5.32 0 6 C0 4.02 0 2.04 0 0 Z " fill="#3396DB" transform="translate(97,137)"/>
<path d="M0 0 C0.33 0 0.66 0 1 0 C1.33 3.96 1.66 7.92 2 12 C1.34 11.01 0.68 10.02 0 9 C-0.33 11.64 -0.66 14.28 -1 17 C-1.33 17 -1.66 17 -2 17 C-2.05441656 15.10448978 -2.09298035 13.2085208 -2.125 11.3125 C-2.14820312 10.25675781 -2.17140625 9.20101562 -2.1953125 8.11328125 C-1.99858729 4.97748141 -1.33057654 2.82354627 0 0 Z " fill="#CDEEFC" transform="translate(73,135)"/>
<path d="M0 0 C0.66 0.66 1.32 1.32 2 2 C5.58343976 2.16677282 5.58343976 2.16677282 9 2 C9.33 2.99 9.66 3.98 10 5 C6.75 5.75 6.75 5.75 3 6 C0.5625 4.0625 0.5625 4.0625 -1 2 C-0.67 1.34 -0.34 0.68 0 0 Z " fill="#B3E1F5" transform="translate(95,142)"/>
<path d="M0 0 C2.0625 0.4375 2.0625 0.4375 4 1 C3.01 1.33 2.02 1.66 1 2 C0.60167969 2.67546875 0.20335938 3.3509375 -0.20703125 4.046875 C-2 6 -2 6 -5.57421875 6.390625 C-6.94585748 6.3641199 -8.31721938 6.3165309 -9.6875 6.25 C-10.7403418 6.22292969 -10.7403418 6.22292969 -11.81445312 6.1953125 C-13.54355436 6.14826213 -15.27195205 6.07651873 -17 6 C-17 5.67 -17 5.34 -17 5 C-12.38 5 -7.76 5 -3 5 C-2.34 3.68 -1.68 2.36 -1 1 C-0.67 0.67 -0.34 0.34 0 0 Z " fill="#66ACDB" transform="translate(64,191)"/>
<path d="M0 0 C1.98 0.99 1.98 0.99 4 2 C3.6875 5.375 3.6875 5.375 3 9 C2.01 9.66 1.02 10.32 0 11 C0 7.37 0 3.74 0 0 Z " fill="#C1E8F8" transform="translate(104,135)"/>
<path d="M0 0 C0.66 0.33 1.32 0.66 2 1 C2 3.31 2 5.62 2 8 C-0.31 8 -2.62 8 -5 8 C-4.0409375 7.13375 -4.0409375 7.13375 -3.0625 6.25 C-1.01776132 4.01937599 -0.41794801 2.92563609 0 0 Z " fill="#F2FDFE" transform="translate(77,174)"/>
<path d="M0 0 C3.8309219 -0.56337087 4.98370194 -0.01128327 8.25 2.25 C10.91180221 4.91180221 11.38140114 5.55352064 12 9 C8 6 4 3 0 0 Z " fill="#4D97CC" transform="translate(104,123)"/>
<path d="M0 0 C0.99 0.66 1.98 1.32 3 2 C2.34 3.65 1.68 5.3 1 7 C-1.475 6.01 -1.475 6.01 -4 5 C-3.34 4.01 -2.68 3.02 -2 2 C-1.34 2 -0.68 2 0 2 C0 1.34 0 0.68 0 0 Z " fill="#4097D4" transform="translate(58,185)"/>
<path d="M0 0 C-0.1875 1.8125 -0.1875 1.8125 -1 4 C-3.5625 5.75 -3.5625 5.75 -6 7 C-6 4 -6 4 -4.125 1.8125 C-2 0 -2 0 0 0 Z " fill="#489CCF" transform="translate(31,100)"/>
<path d="M0 0 C0.99 0.33 1.98 0.66 3 1 C2.01 2.485 2.01 2.485 1 4 C0.55570562 6.04869074 0.18705805 8.11454293 -0.125 10.1875 C-0.29257812 11.27417969 -0.46015625 12.36085937 -0.6328125 13.48046875 C-0.75398438 14.31191406 -0.87515625 15.14335937 -1 16 C-1.33 16 -1.66 16 -2 16 C-2.20674944 10.21101581 -1.59162079 5.57067277 0 0 Z " fill="#4391C7" transform="translate(47,179)"/>
<path d="M0 0 C1.66666667 0 3.33333333 0 5 0 C4.375 2.4375 4.375 2.4375 3 5 C-0.125 5.8125 -0.125 5.8125 -3 6 C-2.01 4.02 -1.02 2.04 0 0 Z " fill="#D8F3FC" transform="translate(113,154)"/>
<path d="M0 0 C0.8125 1.6875 0.8125 1.6875 1 4 C-1.4375 6.75 -1.4375 6.75 -4 9 C-4.33 8.34 -4.66 7.68 -5 7 C-4.0625 4.875 -4.0625 4.875 -3 3 C-2.01 3 -1.02 3 0 3 C0 2.01 0 1.02 0 0 Z " fill="#4E99D0" transform="translate(141,209)"/>
<path d="M0 0 C0.99 0.66 1.98 1.32 3 2 C1.75 3.5625 1.75 3.5625 0 5 C-2.1875 4.6875 -2.1875 4.6875 -4 4 C-2.68 2.68 -1.36 1.36 0 0 Z " fill="#489AD1" transform="translate(76,160)"/>
<path d="M0 0 C-0.33 1.32 -0.66 2.64 -1 4 C-2.32 4.33 -3.64 4.66 -5 5 C-5 4.01 -5 3.02 -5 2 C-2 0 -2 0 0 0 Z " fill="#EEF9FE" transform="translate(115,158)"/>
</svg>
