<svg width="76" height="60" viewBox="0 0 76 60" fill="none" xmlns="http://www.w3.org/2000/svg">
<path d="M0 31.4555H3.33281L3.57087 28.6039L0.475918 27.8912L0 31.4555Z" fill="#4C4C4C"/>
<path d="M0.595145 27.4158L3.57087 28.1286L4.28504 25.6336L1.78544 24.3269L0.595145 27.4158Z" fill="#4C4C4C"/>
<path d="M2.02329 23.8515L4.40387 25.1584L6.30854 23.8515L4.5231 21.8317L2.02329 23.8515Z" fill="#4C4C4C"/>
<path d="M15.3545 31.4555H12.0219L11.7837 28.6039L14.8786 27.8912L15.3545 31.4555Z" fill="#4C4C4C"/>
<path d="M14.7594 27.4158L11.7837 28.1286L11.0697 25.6336L13.5691 24.3269L14.7594 27.4158Z" fill="#4C4C4C"/>
<path d="M13.331 23.8515L10.9505 25.1584L9.0462 23.8515L10.8316 21.8317L13.331 23.8515Z" fill="#4C4C4C"/>
<path d="M5.11825 21.4752L6.90368 23.6138H8.56989L10.1175 21.4752L8.56989 21H6.86182L5.11825 21.4752Z" fill="#4C4C4C"/>
<path d="M0 31.4555H3.33281L3.57087 28.6039L0.475918 27.8912L0 31.4555Z" fill="#9C0000"/>
<path d="M0.595145 27.4158L3.57087 28.1286L4.28504 25.6336L1.78544 24.3269L0.595145 27.4158Z" fill="#B50808"/>
<path d="M2.02329 23.8515L4.40387 25.1584L6.30854 23.8515L4.5231 21.8317L2.02329 23.8515Z" fill="#C61818"/>
<path d="M15.3545 31.4555H12.0219L11.7837 28.6039L14.8786 27.8912L15.3545 31.4555Z" fill="#9C0000"/>
<path d="M14.7594 27.4158L11.7837 28.1286L11.0697 25.6336L13.5691 24.3269L14.7594 27.4158Z" fill="#B50808"/>
<path d="M13.331 23.8515L10.9505 25.1584L9.0462 23.8515L10.8316 21.8317L13.331 23.8515Z" fill="#C61818"/>
<path d="M5.11825 21.4752L6.90368 23.6138H8.56989L10.1175 21.4752L8.56989 21H6.86182L5.11825 21.4752Z" fill="#CE3129"/>
<path d="M19.4216 23.9653V31.4504H20.716V28.7772L23.1561 31.4504H24.3216V30.9257L22.1939 28.7178C22.7484 28.6477 23.1859 28.3794 23.5082 27.9158C23.8306 27.4522 23.9972 26.9284 24.0042 26.3415C24.0146 25.6604 23.7944 25.097 23.3495 24.6534C22.9046 24.2099 22.1726 23.9812 21.1475 23.9653H19.4216ZM25.4077 23.9653V31.4504H29.5737V30.2722H26.7022V28.1336H28.81V26.9702H26.7022V25.1188H29.4547V23.9653H25.4077ZM30.8235 23.9653V31.4504H32.9661C33.6689 31.4387 34.2353 31.2544 34.6622 30.896C35.0891 30.5375 35.3982 30.0742 35.5897 29.5098C35.7811 28.9454 35.8708 28.3473 35.8674 27.7178C35.8728 27.0954 35.794 26.5043 35.6244 25.9356C35.4547 25.3669 35.1655 24.9 34.7565 24.5346C34.3474 24.1693 33.783 23.9778 33.0702 23.9653H30.8235ZM20.716 25.0841H21.1475C21.6853 25.0878 22.0732 25.1968 22.3179 25.4158C22.5627 25.6349 22.6837 25.9418 22.68 26.3316C22.6792 26.7361 22.5741 27.0787 22.3576 27.3613C22.1411 27.644 21.8187 27.7895 21.3955 27.8019C21.2318 27.7955 21.079 27.7727 20.9392 27.7277C20.7993 27.6826 20.7249 27.6549 20.716 27.6485V25.0841ZM32.1081 25.0841H33.0256C33.4792 25.0978 33.8165 25.2514 34.0373 25.5445C34.2582 25.8377 34.4014 26.186 34.4688 26.594C34.5362 27.002 34.5647 27.3843 34.5581 27.7425C34.5639 28.1111 34.5309 28.4951 34.4539 28.891C34.3769 29.2869 34.2231 29.6238 33.9927 29.9009C33.7623 30.178 33.4204 30.3194 32.9661 30.3316H32.1081V25.0841Z" fill="#9C0000"/>
<path d="M37.4049 23.9653V31.4504H38.7043V27.3267L38.6051 26.4603L40.3459 31.4504H41.4171L43.153 26.4603L43.0587 27.3267V31.4504H44.3581V23.9653H42.8306L41.0452 29.0395C40.9861 29.218 40.9474 29.3705 40.9212 29.4999C40.8949 29.6294 40.881 29.6967 40.8815 29.7029C40.882 29.6974 40.8681 29.6321 40.8418 29.5049C40.8155 29.3776 40.7719 29.2232 40.7129 29.0395L38.9274 23.9653H37.4049ZM46.0692 23.9653V31.4504H47.3537V23.9653H46.0692ZM49.0102 23.9653V31.4504H50.3096V27.198C50.3061 26.9386 50.2892 26.7089 50.2649 26.5148C50.2406 26.3208 50.2287 26.2227 50.2253 26.2128L52.591 31.4504H53.8408V23.9653H52.5463C52.5463 25.1456 52.5463 26.0282 52.5463 26.6138C52.5463 27.1995 52.5463 27.609 52.5463 27.8366C52.5463 28.0641 52.5463 28.2306 52.5463 28.3366C52.5463 28.4425 52.5463 28.6058 52.5463 28.8267C52.5438 28.8083 52.5071 28.6806 52.4422 28.4455C52.3772 28.2103 52.2969 27.9747 52.1992 27.7425L50.5328 23.9653H49.0102ZM55.5816 23.9653V31.4504H59.7476V30.2722H56.876V28.1336H58.9838V26.9702H56.876V25.1188H59.6286V23.9653H55.5816Z" fill="#CE3129"/>
<path d="M20.711 33.5246C20.6996 33.5203 20.621 33.531 20.473 33.5593C20.3249 33.5876 20.1747 33.6592 20.0266 33.7722C19.8786 33.8852 19.8 34.0669 19.7886 34.3167V34.5939H19.4712V34.9652L19.7886 35.0197V37.0197H20.3093V35.0296H20.7606V34.5939H20.3093V34.3415C20.3154 34.2067 20.3595 34.1075 20.4383 34.0444C20.5171 33.9813 20.5926 33.9431 20.6714 33.9256C20.7502 33.9082 20.7943 33.8987 20.8003 33.9009L20.711 33.5246ZM21.1276 33.5791V36.0048C21.1302 36.2875 21.1455 36.5099 21.1772 36.6731C21.209 36.8364 21.2416 36.9523 21.2715 37.0197H21.8071C21.7523 36.84 21.7118 36.6758 21.6831 36.5246C21.6544 36.3734 21.6387 36.1993 21.6385 36.0048V33.5791H21.1276ZM27.9966 33.5791V36.7721C28.1216 36.8678 28.2597 36.9462 28.4082 37.0048C28.5568 37.0634 28.7097 37.0923 28.8695 37.0939C29.1322 37.0884 29.3419 37.0154 29.4944 36.8711C29.6468 36.7269 29.7525 36.544 29.8168 36.3266C29.881 36.1092 29.9128 35.8882 29.911 35.6632C29.9121 35.3773 29.8398 35.1174 29.6928 34.886C29.5457 34.6546 29.3172 34.5333 29.0084 34.5197C28.9231 34.5225 28.8326 34.5485 28.7405 34.5989C28.6485 34.6493 28.5753 34.7075 28.5174 34.7722V33.5791H27.9966ZM30.4119 33.5791V36.0048C30.4145 36.2875 30.4298 36.5099 30.4615 36.6731C30.4932 36.8364 30.5259 36.9523 30.5557 37.0197H31.0914C31.0366 36.84 30.9961 36.6758 30.9674 36.5246C30.9386 36.3734 30.9229 36.1993 30.9227 36.0048V33.5791H30.4119ZM27.0345 33.6533C26.9395 33.6558 26.8597 33.688 26.7914 33.7524C26.7231 33.8167 26.6855 33.8984 26.6823 33.9949C26.685 34.0883 26.7181 34.1646 26.7815 34.2227C26.845 34.2807 26.9227 34.31 27.0146 34.3118C27.1096 34.3093 27.1893 34.2771 27.2576 34.2128C27.3259 34.1484 27.3635 34.0667 27.3667 33.9702C27.3641 33.8768 27.331 33.8005 27.2676 33.7425C27.2041 33.6844 27.1264 33.6551 27.0345 33.6533ZM42.2652 33.6533C42.1702 33.6558 42.0905 33.688 42.0222 33.7524C41.9539 33.8167 41.9163 33.8984 41.9131 33.9949C41.9158 34.0883 41.9488 34.1646 42.0123 34.2227C42.0757 34.2807 42.1534 34.31 42.2454 34.3118C42.3403 34.3093 42.4201 34.2771 42.4884 34.2128C42.5567 34.1484 42.5943 34.0667 42.5975 33.9702C42.5948 33.8768 42.5617 33.8005 42.4983 33.7425C42.4349 33.6844 42.3572 33.6551 42.2652 33.6533ZM47.6413 34.1583V34.5939H47.3091V34.9652L47.6215 35.0197V36.485C47.6195 36.6533 47.6588 36.7944 47.7356 36.9107C47.8123 37.0271 47.9384 37.089 48.1175 37.0939C48.2326 37.0942 48.326 37.0831 48.3952 37.0593C48.4644 37.0354 48.5479 36.9971 48.6481 36.9454L48.5241 36.5791C48.5205 36.5817 48.4937 36.5949 48.4398 36.6137C48.386 36.6325 48.3269 36.6407 48.2662 36.6434C48.209 36.6412 48.1759 36.6247 48.1621 36.589C48.1483 36.5533 48.14 36.512 48.1423 36.4702V35.0345H48.5737V34.5939H48.1323V34.1583H47.6413ZM74.9932 34.1583V34.5939H74.6609V34.9652L74.9734 35.0197V36.485C74.9714 36.6533 75.0107 36.7944 75.0874 36.9107C75.1642 37.0271 75.2903 37.089 75.4693 37.0939C75.5844 37.0942 75.6778 37.0831 75.7471 37.0593C75.8163 37.0354 75.8998 36.9971 76 36.9454L75.876 36.5791C75.8724 36.5817 75.8455 36.5949 75.7917 36.6137C75.7379 36.6325 75.6788 36.6407 75.6181 36.6434C75.5609 36.6412 75.5278 36.6247 75.514 36.589C75.5001 36.5533 75.4919 36.512 75.4941 36.4702V35.0345H75.9256V34.5939H75.4842V34.1583H74.9932ZM23.2702 34.5197C22.933 34.5325 22.6706 34.6628 22.4866 34.9058C22.3025 35.1488 22.2112 35.4277 22.2088 35.7474C22.2072 35.9573 22.2372 36.1664 22.2981 36.3711C22.359 36.5759 22.4582 36.7445 22.6006 36.881C22.743 37.0176 22.9378 37.0887 23.1809 37.0939C23.3246 37.0896 23.4755 37.05 23.6322 36.9751C23.7889 36.9002 23.9224 36.8161 24.0339 36.7226L23.8603 36.386C23.7725 36.4534 23.6717 36.5153 23.5529 36.5692C23.434 36.623 23.3183 36.6502 23.2106 36.6533C23.0346 36.6378 22.9106 36.5438 22.8387 36.3662C22.7668 36.1886 22.7321 36.0203 22.7345 35.8662C22.7337 35.8365 22.7353 35.8068 22.7395 35.7771H24.1579C24.1578 35.7226 24.1593 35.6682 24.1579 35.6137C24.1565 35.5593 24.1532 35.5048 24.153 35.4504C24.1397 35.2102 24.0496 34.9969 23.8851 34.8118C23.7207 34.6266 23.5165 34.5297 23.2702 34.5197ZM32.5544 34.5197C32.2173 34.5325 31.9548 34.6628 31.7708 34.9058C31.5868 35.1488 31.4955 35.4277 31.4931 35.7474C31.4915 35.9573 31.5215 36.1664 31.5824 36.3711C31.6432 36.5759 31.7425 36.7445 31.8849 36.881C32.0273 37.0176 32.2221 37.0887 32.4652 37.0939C32.6089 37.0896 32.7597 37.05 32.9165 36.9751C33.0732 36.9002 33.2067 36.8161 33.3182 36.7226L33.1446 36.386C33.0568 36.4534 32.9559 36.5153 32.8371 36.5692C32.7183 36.623 32.6026 36.6502 32.4949 36.6533C32.3188 36.6378 32.1949 36.5438 32.1229 36.3662C32.051 36.1886 32.0163 36.0203 32.0188 35.8662C32.018 35.8365 32.0196 35.8068 32.0237 35.7771H33.4422C33.442 35.7226 33.4436 35.6682 33.4422 35.6137C33.4407 35.5593 33.4374 35.5048 33.4372 35.4504C33.424 35.2102 33.3339 34.9969 33.1694 34.8118C33.0049 34.6266 32.8007 34.5297 32.5544 34.5197ZM36.5469 34.5197C36.4064 34.5265 36.2886 34.5611 36.1947 34.6236C36.1008 34.6861 36.04 34.7356 36.0112 34.7722V34.5939H35.4855V37.886H36.0112V36.8464C36.0608 36.9325 36.1327 36.9948 36.2245 37.0345C36.3162 37.0742 36.4129 37.0944 36.5171 37.0939C36.7659 37.0877 36.9567 37.0132 37.0924 36.8662C37.2281 36.7191 37.3232 36.5347 37.3751 36.3216C37.427 36.1086 37.4519 35.9021 37.4495 35.6979C37.4506 35.4127 37.3783 35.1483 37.2313 34.9058C37.0842 34.6633 36.8557 34.535 36.5469 34.5197ZM38.9274 34.5197C38.8423 34.5302 38.7596 34.5748 38.6795 34.6484C38.5993 34.722 38.5563 34.7616 38.5505 34.7722V34.5939H38.0248V37.0197H38.5455V35.2127C38.5505 35.2037 38.5877 35.1674 38.6547 35.1038C38.7216 35.0403 38.7886 35.004 38.858 34.9949C38.9216 34.9986 38.9828 35.0135 39.0415 35.0395C39.1002 35.0655 39.1316 35.0803 39.1357 35.084L39.22 34.5939C39.2196 34.5908 39.1957 34.5809 39.1457 34.5593C39.0956 34.5376 39.0221 34.5228 38.9274 34.5197ZM40.455 34.5197C40.1207 34.5356 39.8698 34.6734 39.7061 34.9355C39.5423 35.1977 39.4625 35.4889 39.4631 35.8068C39.4626 36.1268 39.5423 36.4168 39.7061 36.6781C39.8698 36.9393 40.1207 37.0783 40.455 37.0939C40.7892 37.0783 41.0401 36.9393 41.2039 36.6781C41.3676 36.4168 41.4474 36.1268 41.4469 35.8068C41.4474 35.4889 41.3676 35.1977 41.2039 34.9355C41.0401 34.6734 40.7892 34.5356 40.455 34.5197ZM44.1201 34.5197C43.7829 34.5325 43.5205 34.6628 43.3365 34.9058C43.1524 35.1488 43.0611 35.4277 43.0587 35.7474C43.0571 35.9573 43.0871 36.1664 43.148 36.3711C43.2089 36.5759 43.3081 36.7445 43.4505 36.881C43.5929 37.0176 43.7877 37.0887 44.0308 37.0939C44.1745 37.0896 44.3254 37.05 44.4821 36.9751C44.6389 36.9002 44.7724 36.8161 44.8838 36.7226L44.7103 36.386C44.6224 36.4534 44.5216 36.5153 44.4028 36.5692C44.2839 36.623 44.1682 36.6502 44.0606 36.6533C43.8845 36.6378 43.7605 36.5438 43.6886 36.3662C43.6167 36.1886 43.582 36.0203 43.5844 35.8662C43.5836 35.8365 43.5852 35.8068 43.5894 35.7771H45.0078C45.0077 35.7226 45.0092 35.6682 45.0078 35.6137C45.0064 35.5593 45.0031 35.5048 45.0029 35.4504C44.9896 35.2102 44.8995 34.9969 44.7351 34.8118C44.5706 34.6266 44.3664 34.5297 44.1201 34.5197ZM46.3915 34.5197C46.1606 34.5248 45.9691 34.5947 45.8212 34.7276C45.6733 34.8605 45.5646 35.0281 45.4939 35.2276C45.4231 35.427 45.3892 35.6268 45.3897 35.8315C45.3896 36.0295 45.4266 36.2238 45.4988 36.4157C45.5711 36.6076 45.6801 36.7684 45.8262 36.8959C45.9722 37.0234 46.1553 37.0891 46.3767 37.0939C46.5141 37.0915 46.6521 37.0573 46.7933 36.9949C46.9344 36.9325 47.0576 36.8562 47.1603 36.7622L46.9817 36.4058C46.9065 36.4659 46.8189 36.5233 46.7139 36.5741C46.6089 36.625 46.5064 36.6501 46.4114 36.6533C46.285 36.648 46.1871 36.5969 46.1138 36.4949C46.0405 36.3929 45.986 36.2729 45.9551 36.1385C45.9242 36.0041 45.9096 35.8847 45.9105 35.782C45.91 35.6846 45.9271 35.573 45.9601 35.4454C45.9931 35.3179 46.0472 35.2055 46.1188 35.1088C46.1903 35.012 46.2812 34.9604 46.3965 34.9553C46.4731 34.9561 46.5537 34.9743 46.6346 35.0048C46.7155 35.0354 46.7837 35.0733 46.8429 35.1236L47.1057 34.8167C47.0217 34.7177 46.9114 34.6434 46.7784 34.5939C46.6454 34.5444 46.5177 34.5197 46.3915 34.5197ZM51.7379 34.5197C51.6316 34.5247 51.5188 34.5573 51.3957 34.6137C51.2727 34.6702 51.1821 34.7201 51.1279 34.7672V34.5939H50.6072V37.0197H51.1279V35.2375C51.1769 35.196 51.2587 35.1441 51.3759 35.0791C51.493 35.0141 51.6046 34.977 51.7082 34.9702C51.7908 34.9718 51.8462 35.0032 51.8768 35.0593C51.9074 35.1154 51.9231 35.1863 51.9214 35.2771V37.0197H52.4422V35.1929C52.4981 35.149 52.5704 35.1045 52.6604 35.0543C52.7504 35.0042 52.85 34.9745 52.958 34.9702C53.0406 34.9689 53.096 34.9887 53.1266 35.0246C53.1572 35.0605 53.1729 35.1199 53.1712 35.2078V37.0197H53.692V35.2078C53.697 35.0124 53.6503 34.8519 53.5482 34.7226C53.446 34.5934 53.2579 34.5245 52.9877 34.5197C52.8627 34.5258 52.7395 34.5625 52.6158 34.6286C52.492 34.6947 52.3887 34.7537 52.3083 34.8068C52.2563 34.7364 52.1848 34.6724 52.0901 34.6137C51.9953 34.5551 51.8767 34.5233 51.7379 34.5197ZM55.2146 34.5197C55.0547 34.5228 54.8964 34.5673 54.7434 34.6484C54.5904 34.7295 54.4643 34.8285 54.3615 34.9504L54.5401 35.2622C54.6199 35.1849 54.7187 35.1181 54.8327 35.0593C54.9466 35.0005 55.0578 34.9683 55.1699 34.9652C55.2557 34.9636 55.3259 34.9793 55.3782 35.0147C55.4305 35.0502 55.4561 35.1154 55.4576 35.2078V35.4504L54.3913 35.9108C54.3547 35.9801 54.3225 36.0593 54.2921 36.1484C54.2617 36.2375 54.2444 36.3216 54.2425 36.4009C54.2424 36.6182 54.2965 36.7894 54.4062 36.9107C54.5158 37.0321 54.6815 37.092 54.9021 37.0939C55.0421 37.0933 55.1607 37.0611 55.2592 36.9999C55.3577 36.9386 55.444 36.852 55.5171 36.7375C55.5388 36.8474 55.5884 36.9332 55.6659 36.9949C55.7434 37.0566 55.8376 37.0879 55.9486 37.089C56.011 37.0886 56.0721 37.0775 56.1321 37.0593C56.192 37.041 56.2482 37.0175 56.3007 36.985L56.1668 36.7226C56.1519 36.7304 56.137 36.7366 56.1222 36.7424C56.1073 36.7483 56.0924 36.752 56.0775 36.7523C56.041 36.7507 56.0167 36.7391 56.0031 36.7127C55.9896 36.6863 55.9826 36.655 55.9833 36.6236V35.2127C55.9792 34.9759 55.9056 34.801 55.7651 34.688C55.6246 34.575 55.4419 34.5189 55.2146 34.5197ZM57.9225 34.5197C57.8117 34.5221 57.6935 34.5494 57.5703 34.5989C57.4472 34.6484 57.3439 34.7053 57.2579 34.7722V34.5939H56.7371V37.0197H57.2579V35.2276C57.3215 35.1757 57.4125 35.1217 57.5257 35.0642C57.6389 35.0068 57.7497 34.975 57.863 34.9702C57.9426 34.9691 57.9959 34.9898 58.0217 35.0296C58.0474 35.0694 58.0585 35.1346 58.0564 35.2276V37.0197H58.5771V35.2276C58.5846 35.0357 58.5449 34.8694 58.4581 34.7325C58.3713 34.5957 58.1928 34.526 57.9225 34.5197ZM60.0997 34.5197C59.9399 34.5228 59.7816 34.5673 59.6286 34.6484C59.4755 34.7295 59.3495 34.8285 59.2467 34.9504L59.4252 35.2622C59.5051 35.1849 59.6039 35.1181 59.7178 35.0593C59.8318 35.0005 59.943 34.9683 60.0551 34.9652C60.1408 34.9636 60.2111 34.9793 60.2634 35.0147C60.3157 35.0502 60.3413 35.1154 60.3427 35.2078V35.4504L59.2764 35.9108C59.2399 35.9801 59.2076 36.0593 59.1772 36.1484C59.1469 36.2375 59.1295 36.3216 59.1276 36.4009C59.1275 36.6182 59.1817 36.7894 59.2913 36.9107C59.4009 37.0321 59.5667 37.092 59.7873 37.0939C59.9273 37.0933 60.0459 37.0611 60.1443 36.9999C60.2428 36.9386 60.3292 36.852 60.4022 36.7375C60.4239 36.8474 60.4735 36.9332 60.551 36.9949C60.6285 37.0566 60.7228 37.0879 60.8337 37.089C60.8961 37.0886 60.9573 37.0775 61.0172 37.0593C61.0771 37.041 61.1334 37.0175 61.1859 36.985L61.0519 36.7226C61.0371 36.7304 61.0222 36.7366 61.0073 36.7424C60.9924 36.7483 60.9775 36.752 60.9627 36.7523C60.9262 36.7507 60.9018 36.7391 60.8883 36.7127C60.8747 36.6863 60.8677 36.655 60.8684 36.6236V35.2127C60.8643 34.9759 60.7907 34.801 60.6502 34.688C60.5097 34.575 60.327 34.5189 60.0997 34.5197ZM62.3811 34.5197C62.1145 34.5229 61.9037 34.6025 61.7463 34.7573C61.5888 34.9121 61.507 35.1229 61.5033 35.391C61.5026 35.5349 61.5349 35.6752 61.6025 35.8117C61.67 35.9483 61.7767 36.049 61.9199 36.1137C61.8295 36.1463 61.7505 36.195 61.6818 36.2622C61.6131 36.3295 61.5763 36.4128 61.5727 36.5098C61.5756 36.5968 61.6045 36.6752 61.662 36.7424C61.7194 36.8097 61.788 36.8485 61.8653 36.8612C61.7664 36.9017 61.6685 36.9669 61.5727 37.0543C61.4769 37.1418 61.4261 37.2466 61.4189 37.3711C61.4298 37.6031 61.5253 37.766 61.7016 37.8612C61.878 37.9564 62.0702 38.003 62.2819 37.9998C62.558 37.9987 62.8068 37.9204 63.0308 37.7672C63.2548 37.6139 63.3747 37.392 63.3879 37.0989C63.3826 36.92 63.3194 36.7864 63.1994 36.6929C63.0795 36.5995 62.9344 36.55 62.763 36.5494H62.6043C62.5333 36.5538 62.4329 36.5567 62.3067 36.5543C62.1805 36.5519 62.1124 36.5177 62.0984 36.4553C62.1058 36.3758 62.1455 36.3226 62.2174 36.2919C62.2893 36.2613 62.3489 36.2403 62.396 36.2325C62.4256 36.2254 62.4525 36.2217 62.4803 36.2177C62.5081 36.2137 62.5374 36.2075 62.5646 36.2028C62.7666 36.1517 62.9224 36.0584 63.0308 35.9207C63.1392 35.7829 63.1933 35.6104 63.1945 35.4058C63.1937 35.3435 63.1884 35.28 63.1746 35.2177C63.1609 35.1554 63.1431 35.0968 63.125 35.0395H63.4077V34.5939H62.7878C62.7253 34.567 62.6587 34.546 62.5894 34.5345C62.5201 34.5231 62.451 34.5194 62.3811 34.5197ZM64.7815 34.5197C64.4444 34.5325 64.1819 34.6628 63.9979 34.9058C63.8139 35.1488 63.7226 35.4277 63.7202 35.7474C63.7186 35.9573 63.7486 36.1664 63.8094 36.3711C63.8703 36.5759 63.9696 36.7445 64.112 36.881C64.2544 37.0176 64.4492 37.0887 64.6922 37.0939C64.836 37.0896 64.9868 37.05 65.1436 36.9751C65.3003 36.9002 65.4338 36.8161 65.5453 36.7226L65.3717 36.386C65.2839 36.4534 65.183 36.5153 65.0642 36.5692C64.9454 36.623 64.8297 36.6502 64.722 36.6533C64.5459 36.6378 64.4219 36.5438 64.35 36.3662C64.2781 36.1886 64.2434 36.0203 64.2459 35.8662C64.2451 35.8365 64.2467 35.8068 64.2508 35.7771H65.6693C65.6691 35.7226 65.6707 35.6682 65.6693 35.6137C65.6678 35.5593 65.6645 35.5048 65.6643 35.4504C65.6511 35.2102 65.561 34.9969 65.3965 34.8118C65.232 34.6266 65.0278 34.5297 64.7815 34.5197ZM67.3506 34.5197C67.2442 34.5247 67.1314 34.5573 67.0084 34.6137C66.8853 34.6702 66.7948 34.7201 66.7405 34.7672V34.5939H66.2198V37.0197H66.7405V35.2375C66.7895 35.196 66.8713 35.1441 66.9885 35.0791C67.1057 35.0141 67.2173 34.977 67.3208 34.9702C67.4035 34.9718 67.4588 35.0032 67.4894 35.0593C67.52 35.1154 67.5357 35.1863 67.5341 35.2771V37.0197H68.0548V35.1929C68.1107 35.149 68.183 35.1045 68.273 35.0543C68.363 35.0042 68.4626 34.9745 68.5706 34.9702C68.6533 34.9689 68.7086 34.9887 68.7392 35.0246C68.7698 35.0605 68.7855 35.1199 68.7839 35.2078V37.0197H69.3046V35.2078C69.3097 35.0124 69.263 34.8519 69.1608 34.7226C69.0586 34.5934 68.8705 34.5245 68.6004 34.5197C68.4753 34.5258 68.3522 34.5625 68.2284 34.6286C68.1046 34.6947 68.0013 34.7537 67.9209 34.8068C67.8689 34.7364 67.7974 34.6724 67.7027 34.6137C67.6079 34.5551 67.4893 34.5233 67.3506 34.5197ZM70.9413 34.5197C70.6041 34.5325 70.3417 34.6628 70.1577 34.9058C69.9736 35.1488 69.8823 35.4277 69.8799 35.7474C69.8783 35.9573 69.9083 36.1664 69.9692 36.3711C70.0301 36.5759 70.1293 36.7445 70.2717 36.881C70.4141 37.0176 70.6089 37.0887 70.852 37.0939C70.9957 37.0896 71.1466 37.05 71.3033 36.9751C71.4601 36.9002 71.5935 36.8161 71.705 36.7226L71.5315 36.386C71.4436 36.4534 71.3428 36.5153 71.224 36.5692C71.1051 36.623 70.9894 36.6502 70.8818 36.6533C70.7057 36.6378 70.5817 36.5438 70.5098 36.3662C70.4379 36.1886 70.4032 36.0203 70.4056 35.8662C70.4048 35.8365 70.4064 35.8068 70.4106 35.7771H71.829C71.8289 35.7226 71.8304 35.6682 71.829 35.6137C71.8276 35.5593 71.8243 35.5048 71.8241 35.4504C71.8108 35.2102 71.7207 34.9969 71.5562 34.8118C71.3918 34.6266 71.1876 34.5297 70.9413 34.5197ZM73.5599 34.5197C73.4491 34.5221 73.3309 34.5494 73.2078 34.5989C73.0846 34.6484 72.9813 34.7053 72.8953 34.7722V34.5939H72.3746V37.0197H72.8953V35.2276C72.959 35.1757 73.0499 35.1217 73.1631 35.0642C73.2764 35.0068 73.3871 34.975 73.5004 34.9702C73.58 34.9691 73.6334 34.9898 73.6591 35.0296C73.6848 35.0694 73.696 35.1346 73.6938 35.2276V37.0197H74.2146V35.2276C74.222 35.0357 74.1823 34.8694 74.0955 34.7325C74.0087 34.5957 73.8302 34.526 73.5599 34.5197ZM24.4257 34.5939L25.0854 35.7672L24.3811 37.0197H24.9514L25.373 36.1979L25.8094 37.0197H26.4046L25.6607 35.7375C25.6922 35.6844 25.7595 35.5672 25.864 35.386C25.9685 35.2048 26.0703 35.0287 26.1665 34.8613C26.2628 34.6938 26.3135 34.6058 26.3203 34.5939H25.7499L25.378 35.3217L25.011 34.5939H24.4257ZM26.7666 34.5939V37.0197H27.2775V34.5939H26.7666ZM42.0023 34.5939V37.1979C41.9985 37.3022 41.9634 37.3905 41.8932 37.4602C41.8231 37.53 41.7408 37.5786 41.6502 37.6088L41.7593 37.98C41.9209 37.9379 42.0862 37.8632 42.2503 37.7523C42.4144 37.6415 42.5004 37.4653 42.5132 37.2276V34.5939H42.0023ZM62.3513 34.8959C62.4806 34.9021 62.5686 34.9566 62.6192 35.0543C62.6697 35.1521 62.6957 35.2561 62.6936 35.3712C62.6958 35.4831 62.6727 35.5866 62.6241 35.6781C62.5756 35.7696 62.4879 35.8162 62.3613 35.8216C62.2188 35.8169 62.125 35.7682 62.0786 35.6731C62.0322 35.578 62.0103 35.465 62.0141 35.3365C62.012 35.2229 62.0385 35.1222 62.0885 35.0345C62.1385 34.9469 62.2245 34.9007 62.3513 34.8959ZM23.2354 34.9058C23.3616 34.9099 23.4571 34.9537 23.5231 35.0395C23.5891 35.1253 23.6276 35.2284 23.6372 35.3464H22.8089C22.8348 35.2306 22.881 35.1312 22.9478 35.0444C23.0145 34.9577 23.1104 34.9103 23.2354 34.9058ZM32.5197 34.9058C32.6459 34.9099 32.7413 34.9537 32.8074 35.0395C32.8734 35.1253 32.9118 35.2284 32.9214 35.3464H32.0932C32.119 35.2306 32.1653 35.1312 32.2321 35.0444C32.2988 34.9577 32.3947 34.9103 32.5197 34.9058ZM44.0854 34.9058C44.2115 34.9099 44.307 34.9537 44.373 35.0395C44.439 35.1253 44.4775 35.2284 44.4871 35.3464H43.6588C43.6847 35.2306 43.731 35.1312 43.7977 35.0444C43.8644 34.9577 43.9603 34.9103 44.0854 34.9058ZM64.7468 34.9058C64.873 34.9099 64.9684 34.9537 65.0345 35.0395C65.1005 35.1253 65.1389 35.2284 65.1485 35.3464H64.3203C64.3461 35.2306 64.3924 35.1312 64.4591 35.0444C64.5259 34.9577 64.6218 34.9103 64.7468 34.9058ZM70.9065 34.9058C71.0327 34.9099 71.1282 34.9537 71.1942 35.0395C71.2602 35.1253 71.2987 35.2284 71.3083 35.3464H70.48C70.5059 35.2306 70.5521 35.1312 70.6189 35.0444C70.6856 34.9577 70.7815 34.9103 70.9065 34.9058ZM40.455 34.9652C40.6026 34.9731 40.7196 35.0589 40.8021 35.2226C40.8847 35.3864 40.9248 35.5811 40.9261 35.8068C40.9249 36.0346 40.8847 36.2281 40.8021 36.3909C40.7196 36.5538 40.6026 36.6408 40.455 36.6484C40.3073 36.6408 40.1904 36.5538 40.1078 36.3909C40.0252 36.2281 39.9852 36.0346 39.9838 35.8068C39.9851 35.5811 40.0252 35.3864 40.1078 35.2226C40.1904 35.0589 40.3073 34.9731 40.455 34.9652ZM28.9637 34.985C29.1373 34.9986 29.2514 35.0853 29.3059 35.2474C29.3605 35.4095 29.3853 35.5655 29.3803 35.7127C29.3819 35.818 29.3699 35.9461 29.3456 36.0939C29.3213 36.2418 29.2757 36.3702 29.2067 36.485C29.1378 36.5998 29.0365 36.6619 28.9042 36.6682C28.8403 36.6669 28.7759 36.6546 28.7058 36.6286C28.6358 36.6026 28.5713 36.5704 28.5174 36.5345V35.2325C28.5707 35.1811 28.6401 35.1287 28.7257 35.0741C28.8112 35.0196 28.8906 34.9895 28.9637 34.985ZM36.4973 34.985C36.6752 34.9995 36.7917 35.0919 36.8444 35.2622C36.8971 35.4326 36.9194 35.5943 36.9139 35.7474C36.9157 35.8411 36.9071 35.9599 36.8891 36.0989C36.8711 36.2378 36.8349 36.3604 36.775 36.4702C36.7151 36.58 36.6211 36.6372 36.4973 36.6434C36.2947 36.629 36.1641 36.5341 36.1005 36.3563C36.0368 36.1785 36.0054 36.0044 36.0112 35.8365V35.2325C36.0687 35.1746 36.1373 35.121 36.2195 35.0692C36.3018 35.0174 36.3952 34.9885 36.4973 34.985ZM55.4675 35.891V35.9801C55.4662 36.1387 55.4216 36.2905 55.3336 36.4355C55.2456 36.5805 55.1216 36.6581 54.9616 36.6682C54.887 36.6655 54.8316 36.6374 54.793 36.584C54.7544 36.5306 54.7337 36.4679 54.7335 36.3959C54.734 36.3608 54.7405 36.3245 54.7484 36.287C54.7562 36.2495 54.7628 36.2131 54.7732 36.1781L55.4675 35.891ZM60.3526 35.891V35.9801C60.3514 36.1387 60.3068 36.2905 60.2187 36.4355C60.1307 36.5805 60.0067 36.6581 59.8468 36.6682C59.7722 36.6655 59.7168 36.6374 59.6782 36.584C59.6395 36.5306 59.6188 36.4679 59.6186 36.3959C59.6191 36.3608 59.6256 36.3245 59.6335 36.287C59.6414 36.2495 59.648 36.2131 59.6583 36.1781L60.3526 35.891ZM62.2224 36.9504H62.51C62.5843 36.9464 62.6633 36.9555 62.7481 36.9751C62.8329 36.9947 62.8796 37.0483 62.887 37.1385C62.8806 37.293 62.8202 37.411 62.7035 37.4949C62.5867 37.5789 62.452 37.6226 62.3017 37.6236C62.206 37.626 62.1229 37.6058 62.0488 37.5593C61.9747 37.5127 61.9338 37.4257 61.9298 37.3018C61.942 37.1984 61.9932 37.1138 62.0786 37.0494C62.1639 36.9849 62.2102 36.9523 62.2224 36.9504Z" fill="#636363"/>
</svg>
