<svg width="76" height="60" viewBox="0 0 76 60" fill="none" xmlns="http://www.w3.org/2000/svg">
<path d="M12.9167 30.5833V33.5L7.66667 35.8333V30.5833H12.9167ZM12.9167 29.4167V26.5L7.66667 24.1667V29.4167H12.9167ZM1.25 26.5V33.5L6.5 35.8333V24.1667L1.25 26.5Z" fill="#26D07C"/>
<path d="M20.6826 26.0485C17.91 26.0485 16.4167 27.62 16.4167 30.3914C16.4167 33.1628 17.91 34.7343 20.6062 34.7343C22.3777 34.7343 23.8087 33.8407 24.3792 32.0236H22.5312C22.1765 32.639 21.6678 33.0246 20.6062 33.0246C19.0195 33.0246 18.3883 32.1776 18.3883 30.4066V30.3605C18.3883 28.5889 19.0201 27.7583 20.6826 27.7583C21.6684 27.7583 22.1759 28.0966 22.5312 28.6828H24.3792C23.8092 26.927 22.4542 26.0497 20.6826 26.0497V26.0485ZM40.0889 31.1778C40.0889 32.4098 40.7049 33.0258 41.9369 33.0258C43.1689 33.0258 43.7849 32.4098 43.7849 31.1778V26.234H45.7257V34.5512H43.9092V33.3186C43.4011 34.1965 42.5692 34.7355 41.1832 34.7355C39.2116 34.7355 38.1499 33.6575 38.1499 31.5015V26.234H40.0901V31.1778H40.0889ZM69.8593 31.1778C69.8593 32.4098 70.4753 33.0258 71.7073 33.0258C72.9393 33.0258 73.5553 32.4098 73.5553 31.1778V26.234H75.4961V34.5512H73.679V33.3186C73.1709 34.1965 72.3391 34.7355 70.9531 34.7355C68.9814 34.7355 67.9192 33.6575 67.9192 31.5015V26.234H69.8599L69.8593 31.1778ZM51.2702 33.0258C52.9339 33.0258 53.5802 32.1788 53.5802 30.4072V30.3617C53.5802 28.5901 52.9339 27.774 51.2702 27.774C49.6066 27.774 48.9602 28.5907 48.9602 30.3617V30.4078C48.9602 32.1788 49.6066 33.0258 51.2702 33.0258ZM55.4592 23V34.5512H53.6112V33.3186C53.0867 34.1504 52.287 34.7355 50.9162 34.7355C48.2976 34.7355 46.9886 32.9184 46.9886 30.5151C46.9886 27.8819 48.2976 26.0642 50.9162 26.0642C52.056 26.0642 53.1486 26.6196 53.5178 27.3593V23H55.4592ZM25.1346 34.5512H27.0753V23H25.134L25.1346 34.5512ZM32.6193 34.7367C29.9704 34.7367 28.3073 33.0888 28.3073 30.3938C28.3073 27.6988 29.9716 26.0508 32.6193 26.0508C35.2677 26.0508 36.9313 27.6988 36.9313 30.3938C36.9313 33.0888 35.2677 34.7367 32.6193 34.7367ZM30.2784 30.4083C30.2784 32.1799 30.9247 33.0269 32.6193 33.0269C34.3145 33.0269 34.9608 32.1799 34.9608 30.4083V30.3628C34.9608 28.5913 34.3145 27.7606 32.6193 27.7606C30.9247 27.7606 30.2784 28.5924 30.2784 30.3623V30.4083ZM66.0245 26.2352H66.9491V28.0832H65.5631C64.3305 28.0832 63.9152 28.6531 63.9152 29.5765V34.5512H61.9744V26.2188H63.8224V27.7588C64.1922 26.696 64.9313 26.2352 66.0257 26.2352H66.0245ZM58.7083 34.7367C59.5553 34.7367 60.0943 34.2286 60.0943 33.3658C60.0943 32.5031 59.5553 31.995 58.7083 31.995C57.8613 31.995 57.3229 32.5025 57.3229 33.3658C57.3229 34.2292 57.8619 34.7367 58.7083 34.7367Z" fill="#222222"/>
</svg>
