<svg width="60" height="60" viewBox="0 0 60 60" fill="none" xmlns="http://www.w3.org/2000/svg">
<g clip-path="url(#clip0_4262_15481)">
<mask id="mask0_4262_15481" style="mask-type:alpha" maskUnits="userSpaceOnUse" x="0" y="0" width="60" height="60">
<path d="M0 30C0 19.499 0 14.2485 2.04363 10.2377C3.84125 6.70964 6.70964 3.84125 10.2377 2.04363C14.2485 0 19.499 0 30 0C40.501 0 45.7515 0 49.7623 2.04363C53.2904 3.84125 56.1588 6.70964 57.9564 10.2377C60 14.2485 60 19.499 60 30C60 40.501 60 45.7515 57.9564 49.7623C56.1588 53.2904 53.2904 56.1588 49.7623 57.9564C45.7515 60 40.501 60 30 60C19.499 60 14.2485 60 10.2377 57.9564C6.70964 56.1588 3.84125 53.2904 2.04363 49.7623C0 45.7515 0 40.501 0 30Z" fill="#FF3333"/>
</mask>
<g mask="url(#mask0_4262_15481)">
<path d="M0 30C0 19.499 0 14.2485 2.04363 10.2377C3.84125 6.70964 6.70964 3.84125 10.2377 2.04363C14.2485 0 19.499 0 30 0C40.501 0 45.7515 0 49.7623 2.04363C53.2904 3.84125 56.1588 6.70964 57.9564 10.2377C60 14.2485 60 19.499 60 30C60 40.501 60 45.7515 57.9564 49.7623C56.1588 53.2904 53.2904 56.1588 49.7623 57.9564C45.7515 60 40.501 60 30 60C19.499 60 14.2485 60 10.2377 57.9564C6.70964 56.1588 3.84125 53.2904 2.04363 49.7623C0 45.7515 0 40.501 0 30Z" fill="#0077FF"/>
</g>
<g clip-path="url(#clip1_4262_15481)">
<g clip-path="url(#clip2_4262_15481)">
<path d="M28.6523 16.769C21.7766 16.8573 14.0264 17.601 14.0264 18.7925V29.9829C14.0434 29.98 15.3725 29.751 17.4102 29.4712V26.062C17.4082 26.0623 17.4063 26.0627 17.4043 26.063V20.9858C18.0277 20.8729 18.8008 20.759 19.709 20.6567C22.6569 20.3248 26.5242 20.1382 30.0127 20.1382C30.4061 20.1382 30.8 20.1395 31.1934 20.1421L36.3887 20.269C36.8072 20.2882 37.2182 20.3096 37.6201 20.3335C38.2686 20.4896 38.748 21.0727 38.748 21.7661V25.3765C38.7464 25.3764 38.7448 25.3766 38.7432 25.3765V28.7603C41.2132 28.9307 43.3486 29.1623 44.6514 29.4282L44.7998 29.4546C45.4774 29.549 45.9327 29.2903 45.9902 28.6255L45.9961 28.4771L46 19.6841C46 18.9933 45.7448 18.3128 45.1035 18.0562C42.6138 17.0599 36.1541 16.7603 30.0127 16.7603L28.6523 16.769Z" fill="white"/>
<path fill-rule="evenodd" clip-rule="evenodd" d="M25.6672 43.4576C25.6672 44.2692 26.3251 44.9271 27.1367 44.9271H34.1067C34.9183 44.9271 35.5762 44.2692 35.5762 43.4576V36.6253C35.5762 35.8138 34.9183 35.1559 34.1067 35.1559H27.1367C26.3251 35.1559 25.6672 35.8138 25.6672 36.6253V43.4576ZM22.5799 30.6695C22.5799 31.4976 21.8966 32.1644 21.0697 32.1213C17.8963 31.9558 13.9997 31.49 13.9997 30.1796V20.271C13.9997 21.3438 16.8961 21.8277 21.1569 22.0288C21.9494 22.0662 22.5799 22.7145 22.5799 23.508V30.6695ZM27.1311 22.1487C26.3089 22.1411 25.6339 22.8028 25.6339 23.625V30.7242C25.6339 31.543 26.3032 32.2039 27.122 32.1935L34.1253 32.1049C34.9296 32.0947 35.5762 31.4398 35.5762 30.6355V23.5732C35.5762 22.7408 34.8854 22.0731 34.0532 22.0933C32.5049 22.1308 29.9398 22.1749 27.1311 22.1487Z" fill="white"/>
</g>
</g>
</g>
<defs>
<clipPath id="clip0_4262_15481">
<rect width="60" height="60" fill="white"/>
</clipPath>
<clipPath id="clip1_4262_15481">
<rect width="36" height="36" fill="white" transform="translate(12 12)"/>
</clipPath>
<clipPath id="clip2_4262_15481">
<rect width="32.0002" height="28.1667" fill="white" transform="matrix(-1 0 0 1 46 16.7603)"/>
</clipPath>
</defs>
</svg>
