<svg width="76" height="60" viewBox="0 0 76 60" fill="none" xmlns="http://www.w3.org/2000/svg">
<path d="M17.4116 29.9994C17.4116 38.1489 22.1477 45.1916 29.0155 48.529L19.1941 21.6204C18.0517 24.1809 17.4116 27.0146 17.4116 29.9994Z" fill="#21759B"/>
<path d="M51.9001 28.9605C51.9001 26.416 50.9861 24.6538 50.2022 23.2822C49.1585 21.5863 48.1802 20.1501 48.1802 18.4542C48.1802 16.5615 49.6157 14.7998 51.6376 14.7998C51.7289 14.7998 51.8155 14.8111 51.9044 14.8162C48.2413 11.4604 43.361 9.41147 38.0008 9.41147C30.8078 9.41147 24.4795 13.1019 20.798 18.6916C21.2811 18.7061 21.7363 18.7162 22.123 18.7162C24.2766 18.7162 27.6102 18.4549 27.6102 18.4549C28.7201 18.3895 28.8509 20.0196 27.7422 20.1509C27.7422 20.1509 26.6268 20.2821 25.3857 20.3472L32.8834 42.6483L37.3892 29.1352L34.1814 20.3464C33.0727 20.2813 32.0223 20.1501 32.0223 20.1501C30.9128 20.0851 31.0429 18.3887 32.1524 18.4542C32.1524 18.4542 35.5526 18.7155 37.5757 18.7155C39.7289 18.7155 43.0629 18.4542 43.0629 18.4542C44.1736 18.3887 44.304 20.0189 43.1949 20.1501C43.1949 20.1501 42.0772 20.2813 40.8384 20.3464L48.2789 42.4786L50.3326 35.6161C51.2227 32.7684 51.9001 30.723 51.9001 28.9605Z" fill="#21759B"/>
<path d="M38.362 31.8003L32.1845 49.7505C34.029 50.2927 35.9796 50.5893 38.0008 50.5893C40.3984 50.5893 42.6977 50.1748 44.838 49.4222C44.7828 49.3341 44.7326 49.2405 44.6915 49.1386L38.362 31.8003Z" fill="#21759B"/>
<path d="M56.067 20.1215C56.1555 20.7773 56.2057 21.4813 56.2057 22.2386C56.2057 24.3279 55.8155 26.6765 54.6402 29.6131L48.351 47.796C54.4721 44.2267 58.5892 37.5953 58.5892 29.9998C58.5896 26.4203 57.6752 23.0542 56.067 20.1215Z" fill="#21759B"/>
<path d="M38.0008 6C24.7671 6 14 16.766 14 29.9994C14 43.2343 24.7671 54 38.0008 54C51.2341 54 62.0027 43.2343 62.0027 29.9994C62.0023 16.766 51.2341 6 38.0008 6ZM38.0008 52.8999C25.3739 52.8999 15.1005 42.6267 15.1005 29.9994C15.1005 17.3729 25.3736 7.10046 38.0008 7.10046C50.6272 7.10046 60.8999 17.3729 60.8999 29.9994C60.8999 42.6267 50.6272 52.8999 38.0008 52.8999Z" fill="#21759B"/>
</svg>
