<?xml version="1.0" encoding="UTF-8"?>
<svg version="1.1" xmlns="http://www.w3.org/2000/svg" width="1008" height="504">
<path d="M0 0 C332.64 0 665.28 0 1008 0 C1008 166.32 1008 332.64 1008 504 C675.36 504 342.72 504 0 504 C0 337.68 0 171.36 0 0 Z " fill="#FEFEFE" transform="translate(0,0)"/>
<path d="M0 0 C14.6082833 10.68300412 23.37135092 24.43772665 27.046875 42.19921875 C29.50156066 59.8129937 27.10521487 76.16594743 16.55859375 90.87109375 C15.98496094 91.69996094 15.41132812 92.52882813 14.8203125 93.3828125 C5.77086626 105.61736404 -8.30984511 114.75305166 -23.1171875 118.40625 C-27.62814597 119.03704208 -32.07794843 119.15454861 -36.62890625 119.18359375 C-37.47259766 119.1892334 -38.31628906 119.19487305 -39.18554688 119.20068359 C-56.57825517 118.99915771 -71.57912916 110.86513161 -84.0859375 99.2890625 C-97.27988202 85.7450299 -102.65475613 68.45522987 -102.44140625 49.87109375 C-101.40026986 32.03926686 -94.06572109 16.96640908 -81.31640625 4.55859375 C-57.64537772 -15.68853079 -25.91243671 -17.48807412 0 0 Z " fill="#8BABFF" transform="translate(597.44140625,198.12890625)"/>
<path d="M0 0 C17.91606218 5.1143369 32.23259725 14.93175038 42 31 C50.24847854 47.00290759 53.29752542 66.16583854 47.875 83.5625 C45.71693385 89.89886718 42.89969867 95.56265292 39 101 C38.42636719 101.82886719 37.85273437 102.65773438 37.26171875 103.51171875 C28.22625216 115.72737027 14.12817385 124.91820433 -0.67578125 128.52734375 C-5.18487888 129.16847279 -9.63665901 129.36198459 -14.1875 129.4375 C-15.03119141 129.45989746 -15.87488281 129.48229492 -16.74414062 129.50537109 C-23.74592057 129.47924505 -28.80305168 127.64243339 -34.20703125 123.17578125 C-40.20138097 116.21883522 -42.51204162 109.70039759 -42.23828125 100.5078125 C-41.86485715 96.57767694 -41.02967405 92.80611658 -40 89 C-38.35462595 88.58152336 -36.70865226 88.16540487 -35.0625 87.75 C-33.97582031 87.47414063 -32.88914062 87.19828125 -31.76953125 86.9140625 C-29.08149138 86.26224765 -26.40459774 85.65339842 -23.69921875 85.0859375 C-12.55554918 82.71429203 -4.898835 80.64422212 1.57104492 70.67749023 C4.11334328 65.91388421 5.17529828 60.87069928 6.3125 55.625 C6.56322266 54.56539062 6.81394531 53.50578125 7.07226562 52.4140625 C8.46282686 46.32989111 9.37661678 40.38686546 9.77807617 34.15771484 C10 32 10 32 11 30 C11 27.99216048 10.99795185 25.98418966 10.96875 23.9765625 C11.00227898 21.85585435 11.32910345 20.01268964 12 18 C11.34 18 10.68 18 10 18 C9.9175 17.46375 9.835 16.9275 9.75 16.375 C8.32072166 11.84895193 5.30336593 8.30647737 2.25 4.75 C0 2 0 2 0 0 Z " fill="#8AABFF" transform="translate(575,188)"/>
<path d="M0 0 C5.61 0 11.22 0 17 0 C17 32.67 17 65.34 17 99 C11.72 99 6.44 99 1 99 C1 96.03 1 93.06 1 90 C0.34 90 -0.32 90 -1 90 C-1.226875 90.5775 -1.45375 91.155 -1.6875 91.75 C-4.0102425 95.73184428 -7.76714043 98.30099754 -12 100 C-19.85344266 100.83176856 -27.57858643 101.07111632 -34 96 C-40.38917385 90.23780116 -44.56627513 81.96014833 -45.19287109 73.34960938 C-45.28087252 70.06635612 -45.33459056 66.78418501 -45.375 63.5 C-45.41238281 62.37851562 -45.44976563 61.25703125 -45.48828125 60.1015625 C-45.60158732 49.19900056 -42.58728584 39.56401971 -34.86328125 31.625 C-28.74611337 26.29011145 -23.20834775 25.35252275 -15.1328125 25.60546875 C-9.02792063 26.3742893 -5.29022049 28.70977951 -1 33 C-0.67 22.11 -0.34 11.22 0 0 Z " fill="#282828" transform="translate(941,202)"/>
<path d="M0 0 C5.61 0 11.22 0 17 0 C17 32.67 17 65.34 17 99 C11.72 99 6.44 99 1 99 C0.505 95.04 0.505 95.04 0 91 C-0.66 91.7425 -1.32 92.485 -2 93.25 C-7.03167496 98.1695485 -11.94129829 100.24186337 -19 100.5 C-27.07282557 100.16532256 -31.6548487 97.67664416 -37.25 91.9375 C-46.56887003 80.50904326 -46.2088471 67.13521002 -45 53 C-43.68078228 43.79218911 -39.95473532 36.18140095 -32.84765625 30.18359375 C-26.19745904 25.53815615 -19.95334434 24.79279595 -12 26 C-7.32147366 27.51321086 -4.47733302 29.52266698 -1 33 C-0.67 22.11 -0.34 11.22 0 0 Z " fill="#292929" transform="translate(311,202)"/>
<path d="M0 0 C8.24766436 4.40394153 14.54715995 10.88462475 17.8125 19.6875 C21.13215588 31.76229226 20.37117913 47.03557569 14.65625 58.1796875 C10.61684809 64.60081223 5.79726304 68.10089893 -0.9375 71.4375 C-1.9275 71.9325 -1.9275 71.9325 -2.9375 72.4375 C-22.81547498 73.87495687 -22.81547498 73.87495687 -30.9375 67.4375 C-39.78185465 59.5827235 -43.32622255 50.47143219 -44.2109375 38.84375 C-44.50393707 27.57453592 -43.01018749 17.17127205 -35.875 7.9375 C-26.37515182 -1.5419184 -12.69834052 -5.01365514 0 0 Z " fill="#292929" transform="translate(796.9375,229.5625)"/>
<path d="M0 0 C5.09416555 3.35012821 7.9773881 7.17732993 9.60162354 13.07099915 C10.50192271 17.93352855 10.25926168 22.89705723 10.21484375 27.82421875 C10.21201385 29.01290054 10.20918396 30.20158234 10.20626831 31.42628479 C10.19511331 35.20616918 10.17001691 38.98581276 10.14453125 42.765625 C10.13449542 45.33528303 10.12537062 47.90494478 10.1171875 50.47460938 C10.09518922 56.75920674 10.06069126 63.0436251 10.01953125 69.328125 C4.73953125 69.328125 -0.54046875 69.328125 -5.98046875 69.328125 C-6.31046875 67.678125 -6.64046875 66.028125 -6.98046875 64.328125 C-7.51671875 64.76125 -8.05296875 65.194375 -8.60546875 65.640625 C-16.37475495 71.1609073 -23.83157331 71.61318998 -32.98046875 70.328125 C-39.03554849 68.14403466 -42.68699723 63.97946414 -46.0625 58.60546875 C-47.31742828 55.49217859 -47.28216707 52.80164524 -47.29296875 49.453125 C-47.30972656 48.25945312 -47.32648438 47.06578125 -47.34375 45.8359375 C-46.80447237 40.62871913 -44.90256898 36.62968539 -40.91796875 33.203125 C-30.90260635 25.15280206 -19.21650459 25.14458446 -6.98046875 25.328125 C-7.16386356 19.177897 -7.16386356 19.177897 -9.85546875 13.828125 C-13.6975099 11.11609596 -17.43100251 10.76138262 -21.98046875 11.328125 C-29.17759932 13.07755346 -35.76139162 15.27849338 -41.98046875 19.328125 C-42.57168355 14.53271604 -42.84660283 10.09983299 -41.98046875 5.328125 C-32.85078492 -4.79195846 -11.768028 -5.6935604 0 0 Z " fill="#282828" transform="translate(173.98046875,230.671875)"/>
<path d="M0 0 C6.03505398 3.90340647 10.34207043 9.31035716 12.703125 16.1015625 C14.07421212 24.3280852 13.703125 32.76156516 13.703125 41.1015625 C0.503125 41.1015625 -12.696875 41.1015625 -26.296875 41.1015625 C-24.67456505 50.54229248 -24.67456505 50.54229248 -18.796875 56.9140625 C-10.74927907 59.64449683 -1.75431144 58.64125761 5.90234375 55.078125 C7.29181572 54.37465804 8.67203518 53.65239638 10.0390625 52.90625 C11.703125 52.1015625 11.703125 52.1015625 13.703125 52.1015625 C13.703125 56.7215625 13.703125 61.3415625 13.703125 66.1015625 C12.548125 66.7203125 11.393125 67.3390625 10.203125 67.9765625 C9.5534375 68.32460938 8.90375 68.67265625 8.234375 69.03125 C1.84552425 71.7327085 -4.31088611 72.4912683 -11.171875 72.4765625 C-11.95908936 72.47495117 -12.74630371 72.47333984 -13.55737305 72.47167969 C-21.13257861 72.31238251 -26.57091748 70.30326467 -33.046875 66.4765625 C-42.15376865 56.86373031 -44.80341705 45.69398448 -44.71875 32.85766602 C-44.38783135 22.43263985 -41.14918017 13.08229024 -34.296875 5.1015625 C-25.53282406 -2.97006906 -10.89099959 -5.06668242 0 0 Z " fill="#292929" transform="translate(383.296875,229.8984375)"/>
<path d="M0 0 C3.62492641 3.06104897 5.55025359 5.51323831 7 10 C7.24050903 12.87910461 7.24050903 12.87910461 7.22705078 16.07543945 C7.22689972 17.27630692 7.22674866 18.47717438 7.22659302 19.71443176 C7.21627045 21.00105209 7.20594788 22.28767242 7.1953125 23.61328125 C7.19157912 24.95134774 7.18873368 26.28941697 7.18673706 27.62748718 C7.17912616 31.13741699 7.15949982 34.64717945 7.1373291 38.15704346 C7.11681564 41.74334449 7.10772362 45.32967274 7.09765625 48.91601562 C7.07625127 55.9440858 7.04109007 62.97201762 7 70 C1.39 70 -4.22 70 -10 70 C-10.01401855 67.52439575 -10.01401855 67.52439575 -10.02832031 64.9987793 C-10.06812939 58.88766274 -10.13386348 52.77705445 -10.20751953 46.66625977 C-10.23578179 44.01919066 -10.25696999 41.37203634 -10.27099609 38.72485352 C-10.2923521 34.92419638 -10.33896727 31.12456963 -10.390625 27.32421875 C-10.39185364 26.13664474 -10.39308228 24.94907074 -10.39434814 23.72550964 C-10.41406677 22.62459488 -10.4337854 21.52368011 -10.45410156 20.3894043 C-10.46298401 19.41899704 -10.47186646 18.44858978 -10.48101807 17.44877625 C-10.79221541 14.8735334 -10.79221541 14.8735334 -12.83099365 13.19050598 C-16.1011738 11.39559698 -18.31062224 11.56957259 -22 12 C-25.81797385 13.47057582 -29.09633715 15.09633715 -32 18 C-32.33101534 20.30338802 -32.33101534 20.30338802 -32.31884766 23.00048828 C-32.33871735 24.04141632 -32.35858704 25.08234436 -32.37905884 26.15481567 C-32.39638565 27.8454866 -32.39638565 27.8454866 -32.4140625 29.5703125 C-32.43342865 30.72167694 -32.4527948 31.87304138 -32.4727478 33.05929565 C-32.53267372 36.74778769 -32.57898126 40.43631072 -32.625 44.125 C-32.66316777 46.62110759 -32.70221878 49.11720185 -32.7421875 51.61328125 C-32.83838604 57.74207956 -32.92236902 63.87093951 -33 70 C-38.61 70 -44.22 70 -50 70 C-50 46.24 -50 22.48 -50 -2 C-44.39 -2 -38.78 -2 -33 -2 C-33 -0.02 -33 1.96 -33 4 C-32.49210937 3.66226563 -31.98421875 3.32453125 -31.4609375 2.9765625 C-21.81632716 -3.27256704 -10.50456 -6.21698449 0 0 Z " fill="#292929" transform="translate(247,231)"/>
<path d="M0 0 C5.61 0 11.22 0 17 0 C17.01458252 1.65040283 17.02916504 3.30080566 17.04418945 5.0012207 C17.10206999 11.1122833 17.17930374 17.22297345 17.26245117 23.33374023 C17.29574872 25.98081426 17.32376542 28.62796011 17.34643555 31.27514648 C17.37989211 35.0756701 17.43220486 38.87553255 17.48828125 42.67578125 C17.49467117 43.86335526 17.5010611 45.05092926 17.50764465 46.27449036 C17.53733589 47.9258625 17.53733589 47.9258625 17.56762695 49.6105957 C17.57873001 50.58100296 17.58983307 51.55141022 17.60127258 52.55122375 C18.06473608 55.39757528 18.71649418 56.29467537 21 58 C24.9539776 58.93585269 28.65484722 58.62863924 32.33203125 56.91015625 C34.70076027 55.43770307 37.02089128 53.97910872 39 52 C39.12281952 50.37420782 39.17782504 48.74322996 39.20532227 47.11303711 C39.22526749 46.07203354 39.24521271 45.03102997 39.26576233 43.95848083 C39.28247482 42.8262056 39.29918732 41.69393036 39.31640625 40.52734375 C39.33718735 39.37456436 39.35796844 38.22178497 39.37937927 37.03407288 C39.44499964 33.33527843 39.50381755 29.63641041 39.5625 25.9375 C39.60567335 23.43684121 39.64928724 20.93618999 39.69335938 18.43554688 C39.80069372 12.29044085 39.90192559 6.1452605 40 0 C45.61 0 51.22 0 57 0 C57 23.76 57 47.52 57 72 C51.39 72 45.78 72 40 72 C40 70.02 40 68.04 40 66 C39.23816406 66.50660156 39.23816406 66.50660156 38.4609375 67.0234375 C37.77257812 67.46945312 37.08421875 67.91546875 36.375 68.375 C35.70210937 68.81585938 35.02921875 69.25671875 34.3359375 69.7109375 C27.08876959 73.71021076 18.50937951 74.52700912 10.51953125 72.3125 C5.87442189 70.22089354 3.34931795 67.60466319 1 63 C0.06544663 59.32362646 -0.12177192 55.89331119 -0.11352539 52.1081543 C-0.11344986 50.94732834 -0.11337433 49.78650238 -0.11329651 48.59049988 C-0.10813522 47.34762711 -0.10297394 46.10475433 -0.09765625 44.82421875 C-0.0962413 43.54392288 -0.09482635 42.26362701 -0.09336853 40.9445343 C-0.08956397 37.5530296 -0.07975143 34.16156823 -0.06866455 30.77008057 C-0.05840597 27.30440863 -0.05386141 23.83872964 -0.04882812 20.37304688 C-0.03780755 13.5820101 -0.02054722 6.79101437 0 0 Z " fill="#292929" transform="translate(827,229)"/>
<path d="M0 0 C0 4.62 0 9.24 0 14 C-2.475 13.01 -2.475 13.01 -5 12 C-13.44424577 8.80962638 -22.80782142 6.84335653 -31.4375 10.5 C-38.29188032 14.58134264 -40.45700138 21.61216034 -42.38696289 28.95678711 C-43.39892718 33.98033743 -43.39455452 38.89292649 -43.3125 44 C-43.31572266 45.00289062 -43.31894531 46.00578125 -43.32226562 47.0390625 C-43.25646954 56.29836634 -42.49741623 65.15931902 -37.90234375 73.34375 C-37 75 -37 75 -36 78 C-33.6569191 79.12085312 -33.6569191 79.12085312 -31 80 C-30.39800781 80.3403125 -29.79601562 80.680625 -29.17578125 81.03125 C-23.71711209 83.46168079 -17.19357834 82.71156917 -11.65234375 80.9140625 C-8.72615687 79.68385513 -5.86408238 78.36705027 -3 77 C-2.01 76.67 -1.02 76.34 0 76 C0 80.62 0 85.24 0 90 C-11.71166671 95.50307231 -24.58124146 99.03726451 -37.375 94.5625 C-47.68498337 89.62483511 -54.13878369 81.44500162 -58.1484375 71.01171875 C-64.21477694 53.73770963 -64.25344791 33.21610664 -56.64160156 16.40332031 C-51.22350308 5.2169943 -44.55675713 -0.53138494 -32.93359375 -4.75 C-21.38129333 -8.11066921 -10.29956724 -5.61794577 0 0 Z " fill="#2A2A2A" transform="translate(714,206)"/>
<path d="M0 0 C12.88167536 -2.04237962 12.88167536 -2.04237962 19 0 C23.69845877 3.94171585 26.39981162 9.61763705 28.95117188 15.09887695 C30.06150406 17.11148326 31.30715097 18.45976022 33 20 C33.32798584 19.42967041 33.65597168 18.85934082 33.99389648 18.27172852 C35.47346439 15.70104158 36.95544882 13.13175601 38.4375 10.5625 C38.95376953 9.66466797 39.47003906 8.76683594 40.00195312 7.84179688 C40.74155273 6.56079102 40.74155273 6.56079102 41.49609375 5.25390625 C41.95169678 4.46314697 42.4072998 3.6723877 42.87670898 2.85766602 C44 1 44 1 45 0 C47.69654854 -0.07319621 50.36691458 -0.09242537 53.0625 -0.0625 C53.82111328 -0.05798828 54.57972656 -0.05347656 55.36132812 -0.04882812 C57.24091871 -0.0370068 59.12046899 -0.01907078 61 0 C59.7071126 4.26534591 58.07504006 7.89495855 55.8125 11.73046875 C54.88824219 13.30538086 54.88824219 13.30538086 53.9453125 14.91210938 C52.98238281 16.53342773 52.98238281 16.53342773 52 18.1875 C51.35804688 19.27998047 50.71609375 20.37246094 50.0546875 21.49804688 C45.4015377 29.39769345 45.4015377 29.39769345 43 33 C43.1484645 38.13130415 46.34543866 42.23292405 49 46.4375 C49.48895752 47.22576172 49.97791504 48.01402344 50.48168945 48.82617188 C52.86155599 52.64876741 55.27921676 56.44547933 57.73046875 60.22265625 C58.14619141 60.86340088 58.56191406 61.50414551 58.99023438 62.16430664 C59.77408074 63.36612981 60.56296482 64.56468592 61.35742188 65.75952148 C64 69.78482983 64 69.78482983 64 72 C57.67373082 73.32270464 51.13583925 74.5867011 45 72 C39.50595344 66.46590572 36.2757937 59.06084615 33.11889648 52.01953125 C32.74966064 51.35308594 32.3804248 50.68664062 32 50 C31.34 50 30.68 50 30 50 C28.77465579 52.1140382 28.77465579 52.1140382 27.59375 54.8125 C19.74497368 70.79494469 19.74497368 70.79494469 14.62646484 73.04199219 C9.2834675 73.9410492 4.24542474 73.16564994 -1 72 C0.05991357 70.12353671 1.12322873 68.24899518 2.1875 66.375 C2.529021 65.77051025 2.87054199 65.16602051 3.22241211 64.54321289 C5.56213268 60.43086942 7.98231794 56.37794845 10.4609375 52.34765625 C11.05495361 51.37199707 11.64896973 50.39633789 12.26098633 49.39111328 C13.45212773 47.43821605 14.65493829 45.49238367 15.86987305 43.55419922 C16.4194165 42.64814941 16.96895996 41.74209961 17.53515625 40.80859375 C18.034104 40.00220459 18.53305176 39.19581543 19.04711914 38.36499023 C20.25190771 35.37478093 20.01677835 34.03734109 19 31 C17.69403369 28.4973939 17.69403369 28.4973939 16.015625 26.015625 C15.40976562 25.07976562 14.80390625 24.14390625 14.1796875 23.1796875 C13.22449219 21.72949219 13.22449219 21.72949219 12.25 20.25 C7.91855898 13.61804258 3.72860714 6.99276612 0 0 Z " fill="#2A2A2A" transform="translate(403,229)"/>
<path d="M0 0 C5.94 0 11.88 0 18 0 C23.82324739 11.49515615 29.34028311 23.08961777 34.6875 34.8125 C35.4274833 36.42915141 36.16771697 38.04568824 36.90820312 39.66210938 C38.31969588 42.74375364 39.72657627 45.82744017 41.13037109 48.91259766 C42.2567978 51.38492737 43.39982195 53.84579164 44.56103516 56.30224609 C49.40104542 66.59014782 50.28165801 74.58806677 50.125 86 C50.11597656 87.25167969 50.10695312 88.50335938 50.09765625 89.79296875 C50.07422805 92.86206238 50.03836179 95.9310567 50 99 C44.06 99 38.12 99 32 99 C32.10183594 97.21722656 32.20367187 95.43445313 32.30859375 93.59765625 C32.86579626 73.8834285 28.20383984 59.91252164 19.29916382 42.5282135 C15.32165456 34.76036597 11.73272424 26.82313276 8.13821411 18.87265015 C7.07604316 16.52987149 6.00449545 14.19162874 4.92944336 11.85473633 C4.59850677 11.13405472 4.26757019 10.41337311 3.92660522 9.67085266 C3.30425757 8.31576973 2.68087229 6.96116273 2.05630493 5.60710144 C0 1.11295819 0 1.11295819 0 0 Z " fill="#2A2A2A" transform="translate(52,202)"/>
<path d="M0 0 C5.61 0 11.22 0 17 0 C17 32.67 17 65.34 17 99 C11.39 99 5.78 99 0 99 C0 66.33 0 33.66 0 0 Z " fill="#272727" transform="translate(725,202)"/>
<path d="M0 0 C0.46935865 11.83059885 -1.98565168 27.04839052 -9.53515625 36.48046875 C-16.0788963 43.26850843 -23.58380661 45.3748337 -32.5625 47.1875 C-33.38685547 47.36474609 -34.21121094 47.54199219 -35.06054688 47.72460938 C-39.44615397 48.63258079 -43.49468128 49.21175728 -48 49 C-47.18675435 35.51133947 -46.12211107 19.40640171 -35.75 9.5625 C-29.27172659 4.72651526 -20.96332187 3.39726306 -13.1875 1.8125 C-12.35541016 1.63525391 -11.52332031 1.45800781 -10.66601562 1.27539062 C-6.96397563 0.50648256 -3.81451076 0 0 0 Z " fill="#FDFDFF" transform="translate(584,227)"/>
<path d="M0 0 C4.12105824 1.82093271 6.56820907 4.22653132 9 8 C11.93084877 17.77647412 13.11892721 30.5461281 9.1015625 40.1953125 C6.99809368 43.641421 4.58679746 46.11746615 1 48 C-2.93555052 48.89614054 -6.10436385 48.39806051 -9.8125 46.75 C-13.61905235 43.70475812 -15.41494276 40.57177326 -17 36 C-17.431798 32.07063817 -17.37022556 28.13835155 -17.375 24.1875 C-17.39949219 23.13240234 -17.42398438 22.07730469 -17.44921875 20.99023438 C-17.47348309 14.49952266 -16.8866248 9.35444142 -13 4 C-8.7335917 0.20763706 -5.66168289 -0.72057782 0 0 Z " fill="#FBFBFB" transform="translate(788,241)"/>
<path d="M0 0 C4.93253538 2.41973434 7.0259504 4.90902998 9 10 C11.60619685 20.35239306 10.53505821 31.40884864 6.75 41.25 C4.55872033 44.69343948 2.64810797 46.17594602 -1 48 C-4.79611 48.46618895 -7.16108808 48.35117243 -10.6875 46.875 C-14.36877006 43.89018644 -16.509105 40.47268501 -18 36 C-18.28387891 32.29665282 -18.27769047 28.58801609 -18.3125 24.875 C-18.35600586 23.36292969 -18.35600586 23.36292969 -18.40039062 21.8203125 C-18.45677922 15.12308218 -17.61044846 9.74294011 -14 4 C-9.69790434 -0.00877096 -5.69016252 -1.11304576 0 0 Z " fill="#FAFAFA" transform="translate(931,241)"/>
<path d="M0 0 C5.87651948 4.72676567 7.1078849 8.72182764 8 16 C8.56030125 25.96689716 9.08775271 35.99250293 2.5 44.0625 C-1.14950181 46.8908639 -4.34083949 47.41589144 -8.9375 47.33984375 C-12.67586757 46.72386273 -14.5096119 44.72205211 -17 42 C-19.85602194 36.57220475 -20.45556346 32.2689861 -20.3125 26.1875 C-20.29977051 25.39432373 -20.28704102 24.60114746 -20.27392578 23.78393555 C-20.05632669 14.99814749 -19.71588087 8.04515542 -13.6328125 1.27734375 C-9.65579243 -1.83386573 -4.65979948 -1.36181019 0 0 Z " fill="#FCFCFC" transform="translate(303,242)"/>
<path d="M0 0 C5.94 0 11.88 0 18 0 C11.05128735 16.02273654 4.04578977 32.01972017 -3 48 C-8.61 48 -14.22 48 -20 48 C-19.27676657 44.38383285 -18.68432481 41.94376693 -17.25 38.70043945 C-16.89292969 37.88642166 -16.53585938 37.07240387 -16.16796875 36.23371887 C-15.78253906 35.36897446 -15.39710937 34.50423004 -15 33.61328125 C-14.60425781 32.71506149 -14.20851563 31.81684174 -13.80078125 30.8914032 C-12.53854362 28.02967071 -11.26931357 25.17109994 -10 22.3125 C-9.14538423 20.37715138 -8.29121249 18.44160662 -7.4375 16.50585938 C-5.87764919 12.97318709 -4.31651695 9.44109892 -2.75 5.91137695 C-2.43546875 5.2025386 -2.1209375 4.49370026 -1.796875 3.76338196 C-1.22441803 2.49660825 -0.62167879 1.24335759 0 0 Z " fill="#2A2A2A" transform="translate(116,202)"/>
<path d="M0 0 C0.16276553 2.56506424 0.28113984 5.11975422 0.375 7.6875 C0.45041016 8.7693457 0.45041016 8.7693457 0.52734375 9.87304688 C0.67177408 15.14475383 0.67177408 15.14475383 -1.25683594 17.60009766 C-4.76754772 20.61687813 -7.75207953 21.85872598 -12.3125 22.375 C-17.20301701 21.87765929 -18.57084492 20.42915508 -22 17 C-23.61289621 13.77420757 -23.58915133 10.48804367 -23 7 C-17.06244078 -1.03316836 -9.11680344 -0.26553796 0 0 Z " fill="#F7F7F7" transform="translate(167,268)"/>
<path d="M0 0 C2.99214875 2.42606655 4.0302972 4.23084467 5.3125 7.875 C5.3125 10.845 5.3125 13.815 5.3125 16.875 C-2.2775 16.875 -9.8675 16.875 -17.6875 16.875 C-17.6875 9.56031212 -17.66330826 6.47076831 -13.1875 1.0625 C-9.24184705 -2.06114192 -4.44372857 -1.86016545 0 0 Z " fill="#F5F5F5" transform="translate(374.6875,242.125)"/>
</svg>
