<svg width="76" height="60" viewBox="0 0 76 60" fill="none" xmlns="http://www.w3.org/2000/svg">
<path d="M4.69689 25.824H3.95307C2.5892 25.824 1.87364 26.5381 1.87364 27.5954C1.87364 28.795 2.36996 29.3529 3.3895 30.067L4.23016 30.6528L1.80504 34.4104H0L2.17627 31.0531C0.922701 30.1228 0.220586 29.2232 0.220586 27.6945C0.220586 25.7808 1.50107 24.4809 3.93962 24.4809H6.36338V34.409H4.69689V25.824ZM13.2244 34.4104H11.5714V31.4103H9.38168V34.4104H7.74206V27.223H9.38168V30.0656H11.5714V27.223H13.2244V34.4104ZM20.6074 35.9949H19.0928V34.409H15.4142V35.9949H13.8983V33.0658H14.408C14.9865 31.8663 15.0967 29.5941 15.0967 27.8367V27.223H19.877V33.0658H20.6074V35.9949ZM16.5037 28.5662V28.781C16.5037 30.0238 16.3799 31.9807 15.9253 33.0672H18.2401V28.5662H16.5037ZM24.286 34.4941C22.1918 34.4941 21.0068 33.2946 21.0068 30.8369C21.0068 28.6806 21.9578 27.1087 23.9551 27.1087C25.5948 27.1087 26.6547 28.0375 26.6547 30.5231V31.4227H22.7016C22.7702 32.5804 23.2382 33.1508 24.4232 33.1508C25.2222 33.1508 26.0898 32.8789 26.5861 32.5372V33.9223C26.1179 34.2513 25.3324 34.4941 24.286 34.4941ZM22.7016 30.1661H24.9881V30.0238C24.9881 29.138 24.7407 28.4518 23.9269 28.4518C23.1132 28.4518 22.7419 29.0376 22.7002 30.1661M29.3945 30.8802V34.409H27.7549V27.223H29.3945V30.537L31.7093 27.223H33.3624L31.0476 30.537L33.6785 34.4077H31.8182L29.3932 30.8787L29.3945 30.8802ZM33.5816 30.823C33.5816 28.6513 34.6698 27.1087 36.764 27.1087C37.5763 27.1087 38.183 27.2509 38.5273 27.4517V28.894C38.1964 28.6792 37.5763 28.4518 36.9428 28.4518C35.8682 28.4518 35.2764 29.2371 35.2764 30.7798C35.2764 32.2374 35.7579 33.1508 36.9294 33.1508C37.6181 33.1508 38.1144 32.9654 38.5273 32.6655V34.0519C38.1278 34.3519 37.5912 34.4941 36.8326 34.4941C34.6429 34.4941 33.5816 33.1802 33.5816 30.823Z" fill="black"/>
<path d="M56.3125 25.895V24.4808H61.3685V25.3525L59.2191 28.3374C60.969 28.594 61.8231 29.7224 61.8231 31.3948C61.8231 33.0672 60.817 34.5512 58.4901 34.5512C57.6226 34.5512 56.8101 34.3085 56.1901 33.9514V32.5092C56.8101 32.8231 57.3886 33.2233 58.5049 33.2233C59.6213 33.2233 60.1997 32.4088 60.1997 31.4087C60.1997 30.2943 59.511 29.6094 58.2157 29.6094H57.2931V28.7377L59.3725 25.895H56.3125ZM62.5804 29.9233C62.5804 26.4655 63.7103 24.3091 66.2172 24.3091C67.1266 24.3091 67.7184 24.5087 68.2147 24.7667V26.2103C67.6501 25.8811 67.03 25.6245 66.2456 25.6245C64.8404 25.6245 64.1797 26.6246 64.0693 28.9385C64.482 28.2384 65.1993 27.8241 66.1082 27.8241C67.6778 27.8241 68.7394 28.9525 68.7394 31.0238C68.7394 33.2526 67.4174 34.5526 65.7911 34.5526C63.7519 34.5526 62.5818 33.095 62.5818 29.9247M65.7641 29.1812C64.8416 29.1812 64.2347 29.9386 64.2347 31.1521C64.2347 32.4799 64.8133 33.2233 65.6538 33.2233C66.5497 33.2233 67.0725 32.4953 67.0725 31.1381C67.0725 29.781 66.4944 29.1812 65.7641 29.1812ZM72.8177 34.5526C71.0824 34.5526 69.6219 33.1675 69.6219 29.4239C69.6219 25.895 71.0406 24.3106 72.8177 24.3106C74.5941 24.3106 76 25.6677 76 29.4239C76 33.1801 74.567 34.5526 72.8177 34.5526ZM72.8312 25.6524C71.9771 25.6524 71.2881 26.538 71.2881 29.41C71.2881 32.2818 71.9636 33.2094 72.8312 33.2094C73.809 33.2094 74.3466 32.0099 74.3466 29.4378C74.3466 26.6385 73.6447 25.6524 72.8312 25.6524Z" fill="black"/>
<path d="M47.4648 36C50.9266 36 53.7329 33.0899 53.7329 29.5C53.7329 25.9101 50.9266 23 47.4648 23C44.003 23 41.1967 25.9101 41.1967 29.5C41.1967 33.0899 44.003 36 47.4648 36Z" fill="url(#paint0_radial_5181_3523)"/>
<path d="M47.4648 33.2701C48.6418 33.2701 49.5959 31.5822 49.5959 29.5C49.5959 27.418 48.6418 25.7301 47.4648 25.7301C46.2878 25.7301 45.3336 27.418 45.3336 29.5C45.3336 31.5822 46.2878 33.2701 47.4648 33.2701Z" fill="white"/>
<path fill-rule="evenodd" clip-rule="evenodd" d="M43.469 26.5098C42.8364 26.4761 42.0742 27.8486 42.0742 29.4993C42.0742 31.1499 42.8364 32.5225 43.469 32.4887C44.0962 32.4548 44.4561 31.1499 44.4561 29.4993C44.4561 27.8486 44.0962 26.5437 43.469 26.5098Z" fill="white"/>
<path fill-rule="evenodd" clip-rule="evenodd" d="M51.4606 32.4887C52.0931 32.5225 52.8554 31.1499 52.8554 29.4993C52.8554 27.8486 52.0931 26.4761 51.4606 26.5098C50.8334 26.5437 50.4735 27.8486 50.4735 29.4993C50.4735 31.1499 50.8334 32.4548 51.4606 32.4887Z" fill="white"/>
<defs>
<radialGradient id="paint0_radial_5181_3523" cx="0" cy="0" r="1" gradientUnits="userSpaceOnUse" gradientTransform="translate(38.0003 27.68) rotate(90) scale(8.32 63.1539)">
<stop stop-color="#FF9A6F"/>
<stop offset="0.60999" stop-color="#FF6427"/>
<stop offset="1" stop-color="#EB581E"/>
</radialGradient>
</defs>
</svg>
