<svg width="76" height="60" viewBox="0 0 76 60" fill="none" xmlns="http://www.w3.org/2000/svg">
<path d="M5.028 34.0234V32.7052C5.028 31.711 4.90121 31.4202 4.50879 30.5938L2.4543 26.2592H1L3.63159 31.8004V34.0234H5.028ZM5.94 30.0126L7.64822 26.2588H6.22873L4.5205 30.0126H5.94ZM20.5292 34.1352C21.1755 34.1352 21.7064 33.8447 22.0758 33.2971L22.145 34.0234H23.4147V26.2592H22.0413V29.0631C21.6951 28.5602 21.1872 28.2924 20.587 28.2924C19.2595 28.2924 18.3362 29.3759 18.3362 31.2528C18.3362 33.1073 19.2364 34.1352 20.5292 34.1352ZM28.9666 33.6436V32.5601C28.5393 32.8392 27.8237 33.085 27.1543 33.085C26.15 33.085 25.7693 32.6271 25.7114 31.6883H29.0241V30.9847C29.0241 29.0294 28.1356 28.2924 26.7619 28.2924C25.0881 28.2924 24.2919 29.5323 24.2919 31.2305C24.2919 33.1857 25.2845 34.1352 27.0389 34.1352C27.9161 34.1352 28.5624 33.9117 28.9666 33.6436ZM11.6879 30.1913C11.6879 28.8283 10.9723 28.3144 9.51804 28.3144C8.61776 28.3144 7.89078 28.6833 7.47527 28.9738V30.1246C7.91387 29.7781 8.58331 29.3759 9.35645 29.3759C10.0142 29.3759 10.3143 29.5994 10.3143 30.2027V30.5602H10.0951C7.99449 30.5602 7.05976 31.2195 7.05976 32.3923C7.05976 33.4758 7.77536 34.1018 8.83723 34.1018C9.64482 34.1018 9.99144 33.8447 10.2567 33.5766H10.3143C10.326 33.7216 10.3721 33.9117 10.4183 34.0234H11.7572C11.7111 33.5668 11.688 33.1083 11.6879 32.6495V30.1913ZM14.181 29.9902C14.435 29.6887 14.8387 29.432 15.3352 29.432C15.82 29.432 16.0391 29.6327 16.0391 30.0576V34.0234H17.4128V29.9232C17.4128 28.806 16.9511 28.3144 15.8314 28.3144C15.0121 28.3144 14.5273 28.6052 14.2503 28.8734H14.181L14.1462 28.4038H12.8073V34.0234H14.181V29.9902ZM33.1906 34.0234H34.7376L32.8447 31.1298L34.4833 28.4038H33.11L32.1174 30.1019L31.0093 28.4038H29.4627L31.2171 31.0964L29.3935 34.0234H30.7899L31.9558 32.1242L33.1906 34.0234ZM20.9333 29.3426C21.672 29.3426 22.0413 29.9122 22.0413 31.2081C22.0413 32.5154 21.6489 33.085 20.8754 33.085C20.125 33.085 19.7557 32.5264 19.7557 31.2528C19.7557 29.9232 20.1481 29.3426 20.9333 29.3426ZM26.7388 29.3426C27.4199 29.3426 27.6277 29.8898 27.6277 30.5938V30.7056H25.7117C25.7462 29.8118 26.0811 29.3426 26.7388 29.3426ZM10.3146 32.6828C10.1413 32.9286 9.81813 33.1297 9.33336 33.1297C8.75626 33.1297 8.46753 32.8059 8.46753 32.3143C8.46753 31.666 8.94093 31.4429 10.1182 31.4429H10.3143L10.3146 32.6828Z" fill="#262626"/>
<path d="M38.6893 30.1562C38.6893 28.2577 40.2792 26.7188 42.2407 26.7188C44.2021 26.7188 45.7921 28.2577 45.7921 30.1562C45.7921 32.0548 44.2021 33.5938 42.2407 33.5938C40.2792 33.5938 38.6893 32.0548 38.6893 30.1562Z" fill="white"/>
<path d="M42.2407 35.3125C40.9167 35.2816 40.3929 34.4249 40.233 33.5979C40.146 33.1482 40.184 32.4006 40.233 32.1335C40.3122 31.6987 40.4401 31.0734 40.5818 30.3481C40.7842 29.3086 41.3219 28.7173 42.4829 28.5062L44.3814 28.1556C44.4319 27.8827 44.527 27.1601 44.4404 26.715C44.2788 25.8786 43.6133 25.0134 42.262 25C39.3189 25 36.9136 27.3076 36.9136 30.1562C36.9136 33.0049 39.2976 35.3125 42.2407 35.3125Z" fill="url(#paint0_linear_5181_3533)"/>
<path d="M42.2407 25C43.5643 25.0309 44.2195 25.8893 44.3793 26.7163C44.4663 27.166 44.2973 27.9123 44.2483 28.179C44.1691 28.6138 44.0412 29.2391 43.8995 29.9644C43.6971 31.0039 43.159 31.5952 41.9985 31.8062L40.2316 32.1421C40.1812 32.4147 40.0153 33.152 40.102 33.5972C40.2636 34.4332 40.868 35.2991 42.2193 35.3125C45.1624 35.3125 47.5678 33.0049 47.5678 30.1562C47.5678 27.3076 45.1837 25 42.2407 25Z" fill="url(#paint1_linear_5181_3533)"/>
<path d="M52.8753 34.1352C53.7408 34.1352 54.3296 33.8337 54.6873 33.5989V32.5154C54.2256 32.8392 53.7177 33.085 52.979 33.085C51.7094 33.085 51.1092 32.0909 51.1092 30.147C51.1092 28.147 51.6863 27.1976 53.0483 27.1976C53.6833 27.1976 54.2717 27.4657 54.6873 27.7225V26.6387C54.3179 26.3819 53.7177 26.1471 52.979 26.1471C50.8439 26.1471 49.6897 27.6665 49.6897 30.147C49.6897 32.6942 50.8901 34.1352 52.8753 34.1352ZM56.9861 26.2588H55.6127V34.0234H56.9861V26.2588ZM60.4689 28.2924C58.9571 28.2924 57.9066 29.3313 57.9066 31.2195C57.9066 33.0963 58.9571 34.1352 60.4689 34.1352C61.9811 34.1352 63.0313 33.096 63.0313 31.2081C63.0313 29.3313 61.9811 28.2924 60.4689 28.2924ZM60.4689 33.085C59.7072 33.085 59.3265 32.5154 59.3265 31.2195C59.3265 29.9122 59.7072 29.3426 60.4689 29.3426C61.2307 29.3426 61.6118 29.9122 61.6118 31.2081C61.6118 32.5154 61.2307 33.085 60.4689 33.085ZM67.1278 32.437C66.8739 32.7385 66.4697 32.9956 65.9736 32.9956C65.4888 32.9956 65.2694 32.7945 65.2694 32.37V28.4038H63.896V32.5041C63.896 33.6213 64.3577 34.1128 65.4771 34.1128C66.2968 34.1128 66.7816 33.8223 67.0586 33.5542H67.1278L67.1623 34.0234H68.5011V28.4038H67.1278V32.437ZM71.6193 34.1352C72.2656 34.1352 72.7966 33.8447 73.1659 33.2971L73.2352 34.0234H74.5048V26.2588H73.1311V29.0631C72.7848 28.5602 72.277 28.2924 71.6768 28.2924C70.3496 28.2924 69.4263 29.3759 69.4263 31.2528C69.4263 33.1073 70.3266 34.1352 71.6193 34.1352ZM72.0231 29.3426C72.7618 29.3426 73.1311 29.9122 73.1311 31.2081C73.1311 32.5154 72.7387 33.085 71.9655 33.085C71.2151 33.085 70.8458 32.5264 70.8458 31.2528C70.8458 29.9232 71.2382 29.3426 72.0231 29.3426Z" fill="#262626"/>
<defs>
<linearGradient id="paint0_linear_5181_3533" x1="1" y1="35.3125" x2="2.36031" y2="18.9255" gradientUnits="userSpaceOnUse">
<stop stop-color="#D2DFFF"/>
<stop offset="1" stop-color="#4E7FFF"/>
</linearGradient>
<linearGradient id="paint1_linear_5181_3533" x1="74.5048" y1="25" x2="73.0834" y2="41.5161" gradientUnits="userSpaceOnUse">
<stop stop-color="#D2DFFF"/>
<stop offset="1" stop-color="#4E7FFF"/>
</linearGradient>
</defs>
</svg>
