<?xml version="1.0" encoding="UTF-8"?>
<svg version="1.1" xmlns="http://www.w3.org/2000/svg" width="950" height="450">
<path d="M0 0 C313.5 0 627 0 950 0 C950 148.5 950 297 950 450 C636.5 450 323 450 0 450 C0 301.5 0 153 0 0 Z " fill="#E2E6F2" transform="translate(0,0)"/>
<path d="M0 0 C14.71989564 11.09750312 24.96507813 26.1275365 28.8359375 44.26953125 C31.71364705 65.1850579 28.49663631 86.74331515 15.9453125 104.17285156 C6.49092684 115.92205173 -5.32917095 125.271648 -19.625 130.1875 C-20.35976563 130.45691406 -21.09453125 130.72632813 -21.8515625 131.00390625 C-26.8129444 132.76852146 -31.39550428 133.62719689 -36.625 134.1875 C-36.955 134.5175 -37.285 134.8475 -37.625 135.1875 C-40.15549402 135.26063567 -42.65804837 135.27997527 -45.1875 135.25 C-46.25387695 135.24323242 -46.25387695 135.24323242 -47.34179688 135.23632812 C-49.10290013 135.22450864 -50.86396036 135.20657263 -52.625 135.1875 C-52.625 134.5275 -52.625 133.8675 -52.625 133.1875 C-53.429375 133.29191406 -53.429375 133.29191406 -54.25 133.3984375 C-66.1542749 134.22077228 -78.45023608 128.4633886 -87.625 121.1875 C-88.3159375 120.65769531 -89.006875 120.12789062 -89.71875 119.58203125 C-93.31231241 116.69434717 -93.31231241 116.69434717 -94.625 115.1875 C-94.625 114.1975 -94.625 113.2075 -94.625 112.1875 C-95.49318359 111.82011719 -95.49318359 111.82011719 -96.37890625 111.4453125 C-102.90607256 107.79009936 -108.40424585 99.86706404 -111.625 93.1875 C-112.4375 89.6875 -112.4375 89.6875 -112.625 87.1875 C-113.285 87.1875 -113.945 87.1875 -114.625 87.1875 C-119.40659138 69.128454 -119.79250429 53.39552471 -115.625 35.1875 C-114.965 35.1875 -114.305 35.1875 -113.625 35.1875 C-113.4703125 33.888125 -113.4703125 33.888125 -113.3125 32.5625 C-112.59101586 29.02066877 -111.35376739 26.34437958 -109.625 23.1875 C-108.965 23.1875 -108.305 23.1875 -107.625 23.1875 C-107.41875 22.3625 -107.2125 21.5375 -107 20.6875 C-101.58039448 6.8921405 -87.63084058 -3.4066878 -74.5 -9.25 C-73.76048096 -9.5797583 -73.02096191 -9.9095166 -72.2590332 -10.24926758 C-47.42395417 -20.77577632 -21.42517677 -14.93539293 0 0 Z " fill="#FA411F" transform="translate(344.625,164.8125)"/>
<path d="M0 0 C1.4530957 -0.01836914 1.4530957 -0.01836914 2.93554688 -0.03710938 C9.72041452 -0.05068816 16.05858859 0.75595361 22.6875 2.1875 C22.6875 2.8475 22.6875 3.5075 22.6875 4.1875 C23.55375 4.290625 24.42 4.39375 25.3125 4.5 C33.71724825 6.21207835 40.81472484 11.47804116 46.0078125 18.18359375 C50.32858466 24.75767182 52.97478387 30.23332774 52.6875 38.1875 C53.3475 38.1875 54.0075 38.1875 54.6875 38.1875 C54.6875 43.4675 54.6875 48.7475 54.6875 54.1875 C54.0275 54.1875 53.3675 54.1875 52.6875 54.1875 C52.66171875 54.79335937 52.6359375 55.39921875 52.609375 56.0234375 C52.16667704 62.56329375 50.9617151 68.43846012 47.6875 74.1875 C45.25 75.9375 45.25 75.9375 42.6875 77.1875 C41.60662109 78.59515625 41.60662109 78.59515625 40.50390625 80.03125 C37.56490314 83.65701739 34.32133564 85.19636374 30.0625 86.9375 C29.41410156 87.22753906 28.76570312 87.51757812 28.09765625 87.81640625 C18.77902035 91.77908831 9.21271219 92.51867581 -0.8125 92.4375 C-2.24529297 92.44910156 -2.24529297 92.44910156 -3.70703125 92.4609375 C-15.55686203 92.42886759 -28.60009771 90.53742605 -38.3125 83.1875 C-48.7070803 72.53186859 -53.66142896 62.47643862 -53.6875 47.5625 C-53.68911133 46.68005615 -53.69072266 45.7976123 -53.69238281 44.88842773 C-53.50158274 33.53476333 -50.86244084 22.61821539 -43.26953125 13.8203125 C-30.93419975 2.24911658 -16.27889421 0.01070276 0 0 Z " fill="#E0E3EF" transform="translate(669.3125,177.8125)"/>
<path d="M0 0 C1.04220703 -0.00386719 2.08441406 -0.00773438 3.15820312 -0.01171875 C19.82112241 0.00920142 19.82112241 0.00920142 26.875 3.5625 C30.60094992 5.37583047 34.22886972 6.87490623 38.1875 8.125 C39.1875 9.125 39.1875 9.125 39.28515625 11.19140625 C39.27355469 12.01511719 39.26195312 12.83882812 39.25 13.6875 C39.24097656 14.51378906 39.23195313 15.34007812 39.22265625 16.19140625 C39.21105469 16.82949219 39.19945312 17.46757812 39.1875 18.125 C37.54074171 17.69099454 35.89515047 17.25256083 34.25 16.8125 C33.33347656 16.56886719 32.41695312 16.32523438 31.47265625 16.07421875 C28.1875 15.125 28.1875 15.125 26.24853516 14.36108398 C19.62194358 11.81930524 13.48216909 11.70031562 6.4375 11.8125 C4.70705444 11.82941895 4.70705444 11.82941895 2.94165039 11.84667969 C-14.8707843 11.98248889 -14.8707843 11.98248889 -30.5546875 19.5546875 C-35.77861454 24.98653203 -39.03182897 32.75209069 -39.0625 40.3125 C-38.93875 41.7046875 -38.93875 41.7046875 -38.8125 43.125 C-37.94625 42.3825 -37.08 41.64 -36.1875 40.875 C-26.34489112 33.92597566 -14.15604711 33.52614086 -2.5625 33.75 C-1.27859375 33.75128906 0.0053125 33.75257813 1.328125 33.75390625 C17.10843203 33.89942138 29.35284227 37.24111816 41.1875 48.125 C45.66601249 54.14300116 45.98324971 60.83062763 45.1875 68.125 C42.502319 78.23552845 36.32738226 83.34067005 27.703125 88.65625 C17.56939877 94.20720832 6.88606053 94.43377827 -4.4375 94.3125 C-5.61957031 94.31185547 -6.80164063 94.31121094 -8.01953125 94.31054688 C-16.67175752 94.26574248 -16.67175752 94.26574248 -17.8125 93.125 C-19.64131096 92.82514625 -21.47595468 92.56061913 -23.3125 92.3125 C-31.76787659 90.94516205 -38.07586348 88.70525954 -43.8125 82.125 C-44.410625 81.568125 -45.00875 81.01125 -45.625 80.4375 C-46.8125 79.125 -46.8125 79.125 -46.8125 77.125 C-47.8025 76.795 -48.7925 76.465 -49.8125 76.125 C-53.04315758 68.26744081 -53.27990334 59.81026939 -53.1875 51.4375 C-53.19910156 50.37466797 -53.21070313 49.31183594 -53.22265625 48.21679688 C-53.1899981 39.39365204 -51.5286893 32.59229973 -46.8125 25.125 C-46.420625 24.031875 -46.02875 22.93875 -45.625 21.8125 C-42.34941406 13.89216786 -34.8071956 9.01340155 -27.375 5.5 C-24.12455283 4.24544144 -21.25750233 3.54512223 -17.8125 3.125 C-17.8125 2.465 -17.8125 1.805 -17.8125 1.125 C-11.89608042 -0.162511 -6.02143561 -0.02209701 0 0 Z " fill="#0D0D0E" transform="translate(561.8125,176.875)"/>
<path d="M0 0 C1.4530957 -0.01836914 1.4530957 -0.01836914 2.93554688 -0.03710938 C9.72041452 -0.05068816 16.05858859 0.75595361 22.6875 2.1875 C22.6875 2.8475 22.6875 3.5075 22.6875 4.1875 C23.55375 4.290625 24.42 4.39375 25.3125 4.5 C33.71724825 6.21207835 40.81472484 11.47804116 46.0078125 18.18359375 C50.32858466 24.75767182 52.97478387 30.23332774 52.6875 38.1875 C53.3475 38.1875 54.0075 38.1875 54.6875 38.1875 C54.6875 43.4675 54.6875 48.7475 54.6875 54.1875 C54.0275 54.1875 53.3675 54.1875 52.6875 54.1875 C52.66171875 54.79335937 52.6359375 55.39921875 52.609375 56.0234375 C52.16667704 62.56329375 50.9617151 68.43846012 47.6875 74.1875 C45.25 75.9375 45.25 75.9375 42.6875 77.1875 C41.60662109 78.59515625 41.60662109 78.59515625 40.50390625 80.03125 C37.56490314 83.65701739 34.32133564 85.19636374 30.0625 86.9375 C29.41410156 87.22753906 28.76570312 87.51757812 28.09765625 87.81640625 C18.77902035 91.77908831 9.21271219 92.51867581 -0.8125 92.4375 C-2.24529297 92.44910156 -2.24529297 92.44910156 -3.70703125 92.4609375 C-15.55686203 92.42886759 -28.60009771 90.53742605 -38.3125 83.1875 C-48.7070803 72.53186859 -53.66142896 62.47643862 -53.6875 47.5625 C-53.68911133 46.68005615 -53.69072266 45.7976123 -53.69238281 44.88842773 C-53.50158274 33.53476333 -50.86244084 22.61821539 -43.26953125 13.8203125 C-30.93419975 2.24911658 -16.27889421 0.01070276 0 0 Z M-33.875 21.5 C-37.43299639 25.76530893 -38.21451583 28.70038654 -38.3125 34.1875 C-38.6425 34.5175 -38.9725 34.8475 -39.3125 35.1875 C-41.28789782 47.87793449 -40.53249165 60.4254248 -32.96484375 71.0859375 C-27.12274692 78.4703479 -19.47970118 81.7872352 -10.3125 83.1875 C5.32000813 84.43179878 18.05331834 83.1947726 30.6875 73.1875 C36.9178935 67.693532 39.55400743 59.89636807 40.109375 51.75390625 C40.43139381 41.79349482 40.01332318 31.5289736 34.625 22.875 C17.22238339 6.95345714 -16.23907747 3.23422309 -33.875 21.5 Z " fill="#0A0B0B" transform="translate(669.3125,177.8125)"/>
<path d="M0 0 C28.71 0 57.42 0 87 0 C87 3.63 87 7.26 87 11 C85.1746875 11.495 85.1746875 11.495 83.3125 12 C77.65216792 13.84790556 72.94582855 17.00673625 68.015625 20.2578125 C65.20570624 21.88115935 63.18884451 22.61025234 60 23 C60 23.66 60 24.32 60 25 C58.96875 25.4125 57.9375 25.825 56.875 26.25 C53.28552323 27.77589093 50.22325133 29.80232864 47 32 C46.01 32.33 45.02 32.66 44 33 C43.505 33.99 43.505 33.99 43 35 C44.14855469 34.96519531 45.29710937 34.93039063 46.48046875 34.89453125 C59.0356691 34.62462903 71.07068165 34.42629568 81.05859375 43.08984375 C86.85673732 48.79465704 90.1428973 52.28768825 90.3125 60.625 C90.22194779 68.01255143 89.4239637 72.61865825 84.1171875 77.859375 C71.99808473 88.02378378 57.01331763 91.57764985 41.5 91.375 C39.81692749 91.36194824 39.81692749 91.36194824 38.09985352 91.34863281 C30.98309671 91.22538143 23.98369491 90.76180981 16.9375 89.75 C15.77154297 89.58636963 15.77154297 89.58636963 14.58203125 89.41943359 C8.20402771 88.35967386 2.74828099 85.8741405 -3 83 C-3 79.7 -3 76.4 -3 73 C-0.02403125 73.74399219 2.88101752 74.54651399 5.8125 75.4375 C6.69035156 75.70175781 7.56820313 75.96601563 8.47265625 76.23828125 C9.30667969 76.48964844 10.14070313 76.74101562 11 77 C29.00528637 82.40158591 50.20840211 82.18838187 68 76 C68 75.34 68 74.68 68 74 C68.763125 73.566875 69.52625 73.13375 70.3125 72.6875 C73.53531414 70.66387251 74.57179068 69.53293884 76 66 C76.514938 62.56519379 76.60408621 59.42691895 76 56 C71.61941401 50.11749881 65.96343043 47.71018269 59 46 C56.54867697 45.83409969 54.08972966 45.76143362 51.6328125 45.76953125 C50.61427689 45.77021858 50.61427689 45.77021858 49.57516479 45.7709198 C48.14823647 45.7739206 46.72131078 45.78174106 45.29443359 45.79418945 C43.13757396 45.81239387 40.98114714 45.81469896 38.82421875 45.81445312 C31.82306241 45.83294583 24.94579859 46.02883129 18 47 C15 42.68 15 42.68 15 39.8125 C16.4305893 37.21955689 18.27216998 37.05995681 21 36 C22.60233942 35.09536798 24.18561766 34.15629233 25.75 33.1875 C29.1423739 31.12058956 32.54290821 29.08216003 36 27.125 C36.721875 26.71507812 37.44375 26.30515625 38.1875 25.8828125 C40 25 40 25 42 25 C42 24.34 42 23.68 42 23 C43.11375 22.46375 44.2275 21.9275 45.375 21.375 C49.60350173 19.27201512 53.6000311 16.86492407 57.60546875 14.3671875 C60 13 60 13 65 11 C43.55 10.67 22.1 10.34 0 10 C0 6.7 0 3.4 0 0 Z " fill="#0E0E0F" transform="translate(410,180)"/>
<path d="M0 0 C0 29.7 0 59.4 0 90 C-4.95 90 -9.9 90 -15 90 C-15 64.26 -15 38.52 -15 12 C-21.27 12.33 -27.54 12.66 -34 13 C-34.66 14.32 -35.32 15.64 -36 17 C-36.66 17 -37.32 17 -38 17 C-38.33 17.99 -38.66 18.98 -39 20 C-39.66 20 -40.32 20 -41 20 C-41.44101228 30.86196906 -40.57219657 37.15195833 -34 46 C-31.87474974 47.82880544 -29.60258683 49.35486697 -27.25 50.875 C-26.64800781 51.2771875 -26.04601562 51.679375 -25.42578125 52.09375 C-23.95729619 53.07274004 -22.4795732 54.0378498 -21 55 C-21.62082335 58.53949938 -23.05244992 60.70162715 -25.1875 63.5625 C-28.96313929 68.80816279 -31.98286572 74.29613807 -35 80 C-36.31478685 82.34463538 -37.65517011 84.67240981 -39 87 C-39.66 87 -40.32 87 -41 87 C-41 87.99 -41 88.98 -41 90 C-46.61 90 -52.22 90 -58 90 C-57.22404875 86.89619499 -56.4731994 84.74997221 -55 82 C-54.34 82 -53.68 82 -53 82 C-52.72800781 81.26523437 -52.45601563 80.53046875 -52.17578125 79.7734375 C-51.05672868 77.13381184 -49.80218037 74.98524518 -48.1875 72.625 C-47.66414063 71.8515625 -47.14078125 71.078125 -46.6015625 70.28125 C-45.13367378 68.19040363 -43.6060423 66.16006135 -42.0625 64.125 C-41.381875 63.09375 -40.70125 62.0625 -40 61 C-41.07913827 57.76258518 -41.53752384 57.38100788 -44.125 55.4375 C-50.2768991 50.35108446 -54.96698697 43.75086219 -57 36 C-57.23046875 32.74609375 -57.23046875 32.74609375 -57.1875 29.4375 C-57.17783203 27.79587891 -57.17783203 27.79587891 -57.16796875 26.12109375 C-57.01649324 23.30646735 -56.63784164 20.7401677 -56 18 C-55.34 18 -54.68 18 -54 18 C-53.8453125 17.1028125 -53.8453125 17.1028125 -53.6875 16.1875 C-52.89505679 13.66608978 -51.88056492 12.80534232 -50 11 C-49.71253906 10.35160156 -49.42507813 9.70320312 -49.12890625 9.03515625 C-47.7948959 6.63024486 -46.84344671 6.07337887 -44.375 4.9375 C-43.74335938 4.63714844 -43.11171875 4.33679688 -42.4609375 4.02734375 C-25.81820164 -2.92033804 -25.18606407 0 0 0 Z " fill="#FEF5F2" transform="translate(326,180)"/>
<path d="M0 0 C0.92941406 -0.00773438 1.85882812 -0.01546875 2.81640625 -0.0234375 C14.42242972 0.00893635 26.12917926 1.93630928 34.75 10.375 C37.6504321 14.18960841 38.04521248 17.82048362 37.7734375 22.53125 C36.34995694 28.49957815 31.8519836 32.37082706 26.8125 35.5625 C18.46207377 39.62205793 10.46730993 40.7532625 1.25 40.625 C0.19296875 40.61412354 -0.8640625 40.60324707 -1.953125 40.59204102 C-12.49586709 40.37646797 -21.51557803 39.83479859 -29.31640625 32.06640625 C-33.20194598 27.53814566 -34.53120916 23.44377861 -34.2734375 17.5546875 C-33.54274757 13.3281477 -31.86331683 10.31185482 -28.875 7.25 C-19.9278873 1.20340926 -10.53138232 -0.0869165 0 0 Z " fill="#DCE0EB" transform="translate(556.875,220.75)"/>
<path d="M0 0 C0.66 0.33 1.32 0.66 2 1 C-2.22949995 3.41685712 -5.12335991 4.34833144 -10 4 C-10 4.66 -10 5.32 -10 6 C-14.02014331 6.04970693 -18.04016578 6.08586387 -22.06054688 6.10986328 C-23.4261385 6.1198759 -24.79170894 6.13349005 -26.15722656 6.15087891 C-28.12815912 6.17533573 -30.09925284 6.1854572 -32.0703125 6.1953125 C-33.84559326 6.21102295 -33.84559326 6.21102295 -35.65673828 6.22705078 C-39.08692611 5.99409659 -41.80303811 5.23025564 -45 4 C-45 3.67 -45 3.34 -45 3 C-44.11852295 3.01047363 -43.2370459 3.02094727 -42.32885742 3.03173828 C-39.00575049 3.06616559 -35.68283768 3.09106467 -32.35961914 3.10986328 C-30.93120298 3.1198174 -29.50280662 3.13338562 -28.07446289 3.15087891 C-18.4743362 3.26536656 -9.20541136 3.06847045 0 0 Z " fill="#888A8E" transform="translate(694,266)"/>
<path d="M0 0 C12.64470004 2.98189989 12.64470004 2.98189989 16.35449219 7.54882812 C15.69449219 7.87882813 15.03449219 8.20882812 14.35449219 8.54882812 C14.35449219 7.88882813 14.35449219 7.22882813 14.35449219 6.54882812 C13.03449219 6.54882812 11.71449219 6.54882812 10.35449219 6.54882812 C10.35449219 5.88882813 10.35449219 5.22882813 10.35449219 4.54882812 C9.76023437 4.49984375 9.16597656 4.45085937 8.55371094 4.40039062 C4.09190131 3.99792568 -0.2074948 3.45333022 -4.58300781 2.48632812 C-12.81992238 0.8794156 -21.29357068 1.3930407 -29.64550781 1.54882812 C-22.3742106 -3.29870335 -8.36924168 -1.42731253 0 0 Z " fill="#ED6A55" transform="translate(314.6455078125,150.451171875)"/>
<path d="M0 0 C6.34554992 11.42198985 3.77518808 29.10338298 0.8515625 41.28515625 C0.09537851 43.6959263 -0.78251339 45.79264384 -2 48 C-3.28029816 44.15910552 -2.3221014 42.77026847 -1 39 C1.56150507 25.79718068 1.08952225 13.32719179 0 0 Z " fill="#EB5E46" transform="translate(371,204)"/>
<path d="M0 0 C0.60585938 0.20496094 1.21171875 0.40992188 1.8359375 0.62109375 C7.90341521 2.5720212 13.64303124 3.6077615 20 4 C20 4.66 20 5.32 20 6 C22.47960136 5.85975781 24.95852402 5.7130815 27.4375 5.5625 C28.49807617 5.50352539 28.49807617 5.50352539 29.58007812 5.44335938 C33.08690419 5.52375562 33.08690419 5.52375562 36 4 C38.67058851 3.85884839 41.32432238 3.95752893 44 4 C39.91550158 6.11267159 36.72514318 7.12560693 32.11328125 7.09765625 C31.17548828 7.09443359 30.23769531 7.09121094 29.27148438 7.08789062 C28.29501953 7.07951172 27.31855469 7.07113281 26.3125 7.0625 C25.32443359 7.05798828 24.33636719 7.05347656 23.31835938 7.04882812 C20.87884526 7.03704303 18.43945311 7.02059011 16 7 C16 6.34 16 5.68 16 5 C15.14728516 5.05220703 15.14728516 5.05220703 14.27734375 5.10546875 C8.66279774 5.30230592 5.00344995 4.55495317 0 2 C0 1.34 0 0.68 0 0 Z " fill="#F9C1BE" transform="translate(272,294)"/>
<path d="M0 0 C2.64 0.33 5.28 0.66 8 1 C8 1.66 8 2.32 8 3 C8.99 3 9.98 3 11 3 C11 3.66 11 4.32 11 5 C11.78375 4.938125 12.5675 4.87625 13.375 4.8125 C14.674375 4.9053125 14.674375 4.9053125 16 5 C16.99 6.485 16.99 6.485 18 8 C20.55183404 9.20450304 20.55183404 9.20450304 23 10 C22.67 10.99 22.34 11.98 22 13 C22.66 13 23.32 13 24 13 C23.67 13.66 23.34 14.32 23 15 C22.17757813 14.40832031 21.35515625 13.81664062 20.5078125 13.20703125 C13.91387969 8.52001663 7.41012816 4.32870317 0 1 C0 0.67 0 0.34 0 0 Z " fill="#F5C9C7" transform="translate(326,154)"/>
<path d="M0 0 C4.93993492 0.81938314 9.87771682 1.65019079 14.8125 2.5 C15.58787109 2.63019531 16.36324219 2.76039063 17.16210938 2.89453125 C22.88608631 3.88608631 22.88608631 3.88608631 24 5 C26.01964199 5.07244053 28.04167124 5.08377188 30.0625 5.0625 C31.71958984 5.04896484 31.71958984 5.04896484 33.41015625 5.03515625 C34.69212891 5.01775391 34.69212891 5.01775391 36 5 C35.67 5.66 35.34 6.32 35 7 C30.05 7 25.1 7 20 7 C20 6.34 20 5.68 20 5 C19.39414062 5.04640625 18.78828125 5.0928125 18.1640625 5.140625 C11.25855509 5.43809301 6.20786398 3.95864155 0 1 C0 0.67 0 0.34 0 0 Z " fill="#EB5F45" transform="translate(272,293)"/>
<path d="M0 0 C12.54 0 25.08 0 38 0 C38 0.33 38 0.66 38 1 C37.0934668 1.0093457 36.18693359 1.01869141 35.25292969 1.02832031 C31.8304904 1.0728129 28.40921378 1.13463302 24.98730469 1.20751953 C23.51736529 1.23542977 22.04728415 1.25679029 20.57714844 1.27099609 C11.02373892 1.36874585 2.95781965 2.26650107 -6 6 C-6 5.34 -6 4.68 -6 4 C-5.34 4 -4.68 4 -4 4 C-4 3.34 -4 2.68 -4 2 C-2.68 2 -1.36 2 0 2 C0 1.34 0 0.68 0 0 Z " fill="#F56E57" transform="translate(288,179)"/>
<path d="M0 0 C1.23666047 3.57257469 0.89093449 6.35526801 0 10 C-0.99 10.495 -0.99 10.495 -2 11 C-2.61345591 12.73279488 -3.16665875 14.48715269 -3.6875 16.25 C-5.65359939 21.99878491 -7.75376177 24.0742133 -13 27 C-11.68329219 24.33921461 -10.32048565 21.71171601 -8.90625 19.1015625 C-8.51566406 18.37453125 -8.12507813 17.6475 -7.72265625 16.8984375 C-6.91080917 15.3888688 -6.09572738 13.88103505 -5.27734375 12.375 C-3.10854301 8.32370885 -1.29512785 4.43440514 0 0 Z " fill="#F8B7B1" transform="translate(371,245)"/>
<path d="M0 0 C1.56041016 -0.00386719 1.56041016 -0.00386719 3.15234375 -0.0078125 C5.63915971 0.10567977 7.69342407 0.40571429 10.0625 1.125 C10.0625 1.785 10.0625 2.445 10.0625 3.125 C2.8025 3.125 -4.4575 3.125 -11.9375 3.125 C-7.75499921 0.33666614 -4.92520558 -0.01217603 0 0 Z " fill="#404146" transform="translate(452.9375,221.875)"/>
<path d="M0 0 C0.99 0.495 0.99 0.495 2 1 C2.4140625 3.28515625 2.4140625 3.28515625 2.625 6.0625 C2.69976563 6.98160156 2.77453125 7.90070313 2.8515625 8.84765625 C2.92503906 9.91306641 2.92503906 9.91306641 3 11 C3.66 11 4.32 11 5 11 C5 16.28 5 21.56 5 27 C4.34 27 3.68 27 3 27 C2.91697632 26.09906616 2.91697632 26.09906616 2.83227539 25.17993164 C2.58029218 22.47366869 2.3214883 19.76810116 2.0625 17.0625 C1.93198242 15.64420898 1.93198242 15.64420898 1.79882812 14.19726562 C1.71181641 13.29814453 1.62480469 12.39902344 1.53515625 11.47265625 C1.456604 10.64000244 1.37805176 9.80734863 1.29711914 8.94946289 C1.19688602 6.999388 1.19688602 6.999388 0 6 C-0.04080783 4.00041636 -0.04254356 1.99954746 0 0 Z " fill="#6A6B6F" transform="translate(719,205)"/>
<path d="M0 0 C0.33 0 0.66 0 1 0 C1.08636719 1.134375 1.17273438 2.26875 1.26171875 3.4375 C2.23528259 15.06032683 2.23528259 15.06032683 8 25 C8.66 25.33 9.32 25.66 10 26 C9.67 26.66 9.34 27.32 9 28 C3.49711736 22.80283306 -0.75587053 18.01183442 -1.1328125 10.2734375 C-1.13023437 9.31695312 -1.12765625 8.36046875 -1.125 7.375 C-1.12757813 6.41335937 -1.13015625 5.45171875 -1.1328125 4.4609375 C-1 2 -1 2 0 0 Z " fill="#F0715B" transform="translate(285,200)"/>
<path d="M0 0 C-1 2 -2 4 -3 6 C-0.69 6.33 1.62 6.66 4 7 C4 7.33 4 7.66 4 8 C-1.28 8 -6.56 8 -12 8 C-11 5 -11 5 -8.125 3.4375 C-7.09375 2.963125 -6.0625 2.48875 -5 2 C-2 0 -2 0 0 0 Z " fill="#A7A9AE" transform="translate(465,207)"/>
<path d="M0 0 C0 0.66 0 1.32 0 2 C-0.87978516 2.36931641 -0.87978516 2.36931641 -1.77734375 2.74609375 C-4.34305497 4.19353365 -5.71261038 5.78221101 -7.5625 8.0625 C-10.67024793 11.89008264 -10.67024793 11.89008264 -14 13 C-14 13.99 -14 14.98 -14 16 C-14.66 16 -15.32 16 -16 16 C-14.71770782 10.96554604 -12.93160903 8.54193968 -9 5.1875 C-8.113125 4.41792969 -7.22625 3.64835938 -6.3125 2.85546875 C-2.75368421 0 -2.75368421 0 0 0 Z " fill="#343639" transform="translate(637,185)"/>
<path d="M0 0 C0.66 0 1.32 0 2 0 C1.71872579 1.48117801 1.42466268 2.95993249 1.125 4.4375 C0.96257812 5.26121094 0.80015625 6.08492187 0.6328125 6.93359375 C0.42398438 7.61550781 0.21515625 8.29742187 0 9 C-0.99 9.495 -0.99 9.495 -2 10 C-2.60076256 12.27399754 -2.9563154 14.55130576 -3.33984375 16.87109375 C-4 19 -4 19 -7 21 C-6.505 16.545 -6.505 16.545 -6 12 C-5.34 12 -4.68 12 -4 12 C-3.896875 11.13375 -3.79375 10.2675 -3.6875 9.375 C-2.96601586 5.83316877 -1.72876739 3.15687958 0 0 Z " fill="#EE6751" transform="translate(235,188)"/>
<path d="M0 0 C0.6875 1.6875 0.6875 1.6875 1 4 C-0.56664922 7.2116309 -2.39141444 9.59207487 -5 12 C-5.886875 12.886875 -6.77375 13.77375 -7.6875 14.6875 C-8.450625 15.450625 -9.21375 16.21375 -10 17 C-8.51647746 10.73623815 -4.55944809 4.55944809 0 0 Z " fill="#F58773" transform="translate(304,238)"/>
<path d="M0 0 C0 3 0 3 -1.4375 4.5 C-1.953125 4.995 -2.46875 5.49 -3 6 C-3.33 6.99 -3.66 7.98 -4 9 C-4.66 9 -5.32 9 -6 9 C-6 16.26 -6 23.52 -6 31 C-8 29 -8 29 -8.23046875 25.55078125 C-8.22647395 24.13795388 -8.21170188 22.72512571 -8.1875 21.3125 C-8.18685547 20.61705078 -8.18621094 19.92160156 -8.18554688 19.20507812 C-8.08576061 7.3305124 -8.08576061 7.3305124 -5.37109375 4.00390625 C-4.73300781 3.52824219 -4.09492188 3.05257812 -3.4375 2.5625 C-2.79683594 2.06878906 -2.15617187 1.57507813 -1.49609375 1.06640625 C-1.00238281 0.71449219 -0.50867188 0.36257812 0 0 Z " fill="#ED664D" transform="translate(276,189)"/>
<path d="M0 0 C0.99 0 1.98 0 3 0 C3 0.66 3 1.32 3 2 C2.34 2 1.68 2 1 2 C1 2.99 1 3.98 1 5 C-4.61 5 -10.22 5 -16 5 C-15.67 3.68 -15.34 2.36 -15 1 C-14.67 1.66 -14.34 2.32 -14 3 C-9.38 3 -4.76 3 0 3 C0 2.01 0 1.02 0 0 Z " fill="#FEC8BC" transform="translate(284,265)"/>
<path d="M0 0 C0.33 0 0.66 0 1 0 C1 9.9 1 19.8 1 30 C0.01 30 -0.98 30 -2 30 C-1.34 20.1 -0.68 10.2 0 0 Z " fill="#F5C1BF" transform="translate(374,214)"/>
<path d="M0 0 C1.31571603 0.2547514 2.62760376 0.52934141 3.9375 0.8125 C4.66839844 0.96332031 5.39929688 1.11414063 6.15234375 1.26953125 C6.76207031 1.51058594 7.37179687 1.75164062 8 2 C9 5 9 5 8.5 6.875 C7.8793405 9.51280286 8.34952865 11.3981146 9 14 C5.25876024 9.7045025 2.65848126 5.00099548 0 0 Z " fill="#EDDDE4" transform="translate(358,177)"/>
<path d="M0 0 C1.32 0.33 2.64 0.66 4 1 C-4.34854437 5.32335334 -11.54091429 8.36501508 -21 9 C-19.68 8.67 -18.36 8.34 -17 8 C-17 7.34 -17 6.68 -17 6 C-15.7625 5.67 -14.525 5.34 -13.25 5 C-12.20585937 4.7215625 -12.20585937 4.7215625 -11.140625 4.4375 C-9 4 -9 4 -5 4 C-5 3.34 -5 2.68 -5 2 C-3.35 2 -1.7 2 0 2 C0 1.34 0 0.68 0 0 Z " fill="#EC563C" transform="translate(332,289)"/>
<path d="M0 0 C5.28886566 4.8959785 7.41255022 10.95060259 8 18 C6 15 6 15 5.0625 13 C4.13827867 10.94127646 4.13827867 10.94127646 2.4375 9.75 C0.06970784 6.86747041 0.29987295 3.65844994 0 0 Z " fill="#EE6D59" transform="translate(363,186)"/>
<path d="M0 0 C-1.65 0.33 -3.3 0.66 -5 1 C-5.33 1.99 -5.66 2.98 -6 4 C-9.71055417 6.01430083 -12.82851735 6.19402245 -17 6 C-15.49631918 2.99263836 -13.23800706 2.59983611 -10.1875 1.3125 C-9.12917969 0.85488281 -8.07085937 0.39726562 -6.98046875 -0.07421875 C-4.01633704 -0.99492545 -2.82503443 -1.12864571 0 0 Z " fill="#EF6D56" transform="translate(283,153)"/>
<path d="M0 0 C0.33 0.66 0.66 1.32 1 2 C0.0625 4.125 0.0625 4.125 -1 6 C-1.66 6 -2.32 6 -3 6 C-3.19335938 6.61488281 -3.38671875 7.22976562 -3.5859375 7.86328125 C-3.84632813 8.67152344 -4.10671875 9.47976562 -4.375 10.3125 C-4.75785156 11.51326172 -4.75785156 11.51326172 -5.1484375 12.73828125 C-6 15 -6 15 -8 18 C-8.125 14.625 -8.125 14.625 -8 11 C-7.34 10.34 -6.68 9.68 -6 9 C-5.3574765 6.93125966 -5.3574765 6.93125966 -5 5 C-4.34 5 -3.68 5 -3 5 C-2.814375 4.0409375 -2.814375 4.0409375 -2.625 3.0625 C-2.41875 2.381875 -2.2125 1.70125 -2 1 C-1.34 0.67 -0.68 0.34 0 0 Z " fill="#F9C1BD" transform="translate(238,182)"/>
<path d="M0 0 C2.0625 0.4375 2.0625 0.4375 4 1 C2.68000515 3.63998971 1.63086688 3.70014976 -1.125 4.625 C-5.27470263 5.94626532 -8.67204229 6.27625262 -13 6 C-9.68769806 4.20583645 -6.24441002 2.95022474 -2.70703125 1.68359375 C-0.99789742 1.12908298 -0.99789742 1.12908298 0 0 Z " fill="#F8B9B4" transform="translate(329,292)"/>
<path d="M0 0 C1.25552169 3.57275971 0.72908409 5.90628805 -0.3125 9.5 C-0.57675781 10.4384375 -0.84101562 11.376875 -1.11328125 12.34375 C-1.90248061 14.70787144 -2.81791454 16.81133521 -4 19 C-4.66 19 -5.32 19 -6 19 C-4.125 12.125 -4.125 12.125 -3 11 C-2.855625 9.906875 -2.71125 8.81375 -2.5625 7.6875 C-2.08526936 4.55898801 -1.59539315 2.65898859 0 0 Z " fill="#66686C" transform="translate(721,233)"/>
<path d="M0 0 C0.66 0.33 1.32 0.66 2 1 C-0.77779328 4.99307785 -2.49526679 7.21133443 -7.3125 8.375 C-8.529375 8.58125 -9.74625 8.7875 -11 9 C-9.33333333 7.33333333 -7.66666667 5.66666667 -6 4 C-5.46375 3.4225 -4.9275 2.845 -4.375 2.25 C-3 1 -3 1 0 0 Z " fill="#EF604A" transform="translate(264,159)"/>
<path d="M0 0 C0.66 0 1.32 0 2 0 C2.86963087 2.99706695 3.11763099 5.64956526 3.09765625 8.765625 C3.09443359 9.65507812 3.09121094 10.54453125 3.08789062 11.4609375 C3.07951172 12.38132813 3.07113281 13.30171875 3.0625 14.25 C3.05798828 15.18585938 3.05347656 16.12171875 3.04882812 17.0859375 C3.03706918 19.39069041 3.02063426 21.69531227 3 24 C2.67 24 2.34 24 2 24 C1.93941406 22.71222656 1.87882812 21.42445313 1.81640625 20.09765625 C1.73201753 18.41925841 1.6473687 16.74087364 1.5625 15.0625 C1.52318359 14.21236328 1.48386719 13.36222656 1.44335938 12.48632812 C1.40146484 11.67744141 1.35957031 10.86855469 1.31640625 10.03515625 C1.27974854 9.2862915 1.24309082 8.53742676 1.20532227 7.76586914 C1.18228937 5.97538674 1.18228937 5.97538674 0 5 C-0.04063832 3.33382885 -0.042721 1.66611905 0 0 Z " fill="#F3DCE1" transform="translate(373,208)"/>
<path d="M0 0 C6.15234375 -0.09765625 6.15234375 -0.09765625 8 0 C8.33 0.33 8.66 0.66 9 1 C11.69235776 1.23678716 14.36498156 1.42198025 17.0625 1.5625 C18.20041992 1.62727539 18.20041992 1.62727539 19.36132812 1.69335938 C21.24065438 1.79973633 23.12030244 1.90039934 25 2 C25 2.33 25 2.66 25 3 C22.14557247 3.05437005 19.29219924 3.09384974 16.4375 3.125 C15.63763672 3.14175781 14.83777344 3.15851563 14.01367188 3.17578125 C8.93499665 3.21723982 4.81188094 2.64056075 0 1 C0 0.67 0 0.34 0 0 Z " fill="#A5A7AC" transform="translate(536,269)"/>
<path d="M0 0 C-3.51187196 2.40814077 -5.72656908 3.36629408 -10 3 C-10.33 3.99 -10.66 4.98 -11 6 C-12.32 5.67 -13.64 5.34 -15 5 C-10.60265582 1.11999043 -5.9714844 -2.29672477 0 0 Z " fill="#535458" transform="translate(540,214)"/>
<path d="M0 0 C0.66 0 1.32 0 2 0 C1.32599282 3.91114026 -0.54256033 6.87119182 -2.5625 10.25 C-3.20316406 11.32765625 -3.84382813 12.4053125 -4.50390625 13.515625 C-4.99761719 14.33546875 -5.49132812 15.1553125 -6 16 C-7 13 -7 13 -6 10 C-5.34 9.67 -4.68 9.34 -4 9 C-3.34786708 6.97536745 -3.34786708 6.97536745 -3 5 C-2.34 5 -1.68 5 -1 5 C-0.67 3.35 -0.34 1.7 0 0 Z " fill="#FEDDD3" transform="translate(294,249)"/>
<path d="M0 0 C0.33 0.66 0.66 1.32 1 2 C0.06421005 4.35981813 -0.93347808 6.69631264 -2 9 C-2.66 9 -3.32 9 -4 9 C-4.33 10.32 -4.66 11.64 -5 13 C-5.66 13 -6.32 13 -7 13 C-5.35821735 8.22390502 -2.73453298 4.20617096 0 0 Z " fill="#FCCCBE" transform="translate(280,249)"/>
<path d="M0 0 C0.33 0 0.66 0 1 0 C1.33 2.31 1.66 4.62 2 7 C2.66 7 3.32 7 4 7 C4 7.66 4 8.32 4 9 C1 11 1 11 -2 11 C-2.24042276 6.91281305 -1.42258812 3.82320557 0 0 Z " fill="#4E4F50" transform="translate(521,213)"/>
<path d="M0 0 C0.66 0.33 1.32 0.66 2 1 C0.92173635 2.27513763 -0.16285519 3.54492569 -1.25 4.8125 C-1.85328125 5.52019531 -2.4565625 6.22789062 -3.078125 6.95703125 C-4.92370398 8.91889671 -6.79945332 10.45669625 -9 12 C-6.78854247 7.20850869 -4.43836824 2.95891216 0 0 Z " fill="#FEDDD2" transform="translate(281,185)"/>
<path d="M0 0 C1.175625 0.598125 2.35125 1.19625 3.5625 1.8125 C7.32026874 3.69473354 11.12110647 5.38379436 15 7 C15 7.33 15 7.66 15 8 C12.36 7.67 9.72 7.34 7 7 C6.67 6.01 6.34 5.02 6 4 C2.99152582 2.77479736 2.99152582 2.77479736 0 2 C0 1.34 0 0.68 0 0 Z " fill="#F9C4C0" transform="translate(257,286)"/>
<path d="M0 0 C1.17487036 0.75827092 2.33972592 1.53207755 3.5 2.3125 C4.47453125 2.95638672 4.47453125 2.95638672 5.46875 3.61328125 C5.9740625 4.07089844 6.479375 4.52851563 7 5 C7 5.99 7 6.98 7 8 C3.76912579 7.44295272 1.97638863 6.66812465 0 4 C0 2.68 0 1.36 0 0 Z " fill="#F5B1A5" transform="translate(243,272)"/>
<path d="M0 0 C-1.36983503 3.16115776 -1.9890638 3.9927092 -5 6 C-6.65549531 6.38499891 -8.3222433 6.72793135 -10 7 C-4.84210526 0 -4.84210526 0 0 0 Z " fill="#B1B3B8" transform="translate(647,192)"/>
<path d="M0 0 C0.66 0.33 1.32 0.66 2 1 C-0.21928194 3.90802461 -1.92969143 5.95312762 -5 8 C-5.99 7.67 -6.98 7.34 -8 7 C-5.36 4.69 -2.72 2.38 0 0 Z " fill="#2C2D30" transform="translate(529,185)"/>
<path d="M0 0 C0.66 0.33 1.32 0.66 2 1 C1.67 1.66 1.34 2.32 1 3 C0.34 3 -0.32 3 -1 3 C-1.0825 3.78375 -1.165 4.5675 -1.25 5.375 C-2 8 -2 8 -4.0625 9.3125 C-5.0215625 9.6528125 -5.0215625 9.6528125 -6 10 C-4.6302836 6.00499382 -2.74277578 3.19990508 0 0 Z " fill="#ED634E" transform="translate(245,174)"/>
<path d="M0 0 C1.65 0.99 3.3 1.98 5 3 C3.50163895 6.11198065 1.80066242 9.0534615 0 12 C0 8.38970831 0.96092582 5.44193324 2 2 C1.34 2 0.68 2 0 2 C0 1.34 0 0.68 0 0 Z " fill="#EF634D" transform="translate(282,236)"/>
<path d="M0 0 C0.66 0.33 1.32 0.66 2 1 C1.21654285 2.17219543 0.42297164 3.33763668 -0.375 4.5 C-0.81585937 5.1496875 -1.25671875 5.799375 -1.7109375 6.46875 C-2.13632812 6.9740625 -2.56171875 7.479375 -3 8 C-3.66 8 -4.32 8 -5 8 C-5 8.66 -5 9.32 -5 10 C-5.66 10 -6.32 10 -7 10 C-5.6062718 5.56541027 -3.39417765 3.12621626 0 0 Z " fill="#A1A4A9" transform="translate(533,194)"/>
<path d="M0 0 C0 3 0 3 -2.3125 5.5 C-3.199375 6.325 -4.08625 7.15 -5 8 C-5.8971875 8.8971875 -5.8971875 8.8971875 -6.8125 9.8125 C-7.204375 10.204375 -7.59625 10.59625 -8 11 C-7.42415568 8.61435923 -6.77772405 6.33317216 -6 4 C-5.34 4 -4.68 4 -4 4 C-4 3.01 -4 2.02 -4 1 C-2.68 0.67 -1.36 0.34 0 0 Z " fill="#F7CBC8" transform="translate(247,171)"/>
<path d="M0 0 C0 3.60352128 -1.08590249 5.01400788 -3 8 C-3.33 8.66 -3.66 9.32 -4 10 C-4.99 9.67 -5.98 9.34 -7 9 C-6.67 8.01 -6.34 7.02 -6 6 C-5.34 6 -4.68 6 -4 6 C-3.71125 5.38125 -3.4225 4.7625 -3.125 4.125 C-2 2 -2 2 0 0 Z " fill="#9EA1A6" transform="translate(714,252)"/>
<path d="M0 0 C0.6875 1.6875 0.6875 1.6875 1 4 C-0.375 6.75 -0.375 6.75 -2 9 C-2.33 9 -2.66 9 -3 9 C-3.36923077 3.46153846 -3.36923077 3.46153846 -1.5 1.125 C-1.005 0.75375 -0.51 0.3825 0 0 Z " fill="#F46851" transform="translate(304,238)"/>
<path d="M0 0 C0.99 0.33 1.98 0.66 3 1 C3.36923077 6.53846154 3.36923077 6.53846154 1.5 8.875 C0.7575 9.431875 0.7575 9.431875 0 10 C-0.66 9.67 -1.32 9.34 -2 9 C-1.484375 8.2575 -0.96875 7.515 -0.4375 6.75 C1.24942772 4.16784546 1.24942772 4.16784546 0.6875 1.6875 C0.460625 1.130625 0.23375 0.57375 0 0 Z " fill="#FED8CE" transform="translate(285,237)"/>
<path d="M0 0 C0.99 0 1.98 0 3 0 C2.61479436 2.53910197 2.29902057 3.72751123 0.37109375 5.484375 C-0.26699219 5.90203125 -0.90507812 6.3196875 -1.5625 6.75 C-2.20316406 7.17796875 -2.84382813 7.6059375 -3.50390625 8.046875 C-4.24447266 8.51867187 -4.24447266 8.51867187 -5 9 C-3.49901406 5.88256767 -1.97568178 2.84498177 0 0 Z " fill="#F7C9C8" transform="translate(363,263)"/>
<path d="M0 0 C2.475 0.99 2.475 0.99 5 2 C5.33 4.31 5.66 6.62 6 9 C3.59927045 6.11912454 1.52708963 3.43595166 0 0 Z " fill="#F2D4D3" transform="translate(358,177)"/>
<path d="M0 0 C2.22825644 2.22825644 2.69239369 3.65761628 3.625 6.625 C4.01558594 7.85089844 4.01558594 7.85089844 4.4140625 9.1015625 C4.60742188 9.72804688 4.80078125 10.35453125 5 11 C4.01 10.67 3.02 10.34 2 10 C0.47839986 6.3962102 0 3.94779314 0 0 Z " fill="#FAC1BD" transform="translate(231,252)"/>
<path d="M0 0 C2 1 2 1 2.625 2.5625 C3.16368951 6.06398181 3.05903219 9.45806833 3 13 C2.67 13 2.34 13 2 13 C0.54815522 8.46298506 -0.23509196 4.81938524 0 0 Z " fill="#515357" transform="translate(719,205)"/>
<path d="M0 0 C0.66 0.33 1.32 0.66 2 1 C2.625 4.0625 2.625 4.0625 3 7 C0.69 5.35 -1.62 3.7 -4 2 C-2.125 0.9375 -2.125 0.9375 0 0 Z " fill="#B8BAC2" transform="translate(708,185)"/>
<path d="M0 0 C5.4611399 0.35233161 5.4611399 0.35233161 8 1 C9.5 3.0625 9.5 3.0625 10 5 C6.08788267 3.84414715 3.1254959 2.64465038 0 0 Z " fill="#F9C2C0" transform="translate(326,154)"/>
<path d="M0 0 C5.75 1.875 5.75 1.875 8 3 C8 3.99 8 4.98 8 6 C4.08597051 4.73058503 2.20927127 3.48832306 0 0 Z " fill="#ED6A56" transform="translate(252,281)"/>
<path d="M0 0 C2.5 2.3125 2.5 2.3125 5 5 C5 5.99 5 6.98 5 8 C2.5 6.25 2.5 6.25 0 4 C0 2.68 0 1.36 0 0 Z " fill="#F47662" transform="translate(272,224)"/>
<path d="M0 0 C1.32 0.33 2.64 0.66 4 1 C3 3 3 3 -0.0625 4.125 C-1.031875 4.41375 -2.00125 4.7025 -3 5 C-3 4.34 -3 3.68 -3 3 C-2.34 3 -1.68 3 -1 3 C-0.67 2.01 -0.34 1.02 0 0 Z " fill="#F6C1C0" transform="translate(329,292)"/>
<path d="M0 0 C1.32 0.33 2.64 0.66 4 1 C-1.75 5 -1.75 5 -4 5 C-4 4.34 -4 3.68 -4 3 C-3.01 3 -2.02 3 -1 3 C-0.67 2.01 -0.34 1.02 0 0 Z " fill="#EE543D" transform="translate(340,284)"/>
<path d="M0 0 C2.475 0.99 2.475 0.99 5 2 C4.01 2.33 3.02 2.66 2 3 C2 3.66 2 4.32 2 5 C0.35 4.67 -1.3 4.34 -3 4 C-2.01 3.67 -1.02 3.34 0 3 C0 2.01 0 1.02 0 0 Z " fill="#D1D2DD" transform="translate(583,226)"/>
<path d="M0 0 C-2.64 1.98 -5.28 3.96 -8 6 C-7.8125 3.625 -7.8125 3.625 -7 1 C-2.77108434 -1.38554217 -2.77108434 -1.38554217 0 0 Z " fill="#F8C6C5" transform="translate(260,162)"/>
</svg>
