<svg width="76" height="60" viewBox="0 0 76 60" fill="none" xmlns="http://www.w3.org/2000/svg">
<path d="M3.25033 23.2021H14.2399V24.7079L5.39478 36.136H14.4561V37.7977H3.03418V36.292L11.8793 24.8639H3.25033V23.2021ZM21.8887 25.1478L19.3214 32.4126H24.4654L21.8887 25.1478ZM20.8193 23.2021H22.9656L28.2974 37.7977H26.3292L25.057 34.0543H18.7488L17.4746 37.7977H15.4781L20.8193 23.2021ZM32.2222 30.8269V36.174H35.2578C36.276 36.174 37.0306 35.954 37.5217 35.5141C38.0128 35.0742 38.2574 34.4003 38.2574 33.4964C38.2574 32.5846 38.0128 31.9107 37.5217 31.4768C37.0306 31.0448 36.276 30.8269 35.2578 30.8269H32.2222ZM32.2222 24.8239V29.2231H35.0246C35.9499 29.2231 36.6382 29.0412 37.0913 28.6812C37.5445 28.3193 37.7701 27.7674 37.7701 27.0255C37.7701 26.2896 37.5426 25.7377 37.0913 25.3738C36.6382 25.0098 35.9499 24.8259 35.0246 24.8259H32.2222V24.8239ZM30.3299 23.2021H35.1649C36.6078 23.2021 37.7208 23.5141 38.5001 24.14C39.2813 24.7659 39.67 25.6557 39.67 26.8095C39.67 27.7014 39.4709 28.4133 39.0708 28.9412C38.6707 29.4691 38.083 29.7991 37.3094 29.929C38.2403 30.137 38.9627 30.5709 39.4785 31.2328C39.9942 31.8947 40.2521 32.7206 40.2521 33.7104C40.2521 35.0142 39.8273 36.02 38.9779 36.7319C38.1285 37.4418 36.9188 37.7977 35.3526 37.7977H30.3299V23.2021ZM45.1799 30.8269V36.174H48.2174C49.2356 36.174 49.9903 35.954 50.4794 35.5141C50.9705 35.0742 51.2151 34.4003 51.2151 33.4964C51.2151 32.5846 50.9705 31.9107 50.4794 31.4768C49.9884 31.0448 49.2337 30.8269 48.2174 30.8269H45.1799ZM45.1799 24.8239V29.2231H47.9823C48.9076 29.2231 49.5959 29.0412 50.049 28.6812C50.5022 28.3193 50.7278 27.7674 50.7278 27.0255C50.7278 26.2896 50.5022 25.7377 50.049 25.3738C49.5959 25.0098 48.9076 24.8259 47.9823 24.8259H45.1799V24.8239ZM43.2877 23.2021H48.1226C49.5655 23.2021 50.6785 23.5141 51.4578 24.14C52.239 24.7659 52.6296 25.6557 52.6296 26.8095C52.6296 27.7014 52.4305 28.4133 52.0304 28.9412C51.6303 29.4691 51.0426 29.7991 50.269 29.929C51.1999 30.137 51.9223 30.5709 52.4381 31.2328C52.9538 31.8947 53.2117 32.7206 53.2117 33.7104C53.2117 35.0142 52.787 36.02 51.9375 36.7319C51.0881 37.4418 49.8784 37.7977 48.3122 37.7977H43.2877V23.2021ZM61.725 23.2021H63.8069L67.0966 28.4433L70.4185 23.2021H72.4302L68.0996 30.039L72.9687 37.7977H70.8868L67.0548 31.6907L63.185 37.7977H61.1732L66.0537 30.095L61.725 23.2021ZM56.2435 23.2021H58.1357V37.7977H56.2435V23.2021Z" fill="#D40000"/>
</svg>
