<svg width="299" height="45" viewBox="0 0 299 45" fill="none" xmlns="http://www.w3.org/2000/svg">
<path opacity="0.2" d="M298 45H0V0H287L298 19.4367V45Z" fill="#8EBDE6"/>
<path d="M62.5688 12.319V32.5579H112V12.319H62.5688ZM110.102 30.6647H64.4664V14.2122H110.102V30.6647Z" fill="white"/>
<path d="M73.0245 25.4898C74.7135 25.4898 76.0827 24.1236 76.0827 22.4385C76.0827 20.7533 74.7135 19.3871 73.0245 19.3871C71.3355 19.3871 69.9663 20.7533 69.9663 22.4385C69.9663 24.1236 71.3355 25.4898 73.0245 25.4898Z" fill="white"/>
<path d="M82.5314 25.4898C84.2204 25.4898 85.5896 24.1236 85.5896 22.4385C85.5896 20.7533 84.2204 19.3871 82.5314 19.3871C80.8424 19.3871 79.4731 20.7533 79.4731 22.4385C79.4731 24.1236 80.8424 25.4898 82.5314 25.4898Z" fill="white"/>
<path d="M92.0377 25.4898C93.7265 25.4898 95.0959 24.1235 95.0959 22.4385C95.0959 20.7535 93.7265 19.3871 92.0377 19.3871C90.3489 19.3871 88.9795 20.7535 88.9795 22.4385C88.9795 24.1235 90.3489 25.4898 92.0377 25.4898Z" fill="white"/>
<path d="M101.545 25.4898C103.233 25.4898 104.603 24.1235 104.603 22.4385C104.603 20.7535 103.233 19.3871 101.545 19.3871C99.8557 19.3871 98.4863 20.7535 98.4863 22.4385C98.4863 24.1235 99.8557 25.4898 101.545 25.4898Z" fill="white"/>
<path d="M25.5449 16.5031H27.2622L28.6601 18.7687L30.0611 16.5031H31.7783V22.3564H30.1623V18.9958L28.6632 21.2867H28.6284L27.1357 19.0116V22.3564H25.5449V16.5031Z" fill="white"/>
<path d="M33.0781 19.7879V16.5031H34.729V19.7563C34.729 20.602 35.1559 21.0027 35.8106 21.0027C36.4652 21.0027 36.8922 20.6177 36.8922 19.7973V16.5031H38.543V19.7468C38.543 21.6369 37.4614 22.4637 35.7948 22.4637C34.1281 22.4637 33.0781 21.6212 33.0781 19.7879Z" fill="white"/>
<path d="M39.8394 16.5031H41.4649V20.9333H44.3049V22.3532H39.8394V16.5031Z" fill="white"/>
<path d="M45.9337 17.923H44.1753V16.5031H49.3208V17.923H47.5624V22.3532H45.9368V17.923H45.9337Z" fill="white"/>
<path d="M50.3994 16.5031H52.0345V22.3564H50.3994V16.5031Z" fill="white"/>
<path d="M16 26.7046H20.6933V28.1245H17.6256V29.1185H20.3991V30.4659H17.6256V32.5547H16V26.7014V26.7046Z" fill="white"/>
<path d="M23.122 26.6636H24.6906L27.1891 32.5579H25.4465L25.0195 31.5135H22.7583L22.3408 32.5579H20.6299L23.1283 26.6636H23.122ZM24.5451 30.2513L23.8937 28.5884L23.2327 30.2513H24.5483H24.5451Z" fill="white"/>
<path d="M27.5146 29.6328C27.5146 27.9289 28.8303 26.591 30.6076 26.591C31.8063 26.591 32.5526 27.1085 33.0713 27.8279L31.8822 28.7462C31.5469 28.3296 31.1548 28.0709 30.5918 28.0709C29.7696 28.0709 29.1908 28.7651 29.1908 29.6328C29.1908 30.5006 29.7696 31.1979 30.5918 31.1979C31.2022 31.1979 31.5627 30.914 31.9169 30.488L33.1409 31.3589C32.5874 32.1193 31.841 32.681 30.5444 32.681C28.8682 32.681 27.5178 31.403 27.5178 29.6392L27.5146 29.6328Z" fill="white"/>
<path d="M35.5987 28.1277H33.8403V26.7078H38.9858V28.1277H37.2274V32.5579H35.6019V28.1277H35.5987Z" fill="white"/>
<path d="M39.5803 29.6328C39.5803 27.9542 40.9371 26.591 42.746 26.591C44.555 26.591 45.896 27.9384 45.896 29.6328C45.896 31.3273 44.5392 32.6747 42.7271 32.6747C40.9149 32.6747 39.5771 31.3305 39.5771 29.6328H39.5803ZM44.2388 29.6328C44.2388 28.7903 43.6252 28.052 42.7302 28.052C41.8352 28.052 41.247 28.7714 41.247 29.6328C41.247 30.4943 41.8605 31.2137 42.746 31.2137C43.6316 31.2137 44.2388 30.4943 44.2388 29.6328Z" fill="white"/>
<path d="M47.082 26.7046H49.8556C50.7506 26.7046 51.3736 26.9381 51.7658 27.3325C52.1105 27.6765 52.2845 28.1277 52.2845 28.7209C52.2845 29.6139 51.8069 30.2103 51.0764 30.5195L52.4774 32.5611H50.602L49.4192 30.7877H48.7076V32.5611H47.082V26.7077V26.7046ZM49.7797 29.5161C50.3332 29.5161 50.6526 29.2479 50.6526 28.8061C50.6526 28.3643 50.3173 28.1119 49.7734 28.1119H48.7076V29.5161H49.7797Z" fill="white"/>
<path d="M128 11.0002L128 33.9998" stroke="white" stroke-width="0.5"/>
<path d="M146.22 24.713C145.9 24.713 145.604 24.661 145.332 24.557C145.064 24.449 144.83 24.299 144.63 24.107C144.434 23.911 144.28 23.683 144.168 23.423C144.056 23.163 144 22.877 144 22.565C144 22.253 144.056 21.967 144.168 21.707C144.28 21.447 144.436 21.221 144.636 21.029C144.836 20.833 145.07 20.683 145.338 20.579C145.61 20.471 145.906 20.417 146.226 20.417C146.55 20.417 146.848 20.473 147.12 20.585C147.396 20.693 147.63 20.855 147.822 21.071L147.432 21.449C147.272 21.281 147.092 21.157 146.892 21.077C146.692 20.993 146.478 20.951 146.25 20.951C146.014 20.951 145.794 20.991 145.59 21.071C145.39 21.151 145.216 21.263 145.068 21.407C144.92 21.551 144.804 21.723 144.72 21.923C144.64 22.119 144.6 22.333 144.6 22.565C144.6 22.797 144.64 23.013 144.72 23.213C144.804 23.409 144.92 23.579 145.068 23.723C145.216 23.867 145.39 23.979 145.59 24.059C145.794 24.139 146.014 24.179 146.25 24.179C146.478 24.179 146.692 24.139 146.892 24.059C147.092 23.975 147.272 23.847 147.432 23.675L147.822 24.053C147.63 24.269 147.396 24.433 147.12 24.545C146.848 24.657 146.548 24.713 146.22 24.713ZM154.528 24.713C154.208 24.713 153.91 24.659 153.634 24.551C153.362 24.443 153.126 24.293 152.926 24.101C152.726 23.905 152.57 23.677 152.458 23.417C152.346 23.157 152.29 22.873 152.29 22.565C152.29 22.257 152.346 21.973 152.458 21.713C152.57 21.453 152.726 21.227 152.926 21.035C153.126 20.839 153.362 20.687 153.634 20.579C153.906 20.471 154.204 20.417 154.528 20.417C154.848 20.417 155.142 20.471 155.41 20.579C155.682 20.683 155.918 20.833 156.118 21.029C156.322 21.221 156.478 21.447 156.586 21.707C156.698 21.967 156.754 22.253 156.754 22.565C156.754 22.877 156.698 23.163 156.586 23.423C156.478 23.683 156.322 23.911 156.118 24.107C155.918 24.299 155.682 24.449 155.41 24.557C155.142 24.661 154.848 24.713 154.528 24.713ZM154.528 24.179C154.76 24.179 154.974 24.139 155.17 24.059C155.37 23.979 155.542 23.867 155.686 23.723C155.834 23.575 155.948 23.403 156.028 23.207C156.112 23.011 156.154 22.797 156.154 22.565C156.154 22.333 156.112 22.119 156.028 21.923C155.948 21.727 155.834 21.557 155.686 21.413C155.542 21.265 155.37 21.151 155.17 21.071C154.974 20.991 154.76 20.951 154.528 20.951C154.292 20.951 154.074 20.991 153.874 21.071C153.678 21.151 153.506 21.265 153.358 21.413C153.21 21.557 153.094 21.727 153.01 21.923C152.93 22.119 152.89 22.333 152.89 22.565C152.89 22.797 152.93 23.011 153.01 23.207C153.094 23.403 153.21 23.575 153.358 23.723C153.506 23.867 153.678 23.979 153.874 24.059C154.074 24.139 154.292 24.179 154.528 24.179ZM162.809 24.713C162.465 24.713 162.149 24.671 161.861 24.587C161.576 24.499 161.343 24.379 161.159 24.227L161.362 23.759C161.53 23.899 161.739 24.007 161.986 24.083C162.239 24.159 162.514 24.197 162.814 24.197C163.218 24.197 163.519 24.131 163.715 23.999C163.91 23.863 164.008 23.679 164.008 23.447C164.008 23.287 163.966 23.155 163.882 23.051C163.799 22.943 163.681 22.865 163.528 22.817C163.38 22.765 163.205 22.739 163 22.739H162.01V22.253H162.97C163.242 22.253 163.452 22.203 163.601 22.103C163.753 21.999 163.828 21.845 163.828 21.641C163.828 21.473 163.782 21.339 163.691 21.239C163.599 21.135 163.476 21.059 163.324 21.011C163.176 20.963 163.013 20.939 162.833 20.939C162.689 20.939 162.538 20.953 162.382 20.981C162.23 21.009 162.082 21.049 161.938 21.101C161.795 21.149 161.66 21.205 161.536 21.269L161.362 20.789C161.578 20.669 161.812 20.579 162.064 20.519C162.32 20.455 162.574 20.423 162.826 20.423C163.038 20.423 163.24 20.447 163.432 20.495C163.624 20.539 163.794 20.607 163.942 20.699C164.094 20.791 164.212 20.909 164.296 21.053C164.384 21.197 164.428 21.365 164.428 21.557C164.428 21.749 164.384 21.923 164.296 22.079C164.212 22.235 164.09 22.359 163.931 22.451C163.771 22.543 163.584 22.589 163.372 22.589L163.403 22.415C163.618 22.415 163.819 22.457 164.003 22.541C164.187 22.625 164.333 22.747 164.441 22.907C164.552 23.063 164.608 23.255 164.608 23.483C164.608 23.719 164.538 23.931 164.399 24.119C164.263 24.303 164.06 24.449 163.792 24.557C163.528 24.661 163.201 24.713 162.809 24.713ZM170.002 24.251L169.354 24.143C169.51 24.155 169.638 24.103 169.738 23.987C169.842 23.867 169.922 23.701 169.978 23.489C170.038 23.273 170.082 23.023 170.11 22.739C170.138 22.451 170.158 22.143 170.17 21.815L170.212 20.465H173.164V24.383H172.57V20.987H170.728L170.698 21.869C170.686 22.165 170.666 22.449 170.638 22.721C170.614 22.993 170.578 23.239 170.53 23.459C170.482 23.675 170.414 23.853 170.326 23.993C170.242 24.133 170.134 24.219 170.002 24.251ZM169.204 25.583L169.21 24.143H173.782V25.583H173.224V24.665H169.768L169.762 25.583H169.204ZM178.22 24.665L180.122 20.465H180.716L182.624 24.665H181.994L180.296 20.801H180.536L178.838 24.665H178.22ZM179.03 23.615L179.192 23.135H181.556L181.73 23.615H179.03ZM190.561 24.665V20.465H191.161V24.665H190.561ZM187.549 24.665V20.465H188.149V24.665H187.549ZM188.089 22.793V22.271H190.615V22.793H188.089ZM198.561 24.713C198.241 24.713 197.943 24.659 197.667 24.551C197.395 24.443 197.159 24.293 196.959 24.101C196.759 23.905 196.603 23.677 196.491 23.417C196.379 23.157 196.323 22.873 196.323 22.565C196.323 22.257 196.379 21.973 196.491 21.713C196.603 21.453 196.759 21.227 196.959 21.035C197.159 20.839 197.395 20.687 197.667 20.579C197.939 20.471 198.237 20.417 198.561 20.417C198.881 20.417 199.175 20.471 199.443 20.579C199.715 20.683 199.951 20.833 200.151 21.029C200.355 21.221 200.511 21.447 200.619 21.707C200.731 21.967 200.787 22.253 200.787 22.565C200.787 22.877 200.731 23.163 200.619 23.423C200.511 23.683 200.355 23.911 200.151 24.107C199.951 24.299 199.715 24.449 199.443 24.557C199.175 24.661 198.881 24.713 198.561 24.713ZM198.561 24.179C198.793 24.179 199.007 24.139 199.203 24.059C199.403 23.979 199.575 23.867 199.719 23.723C199.867 23.575 199.981 23.403 200.061 23.207C200.145 23.011 200.187 22.797 200.187 22.565C200.187 22.333 200.145 22.119 200.061 21.923C199.981 21.727 199.867 21.557 199.719 21.413C199.575 21.265 199.403 21.151 199.203 21.071C199.007 20.991 198.793 20.951 198.561 20.951C198.325 20.951 198.107 20.991 197.907 21.071C197.711 21.151 197.539 21.265 197.391 21.413C197.243 21.557 197.127 21.727 197.043 21.923C196.963 22.119 196.923 22.333 196.923 22.565C196.923 22.797 196.963 23.011 197.043 23.207C197.127 23.403 197.243 23.575 197.391 23.723C197.539 23.867 197.711 23.979 197.907 24.059C198.107 24.139 198.325 24.179 198.561 24.179ZM211.768 24.665V20.465H213.574C214.03 20.465 214.388 20.557 214.648 20.741C214.908 20.925 215.038 21.193 215.038 21.545C215.038 21.889 214.914 22.153 214.666 22.337C214.418 22.517 214.092 22.607 213.688 22.607L213.796 22.427C214.264 22.427 214.622 22.521 214.87 22.709C215.122 22.893 215.248 23.163 215.248 23.519C215.248 23.879 215.116 24.161 214.852 24.365C214.592 24.565 214.204 24.665 213.688 24.665H211.768ZM212.362 24.191H213.676C213.996 24.191 214.236 24.133 214.396 24.017C214.56 23.897 214.642 23.715 214.642 23.471C214.642 23.227 214.56 23.049 214.396 22.937C214.236 22.825 213.996 22.769 213.676 22.769H212.362V24.191ZM212.362 22.313H213.532C213.824 22.313 214.046 22.255 214.198 22.139C214.354 22.023 214.432 21.853 214.432 21.629C214.432 21.401 214.354 21.229 214.198 21.113C214.046 20.997 213.824 20.939 213.532 20.939H212.362V22.313Z" fill="white"/>
<path d="M235.158 21.7729C235.021 21.4413 234.787 21.1562 234.495 20.9584C234.204 20.7606 233.855 20.6442 233.478 20.6442C233.101 20.6442 232.752 20.7606 232.461 20.9584C232.169 21.1562 231.941 21.4413 231.798 21.7729C231.781 21.8195 231.769 21.8718 231.752 21.9184C231.695 22.0987 231.655 22.2907 231.655 22.4943C231.655 22.698 231.695 22.89 231.752 23.0703C231.769 23.1169 231.775 23.1692 231.798 23.2158C232.003 23.7045 232.409 24.0826 232.912 24.2514C233.089 24.3095 233.278 24.3503 233.478 24.3503C233.678 24.3503 233.867 24.3095 234.044 24.2514C234.421 24.1234 234.741 23.8848 234.97 23.5648C235.044 23.4601 235.107 23.3438 235.158 23.2216C235.25 23.0005 235.301 22.7561 235.301 22.5002C235.301 22.2442 235.25 21.9998 235.158 21.7787V21.7729Z" fill="white"/>
<path d="M240.656 21.7728C240.519 21.4411 240.285 21.1561 239.993 20.9524C239.702 20.7488 239.347 20.6324 238.97 20.6324C238.593 20.6324 238.238 20.7488 237.947 20.9524C237.655 21.1561 237.421 21.4353 237.284 21.7728C237.267 21.8193 237.255 21.8717 237.238 21.9182C237.181 22.0986 237.141 22.2906 237.141 22.4942C237.141 22.6978 237.181 22.8898 237.238 23.0702C237.255 23.1167 237.261 23.1691 237.284 23.2156C237.49 23.7101 237.901 24.0825 238.404 24.2512C238.581 24.3094 238.77 24.3501 238.97 24.3501C239.17 24.3501 239.359 24.3094 239.536 24.2512C239.913 24.1232 240.239 23.8847 240.462 23.5589C240.536 23.4542 240.599 23.3378 240.65 23.2098C240.742 22.9887 240.793 22.7444 240.793 22.4826C240.793 22.2207 240.742 21.9822 240.65 21.7553L240.656 21.7728Z" fill="white"/>
<path d="M252.636 16.9086H253.733L254.95 18.8984L256.168 16.9086H257.265V21.6154H256.254V18.5435L254.95 20.5507H254.922L253.636 18.5609V21.6096H252.641V16.9028L252.636 16.9086Z" fill="white"/>
<path d="M262.123 16.9087H263.227L261.449 20.5449C261.049 21.3652 260.586 21.6852 259.934 21.6852C259.54 21.6852 259.226 21.5805 258.94 21.4118L259.334 20.6496C259.517 20.766 259.706 20.8067 259.883 20.8067C260.06 20.8067 260.277 20.7195 260.466 20.4286L258.614 16.9087H259.752L261.009 19.393L262.123 16.9087Z" fill="white"/>
<path d="M267.81 16.9204V21.6271H266.793V17.8571H265.461V18.212C265.461 20.9813 265.021 21.6853 263.964 21.6853C263.798 21.6853 263.552 21.6562 263.427 21.6271L263.495 20.7718C263.541 20.7777 263.587 20.7835 263.655 20.7835C264.204 20.7835 264.513 20.4286 264.513 17.892V16.9146H267.816L267.81 16.9204Z" fill="white"/>
<path d="M269.291 16.9086H270.308V18.5086H271.291C272.36 18.5086 272.983 19.1137 272.983 20.0329C272.983 20.9987 272.309 21.6096 271.229 21.6096H269.291V16.9028V16.9086ZM270.308 19.3987V20.6845H271.211C271.714 20.6845 271.972 20.4634 271.972 20.0271C271.972 19.6314 271.714 19.4045 271.206 19.4045H270.308V19.3987Z" fill="white"/>
<path d="M274.777 17.8628H273.371V16.9087H277.2V17.8628H275.794V21.6154H274.777V17.8628Z" fill="white"/>
<path d="M282.248 21.6154H281.242V18.5319L279.218 21.6154H278.258V16.9087H279.264V19.9922L281.299 16.9087H282.242V21.6154H282.248Z" fill="white"/>
<path d="M254.928 28.0797V27.7364C253.499 27.7364 252.636 26.8346 252.636 25.6478C252.636 24.4609 253.51 23.6057 254.928 23.6057V23.3439H255.945V23.6057C257.357 23.6057 258.237 24.4726 258.237 25.6536C258.237 26.8346 257.374 27.7364 255.945 27.7364V28.0797H254.928ZM254.922 24.5249C254.173 24.5249 253.676 24.9729 253.676 25.6652C253.676 26.3576 254.179 26.8172 254.922 26.8172V24.5249ZM255.939 26.8172C256.688 26.8172 257.179 26.375 257.179 25.6652C257.179 24.9554 256.682 24.5249 255.939 24.5249V26.8172Z" fill="white"/>
<path d="M260.449 23.3439H261.386L263.37 28.0797H262.307L261.884 27.0266H259.929L259.506 28.0797H258.472L260.455 23.3439H260.449ZM261.518 26.1132L260.906 24.5889L260.295 26.1132H261.524H261.518Z" fill="white"/>
<path d="M264.083 23.3788H265.1V25.4383L266.975 23.3788H268.204L266.323 25.3743L268.289 28.0855H267.066L265.632 26.0841L265.094 26.6485V28.0855H264.077V23.3788H264.083Z" fill="white"/>
<path d="M269.976 24.3329H268.57V23.3788H272.399V24.3329H270.993V28.0855H269.976V24.3329Z" fill="white"/>
<path d="M272.776 25.7291C272.776 24.391 273.811 23.2972 275.24 23.2972C276.669 23.2972 277.692 24.3794 277.692 25.7291C277.692 27.0789 276.657 28.161 275.228 28.161C273.799 28.161 272.776 27.0789 272.776 25.7291ZM276.623 25.7291C276.623 24.9204 276.04 24.2514 275.223 24.2514C274.405 24.2514 273.834 24.9088 273.834 25.7291C273.834 26.5495 274.417 27.2069 275.234 27.2069C276.051 27.2069 276.623 26.5495 276.623 25.7291Z" fill="white"/>
<path d="M278.589 23.3788H280.475C281.578 23.3788 282.247 24.042 282.247 25.0194C282.247 26.1074 281.412 26.6717 280.378 26.6717H279.606V28.0855H278.589V23.3788ZM280.412 25.7467C280.921 25.7467 281.218 25.4383 281.218 25.0194C281.218 24.554 280.904 24.3097 280.395 24.3097H279.612V25.7467H280.418H280.412Z" fill="white"/>
<path d="M247.143 33.6763H225.248V11.3237H247.143V33.6763ZM226.62 32.28H245.772V12.72H226.62V32.28Z" fill="white"/>
<path d="M243.377 20.9524C243.085 21.1502 242.851 21.4353 242.714 21.7728C242.697 21.8193 242.685 21.8717 242.668 21.9182C242.611 22.0986 242.571 22.2906 242.571 22.4942C242.571 22.6978 242.611 22.8898 242.668 23.0702C242.685 23.1167 242.691 23.1691 242.714 23.2156C242.919 23.7101 243.325 24.0825 243.828 24.2512C244.005 24.3094 244.194 24.3501 244.394 24.3501V20.6324C244.017 20.6324 243.662 20.7488 243.371 20.9524H243.377Z" fill="white"/>
<path d="M229.672 21.7728C229.535 21.4411 229.3 21.1561 229.009 20.9524C228.717 20.7546 228.363 20.6324 227.986 20.6324V24.3501C228.186 24.3501 228.374 24.3094 228.552 24.2512C228.929 24.1232 229.255 23.8847 229.478 23.5589C229.552 23.4542 229.615 23.3378 229.666 23.2156C229.758 22.9945 229.809 22.7502 229.809 22.4942C229.809 22.2382 229.758 21.9938 229.666 21.7728H229.672Z" fill="white"/>
</svg>
