<svg width="24" height="47" viewBox="0 0 24 47" fill="none" xmlns="http://www.w3.org/2000/svg">
<path d="M9.36451 46.1008C9.41569 45.2192 9.71508 44.387 10.064 43.6038C10.413 42.8207 10.8116 42.0866 11.2598 41.3036C11.708 40.5696 12.2059 39.8357 12.7037 39.1508C13.2511 38.466 13.7986 37.7811 14.3956 37.1454C14.9926 36.5096 15.5896 35.8738 16.2363 35.2382C16.8828 34.6515 17.6287 34.1139 18.4238 33.7724C19.219 33.3819 20.1133 33.1385 21.0075 32.9441C21.9017 32.7987 22.8453 32.7514 23.7886 32.8999L23.8873 33.243C23.2901 33.9767 22.6435 34.5634 22.0466 35.1502C21.4497 35.688 20.8032 36.2257 20.2065 36.7145C19.6097 37.2034 18.9634 37.6431 18.2179 37.9847C17.522 38.3754 16.8262 38.7171 16.1798 39.2058C15.5333 39.6945 14.8869 40.1833 14.2901 40.721C13.6933 41.2099 13.0964 41.7966 12.4995 42.3834C11.9025 42.9702 11.3553 43.5571 10.8576 44.193C10.3599 44.829 9.8622 45.4649 9.56297 46.1991L9.36451 46.1008Z" fill="#4082BC"/>
<path d="M0.959321 24.3373C2.25199 23.4578 3.79244 22.8726 5.33264 22.4344L6.47532 22.1425L7.66757 21.8996C8.46237 21.7541 9.20742 21.6574 10.0021 21.5608C10.7969 21.4642 11.542 21.3185 12.2872 21.1728C13.0323 21.0272 13.7773 20.9795 14.522 21.0787C14.8696 21.0793 15.2668 21.129 15.6143 21.1786C15.9619 21.2282 16.359 21.2778 16.7066 21.3274C17.1038 21.3771 17.4512 21.4757 17.8483 21.5743C18.2454 21.673 18.6426 21.7226 19.0892 21.9194L19.1879 22.2624C18.8894 22.6048 18.5414 22.8491 18.1932 23.1424C17.8452 23.3867 17.4476 23.582 17.0996 23.7773C16.7021 23.9236 16.3541 24.1189 15.9567 24.2162C15.5593 24.3135 15.1618 24.4108 14.7644 24.5081C14.367 24.5564 13.9697 24.6047 13.5723 24.653C13.175 24.6523 12.7777 24.6516 12.3806 24.6019C11.5862 24.5026 10.8414 24.4033 10.047 24.353C9.30218 24.3027 8.55737 24.2524 7.7629 24.2021L6.62083 24.1511L5.52831 24.1492C4.03853 24.1467 2.5485 24.291 1.05804 24.6803L0.959321 24.3373Z" fill="#4082BC"/>
<path d="M6.95941 0.786378C8.7469 0.936416 10.5341 1.23341 12.2713 1.72625C13.1648 1.97271 14.0086 2.21909 14.8522 2.56344C15.6959 2.8588 16.5394 3.25213 17.383 3.64546C18.2265 4.03879 19.07 4.48111 19.9133 4.97241C20.7567 5.46371 21.5004 6.15077 22.0453 6.93546C22.5902 7.72015 23.0357 8.55366 23.3818 9.43597C23.7279 10.3183 23.925 11.2003 23.9729 12.2291L23.6746 12.4245C22.7815 11.9821 22.0376 11.393 21.3433 10.853C20.649 10.313 20.0044 9.77304 19.4094 9.23318C18.8144 8.69333 18.269 8.20254 17.7237 7.61379C17.1785 7.02503 16.5835 6.48518 15.9388 5.99422C15.2941 5.50327 14.5499 5.06112 13.8555 4.61906C13.1113 4.17692 12.3672 3.73478 11.623 3.34162C10.085 2.50623 8.49707 1.81771 6.85941 1.17808L6.95941 0.786378Z" fill="#4082BC"/>
</svg>
