<svg width="34" height="53" viewBox="0 0 34 53" fill="none" xmlns="http://www.w3.org/2000/svg">
<path d="M28.1461 49.647C26.4754 48.6837 24.7638 47.7769 23.0353 47.0716C22.6032 46.8952 22.1711 46.7189 21.739 46.5426C21.3069 46.3662 20.8748 46.1899 20.4017 46.07C19.5375 45.7173 18.6404 45.4695 17.7433 45.2216C16.8462 44.9737 15.9162 44.8306 14.9862 44.6875C14.0562 44.5444 13.1671 44.3449 12.3109 44.0405C11.4138 43.7926 10.5496 43.44 9.63638 43.0954C9.42435 43.0314 9.20427 42.9191 8.98419 42.8068C8.76411 42.6944 8.60106 42.6223 8.38903 42.5583C8.01395 42.4221 7.63887 42.2859 7.20606 42.4076L6.9209 42.2068C7.01958 41.8924 7.23232 41.6584 7.50209 41.4645C7.77186 41.2706 8.05772 41.1733 8.33554 41.0277C8.6214 40.9305 8.91531 40.8815 9.20922 40.8326C9.45415 40.7918 9.69907 40.751 9.99298 40.7021C11.0297 40.5791 12.0335 40.5609 13.0615 40.6877C13.5755 40.7511 14.0895 40.8145 14.5625 40.9343C15.0356 41.0542 15.5167 41.2224 15.9978 41.3906L17.4082 41.9999L18.7696 42.6174C19.6989 43.0585 20.5792 43.5079 21.4595 43.9572C21.8997 44.1818 22.2989 44.463 22.7471 44.7359C23.1953 45.0089 23.5945 45.2901 23.9937 45.5712C25.5986 46.744 27.1136 47.9815 28.4568 49.3966L28.1461 49.647Z" fill="#4082BC"/>
<path d="M30.1034 26.4162C28.2514 26.1783 26.4646 26.029 24.6448 25.9844L23.282 25.963L21.9272 25.99L20.5724 26.017L19.2257 26.0923C18.7768 26.1174 18.3359 26.1908 17.887 26.2159L16.5644 26.4361C16.1235 26.5095 15.6827 26.5829 15.2337 26.608C14.7848 26.6331 14.3359 26.6582 13.928 26.6268C13.471 26.6036 13.0221 26.6287 12.5651 26.6055C12.1082 26.5823 11.6512 26.559 11.1862 26.4875C10.7293 26.4643 10.2643 26.3927 9.79925 26.3212C9.33425 26.2496 8.82026 26.1862 8.33916 26.0181L8.28284 25.6798C8.67543 25.3165 9.08411 25.0498 9.49279 24.7831C9.90147 24.5164 10.3672 24.2899 10.792 24.1199C11.2657 23.9416 11.6905 23.7716 12.1642 23.5934C12.646 23.4635 13.0789 23.3418 13.5607 23.2119C14.0505 23.1303 14.4914 23.0569 14.9893 23.0236C15.4872 22.9904 15.9441 23.0136 16.4501 23.0287L17.886 23.1868C18.351 23.2584 18.857 23.2734 19.322 23.345L20.7009 23.463L22.0959 23.6776L23.4989 23.9406L24.8611 24.26C26.7043 24.7476 28.4576 25.2998 30.194 26.0535L30.1034 26.4162Z" fill="#4082BC"/>
<path d="M23.0663 1.60778C22.3966 1.81862 21.9872 2.38338 21.6349 2.9883C21.2825 3.59322 20.8483 4.3111 20.3979 4.93233C19.9476 5.55357 19.4973 6.1748 18.998 6.8042C18.4906 7.38527 17.9343 7.9745 17.3779 8.56373C16.8136 9.10464 16.2572 9.69388 15.7009 10.2831C15.1365 10.824 14.458 11.2846 13.7065 11.6084C12.9549 11.9322 12.1953 12.2077 11.4115 12.3382C10.5788 12.4768 9.73797 12.5672 8.85694 12.4159L8.70265 12.094C9.17783 11.3197 9.74221 10.7788 10.2496 10.1977C10.765 9.66494 11.3374 9.17234 11.8609 8.68791C12.4413 8.24363 13.0299 7.84768 13.6264 7.50004C14.28 7.19257 14.9256 6.83678 15.5141 6.44082C16.1027 6.04486 16.6831 5.60059 17.2636 5.15632C17.8441 4.71204 18.4246 4.26776 18.997 3.77517C19.5695 3.28258 20.0929 2.79814 20.7063 2.24907C21.017 1.9987 21.3277 1.74832 21.7444 1.52995C22.1122 1.31974 22.545 1.19801 23.0019 1.22123L23.0663 1.60778Z" fill="#4082BC"/>
</svg>
