<svg width="352" height="396" viewBox="0 0 352 396" fill="none" xmlns="http://www.w3.org/2000/svg">
<path d="M263.105 390.712H243.035V396H263.105V390.712Z" fill="#32454D"/>
<path d="M352 384.51C352 387.967 349.263 390.712 345.817 390.712H239.183C235.737 390.712 233 387.967 233 384.51V251.203C233 247.745 235.737 245 239.183 245H345.817C349.263 245 352 247.745 352 251.203V384.51Z" fill="#9D9D9D"/>
<path d="M338.113 259.236H246.785V376.375H338.113V259.236Z" fill="#CFCFCF"/>
<path d="M245.366 257.812V378.002H339.735V257.812H245.366ZM338.113 376.375H246.785V259.236H338.113V376.375Z" fill="#ADD7E0"/>
<path d="M245.366 257.812V378.002H339.735V257.812H245.366ZM338.113 376.375H246.785V259.236H338.113V376.375Z" fill="#66727B"/>
<path d="M340.85 379.121H244.15V256.592H340.85V379.121ZM248.002 375.257H336.998V260.456H248.002V375.257Z" fill="#32454D"/>
<path d="M341.762 390.712H321.693V396H341.762V390.712Z" fill="#32454D"/>
<path d="M342.066 281.301C342.066 284.25 340.039 286.69 337.505 286.69H331.322C328.788 286.69 326.761 284.25 326.761 281.301C326.761 278.352 328.788 275.912 331.322 275.912H337.606C340.039 275.81 342.066 278.251 342.066 281.301Z" fill="#A8A8A8"/>
<path d="M344.094 287.199C344.094 288.826 342.776 290.147 341.154 290.147C339.532 290.147 338.215 288.826 338.215 287.199V274.692C338.215 273.065 339.532 271.743 341.154 271.743C342.776 271.743 344.094 273.065 344.094 274.692V287.199Z" fill="#B7B7B7"/>
<path d="M342.066 357.36C342.066 360.309 340.039 362.749 337.505 362.749H331.221C328.687 362.749 326.659 360.309 326.659 357.36C326.659 354.411 328.687 351.971 331.221 351.971H337.505C340.039 351.971 342.066 354.411 342.066 357.36Z" fill="#A8A8A8"/>
<path d="M344.094 363.36C344.094 364.987 342.776 366.308 341.154 366.308C339.532 366.308 338.215 364.987 338.215 363.36V350.751C338.215 349.124 339.532 347.802 341.154 347.802C342.776 347.802 344.094 349.124 344.094 350.751V363.36Z" fill="#B7B7B7"/>
<path d="M296.352 289.944H291.486V345.87H296.352V289.944Z" fill="#717171"/>
<path d="M321.794 315.365H266.044V320.246H321.794V315.365Z" fill="#717171"/>
<path d="M293.919 287.199C276.991 287.199 263.307 300.926 263.307 317.907C263.307 334.888 276.991 348.615 293.919 348.615C310.847 348.615 324.531 334.888 324.531 317.907C324.531 300.926 310.745 287.199 293.919 287.199ZM293.919 342.921C280.134 342.921 268.882 331.736 268.882 317.805C268.882 303.976 280.134 292.791 293.919 292.791C307.704 292.791 318.956 303.976 318.956 317.907C318.956 331.736 307.704 342.921 293.919 342.921Z" fill="#717171"/>
<path d="M302.738 317.805C302.738 322.686 298.784 326.652 293.919 326.652C289.054 326.652 285.1 322.686 285.1 317.805C285.1 312.925 289.054 308.959 293.919 308.959C298.784 309.061 302.738 312.925 302.738 317.805Z" fill="#32454D"/>
<path d="M143.686 248.926C134.666 247.339 123.51 242.976 113.145 235.28C98.3497 224.331 103.809 210.526 82.209 195.213C82.209 195.213 55.1496 206.638 68.4419 234.01C81.7343 261.383 106.657 262.811 127.941 262.097C133.796 261.859 139.414 261.462 144.398 260.986L143.686 248.926Z" fill="#4082BC"/>
<path d="M144.398 260.907C157.532 259.558 166.711 257.654 166.711 257.654C166.711 257.654 163.467 248.53 154.051 249.482C151.203 249.799 147.642 249.561 143.686 248.847L144.398 260.907Z" fill="#FFE2D2"/>
<path opacity="0.45" d="M127.704 243.769C122.877 241.627 117.972 238.771 113.225 235.28C98.3497 224.331 103.809 210.526 82.209 195.213C82.209 195.213 55.1496 206.638 68.4419 234.01C80.3892 258.526 101.594 262.255 121.216 262.176C124.776 255.591 126.675 248.926 127.704 243.769Z" fill="url(#paint0_linear)"/>
<path d="M66.2266 384.467L61.9541 396H92.0993L76.4333 386.615L66.2266 384.467Z" fill="#4082BC"/>
<path d="M80.152 276.936C80.152 276.936 108.715 271.448 122.324 282.981C135.853 294.514 109.506 346.052 76.5124 386.535L66.3058 384.388C66.3058 384.388 93.7608 332.69 93.3652 310.023C92.8905 287.435 80.152 276.936 80.152 276.936Z" fill="#32454D"/>
<path opacity="0.3" d="M107.053 342.553C122.957 315.113 131.185 290.537 122.324 282.981C108.794 271.448 80.152 276.936 80.152 276.936C80.152 276.936 92.8905 287.435 93.2861 310.102C93.4443 317.579 90.5168 328.157 86.6399 339.053C92.0201 340.644 98.8246 341.996 107.053 342.553Z" fill="url(#paint1_linear)"/>
<path d="M76.5122 189.183C76.5122 189.183 71.132 186.565 73.9803 179.425C73.9803 179.425 69.7078 174.823 73.1891 170.777C73.1891 170.777 69.866 161.494 76.0375 157.051C82.2089 152.608 86.8771 156.972 89.7255 156.099C92.5738 155.226 102.86 149.831 106.341 155.702C109.743 161.573 105.233 167.286 99.853 167.92L86.0068 180.932L76.5122 189.183Z" fill="#153351"/>
<path d="M72.1606 196.959L76.5914 189.183C76.5914 189.183 80.1519 186.486 79.9145 184.026C79.598 181.567 81.4178 180.297 81.4178 180.297C81.4178 180.297 76.6705 179.107 77.1453 173.792C77.62 168.476 84.2662 168 86.4024 171.729C88.4596 175.537 92.0992 170.856 92.3365 167.92C92.3365 167.92 96.2926 169.666 99.853 167.92C99.853 167.92 99.2201 175.378 102.464 179.583C102.464 179.583 101.119 180.694 99.3783 180.853C99.3783 180.853 100.17 186.962 96.2135 189.818C91.308 193.388 87.5101 191.167 87.5101 191.167L81.6552 201.719L72.1606 196.959Z" fill="#FFE2D2"/>
<path d="M80.6267 194.341C45.9716 179.583 17.8836 253.052 22.1561 285.819L57.9189 297.085L80.1519 276.933C87.4311 252.258 97.0839 201.402 80.6267 194.341Z" fill="#4082BC"/>
<path opacity="0.45" d="M85.4533 255.432L52.9345 227.187C48.9784 260.907 55.7037 287.327 55.7037 287.327L69.7082 286.375L80.1522 276.933C81.8928 270.983 83.7917 263.445 85.4533 255.432Z" fill="url(#paint2_linear)"/>
<path d="M137.673 384.994L136.407 396H164.574L147.959 384.994H137.673Z" fill="#4082BC"/>
<path d="M80.152 276.933C80.152 276.933 56.8904 285.026 22.2354 285.819C22.631 288.596 23.1848 291.135 24.0551 293.277C34.8947 320.253 48.1871 320.253 92.4949 323.585C140.205 327.234 137.752 384.994 137.752 384.994H148.038C148.038 384.994 157.216 361.509 145.348 329.059C133.321 296.609 80.152 276.933 80.152 276.933Z" fill="#32454D"/>
<path d="M122.324 228.615L112.671 221.951C103.018 234.962 87.1148 247.657 87.1148 247.657C92.8906 216.794 89.884 194.817 76.4334 194.42C45.1014 193.468 43.5981 278.044 77.2246 273.521C98.8247 270.586 114.095 245.832 122.324 228.615Z" fill="#4082BC"/>
<path d="M136.091 199.815C131.897 196.245 124.935 196.879 118.289 212.43C117.023 215.524 114.965 218.777 112.592 221.951L122.245 228.615C126.754 219.015 129.128 211.716 129.128 211.716C134.587 210.526 140.363 203.306 136.091 199.815Z" fill="#FFE2D2"/>
<path d="M59.6596 328.825H56.1782V387.219H59.6596V328.825Z" fill="#32454D"/>
<path d="M83.6332 387.219H32.2045V389.837H83.6332V387.219Z" fill="#32454D"/>
<path d="M28.5791 396C32.2777 396 35.2771 392.994 35.2783 389.285C35.2796 385.577 32.2823 382.57 28.5837 382.57C24.885 382.57 21.8857 385.577 21.8844 389.285C21.8832 392.994 24.8805 396 28.5791 396Z" fill="#32454D"/>
<path d="M28.5823 393.346C26.2914 393.346 24.5292 391.491 24.5292 389.282C24.5292 386.984 26.3795 385.217 28.5823 385.217C30.7851 385.217 32.6355 387.073 32.6355 389.282C32.6355 391.579 30.7851 393.346 28.5823 393.346Z" fill="#EDF2FE"/>
<path d="M80.4802 389.282C80.4802 385.571 83.476 382.567 87.1767 382.567C90.8774 382.567 93.8732 385.571 93.8732 389.282C93.8732 392.993 90.8774 395.997 87.1767 395.997C83.476 395.997 80.4802 392.993 80.4802 389.282Z" fill="#32454D"/>
<path d="M87.2649 393.346C89.5558 393.346 91.318 391.491 91.318 389.282C91.318 386.985 89.4677 385.218 87.2649 385.218C84.974 385.218 83.2118 387.073 83.2118 389.282C83.1237 391.579 84.974 393.346 87.2649 393.346Z" fill="#EDF2FE"/>
<path fill-rule="evenodd" clip-rule="evenodd" d="M15.2173 288.711C15.9426 288.373 16.8033 288.689 17.1397 289.417L33.7552 325.358C34.0916 326.086 33.7762 326.949 33.0509 327.286C32.3256 327.624 31.4648 327.308 31.1285 326.58L14.513 290.639C14.1766 289.911 14.4919 289.048 15.2173 288.711Z" fill="#32454D"/>
<path d="M81.6552 331.364H34.1034C31.6507 331.364 29.5935 329.38 29.5935 326.842C29.5935 324.382 31.5715 322.319 34.1034 322.319H81.6552C84.108 322.319 86.1651 324.303 86.1651 326.842C86.1651 329.38 84.1871 331.364 81.6552 331.364Z" fill="#FF7E85"/>
<path d="M16.3802 290.822C13.4528 290.822 11 288.441 11 285.426V241.076C11 238.14 13.3736 235.681 16.3802 235.681C19.3077 235.681 21.7605 238.061 21.7605 241.076V285.426C21.7605 288.441 19.3077 290.822 16.3802 290.822Z" fill="#FF7E85"/>
<path d="M153.579 264.61H198.958C200.044 264.61 200.975 263.68 200.975 262.594C200.975 261.508 200.044 260.577 198.958 260.577H153.579C152.493 260.577 151.562 261.508 151.562 262.594C151.562 263.68 152.415 264.61 153.579 264.61Z" fill="#4082BC"/>
<path d="M220.445 217.525C219.824 217.215 219.049 217.525 218.816 218.146L199.578 259.336C199.268 259.956 199.578 260.732 200.199 260.965C200.82 261.275 201.595 260.965 201.828 260.344L221.066 219.154C221.298 218.533 221.066 217.758 220.445 217.525Z" fill="#4082BC"/>
<path d="M249.224 264.61H138.762V268.877H249.224V264.61Z" fill="#32454D"/>
<path d="M196.088 268.877H191.976V392.447H196.088V268.877Z" fill="#32454D"/>
<path d="M224.505 392H164V396H224.505V392Z" fill="#32454D"/>
<path opacity="0.3" d="M196.088 268.877H191.976V277.177H196.088V268.877Z" fill="url(#paint3_linear)"/>
<rect x="180" y="158.376" width="146" height="5.15294" fill="#FF7E85"/>
<rect x="180" y="163.529" width="146" height="5.15294" fill="#32454C"/>
<path fill-rule="evenodd" clip-rule="evenodd" d="M292.346 136.746C293.712 136.746 294.82 135.638 294.82 134.271H303.729V158.027H280.963V134.271H289.871C289.871 135.638 290.979 136.746 292.346 136.746Z" fill="#B8CEDF"/>
<rect x="189.447" y="151.506" width="47.2353" height="6.87059" fill="#4082BC"/>
<rect x="198.035" y="145.494" width="38.6471" height="6.01176" fill="#153351"/>
<rect x="206.624" y="138.624" width="30.0588" height="6.87059" fill="#B8CEDF"/>
<rect x="244.412" y="112" width="46.3765" height="6.87059" transform="rotate(90 244.412 112)" fill="#153351"/>
<rect x="253" y="116.294" width="42.0824" height="7.72941" transform="rotate(90 253 116.294)" fill="#B8CEDF"/>
<rect x="257.625" y="120.591" width="36.9883" height="4.98261" transform="rotate(77.917 257.625 120.591)" fill="#FF7E85"/>
<rect x="89" y="101" width="30" height="30" fill="white"/>
<rect x="92" y="104" width="24" height="24" fill="#BBC4D4"/>
<rect x="94" y="106" width="20" height="20" fill="#DB6066"/>
<rect x="50" y="101" width="30" height="30" fill="white"/>
<rect x="53" y="104" width="24" height="24" fill="#BBC4D4"/>
<rect x="55" y="106" width="20" height="20" fill="#4082BC"/>
<rect x="11" y="101" width="30" height="30" fill="white"/>
<rect x="14" y="104" width="24" height="24" fill="#BBC4D4"/>
<rect x="16" y="106" width="20" height="20" fill="#F86434"/>
<path d="M0 393L155 86H185L341 393H0Z" fill="url(#paint4_linear)"/>
<rect x="169.746" width="1.93993" height="52.3781" fill="#F74308"/>
<path d="M161.986 58.8445V65.9576H179.122V58.8445C179.122 56.258 176.212 52.3781 170.716 52.3781C165.219 52.3781 161.986 55.288 161.986 58.8445Z" fill="#F74308"/>
<path d="M162.633 65.9576C150.734 65.9576 145.078 79.4258 144 86H195C195 76.6237 185.588 65.9576 179.122 65.9576H162.633Z" fill="#F86434"/>
<defs>
<linearGradient id="paint0_linear" x1="87.7249" y1="226.667" x2="129.089" y2="247.761" gradientUnits="userSpaceOnUse">
<stop stop-opacity="0.6"/>
<stop offset="0.8969" stop-opacity="0"/>
</linearGradient>
<linearGradient id="paint1_linear" x1="108.099" y1="271.681" x2="82.9779" y2="351.683" gradientUnits="userSpaceOnUse">
<stop offset="0.3506"/>
<stop offset="0.875" stop-opacity="0"/>
</linearGradient>
<linearGradient id="paint2_linear" x1="82.9431" y1="254.549" x2="42.2498" y2="258.763" gradientUnits="userSpaceOnUse">
<stop/>
<stop offset="0.7462" stop-opacity="0"/>
</linearGradient>
<linearGradient id="paint3_linear" x1="194" y1="277.157" x2="194" y2="268.854" gradientUnits="userSpaceOnUse">
<stop stop-opacity="0"/>
<stop offset="0.8645"/>
</linearGradient>
<linearGradient id="paint4_linear" x1="170.5" y1="86" x2="170.5" y2="373.658" gradientUnits="userSpaceOnUse">
<stop stop-color="white"/>
<stop offset="1" stop-color="white" stop-opacity="0"/>
</linearGradient>
</defs>
</svg>
