<svg width="235" height="33" viewBox="0 0 235 33" fill="none" xmlns="http://www.w3.org/2000/svg">
<path d="M15.5099 22.4513C14.595 22.4513 13.8542 23.2138 13.8542 24.1288C13.8542 25.022 14.5732 25.8063 15.5099 25.8063C16.4467 25.8063 17.1874 25.022 17.1874 24.1288C17.1874 23.2138 16.425 22.4513 15.5099 22.4513Z" fill="#32454D"/>
<path d="M15.7931 9.75018C12.852 9.75018 11.5013 11.493 11.5013 12.6694C11.5013 13.5191 12.2202 13.9112 12.8085 13.9112C13.9848 13.9112 13.5056 12.2337 15.7277 12.2337C16.817 12.2337 17.6885 12.7131 17.6885 13.7152C17.6885 14.8917 16.4685 15.567 15.7495 16.177C15.1178 16.7216 14.2899 17.6149 14.2899 19.4884C14.2899 20.6212 14.5948 20.948 15.4881 20.948C16.5556 20.948 16.7734 20.4688 16.7734 20.0549C16.7734 18.922 16.7953 18.2684 17.9935 17.3317C18.5817 16.8742 20.4335 15.3927 20.4335 13.3449C20.4335 11.297 18.5817 9.75018 15.7931 9.75018Z" fill="#32454D"/>
<path d="M0 17C0 25.8427 7.15606 33 16 33L30.75 33C31.4404 33 32 32.4404 32 31.75L32 17C32 8.15731 24.8439 1 16 1C7.15725 1 0 8.15606 0 17ZM29.5 17L29.5 30.5L16 30.5C8.53894 30.5 2.5 24.4621 2.5 17C2.5 9.53894 8.53794 3.5 16 3.5C23.4611 3.5 29.5 9.53794 29.5 17Z" fill="#32454D"/>
<path d="M51.1445 27.3281C55.6836 27.3281 58.7734 24.9355 59.5254 20.8613H56.4766C55.8613 23.2402 53.9062 24.6484 51.1582 24.6484C47.5352 24.6484 45.2383 21.7363 45.2383 17.1289C45.2383 12.5625 47.5625 9.62305 51.1445 9.62305C53.8242 9.62305 55.9297 11.2773 56.4766 13.8066H59.5117C58.9922 9.69141 55.6152 6.94336 51.1445 6.94336C45.6348 6.94336 42.1074 10.8809 42.1074 17.1289C42.1074 23.418 45.6074 27.3281 51.1445 27.3281ZM68.5213 27.2734C72.6366 27.2734 75.3436 24.4434 75.3436 19.8086C75.3436 15.1875 72.6229 12.3574 68.5213 12.3574C64.4198 12.3574 61.6991 15.1875 61.6991 19.8086C61.6991 24.4434 64.4061 27.2734 68.5213 27.2734ZM68.5213 24.8398C66.2108 24.8398 64.7069 23.0078 64.7069 19.8086C64.7069 16.623 66.2108 14.791 68.5213 14.791C70.8319 14.791 72.3358 16.623 72.3358 19.8086C72.3358 23.0078 70.8455 24.8398 68.5213 24.8398ZM78.0368 27H80.9899V18.1133C80.9899 16.2676 82.2341 14.9004 83.9841 14.9004C85.652 14.9004 86.7048 15.9531 86.7048 17.6074V27H89.6032V18.0176C89.6032 16.1992 90.82 14.9004 92.57 14.9004C94.32 14.9004 95.318 15.9668 95.318 17.8262V27H98.2848V17.1152C98.2848 14.2578 96.4255 12.3711 93.5817 12.3711C91.5309 12.3711 89.8356 13.4375 89.0973 15.1875H89.029C88.4548 13.3965 87.0055 12.3711 85.0095 12.3711C83.068 12.3711 81.5641 13.4375 80.9216 15.0371H80.8532V12.6172H78.0368V27ZM109.044 12.3848C106.966 12.3848 105.312 13.4375 104.464 15.0918H104.41V12.6172H101.552V31.7578H104.505V24.6348H104.574C105.394 26.2344 107.035 27.2461 109.099 27.2461C112.709 27.2461 115.101 24.3613 115.101 19.8086C115.101 15.2559 112.695 12.3848 109.044 12.3848ZM108.265 24.7441C105.996 24.7441 104.492 22.8027 104.492 19.8086C104.492 16.8418 106.009 14.873 108.265 14.873C110.603 14.873 112.066 16.8008 112.066 19.8086C112.066 22.8301 110.603 24.7441 108.265 24.7441ZM122.826 24.9082C121.24 24.9082 120.201 24.0879 120.201 22.8301C120.201 21.5996 121.199 20.8203 122.962 20.6973L126.503 20.4785V21.6133C126.503 23.4863 124.89 24.9082 122.826 24.9082ZM122.005 27.2461C123.892 27.2461 125.71 26.2344 126.544 24.6348H126.613V27H129.443V17.0879C129.443 14.2031 127.214 12.3574 123.728 12.3574C120.173 12.3574 117.958 14.2715 117.794 16.8691H120.583C120.843 15.584 121.91 14.7637 123.619 14.7637C125.423 14.7637 126.503 15.7207 126.503 17.3203V18.4277L122.566 18.6602C119.148 18.8516 117.22 20.3965 117.22 22.9121C117.22 25.4961 119.189 27.2461 122.005 27.2461ZM132.724 27H135.677V18.6191C135.677 16.3906 137.017 14.9141 139.095 14.9141C141.146 14.9141 142.157 16.1035 142.157 18.2637V27H145.124V17.6895C145.124 14.3945 143.306 12.3711 140.134 12.3711C137.919 12.3711 136.388 13.3828 135.609 15.0234H135.54V12.6172H132.724V27ZM149.814 32.3594C152.808 32.3594 154.216 31.2383 155.446 27.752L160.847 12.6172H157.73L154.079 24.3203H154.038L150.388 12.6172H147.189L152.384 27.0137C152.384 27.0273 152.124 27.875 152.124 27.9023C151.673 29.3789 150.948 29.9531 149.567 29.9531C149.321 29.9531 148.829 29.9531 148.61 29.8984V32.291C148.829 32.332 149.581 32.3594 149.814 32.3594ZM166.329 27V12.4668H166.452L176.679 27H179.44V7.27148H176.46V21.8184H176.35L166.124 7.27148H163.349V27H166.329ZM187.794 24.9082C186.208 24.9082 185.169 24.0879 185.169 22.8301C185.169 21.5996 186.167 20.8203 187.93 20.6973L191.471 20.4785V21.6133C191.471 23.4863 189.858 24.9082 187.794 24.9082ZM186.973 27.2461C188.86 27.2461 190.678 26.2344 191.512 24.6348H191.581V27H194.411V17.0879C194.411 14.2031 192.182 12.3574 188.696 12.3574C185.141 12.3574 182.926 14.2715 182.762 16.8691H185.551C185.811 15.584 186.878 14.7637 188.587 14.7637C190.391 14.7637 191.471 15.7207 191.471 17.3203V18.4277L187.534 18.6602C184.116 18.8516 182.188 20.3965 182.188 22.9121C182.188 25.4961 184.157 27.2461 186.973 27.2461ZM197.692 27H200.645V18.1133C200.645 16.2676 201.889 14.9004 203.639 14.9004C205.307 14.9004 206.36 15.9531 206.36 17.6074V27H209.258V18.0176C209.258 16.1992 210.475 14.9004 212.225 14.9004C213.975 14.9004 214.973 15.9668 214.973 17.8262V27H217.94V17.1152C217.94 14.2578 216.081 12.3711 213.237 12.3711C211.186 12.3711 209.491 13.4375 208.753 15.1875H208.684C208.11 13.3965 206.661 12.3711 204.665 12.3711C202.723 12.3711 201.219 13.4375 200.577 15.0371H200.508V12.6172H197.692V27ZM227.223 14.7363C229.288 14.7363 230.682 16.2812 230.75 18.4824H223.559C223.709 16.3086 225.159 14.7363 227.223 14.7363ZM230.737 22.7754C230.34 24.0332 229.096 24.8809 227.414 24.8809C225.049 24.8809 223.545 23.2266 223.545 20.7246V20.5469H233.704V19.5352C233.704 15.1738 231.215 12.3574 227.223 12.3574C223.163 12.3574 220.565 15.3652 220.565 19.877C220.565 24.416 223.121 27.2734 227.346 27.2734C230.641 27.2734 233.129 25.4004 233.539 22.7754H230.737Z" fill="#32454D"/>
</svg>
