<svg width="138" height="34" viewBox="0 0 138 34" fill="none" xmlns="http://www.w3.org/2000/svg">
<path d="M44.9153 22.6224V0.396729H50.0786V18.4418H61.1164V22.6224H44.9416H44.9153Z" fill="white"/>
<path d="M74.3671 23.0194C72.6285 23.0194 70.9952 22.7283 69.52 22.1727C68.0448 21.5906 66.7539 20.7968 65.6739 19.7649C64.5938 18.733 63.7245 17.5159 63.1186 16.1136C62.5127 14.7112 62.2229 13.2031 62.2229 11.5361C62.2229 9.86921 62.5127 8.33458 63.1186 6.95871C63.7245 5.58284 64.5674 4.36572 65.6739 3.33381C66.7803 2.30191 68.0448 1.48168 69.52 0.926037C70.9952 0.343937 72.6021 0.0793457 74.3408 0.0793457C76.0794 0.0793457 77.6864 0.370396 79.1616 0.926037C80.6368 1.48168 81.9013 2.27545 83.0077 3.33381C84.1141 4.39218 84.9571 5.58284 85.563 6.98517C86.1689 8.3875 86.4587 9.92213 86.4587 11.5891C86.4587 13.256 86.1689 14.7641 85.563 16.1665C84.9571 17.5688 84.1141 18.7859 83.0077 19.8443C81.9013 20.8762 80.6368 21.67 79.1616 22.2521C77.6864 22.8077 76.1058 23.0988 74.3671 23.0988V23.0194ZM74.3408 18.6536C75.3418 18.6536 76.2375 18.4684 77.0805 18.1244C77.9235 17.7805 78.6347 17.2778 79.267 16.6427C79.8992 16.0077 80.3997 15.2404 80.7422 14.3937C81.0847 13.547 81.2691 12.568 81.2691 11.5097C81.2691 10.4513 81.0847 9.49878 80.7422 8.62563C80.3997 7.77894 79.8992 7.01163 79.267 6.37661C78.6347 5.74159 77.8971 5.23887 77.0805 4.8949C76.2375 4.55093 75.3418 4.36572 74.3408 4.36572C73.3397 4.36572 72.4441 4.55093 71.6011 4.8949C70.7581 5.23887 70.0205 5.74159 69.4146 6.37661C68.7824 7.01163 68.3082 7.77894 67.9657 8.62563C67.6233 9.47232 67.4389 10.4513 67.4389 11.5097C67.4389 12.568 67.6233 13.5206 67.9657 14.3937C68.3082 15.2404 68.8087 16.0077 69.4146 16.6427C70.0468 17.2778 70.7581 17.7805 71.6011 18.1244C72.4441 18.4684 73.3661 18.6536 74.3408 18.6536Z" fill="white"/>
<path d="M101 23.0194C99.2614 23.0194 97.6281 22.7284 96.1529 22.1727C94.6776 21.6171 93.4132 20.8233 92.3331 19.7649C91.253 18.733 90.41 17.5159 89.8305 16.1136C89.2509 14.7113 88.9348 13.1766 88.9348 11.5097C88.9348 9.84278 89.2246 8.30816 89.8305 6.90582C90.4364 5.50349 91.2794 4.28637 92.3858 3.25447C93.4922 2.22256 94.7567 1.42879 96.2319 0.846691C97.7071 0.29105 99.3404 0 101.105 0C103.055 0 104.82 0.317509 106.4 0.978987C107.981 1.64046 109.298 2.59299 110.378 3.83657L107.112 6.87936C106.295 6.00621 105.399 5.3712 104.451 4.94785C103.503 4.52451 102.449 4.33929 101.316 4.33929C100.262 4.33929 99.2877 4.52451 98.4184 4.86847C97.5227 5.21244 96.7588 5.71516 96.1265 6.35018C95.4943 6.9852 94.9938 7.72606 94.6513 8.59921C94.3088 9.47236 94.1244 10.4249 94.1244 11.4832C94.1244 12.5416 94.3088 13.4412 94.6513 14.3144C94.9938 15.1875 95.4943 15.9548 96.1265 16.5899C96.7588 17.2249 97.5227 17.7276 98.392 18.0716C99.2614 18.442 100.236 18.6007 101.29 18.6007C102.344 18.6007 103.292 18.442 104.24 18.098C105.189 17.7541 106.137 17.1984 107.033 16.4046L109.93 20.1089C108.719 21.035 107.296 21.7494 105.715 22.2256C104.135 22.7019 102.554 22.94 100.974 22.94L101 23.0194ZM109.93 20.1883L105.241 19.5004V11.1922H109.93V20.2148V20.1883Z" fill="white"/>
<path d="M125.42 23.0194C123.681 23.0194 122.048 22.7283 120.573 22.1727C119.098 21.5906 117.807 20.7968 116.727 19.7649C115.647 18.733 114.777 17.5159 114.172 16.1136C113.566 14.7112 113.276 13.2031 113.276 11.5361C113.276 9.86921 113.566 8.33458 114.172 6.95871C114.777 5.58284 115.62 4.36572 116.727 3.33381C117.833 2.30191 119.098 1.48168 120.573 0.926037C122.048 0.343937 123.655 0.0793457 125.394 0.0793457C127.132 0.0793457 128.739 0.370396 130.215 0.926037C131.69 1.48168 132.954 2.27545 134.061 3.33381C135.167 4.39218 136.01 5.58284 136.616 6.98517C137.222 8.3875 137.512 9.92213 137.512 11.5891C137.512 13.256 137.222 14.7641 136.616 16.1665C136.01 17.5688 135.167 18.7859 134.061 19.8443C132.954 20.8762 131.69 21.67 130.215 22.2521C128.739 22.8077 127.159 23.0988 125.42 23.0988V23.0194ZM125.394 18.6536C126.395 18.6536 127.29 18.4684 128.133 18.1245C128.976 17.7805 129.688 17.2778 130.32 16.6427C130.952 16.0077 131.453 15.2404 131.795 14.3937C132.138 13.547 132.322 12.568 132.322 11.5097C132.322 10.4513 132.138 9.49878 131.795 8.62563C131.453 7.77894 130.952 7.01163 130.32 6.37661C129.688 5.74159 128.95 5.23887 128.133 4.8949C127.29 4.55093 126.395 4.36572 125.394 4.36572C124.393 4.36572 123.497 4.55093 122.654 4.8949C121.811 5.23887 121.073 5.74159 120.468 6.37661C119.835 7.01163 119.361 7.77894 119.019 8.62563C118.676 9.47233 118.492 10.4513 118.492 11.5097C118.492 12.568 118.676 13.5206 119.019 14.3937C119.361 15.2404 119.862 16.0077 120.468 16.6427C121.1 17.2778 121.811 17.7805 122.654 18.1245C123.497 18.4684 124.419 18.6536 125.394 18.6536Z" fill="white"/>
<path d="M47.7339 34C47.2334 34 46.7592 33.9207 46.3377 33.7619C45.9162 33.6031 45.5474 33.365 45.2313 33.0475C44.9151 32.73 44.6781 32.386 44.4937 31.9627C44.3093 31.5393 44.2302 31.0895 44.2302 30.5868C44.2302 30.0841 44.3093 29.6343 44.4937 29.2109C44.6781 28.7876 44.9151 28.4436 45.2313 28.1261C45.5474 27.8086 45.9162 27.5705 46.364 27.4117C46.7855 27.253 47.2597 27.1736 47.7602 27.1736C48.3134 27.1736 48.7876 27.2794 49.2354 27.4646C49.6833 27.6498 50.0521 27.9144 50.3682 28.2849L49.5779 29.0257C49.3408 28.7611 49.051 28.5759 48.7613 28.4436C48.4715 28.3113 48.1554 28.2584 47.8129 28.2584C47.4704 28.2584 47.1543 28.3113 46.8645 28.4172C46.5748 28.523 46.3377 28.6818 46.1269 28.8934C45.9162 29.1051 45.7581 29.3432 45.6264 29.6343C45.4947 29.9253 45.442 30.2428 45.442 30.5603C45.442 30.8779 45.4947 31.2218 45.6264 31.4864C45.7581 31.751 45.9162 32.0156 46.1269 32.2273C46.3377 32.4389 46.5748 32.5977 46.8645 32.7035C47.1543 32.8094 47.4704 32.8623 47.8129 32.8623C48.1554 32.8623 48.4715 32.8094 48.7613 32.6771C49.051 32.5448 49.3145 32.3596 49.5779 32.095L50.3682 32.8358C50.0521 33.2063 49.6833 33.4708 49.2354 33.6561C48.7876 33.8413 48.2871 33.9471 47.7339 33.9471V34Z" fill="white"/>
<path d="M55.1892 34C54.6886 34 54.2144 33.9207 53.7666 33.7354C53.3188 33.5767 52.95 33.3121 52.6339 33.021C52.3177 32.7035 52.0543 32.3596 51.8962 31.9362C51.7382 31.5129 51.6328 31.0631 51.6328 30.5868C51.6328 30.1105 51.7118 29.6343 51.8962 29.2374C52.0806 28.8405 52.3177 28.4701 52.6339 28.1526C52.95 27.8351 53.3451 27.5969 53.7666 27.4382C54.1881 27.2794 54.6886 27.1736 55.1892 27.1736C55.6897 27.1736 56.1638 27.253 56.6117 27.4117C57.0332 27.5705 57.4283 27.8086 57.7444 28.1261C58.0606 28.4436 58.2977 28.7876 58.4821 29.2109C58.6665 29.6343 58.7455 30.0841 58.7455 30.5868C58.7455 31.0895 58.6665 31.5393 58.4821 31.9362C58.2977 32.3596 58.0606 32.7035 57.7444 33.021C57.4283 33.3386 57.0595 33.5767 56.6117 33.7354C56.1902 33.8942 55.716 33.9736 55.1892 33.9736V34ZM55.1892 32.9152C55.5316 32.9152 55.8214 32.8623 56.1112 32.7565C56.4009 32.6506 56.638 32.4919 56.8488 32.2802C57.0595 32.0685 57.2176 31.8304 57.323 31.5393C57.4283 31.2483 57.5074 30.9308 57.5074 30.6133C57.5074 30.2958 57.4547 29.9518 57.3493 29.6872C57.2439 29.4226 57.0859 29.158 56.8751 28.9463C56.6644 28.7347 56.4273 28.5759 56.1375 28.4701C55.8477 28.3642 55.558 28.3113 55.2155 28.3113C54.873 28.3113 54.5833 28.3642 54.2935 28.4701C54.0037 28.5759 53.7666 28.7347 53.5559 28.9463C53.3451 29.158 53.1871 29.3961 53.0553 29.6872C52.9236 29.9782 52.8709 30.2693 52.8709 30.6133C52.8709 30.9572 52.9236 31.2483 53.0553 31.5393C53.1871 31.8304 53.3451 32.0685 53.5559 32.2802C53.7666 32.4919 54.0037 32.6506 54.2935 32.7565C54.5833 32.8623 54.8994 32.9152 55.2155 32.9152H55.1892Z" fill="white"/>
<path d="M60.9846 33.8942V27.2529H61.9857L64.8834 32.0949H64.3566L67.2016 27.2529H68.2027V33.8942H67.0436V29.0786H67.2807L64.8834 33.1269H64.3302L61.8803 29.0786H62.1701V33.8942H61.011H60.9846Z" fill="white"/>
<path d="M70.9424 33.8942V27.2529H73.6557C74.2353 27.2529 74.7358 27.3588 75.1573 27.544C75.5788 27.7292 75.8949 27.9938 76.132 28.3642C76.3691 28.7346 76.4744 29.1315 76.4744 29.6342C76.4744 30.137 76.3691 30.5339 76.132 30.8778C75.8949 31.2218 75.5788 31.4864 75.1573 31.6981C74.7358 31.8833 74.2353 31.9891 73.6557 31.9891H71.6273L72.1541 31.4335V33.9206H70.916L70.9424 33.8942ZM72.1541 31.5393L71.6273 30.9307H73.603C74.1562 30.9307 74.5514 30.8249 74.8148 30.5868C75.0782 30.3486 75.2363 30.0311 75.2363 29.6078C75.2363 29.1844 75.1046 28.8669 74.8148 28.6288C74.5514 28.3907 74.1299 28.2848 73.603 28.2848H71.6273L72.1541 27.6763V31.5128V31.5393Z" fill="white"/>
<path d="M77.3701 33.8942L80.3469 27.2529H81.5587L84.5355 33.8942H83.2447L80.6894 27.9144H81.1899L78.6346 33.8942H77.3701ZM78.74 32.3595L79.0824 31.3805H82.6388L82.9549 32.3595H78.74Z" fill="white"/>
<path d="M86.3003 33.8942V27.2529H87.3013L91.4372 32.3595H90.9367V27.2529H92.1485V33.8942H91.1474L87.0116 28.7876H87.5121V33.8942H86.3003Z" fill="white"/>
<path d="M96.3897 33.8942V31.2747L96.6795 32.0156L93.8081 27.2529H95.0989L97.4171 31.0895H96.6795L98.9977 27.2529H100.21L97.3381 32.0156L97.6015 31.2747V33.8942H96.3897Z" fill="white"/>
<path d="M105.505 33.8942V27.2529H106.506L110.642 32.3595H110.141V27.2529H111.353V33.8942H110.352L106.216 28.7876H106.716V33.8942H105.505Z" fill="white"/>
<path d="M113.144 33.8942L116.121 27.2529H117.333L120.309 33.8942H119.019L116.463 27.9144H116.964L114.409 33.8942H113.144ZM114.514 32.3595L114.856 31.3805H118.413L118.729 32.3595H114.514Z" fill="white"/>
<path d="M122.101 33.8942V27.2529H123.102L126 32.0949H125.473L128.318 27.2529H129.319V33.8942H128.16V29.0786H128.397L126 33.1269H125.446L122.997 29.0786H123.286V33.8942H122.127H122.101Z" fill="white"/>
<path d="M132.059 33.8942V27.2529H136.879V28.2848H133.297V32.8358H137.037V33.8677H132.085L132.059 33.8942ZM133.191 31.0366V30.0311H136.484V31.0366H133.191Z" fill="white"/>
<path d="M16.1485 22.3845C15.2792 22.3845 14.5942 23.0989 14.5942 23.9456C14.5942 24.7923 15.2792 25.5067 16.1485 25.5067C17.0178 25.5067 17.7291 24.7658 17.7291 23.9456C17.7291 23.1254 17.0178 22.3845 16.1485 22.3845Z" fill="white"/>
<path d="M16.5171 9.81641C13.7774 9.81641 12.5129 11.6156 12.5129 12.8063C12.5129 13.6794 13.1715 14.0763 13.7247 14.0763C14.8311 14.0763 14.3833 12.3565 16.4381 12.3565C17.4655 12.3565 18.2558 12.8592 18.2558 13.8911C18.2558 15.1082 17.123 15.7962 16.4381 16.4312C15.8585 16.9868 15.0682 17.9129 15.0682 19.8444C15.0682 21.0086 15.358 21.3526 16.1746 21.3526C17.1757 21.3526 17.3864 20.8499 17.3864 20.4265C17.3864 19.2623 17.3864 18.6008 18.5192 17.6218C19.0724 17.1456 20.7847 15.6374 20.7847 13.5207C20.7847 11.404 19.0461 9.81641 16.4644 9.81641H16.5171Z" fill="white"/>
<path d="M0 17.1455C0 26.4062 7.45514 33.8941 16.6753 33.8941H32.0334C32.7446 33.8941 33.3242 33.312 33.3242 32.5976V17.1719C33.3505 7.91126 25.8954 0.42334 16.6753 0.42334C7.45514 0.42334 0 7.91126 0 17.1455ZM30.7426 17.1455V31.2746H16.6753C8.90401 31.2746 2.60798 24.9509 2.60798 17.1455C2.60798 9.34005 8.90401 3.01633 16.6753 3.01633C24.4465 3.01633 30.7426 9.34005 30.7426 17.1455Z" fill="white"/>
</svg>
