<?xml version="1.0" encoding="UTF-8"?>
<svg id="_Слой_1" data-name="Слой 1" xmlns="http://www.w3.org/2000/svg" height="100" viewBox="0 0 300 150">
  <defs>
    <style>
      .cls-1 {
        fill: #2a7dbc;
      }
    </style>
  </defs>
  <g>
    <path class="cls-1" d="M146.55,54.19v48.97h119.34v-48.97h-119.34ZM261.31,98.58h-110.18v-39.81h110.18v39.81Z"/>
    <circle class="cls-1" cx="171.79" cy="78.68" r="7.38"/>
    <circle class="cls-1" cx="194.74" cy="78.68" r="7.38"/>
    <path class="cls-1" d="M217.69,86.06c4.08,0,7.38-3.3,7.38-7.38s-3.3-7.38-7.38-7.38-7.38,3.3-7.38,7.38,3.3,7.38,7.38,7.38Z"/>
    <path class="cls-1" d="M240.64,86.06c4.08,0,7.38-3.3,7.38-7.38s-3.3-7.38-7.38-7.38-7.38,3.3-7.38,7.38,3.3,7.38,7.38,7.38Z"/>
  </g>
  <g>
    <g>
      <path class="cls-1" d="M57.16,64.31h4.15l3.38,5.48,3.38-5.48h4.15v14.16h-3.9v-8.13l-3.62,5.54h-.08l-3.6-5.5v8.09h-3.84v-14.16Z"/>
      <path class="cls-1" d="M75.34,72.26v-7.95h3.99v7.87c0,2.04,1.03,3.01,2.61,3.01s2.61-.93,2.61-2.91v-7.97h3.98v7.85c0,4.57-2.61,6.57-6.63,6.57s-6.56-2.04-6.56-6.47Z"/>
      <path class="cls-1" d="M91.67,64.31h3.92v10.72h6.86v3.44h-10.78v-14.16Z"/>
      <path class="cls-1" d="M106.38,67.75h-4.25v-3.44h12.42v3.44h-4.25v10.72h-3.92v-10.72Z"/>
      <path class="cls-1" d="M117.16,64.31h3.94v14.16h-3.94v-14.16Z"/>
    </g>
    <g>
      <path class="cls-1" d="M34.11,89h11.33v3.44h-7.4v2.41h6.7v3.26h-6.7v5.06h-3.92v-14.16Z"/>
      <path class="cls-1" d="M51.31,88.9h3.78l6.03,14.26h-4.21l-1.03-2.53h-5.46l-1.01,2.53h-4.13l6.03-14.26ZM54.75,97.58l-1.58-4.03-1.6,4.03h3.18Z"/>
      <path class="cls-1" d="M61.91,96.08c0-4.13,3.18-7.36,7.46-7.36,2.89,0,4.69,1.25,5.95,2.99l-2.87,2.22c-.81-1.01-1.76-1.64-3.11-1.64-1.98,0-3.38,1.68-3.38,3.78s1.4,3.78,3.38,3.78c1.48,0,2.35-.69,3.2-1.72l2.95,2.1c-1.33,1.84-3.14,3.2-6.27,3.2-4.05,0-7.3-3.09-7.3-7.36Z"/>
      <path class="cls-1" d="M81.44,92.44h-4.25v-3.44h12.42v3.44h-4.25v10.72h-3.92v-10.72Z"/>
      <path class="cls-1" d="M91.05,96.08c0-4.07,3.28-7.36,7.65-7.36s7.61,3.26,7.61,7.36-3.28,7.36-7.65,7.36-7.61-3.26-7.61-7.36ZM102.29,96.08c0-2.04-1.48-3.82-3.64-3.82s-3.58,1.74-3.58,3.82,1.48,3.82,3.62,3.82,3.6-1.74,3.6-3.82Z"/>
      <path class="cls-1" d="M109.15,89h6.69c2.16,0,3.66.57,4.61,1.52.83.83,1.25,1.92,1.25,3.36,0,2.16-1.15,3.6-2.91,4.35l3.38,4.94h-4.53l-2.85-4.29h-1.72v4.29h-3.92v-14.16ZM115.67,95.8c1.33,0,2.1-.65,2.1-1.72s-.81-1.68-2.12-1.68h-2.57v3.4h2.59Z"/>
    </g>
  </g>
</svg>