<svg width="48" height="48" viewBox="0 0 48 48" fill="none" xmlns="http://www.w3.org/2000/svg">
<rect width="48" height="48" rx="24" fill="#579AD7"/>
<path d="M21.5493 27.5155L30.1878 18.877C30.3364 18.7282 30.5104 18.6522 30.7098 18.649C30.9091 18.6459 31.0864 18.7219 31.2415 18.877C31.3967 19.0322 31.4743 19.2104 31.4743 19.4115C31.4743 19.6129 31.3967 19.7911 31.2415 19.9463L22.182 29.0213C22.0012 29.2019 21.7903 29.2923 21.5493 29.2923C21.3083 29.2923 21.0974 29.2019 20.9165 29.0213L16.7415 24.8463C16.5929 24.6974 16.5195 24.5208 16.5215 24.3163C16.5234 24.1119 16.6019 23.9322 16.757 23.777C16.9122 23.6219 17.0904 23.5443 17.2915 23.5443C17.4929 23.5443 17.6711 23.6219 17.8263 23.777L21.5493 27.5155Z" fill="white"/>
</svg>
